/* XPM */
static char *exit[] = {
/* columns rows colors chars-per-pixel */
"64 64 66 1 ",
"  c #EF505F",
". c #EF5261",
"X c #EF5463",
"o c #EF5564",
"O c #F05867",
"+ c #F16472",
"@ c #EF7782",
"# c #EF7883",
"$ c #BF93AF",
"% c #B294B6",
"& c #BA94B3",
"* c #EF8791",
"= c #EF8F98",
"- c #F08D96",
"; c #F59398",
": c #F6969F",
"> c #C797B0",
", c #C298B3",
"< c #C99FB6",
"1 c #D39DB0",
"2 c #EF98A1",
"3 c #EFA4AB",
"4 c #F7ADB4",
"5 c #E0B1B9",
"6 c #F8D58A",
"7 c #F9DA94",
"8 c #F9DC9D",
"9 c #FBE8BF",
"0 c #81BDEF",
"q c #E1BFC5",
"w c #E8BDC4",
"e c #E9BFC4",
"r c #F9B9C0",
"t c #F9BFC5",
"y c #9CD3DB",
"u c #8CC2EF",
"i c #9FCBEF",
"p c #B5DDE2",
"a c #B5DEE4",
"s c #CBD0D6",
"d c #E2C3C9",
"f c #EFC8CB",
"g c #F9C3C9",
"h c #FAC8CD",
"j c #F4CCD0",
"k c #EDD1D3",
"l c #EDD2D4",
"z c #EED5D6",
"x c #FCECC8",
"c c #CCDBE0",
"v c #CCDFE4",
"b c #CDE7EB",
"n c #CEE9EB",
"m c #CCE8EC",
"M c #EFE8E7",
"N c #EEECEB",
"B c #EEEDED",
"V c #F7E5E6",
"C c #F7E8E8",
"Z c #EEF0EF",
"A c #EEF1EF",
"S c #E1EFF0",
"D c #F1F1F1",
"F c #F1F2F1",
"G c #F2F3F2",
"H c #F5F6F5",
/* pixels */
"yyyyyyyyyyyyyyyyyyyyyyyyyyyyyyyyyyyyyyyyyyyyyyyyyyyyyyyyyyyyyyyy",
"yyyyyyyyyyyyyyyyyyyyyyyyyyyyyyyyyyyyyyyyyyyyyyyyyyyyyyyyyyyyyyyy",
"yyyyyyyyyyyyyyyyyyyyyyyyyyyyyyyyyyyyyyyyyyyyyyyyyyyyyyyyyyyyyyyy",
"yyyyyyyyyyyyyyyyyyyyyyyyyyyyyyyyyyyyyyyyyyyyyyyyyyyyyyyyyyyyyyyy",
"yyyyyyyyyyyyyyyyyyyyyyyyyyyyyyyyyyyyyyyyyyyyyyyyyyyyyyyyyyyyyyyy",
"yyyyyyyyyyyyyyyyyyyyyyyyyyyyyyyyyyyyyyyyyyyyyyyyyyyyyyyyyyyyyyyy",
"yyyyyyyyyyyyyyyyyyyyyyyyyyyyyyyyyyyyyyyyyyyyyyyyyyyyyyyyyyyyyyyy",
"yyyyyyyyyyyyyyyyyyyyyyyyyyyyyyyyyyyyyyyyyyyyyyyyyyyyyyyyyyyyyyyy",
"yyyyyyyyyyyyyyyyyyyyyyyyyyyyyyaaaayyyyyyyyyyyyyyyyyyyyyyyyyyyyyy",
"yyyyyyyyyyyyyyyyyyyyyyyyyyyyyyaaaayyyyyyyyyyyyyyyyyyyyyyyyyyyyyy",
"yyyyyyyyyyyyyyyyyyyyyyyyyyyyyy4444yyyyyyyyyyyyyyyyyyyyyyyyyyyyyy",
"yyyyyyyyyyyyyyyyyyyyyyyyyyyyyy4444yyyyyyyyyyyyyyyyyyyyyyyyyyyyyy",
"yyyyyyyyyyyyyyyyyyyyyyyyyyyyddooooddyyyyyyyyyyyyyyyyyyyyyyyyyyyy",
"yyyyyyyyyyyyyyyyyyyyyyyyyyyyddooooddyyyyyyyyyyyyyyyyyyyyyyyyyyyy",
"yyyyyyyyyyyyyyyyyyyyyyyyyycc++OOoo++ssyyyyyyyyyyyyyyyyyyyyyyyyyy",
"yyyyyyyyyyyyyyyyyyyyyyyyyycc++OOoo++ssyyyyyyyyyyyyyyyyyyyyyyyyyy",
"yyyyyyyyyyyyyyyyyyyyyyyyyyVV==++##22CCyyyyyyyyyyyyyyyyyyyyyyyyyy",
"yyyyyyyyyyyyyyyyyyyyyyyyyyVV==++##22CCyyyyyyyyyyyyyyyyyyyyyyyyyy",
"yyyyyyyyyyyyyyyyyyyyyyyynnZGZZZZZZZZAAmmyyyyyyyyyyyyyyyyyyyyyyyy",
"yyyyyyyyyyyyyyyyyyyyyyyynnZZZZZZZZZZAAmmyyyyyyyyyyyyyyyyyyyyyyyy",
"yyyyyyyyyyyyyyyyyyyyyyyySSBNDZZGZZZZAASSyyyyyyyyyyyyyyyyyyyyyyyy",
"yyyyyyyyyyyyyyyyyyyyyyyySSBNDGZGZZZZAASSyyyyyyyyyyyyyyyyyyyyyyyy",
"yyyyyyyyyyyyyyyyyyyyyyyyHHZZjl>>>>llAAHHyyyyyyyyyyyyyyyyyyyyyyyy",
"yyyyyyyyyyyyyyyyyyyyyyyyHHZZll>>>>llACHHyyyyyyyyyyyyyyyyyyyyyyyy",
"yyyyyyyyyyyyyyyyyyyyyyyyGGBB11uu00$$BBZZyyyyyyyyyyyyyyyyyyyyyyyy",
"yyyyyyyyyyyyyyyyyyyyyyyyGGBB11uu00,&BBGGyyyyyyyyyyyyyyyyyyyyyyyy",
"yyyyyyyyyyyyyyyyyyyyyyyyGGNN&&iiuu,,BZZGyyyyyyyyyyyyyyyyyyyyyyyy",
"yyyyyyyyyyyyyyyyyyyyyyyyGGNN&&iiuu,,BCDGyyyyyyyyyyyyyyyyyyyyyyyy",
"yyyyyyyyyyyyyyyyyyyyyyyyGGZZww%%<<dwZZGGyyyyyyyyyyyyyyyyyyyyyyyy",
"yyyyyyyyyyyyyyyyyyyyyyyyGGZZww%%<<ewZZGGyyyyyyyyyyyyyyyyyyyyyyyy",
"yyyyyyyyyyyyyyyyyyyyaa55ffBBZZMMCMZZBBff44ppyyyyyyyyyyyyyyyyyyyy",
"yyyyyyyyyyyyyyyyyyyyaa55ffBBZZMMMMZZBBff44ppyyyyyyyyyyyyyyyyyyyy",
"yyyyyyyyyyyyyyyyyyyyhh..33ZABAAABZZZZZ33X ggyyyyyyyyyyyyyyyyyyyy",
"yyyyyyyyyyyyyyyyyyyyhh..33ZAAAAAZZZZZZ33 Xgryyyyyyyyyyyyyyyyyyyy",
"yyyyyyyyyyyyyyyyyyyy44  ##AABBBBBBZZBB#@XXgryyyyyyyyyyyyyyyyyyyy",
"yyyyyyyyyyyyyyyyyyyy44  ##AABBBBBBZZBB@@XXrgyyyyyyyyyyyyyyyyyyyy",
"yyyyyyyyyyyyyyyyyyyyrr..oozzBBAAZZZZzzXX X44yyyyyyyyyyyyyyyyyyyy",
"yyyyyyyyyyyyyyyyyyyyrr..oozzBBABZZZZzzXXX 44yyyyyyyyyyyyyyyyyyyy",
"yyyyyyyyyyyyyyyyyyyyrr..OOjjBAAAZZZZjjXo Xrryyyyyyyyyyyyyyyyyyyy",
"yyyyyyyyyyyyyyyyyyyyrr..OOjjAAAAZZZZjjooXXrryyyyyyyyyyyyyyyyyyyy",
"yyyyyyyyyyyyyyyyyyyyttOOqqcb--****==ccddoorryyyyyyyyyyyyyyyyyyyy",
"yyyyyyyyyyyyyyyyyyyyttOOqdbs--****==ccddoorryyyyyyyyyyyyyyyyyyyy",
"yyyyyyyyyyyyyyyyyyyyhhddyyss=;::::;;ssyyddggyyyyyyyyyyyyyyyyyyyy",
"yyyyyyyyyyyyyyyyyyyyhhddyyss;;::::;;ssyyddggyyyyyyyyyyyyyyyyyyyy",
"yyyyyyyyyyyyyyyyyyyymbyyyynn77nnnn77nnyyyymmyyyyyyyyyyyyyyyyyyyy",
"yyyyyyyyyyyyyyyyyyyymbyyyynn77nnnn77nnyyyymmyyyyyyyyyyyyyyyyyyyy",
"yyyyyyyyyyyyyyyyyyyyyyyyyynn66xxxx66nnyyyyyyyyyyyyyyyyyyyyyyyyyy",
"yyyyyyyyyyyyyyyyyyyyyyyyyynn66xxxx66nnyyyyyyyyyyyyyyyyyyyyyyyyyy",
"yyyyyyyyyyyyyyyyyyyyyyyyyynn66999966bbyyyyyyyyyyyyyyyyyyyyyyyyyy",
"yyyyyyyyyyyyyyyyyyyyyyyyyynn66999966nbyyyyyyyyyyyyyyyyyyyyyyyyyy",
"yyyyyyyyyyyyyyyyyyyyyyyyyynn88999988nnyyyyyyyyyyyyyyyyyyyyyyyyyy",
"yyyyyyyyyyyyyyyyyyyyyyyyyynn88999988nnyyyyyyyyyyyyyyyyyyyyyyyyyy",
"yyyyyyyyyyyyyyyyyyyyyyyyyyyynmxxxxbnyyyyyyyyyyyyyyyyyyyyyyyyyyyy",
"yyyyyyyyyyyyyyyyyyyyyyyyyyyymmxxxxnnyyyyyyyyyyyyyyyyyyyyyyyyyyyy",
"yyyyyyyyyyyyyyyyyyyyyyyyyyyyyyppppyyyyyyyyyyyyyyyyyyyyyyyyyyyyyy",
"yyyyyyyyyyyyyyyyyyyyyyyyyyyyyyppppyyyyyyyyyyyyyyyyyyyyyyyyyyyyyy",
"yyyyyyyyyyyyyyyyyyyyyyyyyyyyyyyyyyyyyyyyyyyyyyyyyyyyyyyyyyyyyyyy",
"yyyyyyyyyyyyyyyyyyyyyyyyyyyyyyyyyyyyyyyyyyyyyyyyyyyyyyyyyyyyyyyy",
"yyyyyyyyyyyyyyyyyyyyyyyyyyyyyyyyyyyyyyyyyyyyyyyyyyyyyyyyyyyyyyyy",
"yyyyyyyyyyyyyyyyyyyyyyyyyyyyyyyyyyyyyyyyyyyyyyyyyyyyyyyyyyyyyyyy",
"yyyyyyyyyyyyyyyyyyyyyyyyyyyyyyyyyyyyyyyyyyyyyyyyyyyyyyyyyyyyyyyy",
"yyyyyyyyyyyyyyyyyyyyyyyyyyyyyyyyyyyyyyyyyyyyyyyyyyyyyyyyyyyyyyyy",
"yyyyyyyyyyyyyyyyyyyyyyyyyyyyyyyyyyyyyyyyyyyyyyyyyyyyyyyyyyyyyyyy",
"yyyyyyyyyyyyyyyyyyyyyyyyyyyyyyyyyyyyyyyyyyyyyyyyyyyyyyyyyyyyyyyy"
};
