/* XPM */
static char *fish[] = {
/* columns rows colors chars-per-pixel */
"64 64 104 2 ",
"   c #4B75B8",
".  c #5181BF",
"X  c #468ECD",
"o  c #498FCD",
"O  c #5386C3",
"+  c #4691CE",
"@  c #4990CD",
"#  c #4B91CE",
"$  c #5697CF",
"%  c #5C95CF",
"&  c #4A94D0",
"*  c #4F98D2",
"=  c #5797D0",
"-  c #559FD7",
";  c #5A9AD0",
":  c #5E9BD1",
">  c #639FD3",
",  c #59A2D8",
"<  c #59A4DA",
"1  c #5DA9DF",
"2  c #5FA8DE",
"3  c #6BA4D4",
"4  c #78ACD8",
"5  c #7BAED9",
"6  c #64B2E3",
"7  c #67B6E5",
"8  c #6FB5E1",
"9  c #69B6E6",
"0  c #6BBBE9",
"q  c #6DBCE8",
"w  c #6FBEEC",
"e  c #74BDE6",
"r  c #72C2EE",
"t  c #73C5EF",
"y  c #7ECAEE",
"u  c #76C7F2",
"i  c #76CAF4",
"p  c #77CBF4",
"a  c #77CCF4",
"s  c #77CCF5",
"d  c #79CBF3",
"f  c #7CCBF1",
"g  c #78CCF3",
"h  c #7DCCF3",
"j  c #7BCBF4",
"k  c #79CDF5",
"l  c #7BCFF6",
"z  c #85B4DC",
"x  c #88B7DB",
"c  c #8BB7DC",
"v  c #8DB8DD",
"b  c #8EBEDC",
"n  c #8AC0D9",
"m  c #9AC6DE",
"M  c #9AC9DC",
"N  c #9ECBDE",
"B  c #9ECCDE",
"V  c #9CD3DB",
"C  c #AAD7DF",
"Z  c #81CBEF",
"A  c #8FCBEA",
"S  c #8ECEEF",
"D  c #9BC3E3",
"F  c #9AC7E4",
"G  c #9CC4E4",
"H  c #98C9E3",
"J  c #96D5ED",
"K  c #97D6EE",
"L  c #9CD7EE",
"P  c #9ED9ED",
"I  c #86D0F3",
"U  c #85D2F5",
"Y  c #89D3F4",
"T  c #8FD5F4",
"R  c #93D4F3",
"E  c #9BD8F4",
"W  c #A7CDE3",
"Q  c #A8CBE5",
"!  c #A6D1E0",
"~  c #A6D2E1",
"^  c #AADAE2",
"/  c #ACD9E1",
"(  c #AADCE7",
")  c #A1D5EA",
"_  c #A3DAEE",
"`  c #A4DAEE",
"'  c #B3D9E3",
"]  c #B2DCE3",
"[  c #B2DDE3",
"{  c #B4DEE2",
"}  c #B6DBE4",
"|  c #B9DCE4",
" . c #BADFE7",
".. c #BAD4E8",
"X. c #B1DEE8",
"o. c #A7DCF5",
"O. c #B7DCF0",
"+. c #BEE3E8",
"@. c #BFE5EF",
"#. c #C0E1E6",
"$. c #C4E5E9",
"%. c #C9E7EB",
"&. c #CAE7EA",
"*. c #E4F3F0",
/* pixels */
"V V V V V V V V V V V V V V V V V V V V V V V V V V V V V V V V V V V V V V V V V V V V V V V V V V V V V V V V V V V V V V V V ",
"V V V V V V V V V V V V V V V V V V V V V V V V V V V V V V V V V V V V V V V V V V V V V V V V V V V V V V V V V V V V V V V V ",
"V V V V V V V V V V V V V V V V V V V V V V V V V V V V V V V V V V V V V V V V V V V V V V V V V V V V V V V V V V V V V V V V ",
"V V V V V V V V V V V V V V V V V V V V V V V V V V V V V V V V V V V V V V V V V V V V V V V V V V V V V V V V V V V V V V V V ",
"V V V V V V V V V V V V V V V V V V V V V V V V V V V V V V V V V V V V V V V V V V V V V V V V V V V V V V V V V V V V V V V V ",
"V V V V V V V V V V V V V V V V V V V V V V V V V V V V V V V V V V V V V V V V V V V V V V V V V V V V V V V V V V V V V V V V ",
"V V V V V V V V V V V V V V V V V V V V V V V V V V V V V V V V V V V V V V V V V V V V V V V V V V V V V V V V V V V V V V V V ",
"V V V V V V V V V V V V V V V V V V V V V V V V V V V V V V V V V V V V V V V V V V V V V V V V V V V V V V V V V V V V V V V V ",
"V V V V V V V V V V V V V V V V V V V V V V V V V V V V V V V V V V V V V V V V V V V V V V V V V V V V V V V V V V V V V V V V ",
"V V V V V V V V V V V V V V V V V V V V V V V V V V V V V V V V V V V V V V V V V V V V V V V V V V V V V V V V V V V V V V V V ",
"V V V V V V V V V V V V V V V V V V V V V V V V V V V V V V V V V V V V V V V V V V V V V V V V V V V V V V V V V V V V V V V V ",
"V V V V V V V V V V V V V V V V V V V V V V V V V V V V V V V V V V V V V V V V V V V V V V V V V V V V V V V V V V V V V V V V ",
"V V V V V V V V V V V V V V V V V V V V V V V V V V V V V V V V V V V V V V V V V V V V V V V V V V V V V V V V V V V V V V V V ",
"V V V V V V V V V V V V V V V V V V V V V V V V V V V V V V V V V V V V V V V V V V V V V V V V V V V V V V V V V V V V V V V V ",
"V V V V V V V V V V V V V V V V V V V V V V V V V V V V V V V V V V { ] V V V V V V V V V V V V V V V V V V V V V V V V V V V V ",
"V V V V V V V V V V V V V V V V V V V V V V V V V V V V V V V V V V { / V V V V V V V V V V V V V V V V V V V V V V V V V V V V ",
"V V V V V V V V V V V V V V V V V V V V V V V V V V V V ....D D m H H H $.$.V V V V V V V V V V V V V V V V V V V V V V V V V V ",
"V V V V V V V V V V V V V V V V V V V V V V V V V V V V ....D D m M H H $.$.V V V V V V V V V V V V V V V V V V V V V V V V V V ",
"V V V V V V V V V V V V V V V V V V V V V V V V V V ] { = $ + o X X + + # & x x ' ' { { V V V V V V V V V V V V V V V V V V V V ",
"V V V V V V V V V V V V V V V V V V V V V V V V V V ] { $ $ o o X X + + & & x x ' ' { { V V V V V V V V V V V V V V V V V V V V ",
"V V V V { { %.%.] ] V V V V V V V V V V V V V V &.&.M M X X * * , , 2 2 3 3 1 1 , , H H *.*.V V V V V V V V V V V V V V V V V V ",
"V V V V { { %.%.] ] V V V V V V V V V V V V V V &.&.M M X X * * , , 2 2 3 3 1 1 , , H H *.*.V V V V V V V V V V V V V V V V V V ",
"V V V V C C 3 3 4 4 G G N N ] ] { ^ V V { { ] ] ) ) S S i k k k k k i d k k k k k k s s U U L L +.+.] +.V V V V V V V V V V V V ",
"V V V V C C 3 3 4 4 G G N N ] ] ] { V V { { ^ +.) ) S S i i k k k k a a k k k k k k s s U U L L +.+.] ] V V V V V V V V V V V V ",
"V V V V { { b b @ @ o o X X : : W W V V @.@.Y Y i i d d k k d d a g g g k k d f k k k k k k i s h h _ _ { { { { V V V V V V V V ",
"V V V V { { b b @ @ o o X o : : W W V V @.@.Y Y i i d d k k d d g g g g k k j j k k k k k k i j h f _ o./ { { { V V V V V V V V ",
"V V V V V V } } @ @ @ @ o @ & o X X A A d d k k k k k k s s j j k k k k k k k k 6 6 s i k j k k g g s s E E / / V V V V V V V V ",
"V V V V V V } } @ @ @ @ o o o & X + A A d d k k k k k k s s j j k k k k k k k k 6 6 i j j j k k g g s k E E / ^ V V V V V V V V ",
"V V V V V V { { > > # # # # o o 9 9 k k k k k k d d k k j j d d k k d d k g u u 1 1 k k j f d d d d d d s s T T / C +.] V V V V ",
"V V V V V V { { > > # # # # & + 9 9 k k k k k k d d k k j j d d k k d d d a u u 1 1 k k j d d d d d d d s k T T / ^ ^ ] V V V V ",
"V V V V V V V V 5 5 @ # @ @ 3 1 k g k k f f d d k k d d j j k k d j d d Z Z q q 0 0 j j k k . .     d d k k g g E E ^ { V V V V ",
"V V V V V V V V 5 5 # # @ @ 1 1 i i k k f f d d k k d d j j k k j j d d Z Z q q 0 0 j j k k . .     d d k k g g E E { ^ V V V V ",
"V V V V V V { { z z & & o o r r k k i i Z Z f f y y y y y y y y f f y y y y 8 8 e e f f k k % % O O j j j j k k i i ] ] V V V V ",
"V V V V V V { } z z & & o o r r k k i i Z Z f f y y y y y y y y f f y y y y 8 8 e e f f k k % % O O d i j d k k i i ] { V V V V ",
"V V V V V V V V 4 4 @ @ @ @ - - k k j j g g g g k d k k g f k k j j j j s i w w 7 7 k k j j k k k k k k d d d d P P { { V V V V ",
"V V V V V V V V 4 4 @ @ @ @ - - k k j j g g g g g g k k j j k k j j j j i j w w 7 7 k k j j k k k k k k d d d k P P { { V V V V ",
"V V V V V V } ' ; ; @ # @ @ o o < < k k k k k k k k k k k k a g k k g i k k g d < < k k k k k k d d k k d d J J V V V V V V V V ",
"V V V V V V ] ] ; ; # # @ @ o o < < k k k k k k k k k k k k g g k k g k k k d d < < k k k k k k d d k k d d J J V V V V V V V V ",
"V V V V V V ! ! o o @ o o o o o # # O.O.h h j j j j d d s i j j h j k k j j k k 7 7 9 9 k f s i d j k k ` ` { ] { { V V V V V V ",
"V V V V V V ~ ! o o o o o o o o # @ O.O.h h j j j j d d i j j d j j k k j f k k 7 7 9 9 j j i j j j k k ` ` ] ] { { V V V V V V ",
"V V V V V V c c X X + + = = v v  .| V V ^ ^ L J l l j i k j i s k k d d k k k k k k t t j j j j R R X.X.V V V V V V V V V V V V ",
"V V V V V V c c X X + + = = v v | | V V ^ ^ J J l k i s j j i j k k d d k k k k k k t t j f j j R R X.X.V V V V V V V V V V V V ",
"V V V V #.#.D D m m B B ^ ^ { { V V V V V V { { $.$._ _ 9 9 u u s s k k l l f f d d I I o.o.( ( { { V V V V V V V V V V V V V V ",
"V V V V #.+.D D m m B B ^ ^ { { V V V V V V { { $.$._ _ 9 9 u u s s k k l l f d d d I I o.o.( ( { { V V V V V V V V V V V V V V ",
"V V V V V V V V V V V V V V V V V V V V V V V V V V ] ] = = o o + + & & - - F F  . .{ { V V V V V V V V V V V V V V V V V V V V ",
"V V V V V V V V V V V V V V V V V V V V V V V V V V ] ] = = o o + + & & - - F F  . .{ { V V V V V V V V V V V V V V V V V V V V ",
"V V V V V V V V V V V V V V V V V V V V V V V V V V V V ....Q Q n n ! ! %.%.V V V V V V V V V V V V V V V V V V V V V V V V V V ",
"V V V V V V V V V V V V V V V V V V V V V V V V V V V V ....Q Q n n ! ! %.%.V V V V V V V V V V V V V V V V V V V V V V V V V V ",
"V V V V V V V V V V V V V V V V V V V V V V V V V V V V V V V V V V V V V V V V V V V V V V V V V V V V V V V V V V V V V V V V ",
"V V V V V V V V V V V V V V V V V V V V V V V V V V V V V V V V V V V V V V V V V V V V V V V V V V V V V V V V V V V V V V V V ",
"V V V V V V V V V V V V V V V V V V V V V V V V V V V V V V V V V V V V V V V V V V V V V V V V V V V V V V V V V V V V V V V V ",
"V V V V V V V V V V V V V V V V V V V V V V V V V V V V V V V V V V V V V V V V V V V V V V V V V V V V V V V V V V V V V V V V ",
"V V V V V V V V V V V V V V V V V V V V V V V V V V V V V V V V V V V V V V V V V V V V V V V V V V V V V V V V V V V V V V V V ",
"V V V V V V V V V V V V V V V V V V V V V V V V V V V V V V V V V V V V V V V V V V V V V V V V V V V V V V V V V V V V V V V V ",
"V V V V V V V V V V V V V V V V V V V V V V V V V V V V V V V V V V V V V V V V V V V V V V V V V V V V V V V V V V V V V V V V ",
"V V V V V V V V V V V V V V V V V V V V V V V V V V V V V V V V V V V V V V V V V V V V V V V V V V V V V V V V V V V V V V V V ",
"V V V V V V V V V V V V V V V V V V V V V V V V V V V V V V V V V V V V V V V V V V V V V V V V V V V V V V V V V V V V V V V V ",
"V V V V V V V V V V V V V V V V V V V V V V V V V V V V V V V V V V V V V V V V V V V V V V V V V V V V V V V V V V V V V V V V ",
"V V V V V V V V V V V V V V V V V V V V V V V V V V V V V V V V V V V V V V V V V V V V V V V V V V V V V V V V V V V V V V V V ",
"V V V V V V V V V V V V V V V V V V V V V V V V V V V V V V V V V V V V V V V V V V V V V V V V V V V V V V V V V V V V V V V V ",
"V V V V V V V V V V V V V V V V V V V V V V V V V V V V V V V V V V V V V V V V V V V V V V V V V V V V V V V V V V V V V V V V ",
"V V V V V V V V V V V V V V V V V V V V V V V V V V V V V V V V V V V V V V V V V V V V V V V V V V V V V V V V V V V V V V V V ",
"V V V V V V V V V V V V V V V V V V V V V V V V V V V V V V V V V V V V V V V V V V V V V V V V V V V V V V V V V V V V V V V V ",
"V V V V V V V V V V V V V V V V V V V V V V V V V V V V V V V V V V V V V V V V V V V V V V V V V V V V V V V V V V V V V V V V "
};
