/* XPM */
static char *player[] = {
/* columns rows colors chars-per-pixel */
"64 64 150 2 ",
"   c #138CE2",
".  c #158DE2",
"X  c #198FE2",
"o  c #1791E3",
"O  c #1991E3",
"+  c #1C91E3",
"@  c #1993E4",
"#  c #1F93E4",
"$  c #1B95E4",
"%  c #1C99E5",
"&  c #2293E3",
"*  c #2494E2",
"=  c #2294E4",
"-  c #2295E4",
";  c #2696E4",
":  c #2996E3",
">  c #2897E5",
",  c #239BE6",
"<  c #229CE6",
"1  c #259DE6",
"2  c #2D98E4",
"3  c #3099E3",
"4  c #329AE3",
"5  c #359BE3",
"6  c #329EE7",
"7  c #389FE7",
"8  c #31A1E7",
"9  c #32A2E7",
"0  c #3AA0E7",
"q  c #36A3E8",
"w  c #38A3E8",
"e  c #3AA2EB",
"r  c #3EA3E8",
"t  c #3FA4EB",
"y  c #42A1E3",
"u  c #44A1E3",
"i  c #42A3E7",
"p  c #4AA4E3",
"a  c #4CA4E3",
"s  c #4EA6E4",
"d  c #44A7E9",
"f  c #47A8EB",
"g  c #4AABEA",
"h  c #4EADEA",
"j  c #55ABE5",
"k  c #59ABE4",
"l  c #50B0EB",
"z  c #5DB1EB",
"x  c #61ADE3",
"c  c #68B1E3",
"v  c #62B2EB",
"b  c #63B5ED",
"n  c #6DB6EA",
"m  c #6AB7ED",
"M  c #62B8ED",
"N  c #66BAEE",
"B  c #6BB9EF",
"V  c #70B4E4",
"C  c #72B4E4",
"Z  c #77B8E5",
"A  c #71BBEE",
"S  c #75BAEC",
"D  c #76BCEE",
"F  c #7ABBE9",
"G  c #7ABFEF",
"H  c #77C1EA",
"J  c #7DC4F0",
"K  c #A3B1BC",
"L  c #8BB6D5",
"P  c #89BEE4",
"I  c #9CD3DB",
"U  c #88C8E5",
"Y  c #8ECBE6",
"T  c #81C3E9",
"R  c #82C3E9",
"E  c #8FC3E8",
"W  c #8AC9EB",
"Q  c #8AC9EC",
"!  c #9AC6E4",
"~  c #97CDEC",
"^  c #82C3F1",
"/  c #82C6F1",
"(  c #89C9F1",
")  c #8FC8F1",
"_  c #94CBF2",
"`  c #93CCF3",
"'  c #97CEF4",
"]  c #9BD1F3",
"[  c #A2C9E5",
"{  c #A7D7E2",
"}  c #A8D8E3",
"|  c #AAD9E3",
" . c #ACDAE3",
".. c #A4D5E8",
"X. c #A5D6E8",
"o. c #A2D3EE",
"O. c #A5D3ED",
"+. c #A1D4EE",
"@. c #A8D7E9",
"#. c #AFDAEA",
"$. c #ACD8EF",
"%. c #B0D0E6",
"&. c #B6D1E5",
"*. c #BAD5E7",
"=. c #BCD4E5",
"-. c #B2DBE1",
";. c #B0DCE4",
":. c #B2DDE4",
">. c #B1DBEA",
",. c #B3DDEA",
"<. c #B6DDEA",
"1. c #B7DEEA",
"2. c #B8DFEB",
"3. c #B0DAF0",
"4. c #B6DDF0",
"5. c #B8DFF1",
"6. c #BEE0EF",
"7. c #C2D7E6",
"8. c #C2DEE2",
"9. c #C6D8E5",
"0. c #CDDBE5",
"q. c #D2DDE5",
"w. c #D5DEE5",
"e. c #D7DFE5",
"r. c #D4DFE8",
"t. c #C5E1E4",
"y. c #C0E2EC",
"u. c #C8E4E8",
"i. c #C8E5EA",
"p. c #C8E6EC",
"a. c #D6E4E6",
"s. c #D9E0E5",
"d. c #DDE2E5",
"f. c #D8E5E7",
"g. c #D9E7EA",
"h. c #DBE9EB",
"j. c #DBEAED",
"k. c #CAE1F1",
"l. c #D8EBF1",
"z. c #E0E3E5",
"x. c #E3E4E5",
"c. c gray90",
"v. c #E7E6E5",
"b. c #E8E6E5",
"n. c #E8E7E7",
"m. c #E8E8E7",
"M. c #EAEAEA",
"N. c #EBECED",
"B. c #EEEDED",
"V. c #EDEEEF",
/* pixels */
"I I I I I I I I I I { { W W J J / / ] ] Y Y ,.,.p.p.,.,.U U ( ( N N g g q w 8 8 i i h h A A ~ ~ <.2.I I I I I I I I I I I I I I ",
"I I I I I I I I I I { { W W J J / / ] ] Y Y ,.,.p.p.,.,.U U ( ( N N g g w w 9 8 d y h h A A ~ ~ 2.<.I I I I I I I I I I I I I I ",
"I I I I I I I I I I @.@.8 8 % % % % % % % % , < q q < < % % % % % % o o . . % % % % % % o o     = = D D ;.6.I I I I I I I I I I ",
"I I I I I I I I I I @.@.8 8 % % % % % % % % , < q q < < % % % % % % o o . . % % % % % % o o     = = D D 6.6.I I I I I I I I I I ",
"I I I I I I I I I I I I 5.5.1 1 % % % % % % % % % % % % % % % % % % O O . . $ $ % % % % O O . . . . . . 2 2 $.$.I I I I I I I I ",
"I I I I I I I I I I I I 5.5.1 1 % % % % % % % % % % % % % % % % % % O O . . @ @ % % % % O O . . . . . . 2 2 $.$.I I I I I I I I ",
"I I I I I I I I I I I I I I M M % % % % % % % % % % o o . . % % % % $ $ . . . . . . O O . . . . . . > > # # = - #.,.I I I I I I ",
"I I I I I I I I I I I I I I M M % % % % % % % % % % o o . . % % % % $ $ . . . . . . O O . . . . . . > > # # = = 4.4.I I I I I I ",
"I I I I I I I I I I I I ;.;.l l $ $ o o % % % % $ $ X X . . O O % % $ $ . . . . X X . . . . . . * * K K %.%.. . w w  .} I I I I ",
"I I I I I I I I I I I I ;.;.l l $ $ o o % % % % $ $ X X . . O @ % % $ $ . . . . X X . . . . . . * * K K %.%.. . 7 7 } } I I I I ",
"I I I I I I I I I I I I H H % % O O . . . . % % % % $ $ . . . . . . = = 3 3 y y p p a a p p 5 5 : : L L C C     . . R R I I I I ",
"I I I I I I I I I I I I H H % % O O . . . . % % % % $ $ . . . . . . = = 3 2 y y p p a a p p 5 5 : : L L C C     . . R R I I I I ",
"I I I I I I I I I I 3.3., , % % % % . . . . $ $ % % , , u u P P =.=.d.d.x.x.c.c.c.c.b.b.c.c.c.c.x.x.0.0.&.&.! ! Z Z k k D S X.X.",
"I I I I I I I I I I 3.3., , % % % % . . . . $ $ % % , , u y P P =.=.d.d.x.x.c.c.c.c.b.b.c.c.c.c.x.x.0.0.&.&.! ! Z Z k k S S ..X.",
"I I I I I I I I  . .r r @ @ % % % % O O . . . . j j *.*.c.c.c.c.c.c.d.d.*.*.w.w.c.c.c.c.c.c.c.c.c.c.c.c.c.c.c.c.c.b.c.c.d.x.w.r.",
"I I I I I I I I  . .r r @ @ % % % % O O . . . . j j *.*.c.c.c.c.c.c.d.d.*.*.w.w.c.c.c.c.c.c.c.c.c.c.c.c.c.c.c.c.b.b.c.c.x.d.r.r.",
"I I I I I I I I R R . . . . % % % % $ $ * * ! ! x.x.c.c.c.c.7.7.n n f f f f e.e.c.c.c.c.c.c.M.M.g.f.u.u.-.-.-.-.u.i.i.i.i.i.-.-.",
"I I I I I I I I R R . . . . % % % % $ $ * * ! ! x.x.c.c.c.c.7.7.n n f f f g e.f.c.c.c.c.c.c.M.M.f.f.u.u.-.-.-.-.i.i.i.i.i.i.-.-.",
"I I I I I I } } 6 6 . . . . O O $ $ 7 7 9.9.c.b.c.c.c.c.c.c.E E e e 7 e F F m.m.V.V.8.8.t.t.I I I I I I I I I I I I I I I I I I ",
"I I I I I I } } 6 6 . . . . O O $ $ 7 7 9.9.c.b.c.c.c.c.c.c.E E e e w r F F M.M.V.V.8.8.t.t.I I I I I I I I I I I I I I I I I I ",
"I I I I I I Q Q % % . . . . . . u u q.q.b.m.b.c.c.c.c.c.c.c.v v e e d t y.y.! I I I I I I I I I I I I I I I I I I I I I I I I I ",
"I I I I I I Q Q % % . . . . . . u u q.q.b.c.b.b.c.c.c.c.c.c.v v e e t t y.2.I I I I I I I I I I I I I I I I I I I I I I I I I I ",
"I I I I :.;.d d O O . . . . u u s.e.v.v.x.x.c.m.c.c.M.M.k.k.t t e e ' ' I I I I I I I I I I I I I I I I I I I I I I I I I I I I ",
"I I I I :.;.d d O O . . . . u u e.e.v.v.x.x.v.b.c.c.M.M.k.k.t d e e ' ' I I I I I I I I I I I I I I I I I I I I I I I I I I I I ",
"I I I I X.X.X X . . . . 3 3 q.q.v.v.v.v.c.c.N.N.u.u.}  .b b e e ^ ^  . .I I I I I I I I I I I I I I I I I I I I I I I I I I I I ",
"I I I I X.X.X X . . . . 3 3 q.q.v.v.v.v.c.x.N.N.u.u. . .b b e e ^ ^  . .I I I I I I I I I I I I I I I I I I I I I I I I I I I I ",
"I I I I _ _ . . . . + + &.&.c.c.x.v.v.v.t.t.I I I I ` ` B B +.+.>.:.I I I I I I I I I I I I I I I I I I I I I I I I I I I I I I ",
"I I I I _ _ . . . . + + &.&.c.c.v.v.b.b.t.t.I I I I ` ` B B +.+.;.;.I I I I I I I I I I I I I I I I I I I I I I I I I I I I I I ",
"I I I I z z . . . . C C b.b.c.c.M.N.-.-.I I I I I I -.-.I I I I I I I I I I I I I I I I I I I I I I I I I I I I I I I I I I I I ",
"I I I I z z . . . . C C b.b.c.c.N.N.-.-.I I I I I I -.-.I I I I I I I I I I I I I I I I I I I I I I I I I I I I I I I I I I I I ",
"I I :.:.0 7 . . : : w.w.c.c.a.a.I I I I I I I I I I I I I I I I I I I I I I I I I I I I I I I I I I I I I I I I I I I I I I I I ",
"I I :.:.0 7 . . : : w.w.c.c.a.a.I I I I I I I I I I I I I I I I I I I I I I I I I I I I I I I I I I I I I I I I I I I I I I I I ",
"I I y.y.= = . . Z Z c.c.M.V.I I I I I I I I I I I I I I I I I I I I I I I I I I I I I I I I I I I I I I I I I I I I I I I I I I ",
"I I y.y.& = . . Z Z c.c.V.M.I I I I I I I I I I I I I I I I I I I I I I I I I I I I I I I I I I I I I I I I I I I I I I I I I I ",
"I I 2.2.X X X X 9.9.n.n.-.-.I I I I I I I I I I I I I I I I I I I I I I I I I I I I I I I I I I I I I I I I I I I I I I I I I I ",
"I I 2.2.X = X X 9.9.n.n.-.-.I I I I I I I I I I I I I I I I I I I I I I I I I I I I I I I I I I I I I I I I I I I I I I I I I I ",
"I I <.<.+ + 4 4 x.x.g.g.I I I I I I I I I I I I I I I I I I I I I I I I I I I I I I I I I I I I I I I I I I I I I I I I I I I I ",
"I I ,.,.+ + 4 4 x.x.g.g.I I I I I I I I I I I I I I I I I I I I I I I I I I I I I I I I I I I I I I I I I I I I I I I I I I I I ",
"I I 2.2.+ + j j c.c.-.-.I I I I I I I I I I I I I I I I I I I I I I I I I I I I I I I I I I I I I I I I I I I I I I I I I I I I ",
"I I 2.2.+ + j j c.c.-.-.I I I I I I I I I I I I I I I I I I I I I I I I I I I I I I I I I I I I I I I I I I I I I I I I I I I I ",
"I I y.y.: > c c M.M.I I I I I I I I I I I I I I I I I I I I I I I I I I I I I I I I I I I I I I I I I I I I I I I I I I I I I I ",
"I I y.6.> > c c M.M.I I I I I I I I I I I I I I I I I I I I I I I I I I I I I I I I I I I I I I I I I I I I I I I I I I I I I I ",
"I I I I 7 0 n C B.B.I I I I I I I I I I I I I I I I I I I I I I I I I I I I I I I I I I I I I I I I I I I I I I I I I I I I I I ",
"I I I I 7 0 c C B.B.I I I I I I I I I I I I I I I I I I I I I I I I I I I I I I I I I I I I I I I I I I I I I I I I I I I I I I ",
"I I I I m m x x B.B.I I I I I I I I I I I I I I I I I I I I I I I I I I I I I I I I I I I I I I I I I I I I I I I I I I I I I I ",
"I I I I m m x x B.B.I I I I I I I I I I I I I I I I I I I I I I I I I I I I I I I I I I I I I I I I I I I I I I I I I I I I I I ",
"I I I I ~ ~ y y n.n.-.-.I I I I I I I I I I I I I I I I I I I I I I I I I I I I I I I I I I I I I I I I I I I I I I I I I I I I ",
"I I I I ~ ~ y y n.b.-.-.I I I I I I I I I I I I I I I I I I I I I I I I I I I I I I I I I I I I I I I I I I I I I I I I I I I I ",
"I I I I >.>.: ; w.e.M.M.c.c.b.b.M.M.j.h.-.-.I I I I I I I I I I I I I I I I I I I I I I I I I I I I I I I I I I I I I I I I I I ",
"I I I I >.,.; ; e.e.M.M.c.c.b.b.M.M.j.h.-.-.I I I I I I I I I I I I I I I I I I I I I I I I I I I I I I I I I I I I I I I I I I ",
"I I I I ) ) . . [ [ c.c.c.c.c.c.M.M.B.B.j.j.I I I I I I I I I I I I I I I I I I I I I I I I I I I I I I I I I I I I I I I I I I ",
"I I I I ) Q . . [ [ c.c.c.c.c.c.M.M.B.B.j.j.I I I I I I I I I I I I I I I I I I I I I I I I I I I I I I I I I I I I I I I I I I ",
"I I #.#.& = . . s s c.c.b.b.j.j.I I I I I I I I I I I I I I I I I I I I I I I I I I I I I I I I I I I I I I I I I I I I I I I I ",
"I I #.>.= = . . s s c.c.b.b.j.j.I I I I I I I I I I I I I I I I I I I I I I I I I I I I I I I I I I I I I I I I I I I I I I I I ",
"I I m m . . . . 5 4 l.l.:.:.I I I I I I I I I I I I I I I I I I I I I I I I I I I I I I I I I I I I I I I I I I I I I I I I I I ",
"I I m m . . . . 4 4 l.l.:.;.I I I I I I I I I I I I I I I I I I I I I I I I I I I I I I I I I I I I I I I I I I I I I I I I I I ",
"@.@.X X . . > : O.O.I I I I I I I I I I I I I I I I I I I I I I I I I I I I I I I I I I I I I I I I I I I I I I I I I I I I I I ",
"@.@.X X . . > : O.O.I I I I I I I I I I I I I I I I I I I I I I I I I I I I I I I I I I I I I I I I I I I I I I I I I I I I I I ",
"G G = = ^ ^ ,.<.I I I I I I I I I I I I I I I I I I I I I I I I I I I I I I I I I I I I I I I I I I I I I I I I I I I I I I I I ",
"G G = = ^ ^ ,.2.I I I I I I I I I I I I I I I I I I I I I I I I I I I I I I I I I I I I I I I I I I I I I I I I I I I I I I I I ",
"i i 5.4.I I I I I I I I I I I I I I I I I I I I I I I I I I I I I I I I I I I I I I I I I I I I I I I I I I I I I I I I I I I I ",
"i i 4.4.I I I I I I I I I I I I I I I I I I I I I I I I I I I I I I I I I I I I I I I I I I I I I I I I I I I I I I I I I I I I ",
"o.o.I I I I I I I I I I I I I I I I I I I I I I I I I I I I I I I I I I I I I I I I I I I I I I I I I I I I I I I I I I I I I I ",
"o.o.I I I I I I I I I I I I I I I I I I I I I I I I I I I I I I I I I I I I I I I I I I I I I I I I I I I I I I I I I I I I I I "
};
