/* XPM */
static char *wall[] = {
/* columns rows colors chars-per-pixel */
"64 64 205 2 ",
"   c #ED6D33",
".  c #ED6B34",
"X  c #EE7332",
"o  c #EF7A38",
"O  c #EB6B4A",
"+  c #ED7B5C",
"@  c #72982F",
"#  c #749B31",
"$  c #779D34",
"%  c #7A9830",
"&  c #789D38",
"*  c #7A9F38",
"=  c #78A030",
"-  c #78A435",
";  c #7CA13B",
":  c #7AA63A",
">  c #7EA33C",
",  c #7FB23C",
"<  c #98913A",
"1  c #8BA52D",
"2  c #91A62A",
"3  c #82B83F",
"4  c #90BC3E",
"5  c #A8A53A",
"6  c #B1B736",
"7  c #B5B93A",
"8  c #CD8930",
"9  c #F39B23",
"0  c #F18B34",
"q  c #E8963A",
"w  c #F4A539",
"e  c #B4C438",
"r  c #EBCD1A",
"t  c #FFD215",
"y  c #F2D01B",
"u  c #D4CA25",
"i  c #DBC926",
"p  c #C4C938",
"a  c #E6CE2C",
"s  c #EDD028",
"d  c #F0D023",
"f  c #FFD72E",
"g  c #FFD833",
"h  c #FED939",
"j  c #AC9048",
"k  c #80A343",
"l  c #80A540",
"z  c #84A746",
"x  c #84A947",
"c  c #83AD45",
"v  c #85A64B",
"b  c #87A94C",
"n  c #82B342",
"m  c #81B640",
"M  c #8CB747",
"N  c #83B941",
"B  c #83B942",
"V  c #8AB04C",
"C  c #8CAE54",
"Z  c #8DAF55",
"A  c #8FAF58",
"S  c #8FAE59",
"D  c #9CA653",
"F  c #8FB353",
"G  c #94B857",
"H  c #94B35F",
"J  c #A3A55E",
"K  c #97B462",
"L  c #99B468",
"P  c #9CBA68",
"I  c #9DB96D",
"U  c #9EB96F",
"Y  c #81A873",
"T  c #85AB79",
"R  c #A3BC77",
"E  c #C09847",
"W  c #F29545",
"Q  c #EE8769",
"!  c #EF866B",
"~  c #F2A268",
"^  c #F2AD6D",
"/  c #E2A87A",
"(  c #BACB55",
")  c #A0C361",
"_  c #A5C867",
"`  c #A2C66E",
"'  c #A3C86A",
"]  c #A5C969",
"[  c #A9CB6D",
"{  c #A6CB77",
"}  c #ABC37F",
"|  c #A9C77E",
" . c #FEDF56",
".. c #FDDE59",
"X. c #FEE163",
"o. c #FEE36B",
"O. c #74AB9A",
"+. c #4891BC",
"@. c #5196B7",
"#. c #5B9CCB",
"$. c #61A0C8",
"%. c #6CA7D1",
"&. c #7FB3D7",
"*. c #8DB689",
"=. c #97BC95",
"-. c #9BBE91",
";. c #9EBF92",
":. c #99BB9F",
">. c #9EBEAE",
",. c #83B1BD",
"<. c #F2AD9B",
"1. c #F6BC92",
"2. c #AAC181",
"3. c #ABC382",
"4. c #ACC280",
"5. c #B0C787",
"6. c #B9C489",
"7. c #B1C989",
"8. c #B5CB8B",
"9. c #B3C88E",
"0. c #B8D384",
"q. c #A5C291",
"w. c #A3C197",
"e. c #A9C49D",
"r. c #ACC99F",
"t. c #B6CB92",
"y. c #AECCA5",
"u. c #ADC5AE",
"i. c #B4D0AB",
"p. c #B5D0AD",
"a. c #A8CFB5",
"s. c #AACFB8",
"d. c #B5C8BD",
"f. c #ADD1BE",
"g. c #C1CF9A",
"h. c #C7DB9F",
"j. c #F6C689",
"k. c #E7E189",
"l. c #FDEA94",
"z. c #CBCCA1",
"x. c #CCCDAF",
"c. c #C3D4A4",
"v. c #C6D5A9",
"b. c #C6D6AE",
"n. c #C8D7AC",
"m. c #C9D7AE",
"M. c #C8C3BD",
"N. c #CACFBA",
"B. c #C9CDBD",
"V. c #D2DFBA",
"C. c #E0CDA5",
"Z. c #F6CAA4",
"A. c #E6E8B5",
"S. c #86B7D9",
"D. c #8CBADB",
"F. c #94BEDD",
"G. c #8BC1D8",
"H. c #90C0DB",
"J. c #95C7DB",
"K. c #97C0DE",
"L. c #97C4DD",
"P. c #9CC3DF",
"I. c #99C9DC",
"U. c #9CD3DB",
"Y. c #9ED0DD",
"T. c #B4D7C8",
"R. c #B7D8CB",
"E. c #B8D9CD",
"W. c #BADCCE",
"Q. c #A1CEDF",
"!. c #ACD8D7",
"~. c #A1D2DE",
"^. c #A5D4DF",
"/. c #B5DBD3",
"(. c #BDDDD5",
"). c #B0DBDB",
"_. c #B0DADC",
"`. c #B0DBDE",
"'. c #B5DDDF",
"]. c #A0C6E1",
"[. c #AACCE3",
"{. c #AED6E3",
"}. c #AAD8E1",
"|. c #B5D0E3",
" X c #B3DDE1",
".X c #B4DDE2",
"XX c #C8DECA",
"oX c #DDD1C8",
"OX c #CAD9D4",
"+X c #C0DFD9",
"@X c #CBE0C5",
"#X c #CBE1CC",
"$X c #DEE2C5",
"%X c #C9E3D6",
"&X c #C0E0D9",
"*X c #C3E2DD",
"=X c #E3EACB",
"-X c #E5E7D2",
";X c #ECF0DE",
":X c #C6E3E2",
">X c #C7E5E4",
",X c #CBE6E5",
"<X c #CDE7E6",
"1X c #CAE7EA",
"2X c #D8E9E1",
/* pixels */
"U.U.U.U.U.U.U.U.U.U.U.U.U.U.U.U.U.U.U.U.U.U.U.U.U.U.U.U.U.U.U.U.U.U.U.U.U.U.U.U.U.U.U.U.U.U.U.U.U.U.U.U.U.U.U.U.U.U.U.U.U.U.U.U.",
"U.U.U.U.U.U.U.U.U.U.U.U.U.U.U.U.U.U.U.U.U.U.U.U.U.U.U.U.U.U.U.U.U.U.U.U.U.U.U.U.U.U.U.U.U.U.U.U.U.U.U.U.U.U.U.U.U.U.U.U.U.U.U.U.",
"U.U.U.U.U.U.U.U.U.U.U.U.U.U.U.U.U.U.U.U.U.U.U.U.U.U.U.U.U.U.U.U.U.U.U.U.U.U.U.U.U.U.U.U.U.U.U.U.U.U.U.U.U.U.U.U.U.U.U.U.U.U.U.U.",
"U.U.U.U.U.U.U.U.U.U.U.U.U.U.U.U.U.U.U.U.U.U.U.U.U.U.U.U.U.U.U.U.U.U.U.U.U.U.U.U.U.U.U.U.U.U.U.U.U.U.U.U.U.U.U.U.U.U.U.U.U.U.U.U.",
"U.U.U.U.U.U.U.U.U.U.U.U.U.U.U.U.U.U.U.U.U.U.U.U..X XU.U.U.U.U.U.U.U.U.U.U.U.U.U.U.U.U.U.U.U.U.U.U.U.U.U.U.U.U.U.U.U.U.U.U.U.U.U.",
"U.U.U.U.U.U.U.U.U.U.U.U.U.U.U.U.U.U.U.U.U.U.U.U. X XU.U.U.U.U.U.U.U.U.U.U.U.U.U.U.U.U.U.U.U.U.U.U.U.U.U.U.U.U.U.U.U.U.U.U.U.U.U.",
"U.U.U.U.U.U.U.U.U.U.U.U.U.U.U.U.U.U.U.U.U.U.m.m.I I .X.X.X.XU.U.U.U.U.U.U.U.U.U.U.U.U.U.U.U.U.U.U.U.U.U.U.U.U.U.U.U.U.U.U.U.U.U.",
"U.U.U.U.U.U.U.U.U.U.U.U.U.U.U.U.U.U.U.U.U.U.m.m.I I .X.X.X.XU.U.U.U.U.U.U.U.U.U.U.U.U.U.U.U.U.U.U.U.U.U.U.U.U.U.U.U.U.U.U.U.U.U.",
"U.U.U.U.U.U.U.U.U.U.U.U.U.U.U.U.U.U.U.U.U.U.8.8.L L r.r.v v r.r.U.U.U.U.U.U.U.U.U.U.U.U.U.U.U.U.U.U.U.U.U.U.U.U.U.U.U.U.U.U.U.U.",
"U.U.U.U.U.U.U.U.U.U.U.U.U.U.U.U.U.U.U.U.U.U.8.8.L L r.r.v v r.r.U.U.U.U.U.U.U.U.U.U.U.U.U.U.U.U.U.U.U.U.U.U.U.U.U.U.U.U.U.U.U.U.",
"U.U.U.U.U.U.U.U.U.U.U.U.U.U.U.U.U.U.i.i.2.3.t.t.k k & & ; ; z z *X*XU.U.U.U.U.U.U.U.U.U.U.U.U.U.U.U.U.U.U.U.U.U.U.U.U.U.U.U.U.U.",
"U.U.U.U.U.U.U.U.U.U.U.U.U.U.U.U.U.U.i.i.3.3.t.t.k k & & ; ; z z *X*XU.U.U.U.U.U.U.U.U.U.U.U.U.U.U.U.U.U.U.U.U.U.U.U.U.U.U.U.U.U.",
"U.U.U.U.U.U.U.U.U.U.U.U.U.U.U.U.*X*Xx x $ $ k k V V b b 2.2.b.b.!.!.U.U.U.U.U.U.U.U.U.U.U.U.U.U.U.U.U.U.U.U.U.U.U.U.U.U.U.U.U.U.",
"U.U.U.U.U.U.U.U.U.U.U.U.U.U.U.U.*X*Xx x $ $ k k V V b b 2.2.b.b.!.!.U.U.U.U.U.U.U.U.U.U.U.U.U.U.U.U.U.U.U.U.U.U.U.U.U.U.U.U.U.U.",
"U.U.U.U.U.U.U.U.U.U.U.U.U.U.U.U.W.W.S S C C > > % % l l I I !.!.U.U.U.U.U.U.U.U.U.U.U.U.U.U.U.U.U.U.U.U.U.U.U.U.U.U.U.U.U.U.U.U.",
"U.U.U.U.U.U.U.U.U.U.U.U.U.U.U.U.W.W.S S C C > > % % l l I I !.!.U.U.U.U.U.U.U.U.U.U.U.U.U.U.U.U.U.U.U.U.U.U.U.U.U.U.U.U.U.U.U.U.",
"U.U.U.U.U.U.U.U.U.U.U.U.U.U.U.U.).).XXXX> > R R D D < < ; ; T.T.U.U.U.U.U.U.U.U.U.U.U.U.U.U.U.U.U.U.U.U.U.U.U.U.U.U.U.U.U.U.U.U.",
"U.U.U.U.U.U.U.U.U.U.U.U.U.U.U.U.).).XXXX> > R R D D < < ; ; T.T.U.U.U.U.U.U.U.U.U.U.U.U.U.U.U.U.U.U.U.U.U.U.U.U.U.U.U.U.U.U.U.U.",
"U.U.U.U.U.U.U.U.U.U.U.U.U.U.U.U.U.U.a.a.H H p.p.7.7./ / b b &X&XU.U.U.U.U.U.U.U.U.U.U.U.U.U.U.U.U.U.U.U.U.U.U.U.U.U.U.U.U.U.U.U.",
"U.U.U.U.U.U.U.U.U.U.U.U.U.U.U.U.U.U.a.a.H H p.p.7.7./ / b b &X&XU.U.U.U.U.U.U.U.U.U.U.U.U.U.U.U.U.U.U.U.U.U.U.U.U.U.U.U.U.U.U.U.",
"U.U.U.U.U.U.U.U.U.U.U.U.U.U.U.U.U.U.+X+X#X#Xs.s.y.y.1.1.$X$XU.U.&X&X5.5.#X#XU.U.U.U.U.U.U.U.U.U.U.U.U.U.U.U.U.U.U.U.U.U.U.U.U.U.",
"U.U.U.U.U.U.U.U.U.U.U.U.U.U.U.U.U.U.+X+X#X#Xs.s.y.y.1.1.$X$XU.U.&X&X5.5.#XXXU.U.U.U.U.U.U.U.U.U.U.U.U.U.U.U.U.U.U.U.U.U.U.U.U.U.",
"U.U.U.U.U.U.U.U.U.U.U.U.U.U.U.U.U.U.U.U.U.U._._.(.(.Z.Z.M.M.>X>X.X.XI I S H  X XU.U.U.U.U.U.U.U.U.U.U.U.U.U.U.U.U.U.U.U.U.U.U.U.",
"U.U.U.U.U.U.U.U.U.U.U.U.U.U.U.U.U.U.U.U.U.U._._.(.(.Z.Z.M.M.>X>X.X.XI I S C  X XU.U.U.U.U.U.U.U.U.U.U.U.U.U.U.U.U.U.U.U.U.U.U.U.",
"U.U.U.U.U.U.U.U.U.U.U.U.U.U.U.U.U.U.U.U.U.U.U.U.U.U.N.N.E E > > I I v.v.v v :X:X_._.E.E..X.XU.U.U.U.U.U.U.U.U.U.U.U.U.U.U.U.U.U.",
"U.U.U.U.U.U.U.U.U.U.U.U.U.U.U.U.U.U.U.U.U.U.U.U.U.U.N.N.E E > > U U v.v.v v :X:X_._.E.E. X XU.U.U.U.U.U.U.U.U.U.U.U.U.U.U.U.U.U.",
"U.U.U.U.U.U.U.U.U.U.U.U.U.U.U.U.U.U.U.U.U.U.U.U.U.U.g.g.8 8 & & & $ Z Z P P V.V.C C # # n.n.U.U.U.U.U.U.U.U.U.U.U.U.U.U.U.U.U.U.",
"U.U.U.U.U.U.U.U.U.U.U.U.U.U.U.U.U.U.U.U.U.U.U.U.U.U.g.g.8 8 & & $ $ Z Z P P V.V.C C # # n.n.U.U.U.U.U.U.U.U.U.U.U.U.U.U.U.U.U.U.",
"U.U.U.U.U.U.U.U.U.U.U.U.U.U.U.U.U.U.U.U.U.U.U.U.*X*X4.4.q q 6.6.9.9.k 1 F F b b & & ; & 7.7.U.U.U.U.U.U.U.U.U.U.U.U.U.U.U.U.U.U.",
"U.U.U.U.U.U.U.U.U.U.U.U.U.U.U.U.U.U.U.U.U.U.U.U.*X*X4.4.q q 6.6.9.q.k 3 F F b b & $ & - 7.7.U.U.U.U.U.U.U.U.U.U.U.U.U.U.U.U.U.U.",
"U.U.U.U.U.U.U.U.U.U.U.U.U.U.U.U.U.U.U.U.U.U.U.U.U.U.U.U.^ ^ oXoX2.2.j j J J K K 2X2XT.T.R.R.U.U.U.U.U.U.U.U.U.U.U.U.U.U.U.U.U.U.",
"U.U.U.U.U.U.U.U.U.U.U.U.U.U.U.U.U.U.U.U.U.U.U.U.U.U.U.U.^ ^ oXoX4.4.j j J J K K 2X2XT.R.R.R.U.U.U.U.U.U.U.U.U.U.U.U.U.U.U.U.U.U.",
"U.U.U.U.U.U.U.U.U.U.U.U.U.U.U.U.U.U.U.U.U.U.U.U.U.U.U.U.j.j.1.1.-X-X+ + z.z.1 k (.(.U.U.U.U.U.U.U.U.U.U.U.U.U.U.U.U.U.U.U.U.U.U.",
"U.U.U.U.U.U.U.U.U.U.U.U.U.U.U.U.U.U.U.U.U.U.U.U.U.U.U.U.j.j.1.1.-X-X+ + z.z.; ; (.(.U.U.U.U.U.U.U.U.U.U.U.U.U.U.U.U.U.U.U.U.U.U.",
"U.U.U.U.U.U.U.U.U.U.U.U.U.U.U.U.U.U.U.U.U.U.U.U.U.U.Y.Y.C.C.~ ~ M.M.O O ;X;Xp.v.U.U.U.U.U.U.U.U.U.U.U.U.U.U.U.U.U.U.U.U.U.U.U.U.",
"U.U.U.U.U.U.U.U.U.U.U.U.U.U.U.U.U.U.U.U.U.U.U.U.U.U.Y.Y.C.C.~ ~ M.M.O O ;X;Xc.c.U.U.U.U.U.U.U.U.U.U.U.U.U.U.U.U.U.U.U.U.U.U.U.U.",
"U.U.U.U.U.U.U.U.U.U.U.U.U.U.U.U.U.U.U.U.U.U.U.U.U.U.U.U.B.B.W W <.<.+ + '. XU.U.U.U.U.U.U.U.U.U.U.U.U.U.U.U.U.U.U.U.U.U.U.U.U.U.",
"U.U.U.U.U.U.U.U.U.U.U.U.U.U.U.U.U.U.U.U.U.U.U.U.U.U.U.U.B.B.W W <.<.+ + .X XU.U.U.U.U.U.U.U.U.U.U.U.U.U.U.U.U.U.U.U.U.U.U.U.U.U.",
"U.U.U.U.U.U.U.U.U.U.U.U.U.U.U.U.U.U.U.U.U.U.U.U.U.U.U.U.OXOX0 0 Q ! + + U.U.U.U.U.U.U.U.U.U.U.U.U.U.U.U.U.U.U.U.U.U.U.U.U.U.U.U.",
"U.U.U.U.U.U.U.U.U.U.U.U.U.U.U.U.U.U.U.U.U.U.U.U.U.U.U.U.OXOX0 0 ! ! + + U.U.U.U.U.U.U.U.U.U.U.U.U.U.U.U.U.U.U.U.U.U.U.U.U.U.U.U.",
"U.U.U.U.U.U.U.U.U.U.U.U.U.U.U.U.U.U.U.U.U.U.U.U.U.U.U.U.,X,Xw w O O Q Q U.U.U.U.U.U.U.U.U.U.U.U.U.U.U.U.U.U.U.U.U.U.U.U.U.U.U.U.",
"U.U.U.U.U.U.U.U.U.U.U.U.U.U.U.U.U.U.U.U.U.U.U.U.U.U.U.U.,X,Xw w O O Q Q U.U.U.U.U.U.U.U.U.U.U.U.U.U.U.U.U.U.U.U.U.U.U.U.U.U.U.U.",
"U.U.U.U.U.U.U.U.U.U.U.U.U.U.U.U.U.U.U.U..X.X,X<XU.U.U.U././.w w . . o o A.A.U.U.U.U.U.U.U.U.U.U.U.U.U.U.U.U.U.U.U.U.U.U.U.U.U.U.",
"U.U.U.U.U.U.U.U.U.U.U.U.U.U.U.U.U.U.U.U..X.X<X<XU.U.U.Y././.w w . . o o A.A.U.U.U.U.U.U.U.U.U.U.U.U.U.U.U.U.U.U.U.U.U.U.U.U.U.U.",
"U.U.U.U.U.U.U.U.U.U.U.U.U.U.U.U.U.U.'.'. . .f f l.l.o.o.h h 9 9     X X ....^.^.U.U.'.'.U.U.U.U.U.U.U.U.U.U.U.U.U.U.U.U.U.U.U.U.",
"U.U.U.U.U.U.U.U.U.U.U.U.U.U.U.U.U.U.'..X . .f f l.l.o.o.h h 9 9     X X ....^.^.U.U.'.'.U.U.U.U.U.U.U.U.U.U.U.U.U.U.U.U.U.U.U.U.",
"U.U.U.U.U.U.U.U.U.U.U.U.U.U.U.U.U.U..X.Xg g t t t t y y u u 6 6 5 5 5 5 7 7 f.f.=X=X . .@X@XU.U.U.U.U.U.U.U.U.U.U.U.U.U.U.U.U.U.",
"U.U.U.U.U.U.U.U.U.U.U.U.U.U.U.U.U.U..X.Xg g t t t t y y u u 6 6 5 5 5 5 7 7 f.f.=X=X . .@X@XU.U.U.U.U.U.U.U.U.U.U.U.U.U.U.U.U.U.",
"U.U.U.U.U.U.U.U.U.U.U.U.U.U.U.U.U.U././.X.X.r r e e 4 4 n n N N N N 3 N = = 2 2 d d s s k.k._.'.U.U.U.U.U.U.U.U.U.U.U.U.U.U.U.U.",
"U.U.U.U.U.U.U.U.U.U.U.U.U.U.U.U.U.U././.X.X.r r e e 4 4 n n N N B N m 3 = = 2 2 d d s s k.k._.'.U.U.U.U.U.U.U.U.U.U.U.U.U.U.U.U.",
"U.U.U.U.U.U.U.U.U.U.U.U.U.U.U.U.U.U.%X%Xp p M M B B 3 3 N N N N : : 1 1 i i a a ( ( ] ] ' ' 0.0.!.!.U.U.U.U.U.U.U.U.U.U.U.U.U.U.",
"U.U.U.U.U.U.U.U.U.U.U.U.U.U.U.U.U.U.%X%Xp p M M 3 B 3 3 N N N N : : 1 1 i i a a ( ( ] ] _ ' 0.0.!.!.U.U.U.U.U.U.U.U.U.U.U.U.U.U.",
"U.U.U.U.U.U.U.U.U.U.U.U.U.U.U.U._._.{ { 3 B B m B B , , $ = @ @ c c ) ) ] ] ] ] ] ] ] ] ] ] ] ] h.h.U.U.U.U.U.U.U.U.U.U.U.U.U.U.",
"U.U.U.U.U.U.U.U.U.U.U.U.U.U.U.U.).).{ { B B B m B 3 3 3 - - @ @ c c ) ) ] ] ] ] ] ] ] ] ] ] ] ] h.h.U.U.U.U.U.U.U.U.U.U.U.U.U.U.",
"U.U.U.U.U.U.U.U.U.U.~.~.Q.Q.&.&.d.d.e.e.w.w.-.-.*.*.T T Y Y G G ] ] ' ' ] ] ] ] ] ] ] ] ] ] _ _ [ [ *X*XU.U.U.U.U.U.U.U.U.U.U.U.",
"U.U.U.U.U.U.U.U.U.U.~.~.Q.~.&.&.d.d.e.e.w.w.-.-.*.*.T T Y Y G G ] ] ' ' ] ] ] ] ] ] ] ] ' ' _ _ [ [ *X*XU.U.U.U.U.U.U.U.U.U.U.U.",
"U.U.U.U.U.U.U.U.U.U.^.^.J.J.L.L.].].F.F.D.D.S.S.S.S.%.%.O.O._ _ [ [ ' _ ' ] ] ] [ [ ' ' ' ' ` ` | | ,.,.D.D.Y.Y.U.U.U.U.U.U.U.U.",
"U.U.U.U.U.U.U.U.U.U.^.^.J.J.L.L.].Q.F.F.D.D.S.S.S.S.%.%.O.O._ _ [ [ ' ' ] ] ] ] [ [ ' ' ' ' ` ` | | ,.,.D.D.Y.Y.U.U.U.U.U.U.U.U.",
"U.U.U.U.U.U.U.U.U.U.U.U.U.U.U.U.U.U.U.U.U.U.1X1XD.D.#.#.>.>.:.:.=.=.q.;.q.q.r.r.x.x.u.u.@.@.+.+.$.$.H.H.I.I.}.}.U.U.U.U.U.U.U.U.",
"U.U.U.U.U.U.U.U.U.U.U.U.U.U.U.U.U.U.U.U.U.U.1X1XD.D.#.#.>.>.:.:.=.=.;.;.q.q.r.r.x.x.u.u.@.@.+.+.$.$.H.H.I.I.}.}.U.U.U.U.U.U.U.U.",
"U.U.U.U.U.U.U.U.U.U.U.U.U.U.U.U.U.U.U.U.U.U.U.U.1X1X.X.X{.{.Q.Q.J.J.G.G.|.|.[.[.].].K.K.F.F.P.P.[.[.~.~.U.U.U.U.U.U.U.U.U.U.U.U.",
"U.U.U.U.U.U.U.U.U.U.U.U.U.U.U.U.U.U.U.U.U.U.U.U.1X1X.X.X{.{.Q.Q.J.I.G.G.|.|.[.[.].].K.K.F.F.P.P.[.[.~.~.U.U.U.U.U.U.U.U.U.U.U.U.",
"U.U.U.U.U.U.U.U.U.U.U.U.U.U.U.U.U.U.U.U.U.U.U.U.U.U.~.~.U.U.U.U.U.U.U.U.U.U.U.U.U.U.U.U.U.U.U.U.U.U.U.U.U.U.U.U.U.U.U.U.U.U.U.U.",
"U.U.U.U.U.U.U.U.U.U.U.U.U.U.U.U.U.U.U.U.U.U.U.U.U.U.~.~.U.U.U.U.U.U.U.U.U.U.U.U.U.U.U.U.U.U.U.U.U.U.U.U.U.U.U.U.U.U.U.U.U.U.U.U."
};
