/* XPM */
static char *dolphin[] = {
/* columns rows colors chars-per-pixel */
"64 64 25 1 ",
"  c gray24",
". c gray26",
"X c gray27",
"o c #494949",
"O c gray31",
"+ c #505050",
"@ c gray34",
"# c gray35",
"$ c #5F5F5F",
"% c #606060",
"& c #646464",
"* c #6A6A6A",
"= c gray43",
"- c #717171",
"; c #777777",
": c gray48",
"> c #7C7C7C",
", c #818181",
"< c #868686",
"1 c #8B8B8B",
"2 c #979797",
"3 c gray60",
"4 c gray61",
"5 c gray67",
"6 c None",
/* pixels */
"6666666666666666666666666666666666666666666666666666666666666666",
"6666666666666666666666666666666666666666666666666666666666666666",
"6666666666666666666666666666666666666666666666666666666666666666",
"6666666666666666666666666666666666666666666666666666666666666666",
"6666666666666666666666666666666666666666666666666666666666666666",
"6666666666666666666666666666666666666666666666666666666666666666",
"6666666666666666666666666666666666666666666666666666666666666666",
"6666666666666666666666666666666666666666666666666666666666666666",
"6666666666666666666666666666666666666666666666666666666666666666",
"6666666666666666666666666666666666666666666666666666666666666666",
"6666666666666666666666666666666666666666666666666666666666666666",
"6666666666666666666666666666666666666666666666666666666666666666",
"6666666666666666666666666666666666666666666666666666666666666666",
"6666666666666666666666666666666666666666666666666666666666666666",
"66666666666666666666666666XX666666666666666666666666666666666666",
"66666666666666666666666666XX666666666666666666666666666666666666",
"666666666666666666666666oo..666666666666666666666666666666666666",
"666666666666666666666666oo..666666666666666666666666666666666666",
"6666666666666666666666++OOOOooOO####6666666666666666666666666666",
"6666666666666666666666++OOOOooOO####6666666666666666666666666666",
"6666666666666666@@@@##%%&&**@@@@##::<<::666666666666666666666666",
"6666666666666666@@@@##%%&&**@@@@##::<<::666666666666666666666666",
"666666666666%%%%%%&&**&&&&&&##$$##%%>>22336666666666666666666666",
"666666666666%%%%%%&&**&&&&&&##$$##%%>>22336666666666666666666666",
"6666666666&&%%&&&&&&&&&&&&%%%%&&&&&&==,,4455;;666666666666666666",
"6666666666&&%%&&&&&&&&&&&&%%%%&&&&&&==,,4455;;666666666666666666",
"66666666$$%%%%%%%%%%&&======**&&&&%%%%**,,3355666666666666666666",
"66666666$$%%%%%%%%%%&&======**&&&&%%%%**,,3355666666666666666666",
"66666666%%$$$$$$&&------==**&&&&$$$$$$$$%%>>33446666666666666666",
"66666666%%$$$$$$&&------==**&&&&$$$$$$$$%%>>33446666666666666666",
"666666##$$OO##==::==&&&&%%%%##6666666666##$$--11&&66666666666666",
"666666##$$OO##==::==&&&&%%%%##6666666666##$$--11&&66666666666666",
"666666##@@$$--;;**&&&&**==666666666666666666@@@@@@66666666666666",
"666666##@@$$--;;**&&&&**==666666666666666666@@@@@@66666666666666",
"666666@@##==6666++@@6666666666666666666666666666++@@666666666666",
"666666@@##==6666++@@6666666666666666666666666666++@@666666666666",
"6666++++666666666666666666666666666666666666666666++++6666666666",
"6666++++666666666666666666666666666666666666666666++++6666666666",
"6666666666666666666666666666666666666666666666666666ooOO66666666",
"6666666666666666666666666666666666666666666666666666ooOO66666666",
"6666666666666666666666666666666666666666666666666666ooXXoo##6666",
"6666666666666666666666666666666666666666666666666666ooXXoo##6666",
"6666666666666666666666666666666666666666666666666666XXXXXXXX++66",
"6666666666666666666666666666666666666666666666666666XXXXXXXX++66",
"6666666666666666666666666666666666666666666666666666....6666XX66",
"6666666666666666666666666666666666666666666666666666....6666XX66",
"6666666666666666666666666666666666666666666666666666  6666666666",
"6666666666666666666666666666666666666666666666666666  6666666666",
"6666666666666666666666666666666666666666666666666666666666666666",
"6666666666666666666666666666666666666666666666666666666666666666",
"6666666666666666666666666666666666666666666666666666666666666666",
"6666666666666666666666666666666666666666666666666666666666666666",
"6666666666666666666666666666666666666666666666666666666666666666",
"6666666666666666666666666666666666666666666666666666666666666666",
"6666666666666666666666666666666666666666666666666666666666666666",
"6666666666666666666666666666666666666666666666666666666666666666",
"6666666666666666666666666666666666666666666666666666666666666666",
"6666666666666666666666666666666666666666666666666666666666666666",
"6666666666666666666666666666666666666666666666666666666666666666",
"6666666666666666666666666666666666666666666666666666666666666666",
"6666666666666666666666666666666666666666666666666666666666666666",
"6666666666666666666666666666666666666666666666666666666666666666",
"6666666666666666666666666666666666666666666666666666666666666666",
"6666666666666666666666666666666666666666666666666666666666666666"
};
