/* XPM */
static char *earth[] = {
/* columns rows colors chars-per-pixel */
"62 64 199 2 ",
"   c #070707",
".  c #080707",
"X  c #060807",
"o  c #080708",
"O  c #07080A",
"+  c #08090B",
"@  c #070D17",
"#  c #090D14",
"$  c #090E19",
"%  c #0B1016",
"&  c #0C111B",
"*  c #141619",
"=  c #25231F",
"-  c #0A0F21",
";  c #0D1325",
":  c #0D162F",
">  c #121522",
",  c #141820",
"<  c #191D25",
"1  c #101629",
"2  c #131A2B",
"3  c #191E29",
"4  c #0E193C",
"5  c #141C35",
"6  c #111B3A",
"7  c #1A2336",
"8  c #1A233C",
"9  c #22272F",
"0  c #222731",
"q  c #242933",
"w  c #292E36",
"e  c #22293C",
"r  c #2C323E",
"t  c #353A3A",
"y  c #443E2C",
"u  c #304D2A",
"i  c #37552E",
"p  c #2E433B",
"a  c #375531",
"s  c #3A5C32",
"d  c #3F6A3F",
"f  c #4E4B34",
"g  c #435937",
"h  c #575634",
"j  c #665D38",
"k  c #466B3B",
"l  c #556638",
"z  c #46723D",
"x  c #54713B",
"c  c #646C3C",
"v  c #7B6C39",
"b  c #7D7536",
"n  c #0E1B44",
"m  c #111D46",
"M  c #101D4B",
"N  c #111F54",
"B  c #152044",
"V  c #13214C",
"C  c #152353",
"Z  c #1B2755",
"A  c #1B2954",
"S  c #15245A",
"D  c #1B2A5B",
"F  c #232D4A",
"G  c #2B3244",
"H  c #293E48",
"J  c #363C43",
"K  c #232E54",
"L  c #222D5C",
"P  c #2A3655",
"I  c #24335D",
"U  c #2B3A5D",
"Y  c #323E53",
"T  c #142361",
"R  c #182665",
"E  c #1D2B64",
"W  c #16266A",
"Q  c #1D2C6C",
"!  c #212E63",
"~  c #202D6B",
"^  c #233165",
"/  c #2A3663",
"(  c #2B3A65",
")  c #24316B",
"_  c #2A376E",
"`  c #2C386D",
"'  c #313D6B",
"]  c #202F70",
"[  c #283570",
"{  c #293672",
"}  c #313E74",
"|  c #3D4244",
" . c #39434A",
".. c #374459",
"X. c #344F5A",
"o. c #3B4667",
"O. c #354174",
"+. c #3A4672",
"@. c #394774",
"#. c #42464E",
"$. c #414652",
"%. c #464C57",
"&. c #4D515B",
"*. c #555A59",
"=. c #605941",
"-. c #4A6747",
";. c #556946",
":. c #487342",
">. c #58774B",
",. c #5B7356",
"<. c #646B48",
"1. c #687348",
"2. c #727A47",
"3. c #706C52",
"4. c #697957",
"5. c #424B67",
"6. c #4C5667",
"7. c #595D62",
"8. c #535968",
"9. c #434D74",
"0. c #434E7A",
"q. c #445073",
"w. c #49547D",
"e. c #555C79",
"r. c #5D616A",
"t. c #5B637C",
"y. c #5F7477",
"u. c #66746C",
"i. c #7C7D65",
"p. c #74746C",
"a. c #666A71",
"s. c #656A72",
"d. c #666D7F",
"f. c #6D7375",
"g. c #6A707D",
"h. c #70747E",
"j. c #747A7A",
"k. c #88763A",
"l. c #927F46",
"z. c #7C8143",
"x. c #698358",
"c. c #7B8357",
"v. c #738872",
"b. c #88854B",
"n. c #938D47",
"m. c #888458",
"M. c #928856",
"N. c #8E9750",
"B. c #969457",
"V. c #A59347",
"C. c #BCAB55",
"Z. c #868561",
"A. c #9C9F69",
"S. c #948F78",
"D. c #859171",
"F. c #AD9F65",
"G. c #A59E7F",
"H. c #ACA279",
"J. c #4C5681",
"K. c #576386",
"L. c #5C6483",
"P. c #656C83",
"I. c #636B8C",
"U. c #6C7384",
"Y. c #6C738D",
"T. c #757A82",
"R. c #757989",
"E. c #6D7590",
"W. c #747A93",
"Q. c #7E8782",
"!. c #7D848A",
"~. c #7C8396",
"^. c #868A89",
"/. c #989586",
"(. c #858A95",
"). c #888D9C",
"_. c #8B9290",
"`. c #939699",
"'. c #999B9D",
"]. c #9AA490",
"[. c #A5A797",
"{. c #A3A49C",
"}. c #999CA2",
"|. c #969AA8",
" X c #9DA1AD",
".X c #A2A5AC",
"XX c #A9ABAA",
"oX c #B4B7AF",
"OX c #A2A5B1",
"+X c #A7AAB3",
"@X c #A9ACB2",
"#X c #AEB1B7",
"$X c #B3B5B7",
"%X c #BBBDB4",
"&X c #BBBDBD",
"*X c #BCC0BE",
"=X c #BBBDC2",
"-X c #BFC0C0",
";X c #C8C9C9",
/* pixels */
"                                . . X X . . . . X X . . X X X X X X X X X X X X o o o o                                     ",
"                                . . X X . . . . X X . . X X X X X X X X X X X X o o o o                                     ",
"                                X X X X X X X X . . X X . . . . X X X X X X X X o o   O                                     ",
"                                X X X X X X X X . . X X . . . . X X X X X X X X o o o O                                     ",
"                                . . . . X X % %  . .j.j.!.!.~.~.`.`.(.(.R.R. . .* * O O . . . .                             ",
"                                . . . . X X % %  . .j.j.!.!.~.~.`.`.(.(.R.R. . .* * O O . . . .                             ",
"                                . . % % a.a.&X&X{.{.].].^.^.c.c.S.S.{.{.`.`._._.#X#Xa.a.< < . .                             ",
"                                . . % % a.a.&X&X{.{.].].^.^.c.c.S.S.{.{.`.`._._.#X#Xs.a.< < . .                             ",
"                            O O 7 7 j.j.[.[.%X%X*X*Xk k :.:.[.[.&X&X&X&Xu.u.*.*.T.T.}.}.a.a.G G O O . . O O                 ",
"                            O O 7 7 j.j.[.[.%X%X*X*Xk k :.:.[.[.&X&X&X&Xu.u.*.*.T.T.}.}.a.a.G G O O . . O O                 ",
"                        O O 6.6.*.*.c.c.B.B.G.G.:.:.d d  X Xv.v.s s g.g.6.6.}.}.`.`.=X=XT.T. . . . .# # . .                 ",
"                        O O 6.6.*.*.c.c.B.B.G.G.:.:.d d  X Xv.v.s s g.g.6.6.}.}.`.`.=X=XT.T. . . . .# # . .                 ",
"                    . . a.a.Y Y b b k.k.b.b.A.A.z z d d B.B.u.u.P.P.) ) D D ^ ^ P P ).).8.8.e e e e t t + + o o             ",
"                    . . a.a.Y Y b b k.k.b.b.A.A.z z d d B.B.u.u.P.P.) ) D D ^ ^ P P ).).8.8.e e e e t t + + o o             ",
"                    G G P.P.!.!.V.V.V.V.C.C.N.N.z z d d ,.,.X.X.~ ~ R R D D S S N N C C K K F F 5 5 e e , , O O o o         ",
"                    G G P.P.!.!.V.V.V.V.C.C.N.N.z z d d ,.,.X.X.~ ~ R R D D S S N N C C K K F F 5 5 e e , , O O o o         ",
"                * * 5.5.).).t.t.c c n.n.V.V.....X.X.@.@.y.y.K.K.! ! ! ! S S S S S S C C V V n n 6 6 5 5 = = * * . . . . . . ",
"                * * 5.5.).).t.t.c c n.n.V.V.....X.X.@.@.y.y.K.K.! ! ! ! S S S S S S C C V V n n 6 6 5 5 = = * * . . . . . . ",
"                P P q.q.E.E.I.I.'.'.1.1.-.-.) ) @.@.@.@.X.X.X.X.^ ^ T T S S S S S S N N M M n n m m G G &.&.y y . . . . . . ",
"                P P q.q.E.E.I.I.'.'.1.1.-.-.) ) @.@.@.@.X.X.X.X.^ ^ T T S S S S S S N N M M n n m m G G &.&.y y . . . . . . ",
"            # # 6.6.I.I.L.L.;X;XXXXX_._.<.<.6.6.u.u.K.K.W W I I ....A A ( ( A A A A A A V V M M m m 5 5 Y Y =.=.* * o o . . ",
"            # # 6.6.I.I.L.L.;X;XXXXX_._.<.<.6.6.u.u.K.K.W W I I ....A A ( ( A A A A A A V V M M m m 5 5 Y Y =.=.* * o o . . ",
"            7 7 t.t.@.@.} }  X X~.~.L.L.@.@.....>.>.^.^.O.O.W W W W W W @.@.A A / / K K M M n n 4 4 6 6 e e t t * * . . . . ",
"            7 7 t.t.@.@.} }  X X~.~.L.L.@.@.....>.>.^.^.O.O.W W W W W W @.@.A A / / K K M M n n 4 4 6 6 e e t t * * . . . . ",
"        . . B B ` ` { { +X+XJ.J.R.R.Y.Y.~ ~ J.J.E.E.Q.Q.U.U.o.o.-.-.;.;. . . . .V V A A V V V V 4 4 4 4 7 7 < < = = . . . . ",
"        . . B B ` ` { { +X+XJ.J.R.R.Y.Y.~ ~ J.J.E.E.Q.Q.U.U.o.o.-.-.;.;. . . . .V V A A V V V V 4 4 4 4 7 7 < < = = . . . . ",
"        . . D D @.@.` ` |.|.@.@.J.J.#X#XI.I.K.K.J.J.L.L.Q.Q.S.S.4.4.c.c.z.z.u u p p H H V V n n 4 4 5 5 5 5 &.&.t t . . . . ",
"        . . D D @.@.` ` |.|.@.@.J.J.#X#XI.I.K.K.J.J.L.L.Q.Q.S.S.4.4.c.c.z.z.u u p p H H V V n n 4 4 5 5 5 5 &.&.t t . . . . ",
"        + + t.t.+.+.E E W W O.O.O.O. X XOXOXI.I.I.I.~.~.=X=XoXoXv.v.c.c.k k i i a a u u p p n n 4 4 : : : : 2 2 * * + + . . ",
"        + + t.t.+.+.E E W W O.O.O.O. X XOXOXI.I.I.I.~.~.=X=XoXoXv.v.c.c.k k i i a a u u p p n n 4 4 : : : : 2 2 * * + + . . ",
"        + + o.o.( ( E E W W _ _ Q Q { { O.O.] ] Q Q 0.0.U.U. X X[.[.D.D.1.1.z z s s s s ;.;. . .8 8 4 4 : : > > q q + + . . ",
"        + + o.o.( ( E E W W _ _ Q Q { { O.O.] ] Q Q 0.0.U.U. X X[.[.D.D.1.1.z z s s s s ;.;. . .8 8 4 4 : : > > q q + + . . ",
". . . . o o / / T T T T ~ ~ ] ] [ _ } } _ _ 0.0.J.J.~ ~ p.p.;X;X&X*Xx.x.>.>.:.:.l l s s ;.;.g g h h q q : : ; - $ $ # # o o ",
". . . . o o / / T T T T ~ ~ ] ] [ { } } _ _ 0.0.J.J.~ ~ p.p.;X;X*X*Xx.x.>.>.:.:.l l s s ;.;.g g h h q q : : $ - $ $ # # o o ",
". . . . o o P P ! ! ~ ~ ] ] Q Q R R _ _ } } w.w.W.W. X XP.P.S.S.N.N.x.x.>.>.>.>.l l l l b.b.3.3.j j w w 0 0 3 3 $ $ O + . o ",
". . . . o o P P ! ! ~ ~ ] ] Q Q R R _ _ } } w.w.W.W. X XP.P.S.S.N.N.x.x.>.>.>.>.l l l l b.b.3.3.j j w w 0 0 3 3 $ $ + + . o ",
"o o . . o o 8 8 ' ' 9.9._ _ ~ ~ Q ~ } } } } _ _ } } 9.9.R.R././.Z.Z.z.z.z.z.m.m.2.2.c c m.m.3.3.| | 5 5 1 1 0 0 $ $ . . . . ",
"o o . . o o 8 8 ' ' 9.9._ _ ~ ~ ~ ~ } } } } _ _ } } 9.9.R.R././.Z.Z.z.z.z.z.m.m.2.2.c c m.m.3.3.| | 5 5 1 1 0 0 $ $ . . . . ",
"o o . . o o 2 2 Z Z Z Z / / ! ! _ _ ! ! R R ! ! ! ! _ _ I.I.@X@X/./.Z.Z.x x k.k.k.k.k.k.3.3.i.i.@X@X$.$.; ; $ $ # # . . . . ",
"o o . . o o 2 2 Z Z Z Z / / ! ! _ _ ! ! R R ! ! ! ! _ _ I.I.@X@X/./.Z.Z.x x k.k.k.k.k.k.3.3.i.i.@X@X$.$.; ; $ $ # # . . . . ",
". . o o o o o o t.t./ / L L ! ! _ _ ! ! ~ ~ ' ' 0.0.! ! o.o.R.R. X XH.H.<.<.k.k.k.k.k.k.v v {.{.s.s.a.a.J J @ @ # #         ",
". . o o o o o o t.t./ / L L ! ! _ _ ! ! ~ ~ ' ' 0.0.! ! o.o.R.R. X XH.H.<.<.k.k.k.k.k.k.v v {.{.s.s.s.a.J J @ @ # #         ",
"o o o o o o o o r r $X$X).).' ' ! ! ! ! ! ! ! ! L.L.L L 9.9.e.e.g.g.F.F.h h l l f f h h f f 7 7 ; ; 3 3 3 3 $ $ . . . .     ",
"o o o o o o o o r r $X$X).).' ' ! ! ! ! ! ! ! ! L.L.L L 9.9.e.e.g.g.F.F.h h l l f f h h f f 7 7 ; ; 3 3 3 3 $ $ . . . .     ",
"        o o o o # # P P @X@X+X+XL L L L L L L L / / K K K K K K G G m.m.v v 1.1.oXoXj.j.2 2 2 2 : 1 & & $ $ + +             ",
"        o o o o # # P P @X@X+X+XL L L L L L L L / / K K K K K K G G m.m.v v 1.1.oXoXj.j.2 2 2 2 1 1 & & $ $ + +             ",
"                o o > > $.$.OXOX.X.XM M L L 5.5.' ' U U P P F F t t M.M.f f g g u.u.XXXX%.%.q q , , # $ # #                 ",
"                o . > > $.$.OXOX.X.XM M L L 5.5.' ' U U P P F F t t M.M.f f g g u.u.XXXX%.%.q q , , $ $ # #                 ",
"                        e e $.$.g.g..X.X5.5.U.U.Y.Y.d.d.5.5.P P p.p.l.l.h h r.r.j.j.'.'.7.7.J J $ $ & & O O                 ",
"                        e e $.$.g.g..X.X5.5.U.U.Y.Y.d.d.5.5.P P p.p.l.l.h h r.r.j.j.'.'.7.7.J J $ $ & & O O                 ",
"                        o o 0 0 8.8.a.a.@X@X`.`.;X;X}.}..X.X'.'././.j j r r f.f.T.T.7.7.#.#.9 9 $ $ o o . .                 ",
"                        o o 0 0 8.8.a.a.@X@X`.`.;X;X}.}..X.X'.'././.j j r r f.f.T.T.7.7.#.#.9 9 $ $ o o . .                 ",
"                        o o o o * * 6.6.@X@X$X$X@X@X;X;X(.(.}.}.{.{.!.!.j.j.7.7.r.r.*.*.7 7 # # o o o o o o                 ",
"                        o o o o * * 6.6.@X@X$X$X@X@X;X;X(.(.}.}.{.{.!.!.j.j.7.7.r.r.*.*.7 7 # # o o o o o o                 ",
"                                . . o o 9 9 h.h.$X$X^.^.`.`.}.}.$X$X-X-X&X&X'.'.&.&.< < + +     o o o o o .                 ",
"                                . . o o 9 9 h.h.$X$X^.^.`.`.}.}.$X$X-X-X&X&X'.'.&.&.< < + +     o o o o o .                 ",
"                                                # # w w &.&.7.7.r.r.$.$.0 0 # #                                             ",
"                                                # # w w &.&.7.7.r.r.$.$.0 0 # #                                             ",
"                                                . . o o o o     . . . . . . . .                                             ",
"                                                . . o o o o     . . . . . . . .                                             ",
"                                                        o o o o o o o o . . . .                                             ",
"                                                        o o o o o o o o . . . .                                             ",
"                                                        o o o o o o o o o o . .                                             ",
"                                                        o o o o o o o o o o . .                                             "
};
