/* XPM */
static char *exit[] = {
/* columns rows colors chars-per-pixel */
"64 64 256 2 ",
"   c #151D2C",
".  c #072837",
"X  c #14352F",
"o  c #313733",
"O  c #561A31",
"+  c #4D333A",
"@  c #6F3035",
"#  c #6B192F",
"$  c #364334",
"%  c #1E4333",
"&  c #494834",
"*  c #6F4732",
"=  c #123646",
"-  c #2A3C46",
";  c #3C1E40",
":  c #52324C",
">  c #6D324E",
",  c #5E2B57",
"<  c #174256",
"1  c #304551",
"2  c #324E68",
"3  c #2B566F",
"4  c #524950",
"5  c #684A56",
"6  c #695257",
"7  c #76565B",
"8  c #734A4E",
"9  c #50526B",
"0  c #754865",
"q  c #775B68",
"w  c #785874",
"e  c #68526E",
"r  c #786876",
"t  c #726873",
"y  c #61636B",
"u  c #8B3332",
"i  c #9A2D32",
"p  c #94443A",
"a  c #954E35",
"s  c #A64937",
"d  c #A65737",
"f  c #B05331",
"g  c #B46A37",
"h  c #AC4D17",
"j  c #CA6F32",
"k  c #90324D",
"l  c #A53A4D",
"z  c #97234C",
"x  c #974A46",
"c  c #89554B",
"v  c #964A57",
"b  c #865859",
"n  c #904F51",
"m  c #A65653",
"M  c #93655A",
"N  c #AE6D50",
"B  c #865866",
"V  c #8D516C",
"C  c #886969",
"Z  c #876776",
"A  c #977776",
"S  c #926F6F",
"D  c #A97866",
"F  c #AD756E",
"G  c #A24A6B",
"H  c #C8734C",
"J  c #C37266",
"K  c #D69638",
"L  c #F2A82E",
"P  c #F6CF2B",
"I  c #95857B",
"U  c #B88977",
"Y  c #B08774",
"T  c #BF835E",
"R  c #D39151",
"E  c #CF8F6A",
"W  c #E9AD75",
"Q  c #E4A160",
"!  c #F6CD75",
"~  c #F2D861",
"^  c #386481",
"/  c #6A5D81",
"(  c #586A86",
")  c #48708F",
"_  c #766883",
"`  c #797587",
"'  c #6D7693",
"]  c #7279A6",
"[  c #4C7CA4",
"{  c #886A88",
"}  c #877988",
"|  c #977886",
" . c #917395",
".. c #A57A8A",
"X. c #927AAA",
"o. c #945A87",
"O. c #7A8698",
"+. c #758896",
"@. c #5B8DB1",
"#. c #7A89A6",
"$. c #6196BB",
"%. c #6796BB",
"&. c #7798BA",
"*. c #718CAB",
"=. c #7CAABF",
"-. c #5A9BCB",
";. c #669CC4",
":. c #6B9CC5",
">. c #639CCD",
",. c #6A9FC9",
"<. c #729DC4",
"1. c #729FC9",
"2. c #7B9DC6",
"3. c #679FD2",
"4. c #6CA1CB",
"5. c #66A1C8",
"6. c #74A3CD",
"7. c #7BA3CC",
"8. c #77A3C6",
"9. c #6EA3D3",
"0. c #6FA8DB",
"q. c #72A5D3",
"w. c #7BA6D2",
"e. c #74A9D4",
"r. c #7CA9D4",
"t. c #72A6D9",
"y. c #74A9DA",
"u. c #7CACDB",
"i. c #7CA6D8",
"p. c #78B3D9",
"a. c #6FADE5",
"s. c #73ACE3",
"d. c #78ACE5",
"f. c #6CB2E3",
"g. c #7AB5E8",
"h. c #7AB9F2",
"j. c #5FA0C7",
"k. c #7DC8EE",
"l. c #888998",
"z. c #988A99",
"x. c #9B949B",
"c. c #968A8C",
"v. c #A78985",
"b. c #B58886",
"n. c #A99499",
"m. c #AF918F",
"M. c #B7A99A",
"N. c #868BA7",
"B. c #8594A7",
"V. c #9598A7",
"C. c #8797BA",
"Z. c #9597B9",
"A. c #9188B2",
"S. c #A996A9",
"D. c #99A5B3",
"F. c #A5A5A9",
"G. c #B8ABA8",
"H. c #AAA8B5",
"J. c #B7ACB8",
"K. c #B8B7B9",
"L. c #B2B3AF",
"P. c #C7928A",
"I. c #D1AA92",
"U. c #EDB78F",
"Y. c #C4A9A7",
"T. c #CDB4AE",
"R. c #EEB5AC",
"E. c #CC95A3",
"W. c #F3CF92",
"Q. c #F9E691",
"!. c #DCC6BA",
"~. c #CCC8BB",
"^. c #F4CAA6",
"/. c #FBD6A9",
"(. c #E5CABD",
"). c #EACEBC",
"_. c #E4C7B8",
"`. c #EBD2BD",
"'. c #F7D5B8",
"]. c #ECCEAD",
"[. c #FBE7B7",
"{. c #FAF0B2",
"}. c #DEC199",
"|. c #899AC6",
" X c #9195C5",
".X c #86A5CA",
"XX c #82AEDB",
"oX c #84A9D5",
"OX c #85B1DC",
"+X c #8AB2DE",
"@X c #8DB9DC",
"#X c #96B8DD",
"$X c #96A6CF",
"%X c #B1B6C7",
"&X c #8CB5E2",
"*X c #8DBBE5",
"=X c #82B6EA",
"-X c #84BAEC",
";X c #8CBDED",
":X c #87B6E6",
">X c #92B6E3",
",X c #93B9E4",
"<X c #93BDEB",
"1X c #9BBDEB",
"2X c #9AB9E5",
"3X c #87BDF1",
"4X c #95BDF1",
"5X c #8DADE4",
"6X c #A6BBE9",
"7X c #B2BBE0",
"8X c #CABCC6",
"9X c #B3C7D3",
"0X c #8BC1EB",
"qX c #93C1ED",
"wX c #9CC1EC",
"eX c #9BC2E5",
"rX c #8BC1F2",
"tX c #94C2F2",
"yX c #9BC5F4",
"uX c #A6C5EC",
"iX c #B5CAEB",
"pX c #A6C8F3",
"aX c #BAD5F8",
"sX c #B2CEF4",
"dX c #C7C6C8",
"fX c #D7CAC5",
"gX c #D4D1D4",
"hX c #E5CBC2",
"jX c #EBD3C5",
"kX c #F5D9C4",
"lX c #F5DACC",
"zX c #F5D7C4",
"xX c #E6D8D6",
"cX c #F5DDD3",
"vX c #EACDCB",
"bX c #FBEAC9",
"nX c #FAF5C8",
"mX c #F7E5D8",
"MX c #FCF8D9",
"NX c #EBE1D4",
"BX c #C8D6EA",
"VX c #D9D7E6",
"CX c #C8DBF5",
"ZX c #D3DCF4",
"AX c #C0CDEA",
"SX c #E3DBE9",
"DX c #DBE3F8",
"FX c #F6E9E7",
"GX c #FCF9E8",
"HX c #E9EAF7",
"JX c #F6ECF5",
"KX c #FDFCF4",
"LX c #FEFDFC",
"PX c #FCF5F6",
"IX c #E8E4E9",
"UX c #BFCCBF",
/* pixels */
">.3.3.t.t.i.i.oXi.i.i.i.oX5Xd.XXi.d.d.s.a.a.a.a.a.a.a.h.d.d.g.d.a.f.0.y.a.a.d.a.d.d.h.d.h.h.h.h.g.h.g.g.=X=X=Xg.=X=Xg.=X=X=X=Xg.",
">.>.3.9.t.3.3.t.9.9.9.9.t.t.i.d.d.s.0.s.a.a.s.s.a.a.a.a.a.d.d.d.a.a.a.f.a.g.a.h.3X4X3X3X=Xd.g.h.h.g.g.-X=X=X=X=X=Xg.=X=X=X=X=X=X",
"-.-.>.3.3.3.3.9.9.3.t.t.t.s.s.s.d.y.a.y.a.a.d.d.=Xg.g.=Xd.-X;X*X3X=Xd.d.a.h.d.3X4XsX6XpXpX1X4X=Xh.h.3X-X=X=X=X=X-X=X=X=X=X-X-X-X",
"-.-.>.>.3.3.3.3.t.t.t.t.t.i.t.t.d.y.d.d.t.s.d.5X>X>X&X>X1X1X6X.X*.4X:Xg.d.a.a.5X6XpXpXsXpXiXpX-Xh.=X=X3X3X-X=X3X-X-X-X-X-X-X-Xh.",
"-.-.-.>.3.3.9.9.t.9.t.t.t.t.d.d.d.d.XX=XOX5X*X<X;X>X>X,X1X2X4X&.( 6X:X@X;X1X>X4XpXpX6XpXsXsXpX4Xh.=X=X=X-X-X-X=X-X-X-X-X-Xh.h.-X",
"-.-.>.>.3.3.3.9.t.t.0.y.i.t.i.oXXXoX5X,X1X4X>X*X>X*X,X,X1X2X>X@.' sX>X*X4X1X1X6X1X1X6XpXeX$X7XAX6X3Xh.3X-X-X-X-X-X-X-X-X-XrXh.rX",
"-.-.-.>.3.3.3.9.9.9.t.e.i.d.d.5X+X#X>X2X,X,X>X:X:X&X&X,X>X2X+X+.( AX2X,X1X1XyX1X1X1X1XwX#XD.xXJXJXHXsX-X-Xk.=X-X;X-X-X-X-XrX0X-X",
"-.-.-.-.3.9.0.9.e.y.u.u.XXOXOX+X5X+X#X2X>X4X,X*X:X&XOX&X*X4X.X*.( BXuX:X1X4XpX6XpX1X6XpX#XdXmXxXSXJXHXiX*Xg.3X-X-X-X-X-X-X-X3X0X",
">.>.-.>.3.q.e.w.e.u.r.XXOXOXOX+X+X+X5X>X>X>X&X&X@X:X@X@X0XeXC.*.( BXCX>X1X1X1X6X1XqX1XwXeX#XiXpXiXSXPXPXCX4X=Xg.-X*Xh.=X0X3X3X;X",
">.>.5.>.3.6.w.w.e.oXoXoXOXOX+XOX+X+X+X>X>X&X&X&X&X:X@X#XqX.X( ( 2 B.$X1X6X1X1X1X<XqXqXeX,X#XwXwX1XiXAXVXSXDXVXCXZXVXAXsX0Xk.rX3X",
">.;.;.5.1.q.7.w.i.XXXXXXOXOX@XOX+X+X+X>X>X&X>X*X*X,X#X#X0X.X+.+.9 D.9 ;XyX1X1X1X1X<XqXwX2X2XwXqXtXtX4Xh.pXZXVXVXiXgXJXZXh.0X0XrX",
"6.4.,.4.6.7.q.r.i.XXoXXXOXOXOXOX+X+X>X>X>X,X2X,X2X,X#X#XeX.XB.+.#.D.D.eX,X<X1X1X2X<X1XuX2X,XyX1XqX<X4X,X&X-Xh.3X0XyXFXVXCXCX;X3X",
"6.6.6.6.r.7.7.7.r.r.r.r.XXXXOX@X&X&X>X>X#X@X>X>X*X,X#X+X@X&.O.+.D.F.iXiX+X,X,X6X0X2X1X1X,X2X4X4X<X<X;X3X3X3X-X;X;XtXaXBXHXaXtXrX",
"6.6.6.7.r.r.r.r.r.oXXXOXXXXXXXOX+X+XOX+X5X=X:X=X-X0X0X@Xk.&.+.B.B.D.dXiX0X0X0XtX*X*X;X4X,X>X4X4X;XrXrX3X;X-XrX3X;X1X1XpXaXpXtXyX",
"4.4.6.6.7.6.6.r.r.r.i.r.r.u.r.OXp.OXOXu.OXp.A.X.#.] ] ] 2.*.+.l.D.F.L.Z.A. XC.A.0X>X3X4X*X>X<X;X;X;XtX4X4X4XtX<XrX3XrXyXyXyXyXyX",
"5.4.4.6.4.6.6.6.6.6.q.e.e.y.e.p.u.u.u.g.g.X. .{  XA.e w &.&.+.B.D.F.y e | D. .X.A.2X4X;X*X<X4X;XtX4XrXyXyXyXtXtXqXtXtXtXyXyXpXpX",
"8.6.6.4.4.4.4.4.q.9.9.q.t.t.y.y.u.s.g.D. . X3Xg.] Z G n k { B.B.D.Z./ 9 { X.5Xk.=XX.$XrX<X>XtXqXtXrXtXyXyXyXyXyXtXtXyXyXyXyXyXyX",
"7.6.6.4.4.4.4.6.9.9.q.3.t.t.y.y.y.u.f.o.] X.O.N.X.0 z z z / #.B.H.%X] : r S. XA. XA. .>X>X#XqXqXtXtXtXwXyXyXwXqXtXtXtXtXtXtXtXyX",
"6.6.6.6.6.6.4.q.q.q.9.0.t.t.y.y.s.e.f.o.' ] X.&.] V , , , ' #.l.K.%X%X2 ] S.|.A.X.A.X.$Xk.2XrXqXtXtXtXtXtX<X4X4XqXqXtXtXrXrXyXpX",
"4.4.6.8.q.6.6.4.3.9.9.9.t.t.t.e.s.p.d.G &.|.<.X.] V z : , w l.l.F.F.%X9 ] S.X.=.$X X .$X-X>XqXqXqXqXtX4XrX4XrXtXtXtXqXtXyXaXaXaX",
"4.5.4.4.4.4.e.4.9.,.9.9.t.9.t.q.s.0.a.G { V o.{ o.V z , ; y B.B.z.F.dXe  .S. .o. . .o.#X,X2XqX<XqXqXrX<XqXtXqXqXrXrXrXyXaXaXCXCX",
":.5.4.4.4.4.4.4.,.9.9.t.9.9.t.0.0.d.a.l z i > / / k k , > r +.V.V.H.dX( / S.0 b l l G <X@X#X;X;X;XrXqXqXqX<XqXqX0XrXyXyXaXaXCXCX",
"4.5.4.5.4.5.5.4.9.9.9.t.e.t.y.e.0.u.a.l z z 0 o.' > z > 0 e B.V.V.F.dX_ e t > V G v G >X>X#X4X;X;XqXqXqX1XqX<XqXyX0XrXaXCXCXDXCX",
":.4.5.4.4.4.4.4.9.9.9.9.t.0.y.e.y.d.a.k z # z O > k z > O 9 +.x.%XK.8X_ 9 Z r ..l v G :X*X#XrX;XqXqXrX1X;X<XqX<XyXpXaXaXCXCXCXDX",
"5.,.,.4.,.,.,.4.9.9.q.9.9.e.e.e.s.u.f.b e , 9 9 2 , z , , e &.V.F.dXgX_ 2 z.| dXz.o...5X3X6X5X1X;XqXqXqXqXqXqXqXpXaXaXCXCXCXBXZX",
";.,.,.;.,.4.4.9.4.q.9.6.e.6.e.e.f.XX1.G  .V V 0 > k b 0 t ' &.l.x.F.SX%X,  .| G.E.z.F  X$X$X7.<X*X;X1XqXqXqXqXqXyXaXaXCXBXZXZXZX",
";.,.;.,.>.,.4.4.q.4.4.q.e.e.e.p.t.i.oXG e , , , > 9 G.M.G.B.#.l.x.x.gXgX: Z | { S.o.v $XoX&.<X>XqX<X1X;X,XqX,XwXsXaXBXBXBXZXDXZX",
";.>.;.;.,.,.,.4.4.9.6.q.4.e.e.e.XX;.' G t w 5 e e 5 M.M.T.V.#.N.B.H.gXgX4 S Z - 1 9 S Z.] { #X2XwXqXeXqX0XeX1XpXsX9XBXCXIXDXDXDX",
";.;.,.;.>.,.>.4.4.4.4.q.q.q.e.e.d.2.#.v w z A m.| v.Y.Y C O.#.N.z.J.dXvXe , > 9 - 0 > > 0 V C. XeXeXtXyXqXuXsXsXCXZXBXDXHXHXHXHX",
";.;.;.,.,.,.,.,.4.4.4.6.e.6.q.p.oXd.oXk 9 : v.T.M.Y.M.c.b ` N.l.x.F.dXlX> O @ : : : # > > 0 / N.pX2X1X1XiXCXZXDXHXHXIXHXHXHXLXHX",
";.;.>.,.;.;.,.;.5.4.4.4.q.6.e.r.oXOX<.G } 8 ..T.M.I.G.x.r +.l.l.x.F.8XmXA O # : + o : @ O 8 ' C.wX2X6XiXBXSXIXIXJXHXHXHXHXHXHXLX",
";.;.,.>.;.4.,.4.4.4.q.q.q.e.e.r.$Xp.C.l V > v.I.Y.M.M.c.6 O.B.V.V.S.dXGXK.4 : 4 C 8 c.E.> B $X.XqXuX9XBXVXIXNXFXIXFXFXFXJXJXPXHX",
";.;.>.5.;.,.,.,.4.4.4.6.6.e.e.i.r.:XoXk : 6 x.T.M.G.G.Y c l.C.V.n.J.SXcX..9 4 8 k 5 ` v.> { %X X4X7XBXgXIXNXNXmXFXIXFXFXFXFXJXJX",
";.;.:.;.;.;.,.,.4.4.4.q.q.q.r.w.r.u.&.l k x v.Y.M.Y.K.I y ` N.l.S.J.VXxX7 0 > + O : ` , O w Z. XuX8X9XgXgXxXNXxXcXmXmXmXNXFXJXFX",
"$.5.;.5.;.4.;.4.4.4.4.q.q.q.e.w.6.p.|.u 0 @ 8 Y.M.M.M.P.c } O.} c.H.gXcX> 8 @ @ # + 7 > @ 0 { X.eX9XdXgXgXjXvXlXlXcXxXmXNXFXFXFX",
";.;.;.;.;.;.,.,.4.4.4.6.6.q.e..Xe.XX|.0 t 8 C 8XT.T.K.G.e ' B.c.m.J.SXcXD c # @ u 8 8 @ @ > p V.#X%XfXfXfXfXhXjXjXcXcXcXmXmXFXFX",
";.;.5.%.;.5.:.,.6.4.4.6.q.6.e.e.r.u.C.l v u u N C D F C @ +.B.x.m.J.SXGXT.q @ a m q t q 8 V Z.Z.K.K.dXfXfXjXhXjXlXlXlXmXmXmXmXFX",
";.;.;.5.:.:.4.8.8.6.6.6.7.6.r.i.oXp..Xp w > 0 e 5 @ u u @ O.V.x.v.G.SXGX].q u a m c 7 6 t ..$XF.J.K.UXfXfX(.hXjXlXlXlXcXmXlXbXmX",
"%.5.;.%.;.5.4.1.:.6.6.7.7.w.w.oXoXu.|.V O.6 t w t @ p n b A B.x.b.Y.SXmXjXC u p a a @ u 4 z. XZ.F.F.~.hXfXjXjXzXzXlXlXlXlXcXlXcX",
"5.%.5.5.;.:.,.:.1.8.6.6.6.r.w.e.oXOX|.l B k u u @ u x @ @ +.Z ` A b.9XFX}.7 @ i p k u u 5 S.S.F.%XF.L.~.fX`.).jX).zXzXlXlXlXlXlX",
"%.5.%.5.5.;.5.:.1.1.6.6.7.w.w.u.oXp.|.c y / ] _ ` Z m b S q t ' G P.8XcX).q * i 8 b q v r x.| G.%XK.L.~.fX!.(.).).zXzXkXlXlXlXlX",
"$.%.5.5.%.5.%.4.:.,.1.7.w.7.w..XoXg.Z.n #.n b q ` C s C c 7 t ' N ..G.mX].v A s x b r e r Z.H.8XdXdXdXdXT.fXhXhX).hXzXzXkXkXkXkX",
"5.$.5.%.;.4.4.:.<.1.1.7.6.7.w..XoXp.Z.l 0 x x w 8 p s M c q r ' N Y H.vXN n Z s x i q n q D.$XH.K.K.%X~.dXfXhXhX(.jXzXzXkXkXkXkX",
"$.;.%.5.%.%.:.:.1.1.1.1.7.w.r.r.oXOXZ.M +.w ' ` *.B h I A r A +.N b.S.T.D b l.F A x q B Z %X9XV.F.x.L.T.~.fXfX(.(.).).zXkXkXkXkX",
"$.;.;.%.;.:.:.:.1.1.1.1.8.r.r..Xr.g. Xm  .n p B B m s S b r Z } J Y | ].I.x Z b S 7 _ Z r 9XIXgXL.F.dXfXfX!.!._.!.(.`.`.`.kX'.kX",
"$.$.$.;.%.:.:.<.:.1.1.8.8.8.8..X.Xu.Z.a B x Z } b p s D A O.v.E.R.E S.R.Q x c p p p C b c 8XPXSXVXgXgX(.fX(.(.(.!.(.(.`.`.jXjX`.",
"$.;.%.;.%.<.:.<.<.1.<.8.8.2.8.oX.XoXZ.Z X.a ` { B.A d c Y l.m._.'.U.E.R.I.N A J M M | b B 8XJXJXJXIXNXhXhXhX(._.`.(._.).).`.`.(.",
";.@.;.%.:.:.:.:.:.:.<.<.8.7..Xp.C..XA.m Z v s S M f d a S S.Y T.^.P.E.R.GXD A F m.F A M b J.KXPXJXPXFXjXhX!.(.).).).).).).jX`.!.",
"$.-.$.%.%.:.%.:.:.<.<.1.8.7.7..X.XXXZ.m C a |  .| m d N v.n.m.E.R.E.E.R.U.N b.E T.D C m M G.LXLXPXJXmXlX(._.(._.).).).).'.lXhX_.",
"@.$.$.$.%.%.&.:.:.&.:.<.1.2.1..X$XoXz.v C a M | x.D f m n.M.n.U U.T.R.R.!.F G.F P.N v.D A Y.KXKXPXmXxXvXhX'.).jXzX'.'.zXzXzX)._.",
"@.@.@.$.%.%.%.%.%.%.<.<.<.2.2..XoX5Xz.s x d D | D f g N n.I.NXW./.bXW U.NXT F E f E n.m M T.LXKXGXFXmXmXzXzX'.zXzX).zXzXzXzXzX_.",
"$.@.$.%.%.%.%.%.&.:.&.<.&.<.2..X|.oXz.h n x ..| D H H N E Q.nXMXMX{.W.^.FXE N F h m v.x c Y.LXKXKXGXGXFXmXzXlXlXzX'.'.'.'.'.'.].",
"@.%.@.$.$.%.%.%.%.%.&.<.<.2.2.8. X$Xc.x M f M Y N N g H mXGX{.GXKXnXGXMXGXE I.hXj N b.m N G.LXLXPXGXMXMXmXbXmXbXbX'.'.'.'.'.'.].",
"@.@.@.$.%.@.@.@.*.;.%.*.&.&.&.|.|.|.S s f f g Y N j K U.LXLXnXMXLXGXLXLXPXR E ^.W E F d m Y.LXKXGXGXGXGXMXbXbXbXbX'.'.'./.^.].^.",
"[ @.^ ) @.@.$.@.*.[ ) ( ( *.&.C.C.#.M a f f g U Q L ~ GXKXLXKXKXLXLXKXLXKXU.E I.E D v.N F I.LXKXGXKXGXGXGXMXbXbXbX'./.'.^./.^.^.",
") ) ) ^ 9 @.@.@.) 9 9 y 9 +.&.B.` t a d f f N E K Q Q GXLXGXKXLXLXLXLXLXKXU.W R.g P.M.D D M.LXLXLXLXKXKXGXMXbXbX[.'.'.'./.'.^.^.",
"^ 3 ^ 3 ^ ^ ) @.) 9 9 9 y +.) y t 7 d h N d N U K R P nXLXKXLXLXKXLXLXLXKXU.E E h P.I.N N U IXKXKXKXLXKXGXGXMX{.[.[././././.^.^.",
"< < < < < < 3 9 9 1 9 2 y 9 4 9 6 6 a d g N N U H K Q nXKXGXLXMXGXMXLXLXKX! I.^.H I.M.N U Y NXGXFXFXFXNXNXGXMXnX[.'./././.W.W.^.",
"= = . = < < - - - 1 1 4 4 4 4 6 7 8 c f d H T Y R L ~ nXGXLXnXMXMXMXGXLXnXW W U.W D m.Y b.v.!.fXxXgXGXKXgXGXMXMXnX[.{././././.^.",
". = = X . X - X - - o & & 4 4 6 8 7 d d g D E b.E L P Q.{.{.~ Q.! MX{.Q.~ W R L L j Y N N D K P P K gXLXxXKXGXGXnXnX[.[.[././.W.",
". . . . X X         o o o + & : * * d d N T E U R L L [.[.Q.[.{.{.GXKX{.~ W j R E j D D s D I ~ P L BXLXIXKXKXGXGXMXnXnX[.[.[./.",
". . . . X X % X o     o o + + & & * a M 7 Y U Y J K L bX/.! bXW./.[.MXnXnXR j N N N Y C M A I n.P ! gXLXIXLXKXKXGXMXnXnXnX[.[./.",
"X X   X X X X X $ & & $ & & & & * 6 7 M C t Y m.S a h E ! ~ ! W W.! ! ! ! R j D F D I I C A A c.! I.fXLXxXKXGXGXMXbXnXbX[.[././.",
"X < X X % % o X o o $ o o o & 4 6 y 7 6 t I t c.S * h T W.R.W.W.I.W.U.U.U.I.I.U Y I F.I C C c.l.c.n.T.PXfXFXIXNXNX!.nX`.].}.}.}."
};
