/* XPM */
static char *exit[] = {
/* columns rows colors chars-per-pixel */
"32 32 86 1 ",
"  c #EF505F",
". c #EF5160",
"X c #EF5261",
"o c #EF5463",
"O c #EF5564",
"+ c #F05866",
"@ c #F05867",
"# c #F16472",
"$ c #EF7480",
"% c #EF7782",
"& c #EF7783",
"* c #EF7883",
"= c #BF93AF",
"- c #B294B6",
"; c #BA94B3",
": c #EF8791",
"> c #EF8F98",
", c #F08D96",
"< c #F59398",
"1 c #F6969F",
"2 c #C797B0",
"3 c #C298B3",
"4 c #C99FB6",
"5 c #D09BB0",
"6 c #D39DB0",
"7 c #EF98A1",
"8 c #EFA4AB",
"9 c #F7ABB2",
"0 c #F7ADB4",
"q c #E0B1B9",
"w c #F8D58A",
"e c #F9DA94",
"r c #F9DC9D",
"t c #FBE8BF",
"y c #81BDEF",
"u c #E1BEC5",
"i c #E1BFC5",
"p c #E1BFC6",
"a c #E8BDC4",
"s c #E9BFC4",
"d c #F9B9C0",
"f c #F9BFC5",
"g c #9CD3DB",
"h c #8CC2EF",
"j c #9FCBEF",
"k c #B4DAE0",
"l c #B5DDE2",
"z c #B5DEE4",
"x c #CBD0D6",
"c c #E2C3C9",
"v c #EFC8CB",
"b c #EFC9CC",
"n c #F9C3C9",
"m c #FAC8CD",
"M c #F4CCD0",
"N c #EDD1D3",
"B c #EDD2D4",
"V c #EED5D6",
"C c #EED5D7",
"Z c #FBE9C0",
"A c #FCECC8",
"S c #CCDBE0",
"D c #CCDFE4",
"F c #CDE7EB",
"G c #CEE8EA",
"H c #CEE8EB",
"J c #CEE9EB",
"K c #CCE8EC",
"L c #CEE9EC",
"P c #EFE8E7",
"I c #EEECEB",
"U c #EEEDEC",
"Y c #EEEDED",
"T c #EEEEED",
"R c #EEEFEE",
"E c #F7E5E6",
"W c #F7E8E8",
"Q c #EEF0EE",
"! c #EEF0EF",
"~ c #EEF1EF",
"^ c #E1EFF0",
"/ c #F0F1F0",
"( c #F1F1F1",
") c #F1F2F1",
"_ c #F2F3F2",
"` c #F5F6F5",
/* pixels */
"gggggggggggggggggggggggggggggggg",
"gggggggggggggggggggggggggggggggg",
"gggggggggggggggggggggggggggggggg",
"gggggggggggggggggggggggggggggggg",
"gggggggggggggggzzggggggggggggggg",
"ggggggggggggggg00ggggggggggggggg",
"ggggggggggggggcOOcgggggggggggggg",
"gggggggggggggS#@o#xggggggggggggg",
"gggggggggggggE>#*7Wggggggggggggg",
"ggggggggggggJ(!!!!!Kgggggggggggg",
"gggggggggggg^I((!!~^gggggggggggg",
"gggggggggggg`!N22B~`gggggggggggg",
"gggggggggggg_Y6hy=Y)gggggggggggg",
"gggggggggggg_I;jh3Y)gggggggggggg",
"gggggggggggg_!a-4s!_gggggggggggg",
"ggggggggggzqvY!PP!Yv0lgggggggggg",
"ggggggggggmX8!!~!!!8Xfgggggggggg",
"gggggggggg0 *~YYY!Y%ofgggggggggg",
"ggggggggggdXOVY!!!VoX0gggggggggg",
"ggggggggggdX@M!!!~MOXdgggggggggg",
"ggggggggggf@iD,::>ScOdgggggggggg",
"ggggggggggmcgx<11<xgcngggggggggg",
"ggggggggggFggJeJJeJggKgggggggggg",
"gggggggggggggJwAAwJggggggggggggg",
"gggggggggggggJwttwJggggggggggggg",
"gggggggggggggJrttrJggggggggggggg",
"ggggggggggggggKAAKgggggggggggggg",
"gggggggggggggggllggggggggggggggg",
"gggggggggggggggggggggggggggggggg",
"gggggggggggggggggggggggggggggggg",
"gggggggggggggggggggggggggggggggg",
"gggggggggggggggggggggggggggggggg"
};
