/* XPM */
static char *exit[] = {
/* columns rows colors chars-per-pixel */
"64 64 214 2 ",
"   c #EF4D5D",
".  c #EF4E5E",
"X  c #EF4F5E",
"o  c #EF4F5F",
"O  c #EF505F",
"+  c #EF5160",
"@  c #EF5261",
"#  c #EF5362",
"$  c #EF5564",
"%  c #EF5665",
"&  c #EF5F6D",
"*  c #F05766",
"=  c #F05866",
"-  c #F05867",
";  c #F05968",
":  c #F05E6C",
">  c #EF606E",
",  c #EF616E",
"<  c #F0606E",
"1  c #F0616E",
"2  c #EF6976",
"3  c #F26D7A",
"4  c #F1717D",
"5  c #B47B9F",
"6  c #D4758C",
"7  c #D9778C",
"8  c #CE7992",
"9  c #D97F93",
"0  c #DC7D90",
"q  c #DF7F90",
"w  c #EF7480",
"e  c #EF7581",
"r  c #F17581",
"t  c #F27480",
"y  c #F27682",
"u  c #F27985",
"i  c #F17B86",
"p  c #F37A86",
"a  c #F37B87",
"s  c #F17C87",
"d  c #7FA1D7",
"f  c #6BB0ED",
"g  c #AC80A6",
"h  c #BF82A1",
"j  c #E28292",
"k  c #E48392",
"l  c #E58492",
"z  c #E98793",
"x  c #EF8690",
"c  c #EF8790",
"v  c #E88B97",
"b  c #EE8B94",
"n  c #E88D98",
"m  c #E98E9A",
"M  c #EA939E",
"N  c #EC939C",
"B  c #EA949F",
"V  c #EF949C",
"C  c #F5909A",
"Z  c #C790A9",
"A  c #EF98A0",
"S  c #EF9EA5",
"D  c #EE9FA6",
"F  c #F597A0",
"G  c #F59CA5",
"H  c #EEA0A7",
"J  c #EEA5AC",
"K  c #EEA8AE",
"L  c #EEA9AF",
"P  c #F7A7AF",
"I  c #F7ACB3",
"U  c #F3AEB4",
"Y  c #EFB3B8",
"T  c #EEB4B9",
"R  c #EFB5B9",
"E  c #EEB5BA",
"W  c #EFBABE",
"Q  c #EFBBBF",
"!  c #F7B0B7",
"~  c #F0B3B8",
"^  c #F0B4B9",
"/  c #F3B6BB",
"(  c #F7B5BC",
")  c #F8B4BB",
"_  c #F8B6BC",
"`  c #F8D485",
"'  c #F8D486",
"]  c #F8D587",
"[  c #F8D588",
"{  c #F8D68C",
"}  c #F8D68D",
"|  c #F9DE9D",
" . c #FADEA3",
".. c #FAE0A3",
"X. c #FAE1AB",
"o. c #FAE2AE",
"O. c #FBE5B4",
"+. c #8E96C8",
"@. c #8998CB",
"#. c #9092C3",
"$. c #A69AC1",
"%. c #97B3DD",
"&. c #93B4DF",
"*. c #A7A3C8",
"=. c #B5ACCA",
"-. c #B3BCD9",
";. c #81BCEE",
":. c #83BCEE",
">. c #8BBBE9",
",. c #80BFF1",
"<. c #F1BBC0",
"1. c #F9BDC3",
"2. c #89C0EE",
"3. c #88C0EF",
"4. c #84C1F1",
"5. c #87C1F0",
"6. c #87C2F0",
"7. c #88C1F0",
"8. c #A5CDEE",
"9. c #A5CEEE",
"0. c #A5CFEF",
"q. c #ABCAE9",
"w. c #A9CFEE",
"e. c #A8D0EF",
"r. c #EEC3C7",
"t. c #EFC5C8",
"y. c #EFC7C9",
"u. c #EFCACC",
"i. c #EFCCCE",
"p. c #F9C0C5",
"a. c #F1C6C9",
"s. c #FACDC9",
"d. c #FACFCB",
"f. c #FAC9CE",
"g. c #FACACF",
"h. c #FACCD0",
"j. c #FACCD1",
"k. c #EED3D5",
"l. c #EED4D6",
"z. c #EED5D6",
"x. c #EED5D7",
"c. c #EED6D7",
"v. c #F0D6D6",
"b. c #F0D6D7",
"n. c #FBD0D4",
"m. c #FBD3D7",
"M. c #FBD4D8",
"N. c #FBDADD",
"B. c #EEDFE0",
"V. c #FBDEE1",
"C. c #FCDEE0",
"Z. c #FCDEE1",
"A. c #EFE2E2",
"S. c #EFE3E3",
"D. c #EFE5E4",
"F. c #EFE5E5",
"G. c #EFE6E6",
"H. c #EEE7E7",
"J. c #EFE7E7",
"K. c #EFE8E7",
"L. c #EFE8E8",
"P. c #EFE9E8",
"I. c #EFE9E9",
"U. c #EEECEC",
"Y. c #EFECEC",
"T. c #EEEDEC",
"R. c #EEEEED",
"E. c #EEEFEE",
"W. c #EFEFEE",
"Q. c #FCE1E4",
"!. c #FCE2E4",
"~. c #FDE5E7",
"^. c #FDE8EA",
"/. c #FDEEEF",
"(. c #EEF0EE",
"). c #EEF0EF",
"_. c #EFF0EF",
"`. c #EEF1EF",
"'. c #EEF1F0",
"]. c #EEF2F0",
"[. c #F0F1F0",
"{. c #F2F3F2",
"}. c #F5F2F2",
"|. c #F3F4F3",
" X c #F5F4F3",
".X c #F4F5F4",
"XX c #F5F6F5",
"oX c #F6F6F6",
"OX c #F6F7F6",
"+X c #F6F7F7",
"@X c #FEF6F7",
"#X c #F7F8F7",
"$X c #FEFBF5",
"%X c #FFFCF7",
"&X c #FEF7F8",
"*X c #FAFAFA",
"=X c #FDF9F9",
"-X c #FEF8F9",
";X c #FFFBFB",
":X c #FBFCFB",
">X c #FFFDF8",
",X c #FFFDF9",
"<X c #FFFDFA",
"1X c #FFFDFB",
"2X c #FCFDFC",
"3X c #FFFCFC",
"4X c #FFFDFD",
"5X c #FFFEFC",
"6X c #FFFEFD",
"7X c #FFFFFD",
"8X c #FEFEFE",
"9X c #FFFEFE",
"0X c #FEFFFE",
"qX c #9CD3DB",
/* pixels */
"qXqXqXqXqXqXqXqXqXqXqXqXqXqXqXqXqXqXqXqXqXqXqXqXqXqXqXqXqXqXqXqXqXqXqXqXqXqXqXqXqXqXqXqXqXqXqXqXqXqXqXqXqXqXqXqXqXqXqXqXqXqXqXqX",
"qXqXqXqXqXqXqXqXqXqXqXqXqXqXqXqXqXqXqXqXqXqXqXqXqXqXqXqXqXqXqXqXqXqXqXqXqXqXqXqXqXqXqXqXqXqXqXqXqXqXqXqXqXqXqXqXqXqXqXqXqXqXqXqX",
"qXqXqXqXqXqXqXqXqXqXqXqXqXqXqXqXqXqXqXqXqXqXqXqXqXqXqXqXqXqXqXqXqXqXqXqXqXqXqXqXqXqXqXqXqXqXqXqXqXqXqXqXqXqXqXqXqXqXqXqXqXqXqXqX",
"qXqXqXqXqXqXqXqXqXqXqXqXqXqXqXqXqXqXqXqXqXqXqXqXqXqXqXqXqXqXqXqXqXqXqXqXqXqXqXqXqXqXqXqXqXqXqXqXqXqXqXqXqXqXqXqXqXqXqXqXqXqXqXqX",
"qXqXqXqXqXqXqXqXqXqXqXqXqXqXqXqXqXqXqXqXqXqXqXqXqXqXqXqXqXqXqXqXqXqXqXqXqXqXqXqXqXqXqXqXqXqXqXqXqXqXqXqXqXqXqXqXqXqXqXqXqXqXqXqX",
"qXqXqXqXqXqXqXqXqXqXqXqXqXqXqXqXqXqXqXqXqXqXqXqXqXqXqXqXqXqXqXqXqXqXqXqXqXqXqXqXqXqXqXqXqXqXqXqXqXqXqXqXqXqXqXqXqXqXqXqXqXqXqXqX",
"qXqXqXqXqXqXqXqXqXqXqXqXqXqXqXqXqXqXqXqXqXqXqXqXqXqXqXqXqXqXqXqXqXqXqXqXqXqXqXqXqXqXqXqXqXqXqXqXqXqXqXqXqXqXqXqXqXqXqXqXqXqXqXqX",
"qXqXqXqXqXqXqXqXqXqXqXqXqXqXqXqXqXqXqXqXqXqXqXqXqXqXqXqXqXqXqXqXqXqXqXqXqXqXqXqXqXqXqXqXqXqXqXqXqXqXqXqXqXqXqXqXqXqXqXqXqXqXqXqX",
"qXqXqXqXqXqXqXqXqXqXqXqXqXqXqXqXqXqXqXqXqXqXqXqXqXqXqXqXqXqXqXqXqXqXqXqXqXqXqXqXqXqXqXqXqXqXqXqXqXqXqXqXqXqXqXqXqXqXqXqXqXqXqXqX",
"qXqXqXqXqXqXqXqXqXqXqXqXqXqXqXqXqXqXqXqXqXqXqXqXqXqXqXqXqXqXqX4X4XqXqXqXqXqXqXqXqXqXqXqXqXqXqXqXqXqXqXqXqXqXqXqXqXqXqXqXqXqXqXqX",
"qXqXqXqXqXqXqXqXqXqXqXqXqXqXqXqXqXqXqXqXqXqXqXqXqXqXqXqXqXqX3XI I 3XqXqXqXqXqXqXqXqXqXqXqXqXqXqXqXqXqXqXqXqXqXqXqXqXqXqXqXqXqXqX",
"qXqXqXqXqXqXqXqXqXqXqXqXqXqXqXqXqXqXqXqXqXqXqXqXqXqXqXqXqXqX) % % ( qXqXqXqXqXqXqXqXqXqXqXqXqXqXqXqXqXqXqXqXqXqXqXqXqXqXqXqXqXqX",
"qXqXqXqXqXqXqXqXqXqXqXqXqXqXqXqXqXqXqXqXqXqXqXqXqXqXqXqXqXh.: + + : j.qXqXqXqXqXqXqXqXqXqXqXqXqXqXqXqXqXqXqXqXqXqXqXqXqXqXqXqXqX",
"qXqXqXqXqXqXqXqXqXqXqXqXqXqXqXqXqXqXqXqXqXqXqXqXqXqXqXqX^.4 O @ @ O 4 ^.qXqXqXqXqXqXqXqXqXqXqXqXqXqXqXqXqXqXqXqXqXqXqXqXqXqXqXqX",
"qXqXqXqXqXqXqXqXqXqXqXqXqXqXqXqXqXqXqXqXqXqXqXqXqXqXqX3XF O @ @ @ @ O F 3XqXqXqXqXqXqXqXqXqXqXqXqXqXqXqXqXqXqXqXqXqXqXqXqXqXqXqX",
"qXqXqXqXqXqXqXqXqXqXqXqXqXqXqXqXqXqXqXqXqXqXqXqXqXqXqXf.- + @ @ @ @ + - g.qXqXqXqXqXqXqXqXqXqXqXqXqXqXqXqXqXqXqXqXqXqXqXqXqXqXqX",
"qXqXqXqXqXqXqXqXqXqXqXqXqXqXqXqXqXqXqXqXqXqXqXqXqXqX0XU & @ O o o O % 2 / 0XqXqXqXqXqXqXqXqXqXqXqXqXqXqXqXqXqXqXqXqXqXqXqXqXqXqX",
"qXqXqXqXqXqXqXqXqXqXqXqXqXqXqXqXqXqXqXqXqXqXqXqXqXqX*XY.c.E S V A L r.B.W.*XqXqXqXqXqXqXqXqXqXqXqXqXqXqXqXqXqXqXqXqXqXqXqXqXqXqX",
"qXqXqXqXqXqXqXqXqXqXqXqXqXqXqXqXqXqXqXqXqXqXqXqXqX8X|.E.`.].'.`.'.].].).E.|.0XqXqXqXqXqXqXqXqXqXqXqXqXqXqXqXqXqXqXqXqXqXqXqXqXqX",
"qXqXqXqXqXqXqXqXqXqXqXqXqXqXqXqXqXqXqXqXqXqXqXqXqX:X_.E.E.E.E.E.E.E.E.E.E._.:XqXqXqXqXqXqXqXqXqXqXqXqXqXqXqXqXqXqXqXqXqXqXqXqXqX",
"qXqXqXqXqXqXqXqXqXqXqXqXqXqXqXqXqXqXqXqXqXqXqXqXqXOXE.E.E.E.E.E.E.E.E.E.E.E.OXqXqXqXqXqXqXqXqXqXqXqXqXqXqXqXqXqXqXqXqXqXqXqXqXqX",
"qXqXqXqXqXqXqXqXqXqXqXqXqXqXqXqXqXqXqXqXqXqXqXqX8X{.E.E.E.(.].E.E.'.(.E.E.E.{.8XqXqXqXqXqXqXqXqXqXqXqXqXqXqXqXqXqXqXqXqXqXqXqXqX",
"qXqXqXqXqXqXqXqXqXqXqXqXqXqXqXqXqXqXqXqXqXqXqXqX2X[.E.E.).F.~ M B R G.).E.E.[.2XqXqXqXqXqXqXqXqXqXqXqXqXqXqXqXqXqXqXqXqXqXqXqXqX",
"qXqXqXqXqXqXqXqXqXqXqXqXqXqXqXqXqXqXqXqXqXqXqXqX*XE.E.).A.v h *.+.5 n S.).E.E.*XqXqXqXqXqXqXqXqXqXqXqXqXqXqXqXqXqXqXqXqXqXqXqXqX",
"qXqXqXqXqXqXqXqXqXqXqXqXqXqXqXqXqXqXqXqXqXqXqXqX#XE.E.).J Z :.5.6.f g K `.E.E.#XqXqXqXqXqXqXqXqXqXqXqXqXqXqXqXqXqXqXqXqXqXqXqXqX",
"qXqXqXqXqXqXqXqXqXqXqXqXqXqXqXqXqXqXqXqXqXqXqXqXXXE.E.J.l -.0.;.2.7.d j P.E.E.oXqXqXqXqXqXqXqXqXqXqXqXqXqXqXqXqXqXqXqXqXqXqXqXqX",
"qXqXqXqXqXqXqXqXqXqXqXqXqXqXqXqXqXqXqXqXqXqXqXqX.XE.(.D.0 &.e.8.;.3.%.q G.E.E..XqXqXqXqXqXqXqXqXqXqXqXqXqXqXqXqXqXqXqXqXqXqXqXqX",
"qXqXqXqXqXqXqXqXqXqXqXqXqXqXqXqXqXqXqXqXqXqXqXqX.XE.E.T.m #.4.w.9.,.$.N R.E.E..XqXqXqXqXqXqXqXqXqXqXqXqXqXqXqXqXqXqXqXqXqXqXqXqX",
"qXqXqXqXqXqXqXqXqXqXqXqXqXqXqXqXqXqXqXqXqXqXqXqX.XE.E.'.u.6 @.>.q.=.7 i.'.E.E..XqXqXqXqXqXqXqXqXqXqXqXqXqXqXqXqXqXqXqXqXqXqXqXqX",
"qXqXqXqXqXqXqXqXqXqXqXqXqXqXqXqXqXqXqXqXqXqXqXqX XE.E.E.(.t.k 8 9 z y.(.E.E.E.}.qXqXqXqXqXqXqXqXqXqXqXqXqXqXqXqXqXqXqXqXqXqXqXqX",
"qXqXqXqXqXqXqXqXqXqXqXqXqXqXqXqXqXqXqXqXqXqXqXn.<.).E.E.E.`.K.v.b.L.`.E.E.E.).^ 1.3XqXqXqXqXqXqXqXqXqXqXqXqXqXqXqXqXqXqXqXqXqXqX",
"qXqXqXqXqXqXqXqXqXqXqXqXqXqXqXqXqXqXqXqXqX4Xp.< b E.E.E.E.E.E.`.`.E.E.E.E.E.E.b $ G /.qXqXqXqXqXqXqXqXqXqXqXqXqXqXqXqXqXqXqXqXqX",
"qXqXqXqXqXqXqXqXqXqXqXqXqXqXqXqXqXqXqXqX9X! ; . e H.E.E.E.E.E.E.E.E.E.E.E.E.H.w o O C ;XqXqXqXqXqXqXqXqXqXqXqXqXqXqXqXqXqXqXqXqX",
"qXqXqXqXqXqXqXqXqXqXqXqXqXqXqXqXqXqXqXqX&Xp X + > x.`.E.E.E.E.E.E.E.E.E.E.'.z.& + o p &XqXqXqXqXqXqXqXqXqXqXqXqXqXqXqXqXqXqXqXqX",
"qXqXqXqXqXqXqXqXqXqXqXqXqXqXqXqXqXqXqXqX&Xa o @ # T ].E.E.E.E.E.E.E.E.E.E.].Y @ @ o a &XqXqXqXqXqXqXqXqXqXqXqXqXqXqXqXqXqXqXqXqX",
"qXqXqXqXqXqXqXqXqXqXqXqXqXqXqXqXqXqXqXqX&Xa o @ o c T.E.E.E.E.E.E.E.E.E.E.U.x o @ o a &XqXqXqXqXqXqXqXqXqXqXqXqXqXqXqXqXqXqXqXqX",
"qXqXqXqXqXqXqXqXqXqXqXqXqXqXqXqXqXqXqXqX&Xa o @ + , l.'.E.E.E.E.E.E.E.E.'.k.> + @ o a &XqXqXqXqXqXqXqXqXqXqXqXqXqXqXqXqXqXqXqXqX",
"qXqXqXqXqXqXqXqXqXqXqXqXqXqXqXqXqXqXqXqX&Xa o @ @ + H (.E.E.E.E.E.E.E.E.(.D + @ @ o a &XqXqXqXqXqXqXqXqXqXqXqXqXqXqXqXqXqXqXqXqX",
"qXqXqXqXqXqXqXqXqXqXqXqXqXqXqXqXqXqXqXqX&Xa o @ @ X s I.E.E.E.E.E.E.E.E.I.i X @ @ o a &XqXqXqXqXqXqXqXqXqXqXqXqXqXqXqXqXqXqXqXqX",
"qXqXqXqXqXqXqXqXqXqXqXqXqXqXqXqXqXqXqXqX&Xa o @ O 3 M.+X'.].].].].].].'.+XM.3 O @ o a &XqXqXqXqXqXqXqXqXqXqXqXqXqXqXqXqXqXqXqXqX",
"qXqXqXqXqXqXqXqXqXqXqXqXqXqXqXqXqXqXqXqX&Xa o O 4 N.qX=Xa.W Q Q Q Q W a.=XqXN.4 O o a &XqXqXqXqXqXqXqXqXqXqXqXqXqXqXqXqXqXqXqXqX",
"qXqXqXqXqXqXqXqXqXqXqXqXqXqXqXqXqXqXqXqX&Xa   t C.qXqXZ.1 @ # # # # @ 1 Z.qXqXV.r   a &XqXqXqXqXqXqXqXqXqXqXqXqXqXqXqXqXqXqXqXqX",
"qXqXqXqXqXqXqXqXqXqXqXqXqXqXqXqXqXqXqXqX&Xu y Q.qXqXqX_ * - = = = = - * _ qXqXqXQ.y u &XqXqXqXqXqXqXqXqXqXqXqXqXqXqXqXqXqXqXqXqX",
"qXqXqXqXqXqXqXqXqXqXqXqXqXqXqXqXqXqXqXqX@XP !.qXqXqXqX~.s.d.m.m.m.m.d.s.~.qXqXqXqX!.P @XqXqXqXqXqXqXqXqXqXqXqXqXqXqXqXqXqXqXqXqX",
"qXqXqXqXqXqXqXqXqXqXqXqXqXqXqXqXqXqXqXqX4X-XqXqXqXqXqX7X| ..qXqXqXqX..| 7XqXqXqXqXqX-X4XqXqXqXqXqXqXqXqXqXqXqXqXqXqXqXqXqXqXqXqX",
"qXqXqXqXqXqXqXqXqXqXqXqXqXqXqXqXqXqXqXqXqXqXqXqXqXqXqX>X` { 1X1X1X1X{ ` >XqXqXqXqXqXqXqXqXqXqXqXqXqXqXqXqXqXqXqXqXqXqXqXqXqXqXqX",
"qXqXqXqXqXqXqXqXqXqXqXqXqXqXqXqXqXqXqXqXqXqXqXqXqXqXqX,X' } ,XX.X.,X} ' ,XqXqXqXqXqXqXqXqXqXqXqXqXqXqXqXqXqXqXqXqXqXqXqXqXqXqXqX",
"qXqXqXqXqXqXqXqXqXqXqXqXqXqXqXqXqXqXqXqXqXqXqXqXqXqXqX,X' } $X] ] $X} ' ,XqXqXqXqXqXqXqXqXqXqXqXqXqXqXqXqXqXqXqXqXqXqXqXqXqXqXqX",
"qXqXqXqXqXqXqXqXqXqXqXqXqXqXqXqXqXqXqXqXqXqXqXqXqXqXqX,X' } $X[ [ $X} ' ,XqXqXqXqXqXqXqXqXqXqXqXqXqXqXqXqXqXqXqXqXqXqXqXqXqXqXqX",
"qXqXqXqXqXqXqXqXqXqXqXqXqXqXqXqXqXqXqXqXqXqXqXqXqXqXqX,X' } $X[ [ $X} ' ,XqXqXqXqXqXqXqXqXqXqXqXqXqXqXqXqXqXqXqXqXqXqXqXqXqXqXqX",
"qXqXqXqXqXqXqXqXqXqXqXqXqXqXqXqXqXqXqXqXqXqXqXqXqXqXqX,X` { $X[ [ $X{ ` ,XqXqXqXqXqXqXqXqXqXqXqXqXqXqXqXqXqXqXqXqXqXqXqXqXqXqXqX",
"qXqXqXqXqXqXqXqXqXqXqXqXqXqXqXqXqXqXqXqXqXqXqXqXqXqXqX6Xo.O.,X[ [ ,XO.o.6XqXqXqXqXqXqXqXqXqXqXqXqXqXqXqXqXqXqXqXqXqXqXqXqXqXqXqX",
"qXqXqXqXqXqXqXqXqXqXqXqXqXqXqXqXqXqXqXqXqXqXqXqXqXqXqXqX5X6X<X] ] <X6X5XqXqXqXqXqXqXqXqXqXqXqXqXqXqXqXqXqXqXqXqXqXqXqXqXqXqXqXqX",
"qXqXqXqXqXqXqXqXqXqXqXqXqXqXqXqXqXqXqXqXqXqXqXqXqXqXqXqXqXqX5X . .5XqXqXqXqXqXqXqXqXqXqXqXqXqXqXqXqXqXqXqXqXqXqXqXqXqXqXqXqXqXqX",
"qXqXqXqXqXqXqXqXqXqXqXqXqXqXqXqXqXqXqXqXqXqXqXqXqXqXqXqXqXqXqX%X%XqXqXqXqXqXqXqXqXqXqXqXqXqXqXqXqXqXqXqXqXqXqXqXqXqXqXqXqXqXqXqX",
"qXqXqXqXqXqXqXqXqXqXqXqXqXqXqXqXqXqXqXqXqXqXqXqXqXqXqXqXqXqXqXqXqXqXqXqXqXqXqXqXqXqXqXqXqXqXqXqXqXqXqXqXqXqXqXqXqXqXqXqXqXqXqXqX",
"qXqXqXqXqXqXqXqXqXqXqXqXqXqXqXqXqXqXqXqXqXqXqXqXqXqXqXqXqXqXqXqXqXqXqXqXqXqXqXqXqXqXqXqXqXqXqXqXqXqXqXqXqXqXqXqXqXqXqXqXqXqXqXqX",
"qXqXqXqXqXqXqXqXqXqXqXqXqXqXqXqXqXqXqXqXqXqXqXqXqXqXqXqXqXqXqXqXqXqXqXqXqXqXqXqXqXqXqXqXqXqXqXqXqXqXqXqXqXqXqXqXqXqXqXqXqXqXqXqX",
"qXqXqXqXqXqXqXqXqXqXqXqXqXqXqXqXqXqXqXqXqXqXqXqXqXqXqXqXqXqXqXqXqXqXqXqXqXqXqXqXqXqXqXqXqXqXqXqXqXqXqXqXqXqXqXqXqXqXqXqXqXqXqXqX",
"qXqXqXqXqXqXqXqXqXqXqXqXqXqXqXqXqXqXqXqXqXqXqXqXqXqXqXqXqXqXqXqXqXqXqXqXqXqXqXqXqXqXqXqXqXqXqXqXqXqXqXqXqXqXqXqXqXqXqXqXqXqXqXqX",
"qXqXqXqXqXqXqXqXqXqXqXqXqXqXqXqXqXqXqXqXqXqXqXqXqXqXqXqXqXqXqXqXqXqXqXqXqXqXqXqXqXqXqXqXqXqXqXqXqXqXqXqXqXqXqXqXqXqXqXqXqXqXqXqX",
"qXqXqXqXqXqXqXqXqXqXqXqXqXqXqXqXqXqXqXqXqXqXqXqXqXqXqXqXqXqXqXqXqXqXqXqXqXqXqXqXqXqXqXqXqXqXqXqXqXqXqXqXqXqXqXqXqXqXqXqXqXqXqXqX",
"qXqXqXqXqXqXqXqXqXqXqXqXqXqXqXqXqXqXqXqXqXqXqXqXqXqXqXqXqXqXqXqXqXqXqXqXqXqXqXqXqXqXqXqXqXqXqXqXqXqXqXqXqXqXqXqXqXqXqXqXqXqXqXqX",
"qXqXqXqXqXqXqXqXqXqXqXqXqXqXqXqXqXqXqXqXqXqXqXqXqXqXqXqXqXqXqXqXqXqXqXqXqXqXqXqXqXqXqXqXqXqXqXqXqXqXqXqXqXqXqXqXqXqXqXqXqXqXqXqX"
};
