/* XPM */
static char *fish[] = {
/* columns rows colors chars-per-pixel */
"64 64 244 2 ",
"   c #0B2926",
".  c #0E3535",
"X  c #16393A",
"o  c #0D302B",
"O  c #30322D",
"+  c #101C17",
"@  c #403C3D",
"#  c #28403E",
"$  c #46453C",
"%  c #173D42",
"&  c #263D42",
"*  c #353E45",
"=  c #0F3E67",
"-  c #103F68",
";  c #403C44",
":  c #1B4245",
">  c #16454A",
",  c #1A464B",
"<  c #1A4B4D",
"1  c #164548",
"2  c #1A4B55",
"3  c #1E5255",
"4  c #1F5458",
"5  c #1A504F",
"6  c #23454A",
"7  c #29464A",
"8  c #384949",
"9  c #244C54",
"0  c #364E52",
"q  c #225459",
"w  c #2C545A",
"e  c #24575A",
"r  c #365459",
"t  c #0F426A",
"y  c #12436D",
"u  c #174A66",
"i  c #154671",
"p  c #144A74",
"a  c #164C79",
"s  c #184E7A",
"d  c #184B75",
"f  c #1B527D",
"g  c #1C5679",
"h  c #1B506D",
"j  c #275B64",
"k  c #375D65",
"l  c #245A75",
"z  c #244E68",
"x  c #296468",
"c  c #36636B",
"v  c #276578",
"b  c #366A74",
"n  c #347478",
"m  c #2F7175",
"M  c #474D45",
"N  c #475758",
"B  c #555959",
"V  c #4F5047",
"C  c #485D63",
"Z  c #515864",
"A  c #46646B",
"S  c #576569",
"D  c #486972",
"F  c #576D75",
"G  c #58757B",
"H  c #4B737B",
"J  c #67706D",
"K  c #677579",
"L  c #73797B",
"P  c #686B72",
"I  c #616559",
"U  c #38807E",
"Y  c #83816C",
"T  c #1C5483",
"R  c #1D5A83",
"E  c #1E5689",
"W  c #1E5A8A",
"Q  c #175281",
"!  c #215D85",
"~  c #225C8D",
"^  c #255D91",
"/  c #285E93",
"(  c #236286",
")  c #2B6D84",
"_  c #24638B",
"`  c #296C8C",
"'  c #276987",
"]  c #2C738C",
"[  c #2D7589",
"{  c #357988",
"}  c #266393",
"|  c #296495",
" . c #2B6B93",
".. c #2A659A",
"X. c #2C6B9B",
"o. c #276795",
"O. c #306E98",
"+. c #2E7493",
"@. c #2E7993",
"#. c #2E729C",
"$. c #2F789E",
"%. c #317594",
"&. c #327C94",
"*. c #32749D",
"=. c #347C9B",
"-. c #387E99",
";. c #326C83",
":. c #2D6BA1",
">. c #306FA2",
",. c #3373A3",
"<. c #357BA3",
"1. c #397DA4",
"2. c #397CAB",
"3. c #3679AB",
"4. c #497883",
"5. c #5C7B84",
"6. c #757B82",
"7. c #647C85",
"8. c #3C8488",
"9. c #358195",
"0. c #36819B",
"q. c #39849D",
"w. c #3B8A9C",
"e. c #3B8595",
"r. c #3781A4",
"t. c #3A84A4",
"y. c #3D8AA4",
"u. c #3B85AA",
"i. c #3E8AAA",
"p. c #3783A8",
"a. c #3E91A4",
"s. c #3D88B1",
"d. c #5A878D",
"f. c #4F8997",
"g. c #69828A",
"h. c #788589",
"j. c #788A94",
"k. c #7E9398",
"l. c #6C8690",
"z. c #418DA5",
"x. c #428DAA",
"c. c #4193A4",
"v. c #4493AC",
"b. c #4995AE",
"n. c #4599AD",
"m. c #499BAE",
"M. c #4499A5",
"N. c #448DB5",
"B. c #4594B1",
"V. c #4996B1",
"C. c #469AB2",
"Z. c #4B9BB3",
"A. c #4B9EB9",
"S. c #4794BB",
"D. c #519FB6",
"F. c #549EB8",
"G. c #599DAE",
"H. c #7399AC",
"J. c #4DA2B4",
"K. c #4EA3BB",
"L. c #52A2B6",
"P. c #53A4BB",
"I. c #53AABD",
"U. c #58A7BD",
"Y. c #52ACB8",
"T. c #60A3BB",
"R. c #4E9BC3",
"E. c #55ACC3",
"W. c #5AAEC3",
"Q. c #56A9C7",
"!. c #5BB2C5",
"~. c #5CB5CA",
"^. c #5DBACD",
"/. c #57B3C6",
"(. c #5EBCD2",
"). c #5EB4D6",
"_. c #4FA5C7",
"`. c #61B6CB",
"'. c #62BBCD",
"]. c #67B5CA",
"[. c #75B7CB",
"{. c #63BDD2",
"}. c #67BDDD",
"|. c #6EB1C7",
" X c #65C3D4",
".X c #69C4D5",
"XX c #6ACAD5",
"oX c #64C4D9",
"OX c #6BCBDB",
"+X c #67C8DA",
"@X c #6CD1DC",
"#X c #69C7D4",
"$X c #75D8E5",
"%X c #6BC9E2",
"&X c #868B8C",
"*X c #8A9699",
"=X c #949996",
"-X c #898F8F",
";X c #A6A69C",
":X c #929CA4",
">X c #8B9EA6",
",X c #9AA5A7",
"<X c #90A7B1",
"1X c #A2ACAB",
"2X c #A6A8A4",
"3X c #B6B4A8",
"4X c #A3ADB2",
"5X c #A9B5B8",
"6X c #B7B9B7",
"7X c #ADAEA8",
"8X c #96A29B",
"9X c #C0BFB8",
"0X c #BBC1BE",
"qX c #C7C4BB",
"wX c #D0CABB",
"eX c #9BB9C4",
"rX c #B2BDC5",
"tX c #BCC4C6",
"yX c #AECBD6",
"uX c #95C9D6",
"iX c #C3C6C3",
"pX c #CBCDCB",
"aX c #C6CAC9",
"sX c #CCD1CD",
"dX c #D3D4CD",
"fX c #D9D5CA",
"gX c #C6CCD2",
"hX c #CDD2D5",
"jX c #D5D6D2",
"kX c #DCDBD4",
"lX c #D7DADB",
"zX c #D2CCC2",
"xX c #E1DED7",
"cX c #E0D8CC",
"vX c #DFE0DB",
"bX c #E5E3DC",
"nX c #E9E4D8",
"mX c #CBDBE4",
"MX c #DAE3E8",
"NX c #CCE5ED",
"BX c #ECEAE3",
"VX c #E7E8E7",
"CX c #F8F7F7",
"ZX c #F0F0EC",
/* pixels */
"9.0.] @.0._.n.0.r.0.a.a.p.a.p._.n.(./.9./.E.(.(.(./._.+XoXoX+XoX XoX^././.@XoX+X+X$X$X+X X/._.^./.a.a.a.Y.w.0.a.0.w.9.@.@.a.a.9.",
"] @.w.0.9.a.n.] w.9.9.0.a.C.n./.J.J.(.s./.(.oX X(.(.^. X$X^.+X@XoXoX^.oX@X(.@X$X@XXXXX^././.(.Y.Y./.J.n.a.y.a.a.9.9.w.a.0.9.9.[ ",
") ' @.q.9.g K.a.] 0.9.0.M._.a.C.E.w.C./.^.^.^./.^./.oX^. XoX(.{.+X$X$X XXX X^.(.E.+XJ.K.@XK.n.J.K.Y.M.Y.J.a.a.0.9.C.a.w.w.9.[ 9.",
"' ` +.) ] 0.w.M.9.9.p.p.n.K.Y.C.K.C.K.I.(.(.(.(.(.^./.$X/.$X%XOX@XoXoXoX/./.oXY./.K.E.@XY././.J.C.a.K.a.a.9.a.J.a.a.w.a.9.9.' v ",
"' [ [ g ] 9.9.' p.a.i.@Xn.C.n./.c.C.I.I.^.E.~.(.(.+X~.!. X~.XX$X X$X$XXXoXoX@X/.(.XX^.Y.^.E.K.I.n.a.C.a.a.a.a.a.M.w.a.w.9.9.9.v ",
"[ [ ' W @.9.p.] 9.n.p.Y.Y.a.C.C.t.Z./.P.'./.(.~. X/.oX^.^.^.~.!. X~.!.XX/.Y./.(. X~.oXE.n.J.C.J.a.n.C.a.a.J.Y.J.w.M.M.9.9.v 9.9.",
"' ' @.@.9.@.r.0.0.a.a.i.M._.C./.A.C.I.n.~.~.!.!./.!.{. X+X!.oX X XXX^. X!.XX^.^.XX~.Y./.I.K.Z.~.n./.w.a.a.a.a.w.w.M.9.( 9.9.9.a.",
"9.+.a.0.0.r.0.a.0.0.a.a.a./._._.{.E.I.A.I.^.!.{.^.OX{.^.E.I.~. X!.!. X~.I.XX^. X~.K.E.K.K.E.Z.m.a.0.a.a.y.a.a.9.9.9.9.' 9.9.[ 9.",
"] K.r.a.i.a.B.y.9.r.t.B.B.n.K.A.C.Z.P.W.A.!.{.'. X#X'.'.{.OXXX].^..X.X`.XX{.W. X X`.!.L.^.I.I.m.n.C.J.Y.n.a.9.9.9.9.9.9.9.' ' ' ",
"( 9.y.9.n.0.a.C.s.a.a.K.C.n.K.Z.Z.Z.C.W.~.Q.I.Q.W.~.~.`..X.X.X{.@XXXOX'.!.!.'.P.Y.~.~.Y.!.m.Y.J.n.K.a.a.9.9.0.0.9.9.9.] ] 9.' 9.",
"9.@.i._.0.$.B.v.a.y._./.B.I.Z.K.x.W.E.~.!.OXW.{. X!.`.'.$X`.!..X'.!.!.~..X].~.`.XX'..X^.~.~.U.L.I.I./.w.a.p.0.0.9.9.9.9.' 9.9.' ",
"v ' y.n.a.C.E.n.0.a.C.C.B.J.A.E.A.Q.~.P.E.E.'.!.!.'. X'.]..X{.W.`.~..X X#X X@XXX XXX!.XX X!.~.Y.J.Y.J.J.J.a.a.9.9.w.9.9.9.9.9.' ",
"] ` 0.p.y.w.c.b.K.Z.z.A.I.b.I.K.W.P.~.E.~.`.~.~.`.'.'.`.`.W.!.W.'.~..X.X`..X].!.W.P.U.L.L.m.L.z.m.w.q.y.n.0.w.w.a.w.9.0.9.9.R ( ",
"9.@.i.a.=.&.t.t.Z.v.z.J.b.B.C.P.Z.I.E.`.W.{.`.`.~.!.~.`.!.'..XOX'.{.{..X].].I.!.!.P.L.m.U.M.L.z.q.v.z.9.w.p.0.a.0.9.9.9.' 9.9.9.",
"@.r.y.p.v.=.y.t.t.z.b.v.v.A.v.Z.P.E.~.I.E.P.U.W.~.W.!.`.W.~.'.[.OX.X{.{.~.I.U.L.!.L.U.U.L.m.z.q.z.v.t.9.0.0.0.9.0.0.o.0.9.9.w.w.",
"@.0.i.a.r.q.q.v.q.9.C.b.x.P.V.Z.W.U.Q.~.W.W.W.Q.`.`.'.`.`.!.'.{.].P.!.].Y.L.Z.L.D.L.L.m.c.v.z.1.-.9.z.t.0.0.9.0.0.9.9.9.9.9.a.0.",
"@.i.n.J.y.<.t.y.q.i.v.C.D.D.D.D.E.P.E.W.W.W.W.W.'.{.`.`.{..X}.{.`.`.`.W.P.U.F.D.D.L.D.b.b.x.x.t.z.z.e.9.q.e.y.9.9.9.0.=.9.] =.] ",
"0.y.t.@.y.9.q.9.t.P.v.D.P.L.W.P.F.E.U.`.I.`.`.`.`.~.!.`.U.].'.W.W.U.D.V.Z.F.Z.V.V.b.b.b.v.V.x.1.z.t.-.t.z.q.e.t.-.=.&.0.&.` ' ' ",
"$.0.r.r.=.i.y.y.x.z.v.V.I.Z.P.P.D.`.`.W.`.E.W.E.R.E.Q.Q.`..X!.W.P.D.P.D.Z.D.F.D.D.D.b.x.x.x.z.z.t.1.t.t.t.t.r.-.1.$.&.$.+.` ` %.",
"@.9.@.r.t.Z.v.y.v.z.i.S.V.Z.D.P.W.E.U.~./.E.].[.[.[.|.R.P.C.P.P.U.E.U.F.U.U.L.P.U.V.b.v.b.x.z.z.y.y.t.q.r.y.r.1.=.=.=.+.` ` ` ] ",
"&.=.0.0.0.y.y.r.i.y.x.V.V.F.V.F.F.R.R.|.uXNXZXCXCXCXCXZXMXyXuX|.E.A._.K.P.F.D.L.b.x.b.x.z.b.x.1.r.y.1.t.r.r.z.=.=.q.%.+.+.+.+.` ",
"&.] =.t.q.0.x.i.V.Q.P.V.b.Z.F.b.A.[.NXCXVXvXlXMXlXvXZXZXCXCXCXCXMXyX[.I.K.D.V.V.b.D.b.x.x.x.z.z.z.t.t.z.r.e.q.t.q.=.=.%.&.%.] ` ",
"=.=.0.=.t.q.y.z.V.Z.F.V.b.D.R.Q.yXVXbXrX2X-X6XrXrXpXhXjXlXMXMXVXZXCXZXmX[.A.P.D.D.x.x.D.x.b.x.z.t.z.-.q.t.q.t.9.=.=.=.&.] %.` ` ",
"v.=.=.0.t.i.i.Z.V.b.x.V.Z.A.Q.hX5X:X6X5X6.L -X9XzXiXpXsXhXjXlXhXgXhXMXCXZXrXG.V.F.b.b.b.Z.x.z.x.z.1.z.1.q.t.t.=.-.%.%.%.+.' ' ( ",
"q.=.0.i.=.u.i.v.B.B.V.V.N.|.mXgX5X1XtXVXtXrX7X6XqXiXzXjXjXjXsXpXhXaXrXgXVXCXlXf.D.P.V.b.D.z.x.x.z.-.t.t.t.y.1.=.=.+.%.]  .` ` _ ",
"=.=.t.v.y.t.y.x.x.V.Z.V.T.4X*XL I I ;X3XwXfX6X;XzXnXBXBXbXBXVXjXgXaXaXgXrXaXZXlXg.x.L.Z.x.z.b.z.t.z.1.y.r.r.t.-.-.-.%.` ` ` _ ' ",
"=.r.t.y.q.t.x.z.i.b.x.T.rX*XP O + I 9X-XwX3X;XqXxXxXxXxXnXxXkXkXkXlXiXaXgX5XrXVXMX4.z.N.z.x.x.z.t.t.y.1.q.=.t.q.=.*. . .' %.` _ ",
"=.0.r.0.i.t.=.t.b.x.R.gXhXMX4XP =XsXcXqXwX9XwXfXxXnXBXxXkXkXbXnXbXkXjX6XrXgXtXrXVXlXH x.V.x.t.x.x.t.t.t.u.y.r.q.*.%.%.=.%.%._ ' ",
"r.r.u.=.t.t.i.x.i.|.gXrX:X4X2XgXZXCXxXlXBXqX3XfXnXZXZXxXxXfXnXkXfXsXiXsXpXrXpXlXrXVXgXb x.x.1.z.1.t.z.1.x.1.=.=.=.q.=.-.%.` ' ' ",
"t.=.t.t.t.i.x.s.H.:X6.6.6.6.2XBXCXZXxXfXnXfX=XqXcXZXZXZXbXBXVXfXfXpXzXkXzXiXiXaXjXrXVXeXj x.z.1.1.1.1.=.*.=.1.=.=.=.1. . ._ ( ( ",
"0.0.&.=.t.t.s.H.6.F Z 6.&Xj.9XnXwX9XBXnXBXxX3XkXcXBXZXBXVXVXVXbXlXfXjXjXzXzXiXrX6XgXgXVX<X;.x.1.z.1.1.t.t.1.1.-.*.*.%.+. ._ ( _ ",
"i.u.t.t.t.i.f.P 7.6.P 6.6.&X9XqX3X3XBXBXBXxXwXbXdXdXxXkXzXkXxXVXkXpXiXjXaX6X6X9XrXrXtXmXVX5.] x.1.z.t.1.-.1.=.*.=.%.%. .` ' _ ' ",
"x.y.u.N.N.N.7 O ; 6.-X6.P -X3X3X&X2XBXxXcX3X7X3Xh.8X1X0X0XtXsXdXkXjXsXtXjXtX0X0X0X1X1X5XtX,Xx u.u.t.1.1.<.*.*.-.*.*.%. ._ _ _ ! ",
"t.1.y.y.t.N.j.B * * P L P &X,X=XL ;XkXzX3XY 6.S N C J h.*X8X0X0XtXsXsXkXvXjXsX0X1X,X,X*Xk.5X>Xm u.t.1.1.1.=.=.*.%.` _  ._ _ ! l ",
"N.t.u.1.p.z.5.H.>X7.N Z B L 6.&XL -X8X;X-X-X=X=Xh.K K K h.8X2X7X,X7X1X0XaXyXsXtXtX4X,X*X*Xj.4XeXq.1.t.*.*.%.@.] +. .| _ ` _ W R ",
"u.t.z.t.u.z.n m d.<X*XN Z B S K S L h.L I L J J B @ $ N I J h.-X*X-X-X-X8X1X1X0XtXtX4X>X*Xh.K 4XeXu.=.1.,.#.b 5.d. .` _ _ ! ! g ",
"r.t.i.u.i.u.e.n { { d.A N A F K N F 5.N A B S J V O + O O $ V I B J L h.h.*X8X>X>X,X5X5X<Xk.K K :XeXx.,.+.7 N d.) _ _ _ ! ( ! R ",
"t.u.N.u.u.u.u.{ n n n x w k D F M D k 8 G A r A @ V O O O O $ B I J G g.l.k.k.j.*Xj.k.*X*X>X*Xg.5.h.yXH.* O G 4.v ` _ _ _ ! ! g ",
"p.u.i.p.r.u.t.r.9.U 8.m e j w c 7 k r r G c r # 8 $ $ $ $ $ M 8 0 S S F J G G d.g.g.7.g.7.l.j.l.7.5.g.j.C 9 5.{ v  . ._ _ ! R g ",
"p.r.t.p.<.t.p.r.i.e.f.e.m x x x 6 w r b n N r 8 0 C N N N N N N N N r N A C C A A H 5.5.5.5.5.F 5.7.5.D D k H v g  .` _ ( R Q g ",
"t.<.r.u.t.r.u.r.u.u.t.n { m x j 4 q 9 c c r 0 w 0 D H D S A S N 0 8 8 8 r 0 0 0 0 r A k A H D D D 5.5.4.c c n v _ _ ( ! W R g f ",
"r.r.r.t.r.u.p.p.u.u.x.z.m n n x j 5 q x j 9 6 w 0 c c A D D r 0 0 0 8 8 0 8 7 7 8 7 w 0 w k w k k k k H 4.b n l ( _ W R g T f f ",
"u.p.r.<.r.r.u.t.i.p.p.i.x.v 9 q 5 3 3 3 5 1 : 9 9 c c r k c r r 0 w 7 7 7 & 7 7 & & 9 6 6 9 , q 2 q q j ;.b n x ! _ W R f f f s ",
"r.r.r.p.<.1.p.t.u.x.1.p.1.x.{ x j j 4 3 < < 1 1 3 j w w r w r 7 w 0 : # 7 % & 9 & 6 9 6 , 2 5 5 4 j 4 4 b D c g ~ ! R T f f s s ",
"p.<.p.<.r.u.<.p.p.2.1.1.x.t.u.z.n m x e 3 < < 1 3 4 3 < 9 < 6 : 6 : X X 6 X : 6 , , 2 > 2 4 e x b { m > j c c g W R f f f s a d ",
"$.<.<.<.<.<.<.1.<.1.1.1.1.1.*.1.z.e.8.m x 3 X 1 3 j 4 5 < < , < 5 : X % : , > 3 , % % > 2 > m 0.X.X.` q 9 c k h W R f s a a d p ",
"$.3.,.<.<.<.1.<.1.<.1.1.1.1.1.=.*.1.e.8.U m 4 1 X 1 3 j x 4 3 4 5 < 1 1 , 1 1 3 , > < > 1 % 2 v  .} } l 6 c w g R f f s a a p p ",
"p.<.$.<.<.<.<.,.,.<.,.,.1.,.,.*.1.1.t.r.z.e.8.8.x < X X : < e x x e 5 5 5 , 3 3 < > % . . > > h | } ^ ! 9 r j h T f f a a p p i ",
"$.$.<.<.$.<.,.=.#.<.<.,.*.*.1.1.1.1.1.1.1.1.4.-.n x 5 : X   X 6 e n c e 9 6 X     +   X , 2 l ..| | ~ ! 9 r j u ! s s s s d i i ",
"$.$.#.#.#.$.#.,.#.,.*.<.*.*.=.1.*.1.1.*.,.1.,.1.;.5 o     o & l v ;.%.*.*.| ;.l l 2 . X : z  ...| ^ ~ ^ z r q i ! s s s d d i i ",
"#.#.#.#.#.X.o.o.#.#.*.*.*.*.*.*.*.,.=.,.*.*.,.1.2.<.v 2 X o   % l *.:.>.,.,.2.2.,.3.X.`  .:...| | ~ ~ ~ s r 9 u s s s s d i i i ",
"o.o.X.X._ o.o.o.} X.*.*.X.*...X.*.*.,.,.,.,.,.,.,.,.2.2.1.O.;.;.v N.R.x.3.,.,.,.>.:.:.*.......| / ^ ~ E T w w 2 s s s d d d i i ",
"_ } o.o.o.o.o.} |  .X.*.*.X.X.X.X.*.X.X.*.,.*.,.,.,.,.,.,.3.3.,.R.%X}.R.,.,.,.,.,.>.X.X...X...| / ~ ~ E T z j = s s s p p i i i ",
"_ _ o.o.} _ } o.| | .. .X.O...O.O...X.,.X.,.X.>.,.,.,.3.3.,.,.2.}.}.Q.2.2.,.,.,.>.>.X.....:.../ / ~ ~ T T z w 2 d s d p p p i - ",
"W ~ } W ~ ~ ~ } _ ^ | .. ... .X.O.O.X.X.*.,.>.>.,.,.,.,.,.,.,.2.R.).N.,.,.,.>.>.>.:.>.X......./ ^ ~ ~ T T ! z 2 s s p p p i i y ",
"Q W W W W W W W _ ~ _ | | | | | ....X.X.2.R.s.>.,.,.,.,.,.,.,.,.>.,.,.>.,.>.>.>.>.X.X.X.....} } ~ ~ ~ ! T f l u s p p p i i y y ",
"Q T T T T W W W E } X.#...o._ ^ } | | ..R.).R.R.2.3.3.>.>.>.>.3.>.>.>.>.>.>.>.>.:.....X.......} ^ ~ E E T f s s p p p p y y y y ",
"a s Q Q Q Q W W W <.s.s.3.o.W ^ / | ..| 2.S.N._.R.s.3.3.2.3.3.>.,.>.>.>.>.>.:.:.:.:.......S.s.} ^ ~ ^ E f f s a p p p i i i y t ",
"a a Q T T W W W ~ #.$.p.s.o.~ ^ ^ / } } N.u.,.S.2.3.>.R.R.s.3.:.>.:.:.>.>.:.:.:.:./ :./ 3._.N...^ ^ W E T f a p p p y i y y t t ",
"a a f Q ~ X.X.X...} W o...W W W ^ ^ } ..2.<.} X.3.:.:.3.3.3.>.:.:.:.:.:.:.:.,.N.3./ :...,.S.,.../ ^ ^ T f f f p p i i y t t - = ",
"a a a T $.$.#.#.#.o.~ W E E E ~ ~ ^ } #.......:...:.:.:.:.:.:.:.:.:.:.:.:.:.:.2.:.:.>.:...:.:./ / ^ } } E ~ R p p i y u t - - = ",
"p a a Q W o.} } o.#.$.~ T E E W ~ ^ ^ X.......:.:.:.:.:.:.:.:.:.:.:.:.:.:.:.:.:.:.:.:.:.....} / / / $.s.u.B.} p i y y t t t = = ",
"p p a a Q Q Q o.p.p.#.~ T E E :.o.^ ~ ^ X.X.} ,.,.:.:.:.:.:.:.:.:.:.:.:.:...:...........} } ^ } ^ o.3.s.p.( o.a y i t t t - - = ",
"p p a p a Q Q p.s.:.} T T E W #.X.E ^ ^ o.../ :.:.:.>.>.:.:.:.:.:.:...:.:.:.:.:...........} } ^ ^ X.s.r.W a p i i i p i y t = = "
};
