/* XPM */
static char *fish[] = {
/* columns rows colors chars-per-pixel */
"32 32 171 2 ",
"   c #4B75B8",
".  c #5181BF",
"X  c #478FCC",
"o  c #468ECD",
"O  c #458ECE",
"+  c #448ECF",
"@  c #488ECD",
"#  c #488FCD",
"$  c #498FCD",
"%  c #5386C3",
"&  c #4691CE",
"*  c #4990CD",
"=  c #4A90CD",
"-  c #4990CE",
";  c #4890CF",
":  c #4A90CE",
">  c #4A91CE",
",  c #4B91CE",
"<  c #4B92CF",
"1  c #4C92CD",
"2  c #4F94CE",
"3  c #5294CF",
"4  c #5697CF",
"5  c #5C95CF",
"6  c #4A94D0",
"7  c #4F98D2",
"8  c #5797D0",
"9  c #549ED6",
"0  c #559FD7",
"q  c #5A9AD0",
"w  c #5E9BD1",
"e  c #639FD3",
"r  c #5BA0D5",
"t  c #59A2D8",
"y  c #59A4DA",
"u  c #5BA6DC",
"i  c #5DA8DD",
"p  c #5DA8DE",
"a  c #5DA9DF",
"s  c #5FA8DE",
"d  c #5FAADE",
"f  c #6BA4D4",
"g  c #77ACD7",
"h  c #78ACD8",
"j  c #7BAED9",
"k  c #64B2E3",
"l  c #67B6E5",
"z  c #66B7E5",
"x  c #67B6E6",
"c  c #6FB5E1",
"v  c #69B6E6",
"b  c #69B7E7",
"n  c #6BBBE9",
"m  c #6DBCE8",
"M  c #6FBEEC",
"N  c #74BDE6",
"B  c #72C2EE",
"V  c #73C5EF",
"C  c #7ECAEE",
"Z  c #7FCBEE",
"A  c #75C6F0",
"S  c #76C7F2",
"D  c #75C8F3",
"F  c #76CAF4",
"G  c #77CBF4",
"H  c #77CBF5",
"J  c #77CCF4",
"K  c #77CCF5",
"L  c #77CDF5",
"P  c #78C9F2",
"I  c #78CBF3",
"U  c #79CBF3",
"Y  c #7BCAF2",
"T  c #7CCAF1",
"R  c #7CCBF1",
"E  c #78CCF3",
"W  c #7ACCF3",
"Q  c #7BCCF3",
"!  c #7DCCF3",
"~  c #7AC9F4",
"^  c #78CAF4",
"/  c #78CBF4",
"(  c #7ACBF4",
")  c #7BCBF4",
"_  c #78CCF4",
"`  c #79CCF4",
"'  c #78CCF5",
"]  c #79CCF5",
"[  c #79CDF5",
"{  c #7BCCF5",
"}  c #7ACDF5",
"|  c #79CEF5",
" . c #78CCF6",
".. c #79CDF6",
"X. c #78CCF7",
"o. c #7ACEF6",
"O. c #7BCEF6",
"+. c #7BCFF6",
"@. c #85B4DC",
"#. c #88B7DB",
"$. c #8BB7DC",
"%. c #8DB8DD",
"&. c #8EBEDC",
"*. c #8AC0D9",
"=. c #97C4DE",
"-. c #9AC6DE",
";. c #9AC9DC",
":. c #9ECBDE",
">. c #9DCCDD",
",. c #9ECCDE",
"<. c #9CD3DB",
"1. c #AAD7DF",
"2. c #80C9EE",
"3. c #81CBEF",
"4. c #8FCBEA",
"5. c #8ECEEF",
"6. c #99C1E1",
"7. c #9BC3E3",
"8. c #9AC7E4",
"9. c #9CC4E4",
"0. c #98C9E3",
"q. c #96D5ED",
"w. c #97D6EE",
"e. c #9CD7EE",
"r. c #9ED9ED",
"t. c #80CEF3",
"y. c #86D0F3",
"u. c #85D2F5",
"i. c #89D3F4",
"p. c #8FD5F4",
"a. c #93D4F3",
"s. c #99D7F2",
"d. c #9BD8F4",
"f. c #A7CDE3",
"g. c #A8CBE5",
"h. c #A6D1E0",
"j. c #A6D2E1",
"k. c #AADAE2",
"l. c #ACD9E1",
"z. c #AEDAE1",
"x. c #ACDAE2",
"c. c #AADCE7",
"v. c #A1D5EA",
"b. c #A5D9E8",
"n. c #A3DAEE",
"m. c #A4DAEE",
"M. c #B3D9E3",
"N. c #B0DBE2",
"B. c #B1DCE2",
"V. c #B2DDE2",
"C. c #B2DCE3",
"Z. c #B2DDE3",
"A. c #B4DEE2",
"S. c #B6DBE4",
"D. c #B9DCE4",
"F. c #BADFE7",
"G. c #BAD4E8",
"H. c #B1DEE8",
"J. c #B3DEE8",
"K. c #A7DCF5",
"L. c #B7DCF0",
"P. c #BEE3E8",
"I. c #BFE5EF",
"U. c #C0D9EA",
"Y. c #C0E1E6",
"T. c #C4E4E7",
"R. c #C4E5E9",
"E. c #C8E6E9",
"W. c #C9E7EB",
"Q. c #CAE7EA",
"!. c #E4F3F0",
/* pixels */
"<.<.<.<.<.<.<.<.<.<.<.<.<.<.<.<.<.<.<.<.<.<.<.<.<.<.<.<.<.<.<.<.",
"<.<.<.<.<.<.<.<.<.<.<.<.<.<.<.<.<.<.<.<.<.<.<.<.<.<.<.<.<.<.<.<.",
"<.<.<.<.<.<.<.<.<.<.<.<.<.<.<.<.<.<.<.<.<.<.<.<.<.<.<.<.<.<.<.<.",
"<.<.<.<.<.<.<.<.<.<.<.<.<.<.<.<.<.<.<.<.<.<.<.<.<.<.<.<.<.<.<.<.",
"<.<.<.<.<.<.<.<.<.<.<.<.<.<.<.<.<.<.<.<.<.<.<.<.<.<.<.<.<.<.<.<.",
"<.<.<.<.<.<.<.<.<.<.<.<.<.<.<.<.<.<.<.<.<.<.<.<.<.<.<.<.<.<.<.<.",
"<.<.<.<.<.<.<.<.<.<.<.<.<.<.<.<.<.<.<.<.<.<.<.<.<.<.<.<.<.<.<.<.",
"<.<.<.<.<.<.<.<.<.<.<.<.<.<.<.<.<.Z.<.<.<.<.<.<.<.<.<.<.<.<.<.<.",
"<.<.<.<.<.<.<.<.<.<.<.<.<.<.G.7.-.0.R.<.<.<.<.<.<.<.<.<.<.<.<.<.",
"<.<.<.<.<.<.<.<.<.<.<.<.<.Z.4 $ o & 6 #.M.A.<.<.<.<.<.<.<.<.<.<.",
"<.<.A.W.Z.<.<.<.<.<.<.<.Q.;.o 7 t s f a t 0.!.<.<.<.<.<.<.<.<.<.",
"<.<.1.f h 9.:.C.Z.<.A.Z.v.5.G [ [ J [ [ [ K u.e.P.Z.<.<.<.<.<.<.",
"<.<.A.&.* $ o w f.<.I.i.F U [ U E E [ ) [ [ [ G ! m.Z.A.<.<.<.<.",
"<.<.<.S.* * * , o 4.U [ [ [ K ) [ [ [ [ k G ) [ E K d.l.<.<.<.<.",
"<.<.<.A.e , , * v [ [ [ U [ ) U [ U E S a [ ) U U U K p.l.Z.<.<.",
"<.<.<.<.j , * s G [ R U [ U ) [ ) U 3.m n ) [ .   U [ E d.Z.<.<.",
"<.<.<.A.@.6 $ B [ F 3.R C C C C R C C c N R [ 5 % U ) [ F C.<.<.",
"<.<.<.<.h * * 0 [ ) E E E [ ) [ ) ) G M l [ ) [ [ [ U U r.A.<.<.",
"<.<.<.M.q , * $ y [ [ [ [ [ [ E [ E [ U y [ [ [ U [ U q.<.<.<.<.",
"<.<.<.j.$ $ $ $ , L.! ) ) U G ) ) [ ) [ l v ) G ) [ m.Z.A.<.<.<.",
"<.<.<.$.o & 8 %.D.<.k.w.+.G ) G [ U [ [ [ V ) ) a.H.<.<.<.<.<.<.",
"<.<.Y.7.-.,.k.A.<.<.<.A.R.n.v S K [ +.R U y.K.c.A.<.<.<.<.<.<.<.",
"<.<.<.<.<.<.<.<.<.<.<.<.<.C.8 $ & 6 0 8.F.A.<.<.<.<.<.<.<.<.<.<.",
"<.<.<.<.<.<.<.<.<.<.<.<.<.<.G.g.*.h.W.<.<.<.<.<.<.<.<.<.<.<.<.<.",
"<.<.<.<.<.<.<.<.<.<.<.<.<.<.<.<.<.<.<.<.<.<.<.<.<.<.<.<.<.<.<.<.",
"<.<.<.<.<.<.<.<.<.<.<.<.<.<.<.<.<.<.<.<.<.<.<.<.<.<.<.<.<.<.<.<.",
"<.<.<.<.<.<.<.<.<.<.<.<.<.<.<.<.<.<.<.<.<.<.<.<.<.<.<.<.<.<.<.<.",
"<.<.<.<.<.<.<.<.<.<.<.<.<.<.<.<.<.<.<.<.<.<.<.<.<.<.<.<.<.<.<.<.",
"<.<.<.<.<.<.<.<.<.<.<.<.<.<.<.<.<.<.<.<.<.<.<.<.<.<.<.<.<.<.<.<.",
"<.<.<.<.<.<.<.<.<.<.<.<.<.<.<.<.<.<.<.<.<.<.<.<.<.<.<.<.<.<.<.<.",
"<.<.<.<.<.<.<.<.<.<.<.<.<.<.<.<.<.<.<.<.<.<.<.<.<.<.<.<.<.<.<.<.",
"<.<.<.<.<.<.<.<.<.<.<.<.<.<.<.<.<.<.<.<.<.<.<.<.<.<.<.<.<.<.<.<."
};
