/* XPM */
static char *fish[] = {
/* columns rows colors chars-per-pixel */
"64 32 137 2 ",
"   c #755B2E",
".  c #7B5D2C",
"X  c #6A5A33",
"o  c #705B32",
"O  c #68613E",
"+  c #5A6953",
"@  c #6C6245",
"#  c #63644D",
"$  c #726143",
"%  c #73664A",
"&  c #716F49",
"*  c #6F794D",
"=  c #6B6650",
"-  c #6D6A55",
";  c #667657",
":  c #6B7852",
">  c #637359",
",  c #6F765F",
"<  c #7C7054",
"1  c #646D62",
"2  c #657161",
"3  c #6B7566",
"4  c #6C756A",
"5  c #7A7D70",
"6  c #85612D",
"7  c #8A6630",
"8  c #866A36",
"9  c #8D6933",
"0  c #856C3B",
"q  c #926D35",
"w  c #8F7239",
"e  c #94743B",
"r  c #99763A",
"t  c #977844",
"y  c #837354",
"u  c #88775C",
"i  c #937B54",
"p  c #867E6A",
"a  c #7E8B66",
"s  c #798372",
"d  c #7D847B",
"f  c #A2823F",
"g  c #9D8255",
"h  c #99875C",
"j  c #AB8B4B",
"k  c #AF924D",
"l  c #AF9257",
"z  c #B29452",
"x  c #BD9E5A",
"c  c #8F8267",
"v  c #83916C",
"b  c #8C8973",
"n  c #84887D",
"m  c #8B8D7C",
"M  c #9A8D72",
"N  c #899775",
"B  c #8B9973",
"V  c #8F9F7F",
"C  c #A29572",
"Z  c #96A17C",
"A  c #9AA37C",
"S  c #B3A76D",
"D  c #BAA96B",
"F  c #ABAB7E",
"G  c #B3AB74",
"H  c #B2AB7C",
"J  c #B1B07E",
"K  c #C3A867",
"L  c #C2AC6C",
"P  c #848B82",
"I  c #8A8E82",
"U  c #8E9489",
"Y  c #969181",
"T  c #9E9686",
"R  c #9B9F8F",
"E  c #959A92",
"W  c #A59F91",
"Q  c #9BA783",
"!  c #9DAA89",
"~  c #9CA195",
"^  c #ACAE81",
"/  c #AEB084",
"(  c #A4B08F",
")  c #B5B483",
"_  c #B9B686",
"`  c #BDBA89",
"'  c #A9A496",
"]  c #A2AB96",
"[  c #A3A698",
"{  c #A3A99A",
"}  c #ABAD9B",
"|  c #B8AC97",
" . c #A6B291",
".. c #BAB698",
"X. c #B4BD9D",
"o. c #A6ABA1",
"O. c #AAAFA6",
"+. c #B1AEA1",
"@. c #A5B0A1",
"#. c #AAB2A3",
"$. c #ABB3A9",
"%. c #B2BCB1",
"&. c #B9BEB6",
"*. c #C4B499",
"=. c #C3BD9A",
"-. c #B5C2B2",
";. c #BCC0B5",
":. c #BEC6BC",
">. c #C6CDAF",
",. c #C4C9B4",
"<. c #C1C6BC",
"1. c #C1C8BF",
"2. c #CBD0B4",
"3. c #CFD3B8",
"4. c #C4C7C0",
"5. c #CACEC6",
"6. c #CACEC8",
"7. c #CBD1C6",
"8. c #CDD3CA",
"9. c #D1D5CC",
"0. c #D3D6D1",
"q. c #D5D9D2",
"w. c #D9DCD5",
"e. c #DCE0D3",
"r. c #DEE2DB",
"t. c #E0E4DD",
"y. c #E3E6E0",
"u. c #E6E9E4",
"i. c #E9EBE5",
"p. c #EBEDE9",
"a. c #EEF0EC",
"s. c #F0F1E6",
"d. c #F2F3EE",
"f. c #F5F6F3",
"g. c #F7F8F5",
"h. c #F9FAF7",
"j. c #FEFFFC",
/* pixels */
"j.j.j.j.j.j.j.j.j.j.j.j.j.j.j.j.j.j.j.j.j.j.j.j.j.j.j.j.y.y.9.9.w.w.i.i.j.j.j.j.j.j.j.j.j.j.j.j.j.j.j.j.j.j.j.j.j.j.j.j.j.j.j.j.",
"j.j.j.j.j.j.j.j.j.j.j.j.j.j.j.j.j.j.j.j.j.j.j.j.j.j.j.j.y.y.9.9.w.w.i.i.j.j.j.j.j.j.j.j.j.j.j.j.j.j.j.j.j.j.j.j.j.j.j.j.j.j.j.j.",
"j.j.j.j.j.j.j.j.j.j.j.j.j.j.j.j.j.j.j.j.j.j.j.j.j.j.a.a.4.4.O.O.&.&.9.9.g.g.j.j.j.j.j.j.j.j.j.j.j.j.j.j.j.j.j.j.j.j.j.j.j.j.j.j.",
"j.j.j.j.j.j.j.j.j.j.j.j.j.j.j.j.j.j.j.j.j.j.j.j.j.j.a.a.4.4.O.O.&.&.9.9.g.g.j.j.j.j.j.j.j.j.j.j.j.j.j.j.j.j.j.j.j.j.j.j.j.j.j.j.",
"j.j.j.j.j.j.j.j.j.j.j.j.j.j.j.j.j.j.j.j.j.j.h.h.d.d.8.8.E E 3 3 s s o.o.i.i.g.g.j.j.j.j.j.j.j.j.j.j.j.j.j.j.j.j.j.j.j.j.j.j.j.j.",
"j.j.j.j.j.j.j.j.j.j.j.j.j.j.j.j.j.j.j.j.j.j.h.h.d.d.8.8.E E 3 3 s s o.o.i.i.g.g.j.j.j.j.j.j.j.j.j.j.j.j.j.j.j.j.j.j.j.j.j.j.j.j.",
"j.j.j.j.j.j.j.j.j.j.g.g.w.w.6.6.+.+.' ' T T T T Y Y p p - - # # 2 2 s s Y Y $.$.;.;.w.w.a.a.j.j.j.j.j.j.j.j.j.j.j.j.h.h.h.h.j.j.",
"j.j.j.j.j.j.j.j.j.j.g.g.w.w.6.6.+.+.' ' T T T T Y Y p p - - # # 2 2 s s Y Y $.$.;.;.w.w.a.a.j.j.j.j.j.j.j.j.j.j.j.j.h.h.h.h.j.j.",
"j.j.j.j.j.j.f.f.p.p.0.0.&.&.} } M M c c u u u u y y % % # # X X = = - - , , m m R R ;.;.w.w.p.p.j.j.j.j.h.h.f.f.p.p.r.r.p.p.f.f.",
"j.j.j.j.j.j.f.f.p.p.0.0.&.&.} } M M c c u u u u y y % % # # X X = = - - , , m m R R ;.;.w.w.p.p.j.j.j.j.h.h.f.f.p.p.r.r.p.p.f.f.",
"j.j.j.j.j.j.8.8.$.$.2 2 = = $ $ q q q q q q 9 9 7 7 7 7 6 6 . .     o o X X O O @ @ - - R R ;.;.j.j.g.g.u.u.&.&.o.o.U U &.&.0.0.",
"j.j.j.j.j.j.8.8.$.$.2 2 = = $ $ q q q q q q 9 9 7 7 7 7 6 6 . .     o o X X O O @ @ - - R R ;.;.j.j.g.g.u.u.&.&.o.o.U U &.&.0.0.",
"j.j.y.y.:.:.U U s s > > - - & & l l z z j j j j j j j j f f f f r r e e w w 8 8 0 0 0 0 h h C C *.*.| | W W I I P P P P &.&.u.u.",
"j.j.y.y.:.:.U U s s > > - - & & l l z z j j j j j j j j f f f f r r e e w w 8 8 0 0 0 0 h h C C *.*.| | W W I I P P P P &.&.u.u.",
"g.g.q.q.~ ~ 2 2 + + ; ; : : * * L L K K K K x x x x x x l l k k j j f f f f r r r r q q e e t t g g i i < < 1 1 4 4 P P 6.6.g.g.",
"g.g.q.q.~ ~ 2 2 + + ; ; : : * * L L K K K K x x x x x x l l k k j j f f f f r r r r q q e e t t g g i i < < 1 1 4 4 P P 6.6.g.g.",
"7.7.#.#.v v v v a a B B B B v v J J J J ` ` ` ` _ _ ) ) / / J J H H G G S S S S S S K K D D D D C C C C b b 5 5 d d ~ ~ q.q.h.h.",
"7.7.#.#.v v v v a a B B B B v v J J J J ` ` ` ` _ _ ) ) / / J J H H G G S S S S S S K K D D D D C C C C b b 5 5 d d ~ ~ q.q.h.h.",
"w.w.,.,.! ! Q Q ( ( Q Q Z Z N N F F F F / / / / / / / / / / / / ^ ^ ^ ^ F F F F ^ ^ H H ^ ^ ^ ^ =.=.....[ [ I I P P E E 6.6.p.p.",
"w.w.,.,.! ! Q Q ( ( Q Q Z Z N N F F F F / / / / / / / / / / / / ^ ^ ^ ^ F F F F ^ ^ H H ^ ^ ^ ^ =.=.....[ [ I I P P E E 6.6.p.p.",
"s.s.e.e.>.>.3.3.2.2.X.X.! ! V V A A A A A A A A ! ! Q Q ! ! ( (  . .( ( ] ] ] ] [ [ } } { { { { y.y.w.w.8.8.{ { E E U U &.&.w.w.",
"s.s.e.e.>.>.3.3.2.2.X.X.! ! V V A A A A A A A A ! ! Q Q ! ! ( (  . .( ( ] ] ] ] [ [ } } { { { { y.y.w.w.8.8.{ { E E U U &.&.w.w.",
"j.j.h.h.s.s.t.t.e.e.7.7.:.:.-.-.-.-.#.#.~ ~ -.-.%.%.@.@.@.@.$.$.7.7.8.8.9.9.w.w.q.q.<.<.R R n n p.p.a.a.f.f.p.p.y.y.w.w.y.y.p.p.",
"j.j.h.h.s.s.t.t.e.e.7.7.:.:.-.-.-.-.#.#.~ ~ -.-.%.%.@.@.@.@.$.$.7.7.8.8.9.9.w.w.q.q.<.<.R R n n p.p.a.a.f.f.p.p.y.y.w.w.y.y.p.p.",
"j.j.j.j.h.h.d.d.s.s.t.t.q.q.8.8.1.1.1.1.&.&.5.5.5.5.%.%.$.$.o.o.r.r.t.t.u.u.p.p.p.p.q.q.O.O.U U p.p.f.f.j.j.j.j.h.h.f.f.d.d.f.f.",
"j.j.j.j.h.h.d.d.s.s.t.t.q.q.8.8.1.1.1.1.&.&.5.5.5.5.%.%.$.$.o.o.r.r.t.t.u.u.p.p.p.p.q.q.O.O.U U p.p.f.f.j.j.j.j.h.h.f.f.d.d.f.f.",
"j.j.j.j.j.j.j.j.j.j.j.j.j.j.j.j.j.j.j.j.j.j.j.j.g.g.r.r.%.%.E E j.j.j.j.j.j.j.j.j.j.j.j.u.u.q.q.d.d.h.h.j.j.j.j.j.j.j.j.j.j.j.j.",
"j.j.j.j.j.j.j.j.j.j.j.j.j.j.j.j.j.j.j.j.j.j.j.j.g.g.r.r.%.%.E E j.j.j.j.j.j.j.j.j.j.j.j.u.u.q.q.d.d.h.h.j.j.j.j.j.j.j.j.j.j.j.j.",
"g.g.j.j.h.h.j.j.j.j.j.j.j.j.j.j.j.j.j.j.j.j.j.j.j.j.d.d.0.0.:.:.j.j.j.j.j.j.j.j.j.j.j.j.g.g.p.p.h.h.j.j.j.j.j.j.j.j.j.j.j.j.j.j.",
"g.g.j.j.h.h.j.j.j.j.j.j.j.j.j.j.j.j.j.j.j.j.j.j.j.j.d.d.0.0.:.:.j.j.j.j.j.j.j.j.j.j.j.j.g.g.p.p.h.h.j.j.j.j.j.j.j.j.j.j.j.j.j.j.",
"h.h.f.f.d.d.f.f.f.f.j.j.j.j.j.j.j.j.j.j.j.j.j.j.j.j.j.j.p.p.r.r.j.j.j.j.j.j.j.j.j.j.j.j.j.j.j.j.j.j.j.j.j.j.j.j.j.j.j.j.j.j.j.j.",
"h.h.f.f.d.d.f.f.f.f.j.j.j.j.j.j.j.j.j.j.j.j.j.j.j.j.j.j.p.p.r.r.j.j.j.j.j.j.j.j.j.j.j.j.j.j.j.j.j.j.j.j.j.j.j.j.j.j.j.j.j.j.j.j."
};
