/* XPM */
static char *fish[] = {
/* columns rows colors chars-per-pixel */
"64 64 118 2 ",
"   c #3F5FAD",
".  c #3F61AA",
"X  c #4266AE",
"o  c #456AAF",
"O  c #486DB4",
"+  c #4A74B5",
"@  c #4F83BF",
"#  c #3784C6",
"$  c #3888C7",
"%  c #3282C8",
"&  c #3C87C9",
"*  c #3D88CB",
"=  c #448CCC",
"-  c #498FCD",
";  c #568AC5",
":  c #4790CA",
">  c #4B91CE",
",  c #5194CC",
"<  c #5B95CD",
"1  c #5D9CCF",
"2  c #408BD0",
"3  c #4690D1",
"4  c #4C94D0",
"5  c #4C9BD3",
"6  c #4F9DD8",
"7  c #5997D0",
"8  c #559CD4",
"9  c #5D9DD2",
"0  c #539FD8",
"q  c #58A3D7",
"w  c #56A3DA",
"e  c #5AA3D9",
"r  c #5EABDD",
"t  c #6CA6D5",
"y  c #62ACDE",
"u  c #6AADD9",
"i  c #70A5D5",
"p  c #72A9D5",
"a  c #7BADD5",
"s  c #75ABD8",
"d  c #79ADD9",
"f  c #6AB2DE",
"g  c #61AFE3",
"h  c #6BAFE0",
"j  c #64B3E3",
"k  c #6BB7E6",
"l  c #68B3E8",
"z  c #6CBCEB",
"x  c #72BAE7",
"c  c #70BFEA",
"v  c #72C2EE",
"b  c #7ECAEE",
"n  c #6EC7F4",
"m  c #6EC9F3",
"M  c #73C7F2",
"N  c #7BC6F2",
"B  c #74CAF4",
"V  c #79CCF4",
"C  c #74CBF8",
"Z  c #7ACDF8",
"A  c #7CD0F6",
"S  c #7DD1F8",
"D  c #82B3D9",
"F  c #8AB6DE",
"G  c #8AB9DB",
"H  c #91BCDD",
"J  c #98BFE0",
"K  c #9CC1DE",
"L  c #A3C5DE",
"P  c #85C7ED",
"I  c #80CCEF",
"U  c #9EC3E0",
"Y  c #8BD2EE",
"T  c #81CDF1",
"R  c #82D1F5",
"E  c #8CD3F4",
"W  c #92D4F3",
"Q  c #9CDBF1",
"!  c #A2C6E1",
"~  c #AECCE4",
"^  c #A9D3EB",
"/  c #B4D1E5",
"(  c #BBD6E6",
")  c #BCD6E9",
"_  c #BFDFED",
"`  c #A4DCF3",
"'  c #ABDDF3",
"]  c #ACE0F6",
"[  c #B2E0F3",
"{  c #B8E2F2",
"}  c #BFE8F4",
"|  c #C5DBEB",
" . c #CADCE8",
".. c #D4E3EC",
"X. c #D8E7EF",
"o. c #DBEBED",
"O. c #C0E6F7",
"+. c #C4E9F4",
"@. c #CAE9F7",
"#. c #C7E8F8",
"$. c #D0E5F0",
"%. c #D3EDF6",
"&. c #DCECF3",
"*. c #D6EEF9",
"=. c #D7F1F5",
"-. c #DBF0F7",
";. c #DAF0F8",
":. c #E2EDF4",
">. c #E7F5F6",
",. c #ECF4F6",
"<. c #E7F4F8",
"1. c #EBF5F9",
"2. c #F1F7F7",
"3. c #F3F9F7",
"4. c #FCFDF7",
"5. c #F4F7F9",
"6. c #F5FAFA",
"7. c #9CD3DB",
/* pixels */
"7.7.7.7.7.7.7.7.7.7.7.7.7.7.7.7.7.7.7.7.7.7.7.7.7.7.7.7.7.7.7.7.7.7.7.7.7.7.7.7.7.7.7.7.7.7.7.7.7.7.7.7.7.7.7.7.7.7.7.7.7.7.7.7.",
"7.7.7.7.7.7.7.7.7.7.7.7.7.7.7.7.7.7.7.7.7.7.7.7.7.7.7.7.7.7.7.7.7.7.7.7.7.7.7.7.7.7.7.7.7.7.7.7.7.7.7.7.7.7.7.7.7.7.7.7.7.7.7.7.",
"7.7.7.7.7.7.7.7.7.7.7.7.7.7.7.7.7.7.7.7.7.7.7.7.7.7.7.7.7.7.7.7.7.7.7.7.7.7.7.7.7.7.7.7.7.7.7.7.7.7.7.7.7.7.7.7.7.7.7.7.7.7.7.7.",
"7.7.7.7.7.7.7.7.7.7.7.7.7.7.7.7.7.7.7.7.7.7.7.7.7.7.7.7.7.7.7.7.7.7.7.7.7.7.7.7.7.7.7.7.7.7.7.7.7.7.7.7.7.7.7.7.7.7.7.7.7.7.7.7.",
"7.7.7.7.7.7.7.7.7.7.7.7.7.7.7.7.7.7.7.7.7.7.7.7.7.7.7.7.7.7.7.7.7.7.7.7.7.7.7.7.7.7.7.7.7.7.7.7.7.7.7.7.7.7.7.7.7.7.7.7.7.7.7.7.",
"7.7.7.7.7.7.7.7.7.7.7.7.7.7.7.7.7.7.7.7.7.7.7.7.7.7.7.7.7.7.7.7.7.7.7.7.7.7.7.7.7.7.7.7.7.7.7.7.7.7.7.7.7.7.7.7.7.7.7.7.7.7.7.7.",
"7.7.7.7.7.7.7.7.7.7.7.7.7.7.7.7.7.7.7.7.7.7.7.7.7.7.7.7.7.7.7.7.7.7.7.7.7.7.7.7.7.7.7.7.7.7.7.7.7.7.7.7.7.7.7.7.7.7.7.7.7.7.7.7.",
"7.7.7.7.7.7.7.7.7.7.7.7.7.7.7.7.7.7.7.7.7.7.7.7.7.7.7.7.7.7.7.7.7.7.7.7.7.7.7.7.7.7.7.7.7.7.7.7.7.7.7.7.7.7.7.7.7.7.7.7.7.7.7.7.",
"7.7.7.7.7.7.7.7.7.7.7.7.7.7.7.7.7.7.7.7.7.7.7.7.7.7.7.7.7.7.7.7.7.7.7.7.7.7.7.7.7.7.7.7.7.7.7.7.7.7.7.7.7.7.7.7.7.7.7.7.7.7.7.7.",
"7.7.7.7.7.7.7.7.7.7.7.7.7.7.7.7.7.7.7.7.7.7.7.7.7.7.7.7.7.7.7.7.7.7.7.7.7.7.7.7.7.7.7.7.7.7.7.7.7.7.7.7.7.7.7.7.7.7.7.7.7.7.7.7.",
"7.7.7.7.7.7.7.7.7.7.7.7.7.7.7.7.7.7.7.7.7.7.7.7.7.7.7.7.7.7.7.7.7.7.7.7.7.7.7.7.7.7.7.7.7.7.7.7.7.7.7.7.7.7.7.7.7.7.7.7.7.7.7.7.",
"7.7.7.7.7.7.7.7.7.7.7.7.7.7.7.7.7.7.7.7.7.7.7.7.7.7.7.7.7.7.7.7.7.7.7.7.7.7.7.7.7.7.7.7.7.7.7.7.7.7.7.7.7.7.7.7.7.7.7.7.7.7.7.7.",
"7.7.7.7.7.7.7.7.7.7.7.7.7.7.7.7.7.7.7.7.7.7.7.7.7.7.7.7.7.7.7.7.7.7.7.7.7.7.7.7.7.7.7.7.7.7.7.7.7.7.7.7.7.7.7.7.7.7.7.7.7.7.7.7.",
"7.7.7.7.7.7.7.7.7.7.7.7.7.7.7.7.7.7.7.7.7.7.7.7.7.7.7.7.7.7.7.7.7.7.7.7.7.7.7.7.7.7.7.7.7.7.7.7.7.7.7.7.7.7.7.7.7.7.7.7.7.7.7.7.",
"7.7.7.7.7.7.7.7.7.7.7.7.7.7.7.7.7.7.7.7.7.7.7.7.7.7.7.7.7.7.7.7.7.7.7.7.7.7.7.7.7.7.7.7.7.7.7.7.7.7.7.7.7.7.7.7.7.7.7.7.7.7.7.7.",
"7.7.7.7.7.7.7.7.7.7.7.7.7.7.7.7.7.7.7.7.7.7.7.7.7.7.7.7.7.7.7.7.7.7.7.6.7.7.7.7.7.7.7.7.7.7.7.7.7.7.7.7.7.7.7.7.7.7.7.7.7.7.7.7.",
"7.7.7.7.7.7.7.7.7.7.7.7.7.7.7.7.7.7.7.7.7.7.7.7.7.7.7.7.4.&.<.<.6.7.7.7.7.4.7.7.7.7.7.7.7.7.7.7.7.7.7.7.7.7.7.7.7.7.7.7.7.7.7.7.",
"7.7.7.7.7.7.7.7.7.7.7.7.7.7.7.7.7.7.7.7.7.7.7.7.7.7.7.7. .= > , 1 t F / o.7.7.7.7.7.7.7.7.7.7.7.7.7.7.7.7.7.7.7.7.7.7.7.7.7.7.7.",
"7.7.7.7.7.7.7.7.7.7.7.7.7.7.7.7.7.7.7.7.7.7.7.7.7.7.7.7.D & - = = = = * : t ~ >.7.7.4.7.7.7.7.7.7.7.7.7.7.7.7.7.7.7.7.7.7.7.7.7.",
"7.7.7.7.7.7.7.7.7.7.7.7.7.7.7.7.7.7.7.7.7.7.7.7.7.7.7.,., - > > > > > > > * $ , L 2.7.7.7.7.7.7.7.7.7.7.7.7.7.7.7.7.7.7.7.7.7.7.",
"7.7.7.7.7.7.6.6.6.7.7.7.7.7.7.7.7.7.7.7.7.7.7.7.7.6.7./ * 4 = = = = > > > > > = # < | 7.7.4.7.7.7.7.7.7.7.7.7.7.7.7.7.7.7.7.7.7.",
"7.7.7.7.7.4.7.7.7.7.7.7.7.7.7.7.7.7.7.7.7.7.7.7.7.4.7.a * 4 8 r y k z v v v v v z j w ^ 4.4.7.7.7.7.7.7.7.7.7.7.7.7.7.7.7.7.7.7.",
"7.7.7.7.7...a H ! ( &.6.7.7.7.7.7.7.7.7.7.7.7.7.7.7.&.f z B Z S S S V S A A A b A S A m R ] *.7.7.7.7.7.7.7.7.7.7.7.7.7.7.7.7.7.",
"7.7.7.7.7.7.t % * = - 8 D ( 2.7.7.6.7.7.4.7.7.5.@.W B S Z V V B B V B V B V B V V V V V V m B Y +.4.7.6.7.7.7.7.7.7.7.7.7.7.7.7.",
"7.7.7.7.4.7.X.- , > - = = * < K ,.7.7.7.7.4.} R M B V V V V V V V V V V V V V V V V V V V V B B M W %.7.7.7.7.7.7.7.7.7.7.7.7.7.",
"7.7.7.7.7.7.7.d * 4 > > > > = * 7 ) 7.7.=.E m B V V V V V V V V V V V V V V B C V S V V V V V V V B B ' 6.7.4.7.7.7.7.7.7.7.7.7.",
"7.7.7.7.7.7.7./ = > > > > > > > : * L } M V A V V V V V V V V V V V V V V V V B B k V B V V V V V V Z C Y >.7.7.7.7.7.7.7.7.7.7.",
"7.7.7.7.7.7.7.,.4 - > > - > > > > > j B V V V V V V V V V V V V V V V V V V V S j 4 V V V V V V V V V V B b &.7.7.7.7.7.7.7.7.7.",
"7.7.7.7.7.7.7.7.p = > > > > > - : z S V V V V V V V V V V V V V V V V V V V V V 4 l S V V V N N A V V V V B V =.7.7.7.7.7.7.7.7.",
"7.7.7.7.7.7.4.7.J & > > > > - - z A B V V V B A V V V V V V V N V V V V V I Z k 4 B V V V V S M x Z V V B A B V -.7.6.7.7.7.7.7.",
"7.7.7.7.7.7.7.7.~ * > > > > - g V B V V V V V B V V V V B V V V B V V V I P R r 0 S B V V S u O X < V V V V A V b >.7.7.7.7.7.7.",
"7.7.7.7.7.7.7.7.| * > > > 2 8 N B V A B b b b V V V V V V V V V V V N b T b S q r S N V V S @ X O o v A V V B V C W 4.7.7.7.7.7.",
"7.7.7.7.7.7.7.7.| = - - > = c Z V V B V P b b b b b b b b b b b V b b b b b R 1 u T b N V A <   . + N V V V V V Z m { 7.7.7.7.7.",
"7.7.7.7.7.7.4.7.| = 4 4 > = y S V A B b b b V V I b b b b b b b b N b b b b b 9 u V b V B V V < ; k V V V V V V V b ;.7.7.7.7.7.",
"7.7.7.7.7.7.7.7.( = - - > > - c V B V V V V V V V V V V V V V V V V V V V V A e q A B V V V V A S V V V V V b N m +.7.4.7.7.7.7.",
"7.7.7.7.7.7.7.7.! & 4 - 4 - - 5 V V B V V V V V V V V V V V V V V V V V V B S l 5 V V V V V V V V V V V V V V m ' 7.7.7.7.7.7.7.",
"7.7.7.7.7.7.7.7.D = 4 - 4 - - = w N A Z V V V V V V V V V V V V V V V V V V A v > z V V V V V V V V V V b V M ` 7.7.7.7.7.7.7.7.",
"7.7.7.7.7.7.7.3.1 = > > - > - 4 = q n Z V V V V V V V V V V V V V V V V V V B R q 0 S V V V V V V N V V A m ` 7.7.7.7.7.7.7.7.7.",
"7.7.7.7.7.7.7.$.= > > > - > > - > # u E m V V V V V V V V V V V V V V V V V V A v : k S V V V B V V A V B [ 4.7.4.7.7.7.7.7.7.7.",
"7.7.7.7.7.7.7.H = > > - > > 4 = $ s 2.6.` M B V V V V B B V V V V V V V V V V B S j - v V V V V V V m Z @.7.7.7.7.7.7.7.7.7.7.7.",
"7.7.7.7.7.7.2.7 2 4 4 > > = & 7 ~ 4.7.7.7.%.E m M V V V V V V V V V V V V V V V V Z j v V V V V M M ` >.7.7.7.7.7.7.7.7.7.7.7.7.",
"7.7.7.7.7.7.L * 3 * = * - i ~ 2.7.7.7.7.7.7.7.+.E C C B V V V B V V V V V V V V V V S V V V B C W %.7.7.7.7.7.7.7.7.7.7.7.7.7.7.",
"7.7.7.7.7.o., > 9 p G / :.7.7.7.7.7.7.7.7.7.7.4.4.;.' T V S S V V V V B V V N V V V M m M V Q %.4.7.7.7.7.7.7.7.7.7.7.7.7.7.7.7.",
"7.7.7.7.7.,.&.,.4.7.7.7.7.7.7.4.7.7.7.7.7.7.7.7.7.7.7.) 4 y k v C V V S S S R B M A W ` @.>.7.7.7.7.7.7.7.7.7.7.7.7.7.7.7.7.7.7.",
"7.7.7.7.7.7.7.7.7.7.7.7.7.7.7.7.7.7.7.7.7.7.7.7.7.7.7.,., = - - 4 5 8 q w 6 5 f _ 2.4.7.7.7.7.7.7.7.7.7.7.7.7.7.7.7.7.7.7.7.7.7.",
"7.7.7.7.7.7.7.7.7.7.7.7.7.7.7.7.7.7.7.7.7.7.7.7.7.7.7.7.F & - = = & & * > a ( 6.7.7.7.7.7.7.7.7.7.7.7.7.7.7.7.7.7.7.7.7.7.7.7.7.",
"7.7.7.7.7.7.7.7.7.7.7.7.7.7.7.7.7.7.7.7.7.7.7.7.7.7.7.7...- 8 9 t D K | ,.7.7.7.7.7.7.7.7.7.7.7.7.7.7.7.7.7.7.7.7.7.7.7.7.7.7.7.",
"7.7.7.7.7.7.7.7.7.7.7.7.7.7.7.7.7.7.7.7.7.7.7.7.7.7.7.7.4.>.2.4.7.7.7.7.7.4.7.7.7.7.7.7.7.7.7.7.7.7.7.7.7.7.7.7.7.7.7.7.7.7.7.7.",
"7.7.7.7.7.7.7.7.7.7.7.7.7.7.7.7.7.7.7.7.7.7.7.7.7.7.7.7.7.7.7.7.7.7.7.7.7.7.7.7.7.7.7.7.7.7.7.7.7.7.7.7.7.7.7.7.7.7.7.7.7.7.7.7.",
"7.7.7.7.7.7.7.7.7.7.7.7.7.7.7.7.7.7.7.7.7.7.7.7.7.7.7.7.7.7.7.7.7.7.7.7.7.7.7.7.7.7.7.7.7.7.7.7.7.7.7.7.7.7.7.7.7.7.7.7.7.7.7.7.",
"7.7.7.7.7.7.7.7.7.7.7.7.7.7.7.7.7.7.7.7.7.7.7.7.7.7.7.7.7.7.7.7.7.7.7.7.7.7.7.7.7.7.7.7.7.7.7.7.7.7.7.7.7.7.7.7.7.7.7.7.7.7.7.7.",
"7.7.7.7.7.7.7.7.7.7.7.7.7.7.7.7.7.7.7.7.7.7.7.7.7.7.7.7.7.7.7.7.7.7.7.7.7.7.7.7.7.7.7.7.7.7.7.7.7.7.7.7.7.7.7.7.7.7.7.7.7.7.7.7.",
"7.7.7.7.7.7.7.7.7.7.7.7.7.7.7.7.7.7.7.7.7.7.7.7.7.7.7.7.7.7.7.7.7.7.7.7.7.7.7.7.7.7.7.7.7.7.7.7.7.7.7.7.7.7.7.7.7.7.7.7.7.7.7.7.",
"7.7.7.7.7.7.7.7.7.7.7.7.7.7.7.7.7.7.7.7.7.7.7.7.7.7.7.7.7.7.7.7.7.7.7.7.7.7.7.7.7.7.7.7.7.7.7.7.7.7.7.7.7.7.7.7.7.7.7.7.7.7.7.7.",
"7.7.7.7.7.7.7.7.7.7.7.7.7.7.7.7.7.7.7.7.7.7.7.7.7.7.7.7.7.7.7.7.7.7.7.7.7.7.7.7.7.7.7.7.7.7.7.7.7.7.7.7.7.7.7.7.7.7.7.7.7.7.7.7.",
"7.7.7.7.7.7.7.7.7.7.7.7.7.7.7.7.7.7.7.7.7.7.7.7.7.7.7.7.7.7.7.7.7.7.7.7.7.7.7.7.7.7.7.7.7.7.7.7.7.7.7.7.7.7.7.7.7.7.7.7.7.7.7.7.",
"7.7.7.7.7.7.7.7.7.7.7.7.7.7.7.7.7.7.7.7.7.7.7.7.7.7.7.7.7.7.7.7.7.7.7.7.7.7.7.7.7.7.7.7.7.7.7.7.7.7.7.7.7.7.7.7.7.7.7.7.7.7.7.7.",
"7.7.7.7.7.7.7.7.7.7.7.7.7.7.7.7.7.7.7.7.7.7.7.7.7.7.7.7.7.7.7.7.7.7.7.7.7.7.7.7.7.7.7.7.7.7.7.7.7.7.7.7.7.7.7.7.7.7.7.7.7.7.7.7.",
"7.7.7.7.7.7.7.7.7.7.7.7.7.7.7.7.7.7.7.7.7.7.7.7.7.7.7.7.7.7.7.7.7.7.7.7.7.7.7.7.7.7.7.7.7.7.7.7.7.7.7.7.7.7.7.7.7.7.7.7.7.7.7.7.",
"7.7.7.7.7.7.7.7.7.7.7.7.7.7.7.7.7.7.7.7.7.7.7.7.7.7.7.7.7.7.7.7.7.7.7.7.7.7.7.7.7.7.7.7.7.7.7.7.7.7.7.7.7.7.7.7.7.7.7.7.7.7.7.7.",
"7.7.7.7.7.7.7.7.7.7.7.7.7.7.7.7.7.7.7.7.7.7.7.7.7.7.7.7.7.7.7.7.7.7.7.7.7.7.7.7.7.7.7.7.7.7.7.7.7.7.7.7.7.7.7.7.7.7.7.7.7.7.7.7.",
"7.7.7.7.7.7.7.7.7.7.7.7.7.7.7.7.7.7.7.7.7.7.7.7.7.7.7.7.7.7.7.7.7.7.7.7.7.7.7.7.7.7.7.7.7.7.7.7.7.7.7.7.7.7.7.7.7.7.7.7.7.7.7.7.",
"7.7.7.7.7.7.7.7.7.7.7.7.7.7.7.7.7.7.7.7.7.7.7.7.7.7.7.7.7.7.7.7.7.7.7.7.7.7.7.7.7.7.7.7.7.7.7.7.7.7.7.7.7.7.7.7.7.7.7.7.7.7.7.7.",
"7.7.7.7.7.7.7.7.7.7.7.7.7.7.7.7.7.7.7.7.7.7.7.7.7.7.7.7.7.7.7.7.7.7.7.7.7.7.7.7.7.7.7.7.7.7.7.7.7.7.7.7.7.7.7.7.7.7.7.7.7.7.7.7."
};
