/* XPM */
static char *fish[] = {
/* columns rows colors chars-per-pixel */
"32 32 204 2 ",
"   c #0E2F2C",
".  c #143838",
"X  c #2F322C",
"o  c #44443E",
"O  c #153D42",
"+  c #253F44",
"@  c #0F3E67",
"#  c #1B464A",
"$  c #1B4A4C",
"%  c #184346",
"&  c #1D4B52",
"*  c #1F4E5F",
"=  c #1E5154",
"-  c #24454A",
";  c #3C4C4C",
":  c #314B4E",
">  c #2D4D54",
",  c #204D5A",
"<  c #354D50",
"1  c #21545A",
"2  c #2B535B",
"3  c #28585D",
"4  c #33555A",
"5  c #0F4169",
"6  c #12446D",
"7  c #1E4F66",
"8  c #1D5163",
"9  c #154671",
"0  c #154A74",
"q  c #164C78",
"w  c #184E7A",
"e  c #184C76",
"r  c #1A527D",
"t  c #17517F",
"y  c #2B5C64",
"u  c #24546A",
"i  c #275C6B",
"p  c #395A61",
"a  c #245675",
"s  c #2B6166",
"d  c #2B666C",
"f  c #3D6169",
"g  c #2D6B74",
"h  c #2D6776",
"j  c #397278",
"k  c #3A6A75",
"l  c #474E4A",
"z  c #45585B",
"x  c #465454",
"c  c #4D5151",
"v  c #495F62",
"b  c #4B666B",
"n  c #596567",
"m  c #446870",
"M  c #546F75",
"N  c #55757C",
"B  c #4A717A",
"V  c #696E74",
"C  c #757D7A",
"Z  c #687272",
"A  c #1B5482",
"S  c #1E5984",
"D  c #1E598A",
"F  c #1E5688",
"G  c #215E85",
"H  c #225C8C",
"J  c #265D91",
"K  c #246386",
"L  c #25648B",
"P  c #2A6C8B",
"I  c #28678A",
"U  c #316E8D",
"Y  c #2C728D",
"T  c #2E748B",
"R  c #357989",
"E  c #266393",
"W  c #296495",
"Q  c #2A6B94",
"!  c #2A659A",
"~  c #2C6B9B",
"^  c #2E7492",
"/  c #2F759E",
"(  c #307494",
")  c #327B94",
"_  c #31749D",
"`  c #347C9A",
"'  c #397D9C",
"]  c #387991",
"[  c #2D6CA1",
"{  c #306FA2",
"}  c #3374A3",
"|  c #367BA3",
" . c #387DA3",
".. c #367AAA",
"X. c #477A86",
"o. c #627D86",
"O. c #6A7B81",
"+. c #777C80",
"@. c #3B818B",
"#. c #358296",
"$. c #36829B",
"%. c #39849D",
"&. c #3B8A9E",
"*. c #3A8495",
"=. c #3781A3",
"-. c #3A84A3",
";. c #3D8BA4",
":. c #3A83AA",
">. c #3E89AB",
",. c #3E90A9",
"<. c #3E86B3",
"1. c #5A859A",
"2. c #798486",
"3. c #799096",
"4. c #408DA6",
"5. c #428EAA",
"6. c #4587A0",
"7. c #4092A4",
"8. c #4494AB",
"9. c #4996AF",
"0. c #469AAE",
"q. c #499AAE",
"w. c #5392AB",
"e. c #428BB4",
"r. c #4594B1",
"t. c #4A97B1",
"y. c #4B9BB3",
"u. c #499EB8",
"i. c #479CB0",
"p. c #519EB5",
"a. c #699BB2",
"s. c #4CA2B5",
"d. c #4EA2B9",
"f. c #52A1B7",
"g. c #53A4BB",
"h. c #53ABBD",
"j. c #6DA5BC",
"k. c #4B99C0",
"l. c #519FC5",
"z. c #4FA6C2",
"x. c #56AAC1",
"c. c #59ADC4",
"v. c #59A4C0",
"b. c #5BB1C6",
"n. c #5CB5C9",
"m. c #5EBACD",
"M. c #57B1C6",
"N. c #5EBBD0",
"B. c #61B6CB",
"V. c #62BBCD",
"C. c #63B2C7",
"Z. c #72B0CA",
"A. c #61BDD1",
"S. c #62B8D8",
"D. c #63ADC7",
"F. c #65C2D3",
"G. c #68C2D4",
"H. c #66C5D8",
"J. c #6ACBDB",
"K. c #69C8D5",
"L. c #858B89",
"P. c #8B918F",
"I. c #818F94",
"U. c #8C999B",
"Y. c #85949A",
"T. c #949A98",
"R. c #859DA5",
"E. c #99A4A8",
"W. c #A6ACA9",
"Q. c #A6B0AF",
"!. c #B2B1A7",
"~. c #A8B5B7",
"^. c #BCBCB5",
"/. c #A4AEB3",
"(. c #B9C1BF",
"). c #C0C2BE",
"_. c #C6C2B6",
"`. c #8ABECF",
"'. c #B6BEC1",
"]. c #99C1CD",
"[. c #BCC3C4",
"{. c #B8C6CA",
"}. c #A0CADC",
"|. c #BDDAE3",
" X c #C5C9C5",
".X c #C6C9C8",
"XX c #D2CFC5",
"oX c #CED0CC",
"OX c #D1D2CD",
"+X c #C8CED1",
"@X c #CED3D4",
"#X c #D4D6D2",
"$X c #DDDBD3",
"%X c #DEDED9",
"&X c #D5D9DB",
"*X c #E1DED7",
"=X c #E5E2DB",
"-X c #E7E3DB",
";X c #CADEE1",
":X c #D9DEE0",
">X c #DEE4E7",
",X c #E8E9E6",
"<X c #F2F2EF",
"1X c #F4F4F2",
/* pixels */
") ) ,.&.$.&.,.u.d.d.M.N.N.N.H.J.H.m.H.J.J.J.n.M.h.0.7.&.*.&.*.*.",
"P ) T ,.) -.u.i.s.z.N.m.m.H.H.H.J.J.m.m.M.M.n.s.i.0.,.,.,.&.*.T ",
"T K ) ) ;.d.0.s.,.x.b.N.N.m.m.F.K.K.m.m.F.M.h.s.7.0.,.i.&.&.@.#.",
"Y #.) -.$.;.s.z.x.d.b.n.m.A.n.A.m.F.m.m.n.h.h.f.0.&.,.&.&.P #.#.",
"#.-.;.8.;.,.i.d.u.g.c.n.V.V.K.A.K.F.V.C.n.h.h.f.i.i.&.#.#.#.T T ",
"Y 0.-.y.;.d.u.d.d.c.n.n.B.A.G.B.n.m.F.F.G.F.B.h.h.u.,.&.#.#.#.T ",
"T ;.%.;.y.r.i.d.g.b.n.C.B.B.n.V.m.G.V.b.h.f.f.q.,.&.=.&.#.#.T Y ",
"` ;.-.;.-.r.i.r.x.c.c.c.n.B.C.A.F.B.h.f.f.f.q.&.;.$.$.#.#.#.#.&.",
"=.;.-.$.5.9.f.g.g.c.b.C.V.B.B.A.C.g.p.p.y.9.9.:.;.#.&.%.) ` ) P ",
") =.;.,.5.e.p.g.c.c.M.C.D.c.c.v.g.p.g.p.p.r.5.4.-.-.-. .` ` P Y ",
") $.-.;.t.t.t.t.v.}.;X,X,X<X>X|.`.D.g.p.9.r.4.4.;.-.=.-.=.^ ) Q ",
"=.` ;.>.t.t.p.Z.'.[.P.Q. X@X&X:X>X,X`.p.w.9.t.4.;.$.-.$.` ) T I ",
"` ;.-.5.r.t.j./.L.). X!.XX*X*X#X+X.X&X{.w.y.8.5.-.-.-.' ) ^ P L ",
"` -.-.-.8.j.'.V C ^._._.*X*X*X*X%X X'.+X{.-.8.4.;.-.-.-._ ^ ^ I ",
"=.=.:.>.a.E.Y.).<X*X$X^.-X,X-X*XXXoX.X+X+X~.' 6. .-. .` ` ` Q K ",
"-.$.;.1.O.V L. X^.-X-XXX*X-X*X,X#XOX X'.{.@XR.-.-. .=.` _ ^ I L ",
"-.4.e.z c +.C W.T.*X!.P.Z U.Q.XXOXOX#X[./.E./.X.-.=.' _ ( U L G ",
"5.-.4.X.3.n n C C P.C C n n C T.T.E.~.'.'.E.3.E.9. .~ R ] J G G ",
" .e.>.] R m 4 N v z b b o X X c n O.I.U.U.E.R.o.Y.a.> M I L G G ",
"=.:.-.-.*.] s s < 4 m : ; l l x x b b M N o.o.2.o.o.p R I I G r ",
"=.=.:.:.>.%.j d 3 y 3 > 4 m b z ; ; ; : : 4 f f b B k h K H A r ",
":. . .-.>.:.` i 1 = $ $ 3 4 p 4 < - - - - - & $ 1 1 k h G G r w ",
"| =.=... . .-.-.@.g 1 % 1 1 $ # $ . % $ # # & g U i y i S r w e ",
"../ | ..| } ..` $.*.@.d $ # , y 1 $ $ = # % O 8 W G 2 u A w q 9 ",
"/ ` / } / } /  . . .} X.h .   - h I a , O . & L W H 2 7 A w e 9 ",
"Q / Q Q / / / ~ _ ' _ } } P u * U 4.} } { ~ ! ! E H u , w w e 9 ",
"L E E E Q ~ ~ ~ ~ ~ { { } } ....S.l.} } { ! ~ ! J H e 8 w w 9 9 ",
"D D H H H W W Q ~ { ..} } } { } e.} } { { ~ ! W H H a 7 w 9 e @ ",
"A A F D W  .~ L J ! k.u.....} { } { { { [ ! [ ~ J H r q 9 0 9 5 ",
"q A H E W ~ ~ D J W e.{ ....e.[ { [ [ } [ ! <.} J D r q 9 9 6 @ ",
"0 A Q Q Q E F D J J ! [ [ [ [ [ [ [ [ { [ [ ! ! J ~ / A 9 6 5 @ ",
"0 0 t E ..E F E J J ! [ { [ [ [ [ [ [ [ ! ! W J W :.L r 6 9 5 @ "
};
