/* XPM */
static char *foguetao[] = {
/* columns rows colors chars-per-pixel */
"64 64 151 2 ",
"   c #475358",
".  c #53595B",
"X  c #5A6364",
"o  c #66686A",
"O  c #676F70",
"+  c #7A6F78",
"@  c #727878",
"#  c #8F241F",
"$  c #872A29",
"%  c #882A2A",
"&  c #942726",
"*  c #9A2527",
"=  c #952728",
"-  c #97312E",
";  c #933A3B",
":  c #9B3A3C",
">  c #A22C2D",
",  c #A13535",
"<  c #A33B3B",
"1  c #8C4446",
"2  c #85474A",
"3  c #954849",
"4  c #A14346",
"5  c #A34849",
"6  c #A84F4F",
"7  c #AE5757",
"8  c #B85C5E",
"9  c #885E61",
"0  c #9B6768",
"q  c #907A7A",
"w  c #B4716C",
"e  c #BA766F",
"r  c #AE7B78",
"t  c #BB7C7D",
"y  c #C48A78",
"u  c #FBC96C",
"i  c #FACB75",
"p  c #FBD679",
"a  c #506F8E",
"s  c #5E768B",
"d  c #727E9C",
"f  c #6D879D",
"g  c #6F88A8",
"h  c #7992B3",
"j  c #7A97BA",
"k  c #828587",
"l  c #8E8E8F",
"z  c #968280",
"x  c #98868C",
"c  c #989486",
"v  c #948897",
"b  c #879296",
"n  c #899194",
"m  c #909795",
"M  c #9A9B95",
"N  c #969F9E",
"B  c #B38080",
"V  c #A09C8F",
"C  c #A09E95",
"Z  c #A4A49B",
"A  c #879CAD",
"S  c #9E9FA2",
"D  c #879CB3",
"F  c #809AB9",
"G  c #96A0A2",
"H  c #9AA3A4",
"J  c #98A3A8",
"K  c #90A5BC",
"L  c #97AABB",
"P  c #98ACBB",
"I  c #A1A6A4",
"U  c #A8A7A7",
"Y  c #A5A8A4",
"T  c #ACACAA",
"R  c #B4A3A3",
"E  c #ADB1AD",
"W  c #B4B3AC",
"Q  c #ADB1B1",
"!  c #A7B4BD",
"~  c #B4B7B4",
"^  c #B9B8B2",
"/  c #B7B3BD",
"(  c #BABCBB",
")  c #C48387",
"_  c #C48A8B",
"`  c #C69494",
"'  c #CA9999",
"]  c #CFA4A5",
"[  c #CAA8A8",
"{  c #D1A4A5",
"}  c #D1A8AA",
"|  c #D9B5B5",
" . c #FAC88A",
".. c #E4CC9C",
"X. c #FBE589",
"o. c #FBE88C",
"O. c #F9EB94",
"+. c #DECBB4",
"@. c #DDC0BF",
"#. c #FBD7AD",
"$. c #FAF0A9",
"%. c #FBE1B6",
"&. c #FAE5B8",
"*. c #FCF5BC",
"=. c #86A4C7",
"-. c #86A7CA",
";. c #92B1D0",
":. c #92B7DC",
">. c #9EBDDC",
",. c #A8BECB",
"<. c #ABC8DD",
"1. c #B8CAD8",
"2. c #C1C5C6",
"3. c #C4CBCC",
"4. c #DFC1C1",
"5. c #C1CCD5",
"6. c #CED8DC",
"7. c #D2D8DC",
"8. c #E0C2C3",
"9. c #E4D0CF",
"0. c #E3D2D3",
"q. c #ECDCDC",
"w. c #FCF6C3",
"e. c #F9F3CB",
"r. c #FBE8D4",
"t. c #FBECDC",
"y. c #FDF8D4",
"u. c #F8F4D9",
"i. c #FCF8DD",
"p. c #C4DEE7",
"a. c #D9DFE2",
"s. c #C5E0EE",
"d. c #D4E1E7",
"f. c #D1E3EB",
"g. c #E2E3E3",
"h. c #E9E5E5",
"j. c #E4EAEC",
"k. c gray92",
"l. c #F1E4E4",
"z. c #F3EBE7",
"x. c #FCF7E3",
"c. c #FBF5EF",
"v. c #EEEFF0",
"b. c #EDF1F3",
"n. c #F3F4F4",
"m. c #F9F6F5",
"M. c #F7F8F7",
"N. c #FDFBF4",
"B. c #F2F6F8",
"V. c #F7F9F9",
"C. c #FDFDFD",
/* pixels */
"C.C.C.C.C.C.C.C.C.C.C.C.C.C.C.C.C.C.C.C.C.C.C.C.C.C.C.C.C.C.C.C.C.C.C.C.C.C.C.C.C.C.C.C.C.C.C.C.C.C.C.C.C.C.C.C.C.C.C.C.C.C.C.C.",
"C.C.C.C.C.C.C.C.C.C.C.C.C.C.C.C.C.C.C.C.C.C.C.C.C.C.C.C.C.C.C.C.C.C.C.C.C.C.C.C.C.C.C.C.C.C.C.C.C.C.C.C.C.C.C.C.C.C.C.C.C.C.C.C.",
"C.C.C.C.C.C.C.C.C.C.C.C.C.C.C.C.C.C.C.C.C.C.C.C.C.C.C.C.C.C.C.C.C.C.C.C.C.C.C.C.C.C.C.C.C.C.C.C.C.C.C.C.C.C.C.C.C.C.C.C.C.C.C.C.",
"C.C.C.C.C.C.C.C.C.C.C.C.C.C.C.C.C.C.C.C.C.C.C.C.C.C.C.C.C.C.C.C.C.C.C.C.C.C.C.C.C.C.C.C.C.C.C.C.C.C.C.C.C.C.C.C.C.C.C.C.C.C.C.C.",
"C.C.C.C.C.C.C.C.C.C.C.C.C.C.C.C.C.C.C.C.C.C.C.C.C.C.C.C.C.C.C.C.C.C.C.C.C.C.C.C.C.C.C.C.C.C.C.C.C.C.C.C.C.C.C.C.C.C.C.C.C.C.C.C.",
"C.C.C.C.C.C.C.C.C.C.C.C.C.C.C.C.C.C.C.C.C.C.C.C.C.C.C.C.C.C.C.C.C.C.C.C.C.C.C.C.C.C.C.C.C.C.C.C.C.C.C.C.C.C.C.C.C.C.C.C.C.C.C.C.",
"C.C.C.C.C.C.C.C.C.C.C.C.C.C.C.C.C.C.C.C.M.M.C.C.C.C.C.C.C.C.C.C.C.C.C.C.C.C.C.C.C.C.C.C.M.M.C.C.C.C.C.C.C.C.C.C.C.C.C.C.C.C.C.C.",
"C.C.C.C.C.C.C.C.C.C.C.C.C.C.C.C.C.C.C.C.M.M.C.C.C.C.C.C.C.C.C.C.C.C.C.C.C.C.C.C.C.C.C.C.M.M.C.C.C.C.C.C.C.C.C.C.C.C.C.C.C.C.C.C.",
"C.C.C.C.C.C.C.C.C.C.C.C.C.C.C.C.C.C.C.C.C.C.M.M.C.C.C.C.C.C.C.C.C.C.C.C.C.C.C.C.C.C.C.C.V.V.C.C.C.C.z.z.| | | | C.C.C.C.M.M.V.V.",
"C.C.C.C.C.C.C.C.C.C.C.C.C.C.C.C.C.C.C.C.C.C.M.M.C.C.C.C.C.C.C.C.C.C.C.C.C.C.C.C.C.C.C.C.V.V.C.C.C.C.z.z.| | | | C.C.C.C.M.M.V.V.",
"C.C.C.C.C.C.C.C.C.C.C.C.C.C.C.C.C.C.C.C.C.C.C.C.C.C.C.C.C.C.C.C.C.C.C.C.C.C.C.C.C.C.C.C.C.C.0.0.) ) 8 8 > > ' ' C.C.C.C.C.C.C.C.",
"C.C.C.C.C.C.C.C.C.C.C.C.C.C.C.C.C.C.C.C.C.C.C.C.C.C.C.C.C.C.C.C.C.C.C.C.C.C.C.C.C.C.C.C.C.C.0.0.) ) 8 8 > > ' ' C.C.C.C.C.C.C.C.",
"C.C.C.C.C.C.C.C.C.C.C.C.C.C.C.C.C.C.C.C.C.C.C.C.C.C.C.C.C.C.C.C.C.C.C.C.C.C.C.C.C.C.b.b.f.f./ / 4 4 = = - - l.l.C.C.C.C.C.C.C.C.",
"C.C.C.C.C.C.C.C.C.C.C.C.C.C.C.C.C.C.C.C.C.C.C.C.C.C.C.C.C.C.C.C.C.C.C.C.C.C.C.C.C.C.b.b.f.f./ / 4 4 = = - - l.l.C.C.C.C.C.C.C.C.",
"C.C.C.C.C.C.C.C.C.C.C.C.C.C.C.C.C.C.C.C.C.C.C.C.C.C.C.C.C.C.C.C.C.C.C.C.C.C.C.C.j.j.f.f.p.p.>.>.d d % % t t C.C.C.C.C.C.C.C.C.C.",
"C.C.C.C.C.C.C.C.C.C.C.C.C.C.C.C.C.C.C.C.C.C.C.C.C.C.C.C.C.C.C.C.C.C.C.C.C.C.C.C.j.j.f.f.p.p.>.>.d d % % t t C.C.C.C.C.C.C.C.C.C.",
"C.C.C.C.C.C.C.C.C.C.C.C.C.C.C.C.C.C.C.C.C.C.C.C.C.C.C.C.C.C.C.C.C.C.C.C.n.n.d.d.A A f f :.:.j j g g v v 9.9.C.C.C.C.C.C.C.C.C.C.",
"C.C.C.C.C.C.C.C.C.C.C.C.C.C.C.C.C.C.C.C.C.C.C.C.C.C.C.C.C.C.C.C.C.C.C.C.n.n.d.d.A A f f :.:.j j g g v v 9.9.C.C.C.C.C.C.C.C.C.C.",
"C.C.C.C.C.C.C.C.C.C.C.C.C.C.C.C.C.C.C.C.C.C.C.C.C.C.C.C.C.C.C.C.C.C.b.b.1.1.s.s.s s a a =.=.h h K K a.a.V.V.C.C.C.C.C.C.C.C.C.C.",
"C.C.C.C.C.C.C.C.C.C.C.C.C.C.C.C.C.C.C.C.C.C.C.C.C.C.C.C.C.C.C.C.C.C.b.b.1.1.s.s.s s a a =.=.h h K K a.a.V.V.C.C.C.C.C.C.C.C.C.C.",
"C.C.C.C.C.C.C.C.C.C.M.M.V.V.C.C.C.C.C.C.C.C.C.C.C.C.C.C.V.V.C.C.k.k.! ! ,.,.<.<.;.;.-.-.=.=.F F 5.5.j.j.C.C.M.M.C.C.C.C.C.C.C.C.",
"C.C.C.C.C.C.C.C.C.C.M.M.V.V.C.C.C.C.C.C.C.C.C.C.C.C.C.C.V.V.C.C.k.k.! ! ,.,.<.<.;.;.-.-.=.=.F F 5.5.j.j.C.C.M.M.C.C.C.C.C.C.C.C.",
"C.C.C.C.C.C.C.C.C.C.C.C.C.C.C.C.C.C.C.C.C.C.C.C.C.C.C.C.C.C.v.v.G G . .     P P L L D D A A 1.1.7.7.C.C.C.C.C.C.C.C.C.C.C.C.C.C.",
"C.C.C.C.C.C.C.C.C.C.C.C.C.C.C.C.C.C.C.C.C.C.C.C.C.C.C.C.C.C.v.v.G G . .     P P L L D D A A 1.1.7.7.C.C.C.C.C.C.C.C.C.C.C.C.C.C.",
"C.C.C.C.C.C.C.C.C.C.C.C.C.C.C.C.C.C.C.C.C.C.C.C.C.C.C.C.v.v.H H b b X X O O J J m m n n ! ! 6.6.C.C.C.C.C.C.C.C.C.C.C.C.C.C.C.C.",
"C.C.C.C.C.C.C.C.C.C.C.C.C.C.C.C.C.C.C.C.C.C.C.C.C.C.C.C.v.v.H H b b X X O O J J m m n n ! ! 6.6.C.C.C.C.C.C.C.C.C.C.C.C.C.C.C.C.",
"C.C.C.C.C.C.C.C.C.C.C.C.C.C.C.C.C.C.C.C.C.C.C.C.C.C.M.M.Q Q H H G G N N Y Y M M c c C C 3.3.M.M.C.C.C.C.C.C.C.C.C.C.C.C.C.C.C.C.",
"C.C.C.C.C.C.C.C.C.C.C.C.C.C.C.C.C.C.C.C.C.C.C.C.C.C.M.M.Q Q H H G G N N Y Y M M c c C C 3.3.M.M.C.C.C.C.C.C.C.C.C.C.C.C.C.C.C.C.",
"C.C.C.C.C.C.C.C.C.C.C.C.C.C.C.C.C.C.C.C.C.C.C.C.C.C.2.2.@ @ . . H H E E Y Y Z Z V V W W n.n.C.C.C.C.C.C.C.C.C.C.C.C.C.C.C.C.C.C.",
"C.C.C.C.C.C.C.C.C.C.C.C.C.C.C.C.C.C.C.C.C.C.C.C.C.C.2.2.@ @ . . H H E E Y Y Z Z V V W W n.n.C.C.C.C.C.C.C.C.C.C.C.C.C.C.C.C.C.C.",
"C.C.C.C.C.C.C.C.C.C.C.C.C.C.C.C.C.C.h.h.} } ` ` r r ( ( k k o o E E W W ^ ^ W W W W k.k.C.C.C.C.C.C.C.C.C.C.C.C.C.C.C.C.C.C.C.C.",
"C.C.C.C.C.C.C.C.C.C.C.C.C.C.C.C.C.C.h.h.} } ` ` r r ( ( k k o o E E W W ^ ^ W W W W k.k.C.C.C.C.C.C.C.C.C.C.C.C.C.C.C.C.C.C.C.C.",
"C.C.C.C.C.C.C.C.C.C.C.C.C.C.C.C.q.q.6 6 : : ; ; 0 0 ( ( U U Q Q ~ ~ E E W W ( ( k.k.C.C.M.M.C.C.C.C.C.C.C.C.C.C.C.C.C.C.C.C.M.M.",
"C.C.C.C.C.C.C.C.C.C.C.C.C.C.C.C.q.q.6 6 : : ; ; 0 0 ( ( U U Q Q ~ ~ E E W W ( ( k.k.C.C.M.M.C.C.C.C.C.C.C.C.C.C.C.C.C.C.C.C.M.M.",
"C.C.C.C.C.C.C.C.C.C.C.C.C.C.q.q.< < # # # # $ $ R R T T T T T T Z Z I I @.@.n.n.C.C.C.C.C.C.C.C.C.C.C.C.C.C.C.C.C.C.C.C.C.C.C.C.",
"C.C.C.C.C.C.C.C.C.C.C.C.C.C.q.q.< < # # # # $ $ R R T T T T T T Z Z I I @.@.n.n.C.C.C.C.C.C.C.C.C.C.C.C.C.C.C.C.C.C.C.C.C.C.C.C.",
"C.C.C.C.C.C.C.C.C.C.C.C.q.q.7 7 { { q.q.[ [ 9 9 S S U U 0 0 q q M M 1.1.B.B.V.V.C.C.C.C.C.C.C.C.C.C.C.C.C.C.C.C.C.C.C.C.C.C.C.C.",
"C.C.C.C.C.C.C.C.C.C.C.C.q.q.7 7 { { q.q.[ [ 9 9 S S U U 0 0 q q M M 1.1.B.B.V.V.C.C.C.C.C.C.C.C.C.C.C.C.C.C.C.C.C.C.C.C.C.C.C.C.",
"C.C.C.C.C.C.C.C.C.C.C.C.B B l.l.C.C.m.m.x x S S + + 1 1 3 3 z z r r C.C.C.C.C.C.C.C.C.C.C.C.C.C.C.C.C.C.C.C.C.C.C.C.C.C.C.C.C.C.",
"C.C.C.C.C.C.C.C.C.C.C.C.B B l.l.C.C.m.m.x x S S + + 1 1 3 3 z z r r C.C.C.C.C.C.C.C.C.C.C.C.C.C.C.C.C.C.C.C.C.C.C.C.C.C.C.C.C.C.",
"C.C.C.C.C.C.C.C.C.C.C.C.M.M.C.C.x.x.+.+.z.z.l l 2 2 * * ; ; & & w w N.N.C.C.C.C.C.C.C.C.C.C.C.C.C.C.C.C.C.C.C.C.C.C.C.C.C.C.C.C.",
"C.C.C.C.C.C.C.C.C.C.C.C.M.M.C.C.x.x.+.+.z.z.l l 2 2 * * ; ; & & w w N.N.C.C.C.C.C.C.C.C.C.C.C.C.C.C.C.C.C.C.C.C.C.C.C.C.C.C.C.C.",
"C.C.C.C.C.C.C.C.C.C.C.C.C.C.e.e.*.*.N.N.C.C.l.l.: : | | 4 4 , , ' ' V.V.C.C.C.C.C.C.C.C.C.C.C.C.C.C.C.C.C.C.M.M.C.C.C.C.C.C.C.C.",
"C.C.C.C.C.C.C.C.C.C.C.C.C.C.e.e.*.*.N.N.C.C.l.l.: : | | 4 4 , , ' ' V.V.C.C.C.C.C.C.C.C.C.C.C.C.C.C.C.C.C.C.M.M.C.C.C.C.C.C.C.C.",
"C.C.C.C.C.C.C.C.V.V.C.C.e.e.*.*.x.x.N.N.i.i.e e 4.4.M.M.5 5 _ _ n.n.C.C.C.C.C.C.C.C.C.C.C.C.C.C.C.C.C.C.C.C.C.C.C.C.C.C.C.C.C.C.",
"C.C.C.C.C.C.C.C.V.V.C.C.e.e.*.*.x.x.N.N.i.i.e e 4.4.M.M.5 5 _ _ n.n.C.C.C.C.C.C.C.C.C.C.C.C.C.C.C.C.C.C.C.C.C.C.C.C.C.C.C.C.C.C.",
"C.C.C.C.C.C.C.C.M.M.u.u.O.O.y.y.N.N.y.y.y y 4.4.C.C.] ] t t M.M.C.C.M.M.C.C.C.C.C.C.C.C.C.C.C.C.C.C.M.M.M.M.C.C.C.C.C.C.C.C.C.C.",
"C.C.C.C.C.C.C.C.M.M.u.u.O.O.y.y.N.N.y.y.y y 4.4.C.C.] ] t t M.M.C.C.M.M.C.C.C.C.C.C.C.C.C.C.C.C.C.C.M.M.M.M.C.C.C.C.C.C.C.C.C.C.",
"C.C.C.C.C.C.C.C.N.N.X.X.O.O.*.*.w.w.....8.8.C.C.0.0.t t M.M.C.C.C.C.C.C.C.C.C.C.C.C.C.C.C.C.C.C.C.C.C.C.C.C.C.C.C.C.C.C.C.C.C.C.",
"C.C.C.C.C.C.C.C.N.N.X.X.O.O.*.*.w.w.....8.8.C.C.0.0.t t M.M.C.C.C.C.C.C.C.C.C.C.C.C.C.C.C.C.C.C.C.C.C.C.C.C.C.C.C.C.C.C.C.C.C.C.",
"C.C.C.C.C.C.C.C.&.&.p p X.X.o.o.$.$.N.N.C.C.C.C.k.k.C.C.C.C.C.C.C.C.C.C.C.C.C.C.C.C.C.C.C.C.C.C.C.C.C.C.C.C.C.C.C.C.C.C.C.C.C.C.",
"C.C.C.C.C.C.C.C.&.&.p p X.X.o.o.$.$.N.N.C.C.C.C.k.k.C.C.C.C.C.C.C.C.C.C.C.C.C.C.C.C.C.C.C.C.C.C.C.C.C.C.C.C.C.C.C.C.C.C.C.C.C.C.",
"C.C.C.C.C.C.N.N. . .u u i i %.%.N.N.C.C.C.C.C.C.C.C.C.C.C.C.C.C.C.C.C.C.C.C.C.C.C.C.C.C.C.C.C.C.C.C.C.C.C.C.C.C.C.C.C.C.C.C.C.C.",
"C.C.C.C.C.C.N.N. . .u u i i %.%.N.N.C.C.C.C.C.C.C.C.C.C.C.C.C.C.C.C.C.C.C.C.C.C.C.C.C.C.C.C.C.C.C.C.C.C.C.C.C.C.C.C.C.C.C.C.C.C.",
"C.C.C.C.C.C.r.r. . .#.#.x.x.C.C.C.C.C.C.C.C.C.C.C.C.C.C.C.C.C.C.C.C.C.C.C.C.C.C.C.C.C.C.C.C.C.C.C.C.C.C.C.C.C.C.C.C.C.C.C.C.C.C.",
"C.C.C.C.C.C.r.r. . .#.#.x.x.C.C.C.C.C.C.C.C.C.C.C.C.C.C.C.C.C.C.C.C.C.C.C.C.C.C.C.C.C.C.C.C.C.C.C.C.C.C.C.C.C.C.C.C.C.C.C.C.C.C.",
"M.M.C.C.C.C.t.t.c.c.C.C.C.C.C.C.C.C.C.C.M.M.C.C.C.C.C.C.C.C.C.C.C.C.C.C.C.C.C.C.C.C.C.C.M.M.C.C.C.C.C.C.C.C.C.C.C.C.C.C.C.C.C.C.",
"M.M.C.C.C.C.t.t.c.c.C.C.C.C.C.C.C.C.C.C.M.M.C.C.C.C.C.C.C.C.C.C.C.C.C.C.C.C.C.C.C.C.C.C.M.M.C.C.C.C.C.C.C.C.C.C.C.C.C.C.C.C.C.C.",
"M.M.C.C.M.M.C.C.C.C.C.C.C.C.C.C.C.C.C.C.M.M.V.V.C.C.C.C.C.C.C.C.C.C.C.C.C.C.C.C.V.V.C.C.C.C.M.M.C.C.C.C.C.C.C.C.C.C.C.C.M.M.M.M.",
"M.M.C.C.M.M.C.C.C.C.C.C.C.C.C.C.C.C.C.C.M.M.V.V.C.C.C.C.C.C.C.C.C.C.C.C.C.C.C.C.V.V.C.C.C.C.M.M.C.C.C.C.C.C.C.C.C.C.C.C.M.M.M.M.",
"C.C.C.C.C.C.C.C.C.C.C.C.C.C.C.C.C.C.C.C.C.C.C.C.C.C.C.C.C.C.C.C.C.C.C.C.C.C.C.C.C.C.C.C.C.C.C.C.C.C.C.C.C.C.C.C.C.C.C.C.C.C.C.C.",
"C.C.C.C.C.C.C.C.C.C.C.C.C.C.C.C.C.C.C.C.C.C.C.C.C.C.C.C.C.C.C.C.C.C.C.C.C.C.C.C.C.C.C.C.C.C.C.C.C.C.C.C.C.C.C.C.C.C.C.C.C.C.C.C.",
"g.g.h.h.n.n.C.C.C.C.C.C.C.C.C.C.C.C.C.C.C.C.C.C.C.C.C.C.C.C.C.C.C.C.C.C.C.C.C.C.C.C.C.C.C.C.C.C.C.C.C.C.C.C.C.C.C.C.C.C.C.C.C.C.",
"g.g.h.h.n.n.C.C.C.C.C.C.C.C.C.C.C.C.C.C.C.C.C.C.C.C.C.C.C.C.C.C.C.C.C.C.C.C.C.C.C.C.C.C.C.C.C.C.C.C.C.C.C.C.C.C.C.C.C.C.C.C.C.C."
};
