/* XPM */
static char *player[] = {
/* columns rows colors chars-per-pixel */
"64 64 256 2 ",
"   c #041A30",
".  c #162A37",
"X  c #45463B",
"o  c #041E44",
"O  c #052948",
"+  c #04354C",
"@  c #1A3448",
"#  c #033455",
"$  c #053A59",
"%  c #153C56",
"&  c #0D2C4A",
"*  c #25374A",
"=  c #263D54",
"-  c #212D52",
";  c #093C64",
":  c #263C60",
">  c #09435A",
",  c #15435B",
"<  c #1C424A",
"1  c #274A5D",
"2  c #38485A",
"3  c #28535A",
"4  c #064568",
"5  c #164A67",
"6  c #044D76",
"7  c #04527C",
"8  c #065478",
"9  c #135570",
"0  c #345569",
"q  c #365B75",
"w  c #295068",
"e  c #32616C",
"r  c #16607B",
"t  c #4A5057",
"y  c #475562",
"u  c #4F5B6D",
"i  c #4F6773",
"p  c #6C6F78",
"a  c #736254",
"s  c #837662",
"d  c #938871",
"f  c #025482",
"g  c #025B84",
"h  c #015D8C",
"j  c #075887",
"k  c #055C94",
"l  c #0E5383",
"z  c #02628D",
"x  c #056687",
"c  c #176685",
"v  c #026495",
"b  c #026A95",
"n  c #03669A",
"m  c #026C9B",
"M  c #0B6A98",
"N  c #02729E",
"B  c #08769C",
"V  c #1A799B",
"C  c #1A6E92",
"Z  c #267798",
"A  c #387996",
"S  c #336E8B",
"D  c #026DA2",
"F  c #066CA9",
"G  c #0374A3",
"H  c #027BA5",
"J  c #0274AB",
"K  c #027CAB",
"L  c #0A7AA7",
"P  c #147CA3",
"I  c #0275B2",
"U  c #027DB3",
"Y  c #057DB7",
"T  c #1676B1",
"R  c #297DA8",
"E  c #2A5F97",
"W  c #487689",
"Q  c #4D7692",
"!  c #657687",
"~  c #797984",
"^  c #6C7D93",
"/  c #817B8E",
"(  c #3C839C",
")  c #36808E",
"_  c #0381A6",
"`  c #0383AC",
"'  c #0389AE",
"]  c #0A83AA",
"[  c #1688AC",
"{  c #0383B3",
"}  c #038BB4",
"|  c #098BB5",
" . c #0384BB",
".. c #038BBC",
"X. c #0A8BBC",
"o. c #0985B8",
"O. c #0491B5",
"+. c #0393BB",
"@. c #0A94BB",
"#. c #039BBD",
"$. c #0B9BBC",
"%. c #0B96B5",
"&. c #1395BD",
"*. c #129BBD",
"=. c #1A97BA",
"-. c #0F88B6",
";. c #2885A7",
":. c #269ABC",
">. c #348FAD",
",. c #05A1BB",
"<. c #1DA4BA",
"1. c #32A6BC",
"2. c #47859A",
"3. c #578599",
"4. c #68869A",
"5. c #7A8A94",
"6. c #598BA7",
"7. c #5195AF",
"8. c #6695AA",
"9. c #7695A9",
"0. c #769BB6",
"q. c #6793B0",
"w. c #54A8BC",
"e. c #78A2B6",
"r. c #6CA7B5",
"t. c #038CC1",
"y. c #098AC1",
"u. c #0294C3",
"i. c #029BC5",
"p. c #0B9CC3",
"a. c #0395CA",
"s. c #039CCA",
"d. c #0A9CCA",
"f. c #0A93C5",
"g. c #149DC2",
"h. c #1C9DC2",
"j. c #1499C5",
"k. c #049CD1",
"l. c #269EC2",
"z. c #319DC7",
"x. c #04A2C6",
"c. c #04A3CC",
"v. c #0BA3CB",
"b. c #03ABCD",
"n. c #0BAACE",
"m. c #0AA5C6",
"M. c #13A4CC",
"N. c #1BA3CC",
"B. c #18A7C9",
"V. c #03B2CD",
"C. c #03A5D3",
"Z. c #03ABD4",
"A. c #0BADD4",
"S. c #03ADD9",
"D. c #0AA8D4",
"F. c #17AAD3",
"G. c #04B2D5",
"H. c #0AB1D4",
"J. c #03B4DB",
"K. c #0AB4DA",
"L. c #08B9DC",
"P. c #16B4D7",
"I. c #24A1C3",
"U. c #2CA4C5",
"Y. c #23A5CC",
"T. c #2BABCD",
"R. c #26A8CA",
"E. c #34A4C4",
"W. c #3BA5C5",
"Q. c #34ABCE",
"!. c #3CACCD",
"~. c #38A7C9",
"^. c #39B1CC",
"/. c #28AAD2",
"(. c #39ACD2",
"). c #27B5D7",
"_. c #3AB3D6",
"`. c #29B1CB",
"'. c #07BAE1",
"]. c #1ABCE2",
"[. c #28BCE5",
"{. c #45ABCC",
"}. c #4BACCC",
"|. c #44A6C7",
" X c #58AAC6",
".X c #46B2CE",
"XX c #55B3CC",
"oX c #47ADD1",
"OX c #45B3D3",
"+X c #4CB3D3",
"@X c #4AB7D9",
"#X c #54B4D4",
"$X c #5CB5D4",
"%X c #5CB9D6",
"&X c #5ABADA",
"*X c #57A4D1",
"=X c #65ACC9",
"-X c #7AA8C8",
";X c #65B4C9",
":X c #78B4C7",
">X c #62B6D4",
",X c #64BAD6",
"<X c #63BCDA",
"1X c #6BBCDA",
"2X c #6BBBD6",
"3X c #74BCD8",
"4X c #5B9EC5",
"5X c #2DC2E6",
"6X c #16C3E9",
"7X c #6CC1DD",
"8X c #65C1DC",
"9X c #74C3DF",
"0X c #6ACCCE",
"qX c #43C1D9",
"wX c #88838C",
"eX c #98949B",
"rX c #8B8C94",
"tX c #AC9A8A",
"yX c #9A98A6",
"uX c #919BB1",
"iX c #8AAAB8",
"pX c #94ABBB",
"aX c #9AB4BC",
"sX c #8FA8AE",
"dX c #A7A9B4",
"fX c #A8B4B8",
"gX c #B8B6B9",
"hX c #AAA6AB",
"jX c #ABA7A1",
"kX c #C9B9B0",
"lX c #CAAE90",
"zX c #89B3C6",
"xX c #97B5C7",
"cX c #91B0C9",
"vX c #A9BAC7",
"bX c #B1BCCB",
"nX c #C2BDC6",
"mX c #B1C7D0",
"MX c #94D8E2",
"NX c #CDCACD",
"BX c #C6C6C9",
"VX c #D1CCCB",
"CX c #D3CED4",
"ZX c #C9D4D8",
"AX c #D6D6D6",
"SX c #D0D0D3",
"DX c #E6DBD2",
"FX c #D1E4D9",
"GX c #E9E1D9",
"HX c #D2DAE5",
"JX c #E4D7E6",
"KX c #DAE1E7",
"LX c #E7E6E9",
"PX c #F2ECE7",
"IX c #EFF1EF",
"UX c #D7C0AD",
/* pixels */
"/.Y./.Q.(.@X&X<X&X<X7X1X1X<X<X$X1X9X7X1X1X9X1X1X1X2X2X3X3X2X,X;X$X#X#X}.}.}.*X}.|.}.|.E.:.:.l.h.h.&.| @.| ' | _ [ ;.L ' ' [ V B ",
"j.N.I./.Q.{.#X#X&X<X<X1X>X>X%X*X1X1X7X1X1X9X1X1X9X1X1X1X1X1X>X$XXX#XoX}.}.}.}.}.}.|.W.W.E.U.h.l.j.-.O.O.| ' ' ' ] P L ' ' ] P [ ",
"M.j.N././.(.OXoX#X<X$X<X%X$X#X#X>X1X1X1X1X9X<X,X,X,X<X>X1X>X$XXX+X#X}.}.}.}.!.{.}.|.W.E.T.U.=.h.&.| ' O.| ' | } _ L _ ' ] ] _ _ ",
"M.M.B.N.Y.T.(.+X#X&X8X<X&X$X+X+X&X8X7X1X1X1X<X,X,X,X,X>X>X%XXX}.}.oXoX}.}.}.W. X#X|.E.E.U.<.h.=.&.%.' } | ' ' ' ` L _ _ K ` _ H ",
"d.d.d.N.Y.(.~.oX@X#X<X&X#X#X+X_.&X8X7X1X7X2X,X$X%X,X%X%X%X%X#X{.{.oXoXoX|.{.W.-X|.W.1.E.U.<.=.j.*.O.' ' ' ' ' _ K L K ] ` ` H L ",
"i.d.F.N.Y.(.(.(.@X#X#X&X&X&X@X{.&X8X7X1X7X,X%X$X X;X$X$X$X#X}.}.!.~.~.!.|.!.XX-X1.{.W.E.U.h.I.h.*.X.| ` ` ` ` _ H H H { ' } ] P ",
"s.s.F.Y.Y.(./.(.oXoX#X&X&X#X+X+X&X7X7X1X,X,X%X$Xw.=X>X$X>X#X+XoX!.T.T.^.{.!.r.2.1.W.E.U.R.=.*.h.j.| o.{ _ K _ H K H G ' ' ] ` ` ",
"i.s.j.N.N.Y.h._.(.oX#X&X<X#XoX@X#X7X3X1X,X#X$X=X-XzX=X%X$X.X+X}.(.~.(.U.~.^.e.S E.W.z.l.I.=.g.=.&.{ { ' _ H H G _ H H _ ' ' ] H ",
"i.i.d.N.F././._.(.OX+X+X&X&X(.!.&X8X8X8X&X#X=X-XxXcX=X#X$X+X.X+X~.(.Q.U.z.#X4.Z ^.W.E.U.I.I.$.@.X.| } } ` H G G H H H ` ' ` _ H ",
"u.u.d.N.N.M.Y././.@X@X@X+X@X@X!.@X&X8X;X;X;XzXMXMXcX XOX#X+X.X.X!.T.Y.Y.l.>Xq >.{.E.1.I.:.h.M.%.+.+.} { ` _ _ H G H H _ ` ` _ G ",
"f.i.v.N.N.B./._./.(.@X@XoX(._.OX&X8X%Xr.iXvXmXvXcX9.w.qXOX+X+X.X_.R.B.=.I.0.3 1.|.E.z.:.U.I.$.O.O.@.O.} ` ` H H H _ H _ ` ` ` H ",
"u.i.d.v.N.Y.M./.Q.`..XOXOXOX(.Q. Xw.8.iXxXmXzXr.0.2.W.#X_._._.Q.!.N.m.v.T.! r !.E.W.U.:.I.=.#.+.+.} | } ' H ` H G N N H _ ' ] ] ",
"i.i.s.v.j.N.F.Q.(._.#X_._.{.|.=Xe.4.e.mXmXpXq.4.2.Z @X.X^./.T.T.T.B.p.i.E.y c ^.E.~.U.l.=.h.p.+.} O.+.} ` K H K G H G H ` ' H L ",
"i.u.i.s.d.D.I.|.OX(./.!.{. X-XcXvXvXmXmXmXxX^ Q E E._.OX^.)./.F.F.v.#.#.|.0 ;.Q.E.l.:.l.g.g.g.+...} X.{ ` ` H H G H ] N _ H H G ",
"u.i.u.s.k.v.T.4Xw.=Xw.w.:XcXxXxXcXuXiXsX3.e.r.S >.).`._.`./.M.B.m.x.,.$.q.w :.T.U.B.=.h.h.*.h.@.} @.| { _ _ H H _ H ] G G G H _ ",
"u.i.u.i.d./.R.>.q.iXxXzXpXcXsX0.6.6.8.iX3.S A r.2XQ./.^./.F.n.d.m.p.m.B.0.9 l.I.R.<.*.g.$.g.g.@.+.j.| ` ` H H H H _ ` _ H H G _ ",
"i.i.u.i.v./.N.l.V 6.0.0.0.0.q.4.3.W W W W A Q A r.9X1.)./.m.v.v.c.x.,.g.q.9 U.R.R.B.$.$.$.g.&.+.| } ' K _ ` K H H H H _ H N G N ",
"u.u.i.s.x.v.F.F.<.B S A A Q S q 9 5 4 4 5 S ( ( 2.iXzXH.P.B.i.@.l.!.>XzXuXw <.F.U.h.,.#.$.*.$.| } { _ _ K { } K G H G _ _ N N G ",
"u.u.i.s.v.F.F.Y.`.B.,._ b x z M B L [ [ x c A ( 7.8.mX0X,.s.Q.MXZXLXJXmXaXpXw.<.B.d.&.&.&.$.@.+.} ` ` H K ` { K G N G H G N N N ",
"u.a.i.s.v.M.P.B.F.n.H.D.d.d.v.M.v.P.P.]./.B V A 2.r.r.ZX0X|.HXKXFXIXFXmXfXpXpX-X<.,.j.$.%.*.$.| { ' ` G K _ { K G G N N H L N G ",
"u.u.i.i.v.v.F.M.n.M.F.C.s.d.f.#.,.n.H.M./.=.B ;.( 7.zXmXmXZXKXLXLXIXLXJXJXbXsXuXcX:.%.#.$.*.%.O.} ` _ _ K K K K H H N G N H N N ",
"u.i.i.s.d.v.B.v.C.x.F.k.a.u.M.i.b.V.P.`.B.`._ V ( 7.e.e.bXZXLXPXLXIXAXAXAXnXfXjXdX0.%.#.&.*.O.| | { { _ K K ` H H H m m L _ G b ",
"u.u.i.s.v.F.M.D.c.c.c.s.i.i.v.i.b.H.P.P.n.`.B.B ( 7.r.pXZXZXJXPXDXPXNXVXAXgXfXhXuXyX7.#.=.*.O.+.+.} ` _ K H G G H N m b N H N N ",
"u.u.i.s.v.M.v.c.c.c.c.i.a.i.i.i.c.A.H.H.P.).B.' Z >.2.mXKXZXLXIXFXPXVXNXCXdXjXyXyX5.9.:.%.%.%.| } { ` { K K G G G H m b N H N N ",
"..u.i.s.c.d.c.x.s.s.c.i.i.u.s.s.b.G.G.H.n.n.n.m.L ;.8.HXLXZXIXIXAXGXVXNXNXhXeXrXrX4.~ 6.p.f.-.-.} { ` { ` H H H N G N b G H G N ",
"....u.s.x.b.b.c.c.c.s.a.u.u.u.x.c.H.H.G.H.V.V.F.#.P zXZXLXHXLXIXVXGXCXBXnXhXwX/ rX~ p ! 1.#.f.O.} } { { { _ H N N H N N H _ G B ",
" ...i.u.d.c.x.c.c.x.s.i.u.a.d.x.b.G.J.A.Z.n.V.v.Z.[ mXZXKXKXLXLXVXAXNXnXgXjX/ / ~ wX5.i ^ &.u.+.O.} } ` ` K H G N N H N _ G m D ",
" ...u.j.d.i.s.s.s.s.i.u.u.d.d.x.Z.J.K.A.A.V.V.v.b.W.bXmXAXKXHXIXNXVXnXgXhXeXwX/ 5.eXyX9.! 7.+.+.} } { K { _ _ G N N N G _ H B m ",
"{  ...u.s.i.d.i.s.i.s.s.u.u.v.v.b.G.K.K.P.F.n.b.b.XXbXbXNXHXAXLXCXAXkXhXeXrX~ ! ~ ~ ^ ^ i ^ =...| } ' K U K K G G N N G G H G N ",
"{ ....u.s.u.s.i.i.i.u.u.u.i.v.P.Z.Z.K.H.V.H.H.c.c.XXvXvXBXSXNXAXAXAXgXyX/ p i y y y y - 2 W R +.+.} { { K K K H H N N N N G m N ",
"Y  ...u.u.u.u.u.u.u.+.+.u.v.v.D.b.G.K.K.H.H.A.n.B.:XfXfXbXmXBXVXDXVXdXp u t y t 2 = .   = i W ] +.} ' { K G K H N N m G N G N b ",
"Y  ...u.u.f.u.+.u.u.u.u.u.v.D.i.x.A.J.J.A.H.H.H.Y.zXaXxXfXvXaXdXAXBXeXu t 2 2 2 2 1 &   & q q [ +.} { ` K G K K N v N G N m m b ",
"Y { ..f.u.u.u.........u.d.d.s.n.F.Z.J.J.Z.G.G.V.R.xXiXxXiXuX9.uXfXjX~ p ~ u * 2 , , %   @ 0 e C #.O.} ` ] K K H m v m N G N N G ",
"J U { ..u.t.......t.t.t.s.v.x.v.P.Z.G.J.Z.A.G.V.!.mXiX8.3.W Q p rXgXkXVXgXp 2 * O & 1 @ % w 3 r O.' ' { { K G J G b b N N m M B ",
" .....f.u.u.u. .t.t.t.u.i.c.s.C.c.J.G.G.Z.G.S.Z.@XxX6.W 2.S 3.bXDXPXGXkXtXp u * & u 0 + , 1 3 8 ] { K } } U J G L B m m m n n v ",
"s.c.c.s.f...t...t.t.u.u.c.D.s.c.C.H.G.Z.Z.A.P.S.B.) c C Z r pXAXJXLXGXkX/ t 2 . 0 0 w , , , 1 4 H } { { { K G L G G b v G b m v ",
"..u.u.u.......t.a.a.a.i.c.c.s.v.c.Z.G.G.Z.G.A.A.&.4 c B z c aXgXGXPXDXkXp t * 2 % 5 w 5 > , < > b | { ` { L J G N m b b m m m m ",
"J Y Y ..f.X.....a.t.a.u.x.c.c.C.c.Z.G.G.Z.A.G.A.N.; 6 B x S 9.gXDXDXlXtXt * 2 % > 4 r 4 + > 5 > x X.` K K K J G G N b v m G N N ",
"U U {  .......t.a.a.a.u.i.c.s.c.Z.Z.G.Z.Z.Z.V.Z.L.B l M 8 r 6.fXkXtXs t . 1 1 4 8 8 8 4 > > > > x X.` K K K J L G N m b b N N N ",
"U U { ....t.u...t.....u.i.s.i.i.x.Z.Z.J.Z.Z.A.H.G.n.H >.;.8 A 5.jXkXd a = 0 9 7 8 8 8 8 + > > + x -.{ { K K J G G m b b m N N m ",
"J U Y  .....t.........u.u.i.s.x.x.C.S.S.C.S.Z.Z.Z.H.@.[ [ M Z e.DXkXlXtXy w 8 g 7 8 g 6 $ $ > + g | { ' K H J D G b b v m m N b ",
"J I U U { Y y.X.o.f.X.t.u.i.i.i.x.C.C.Z.Z.S.Z.Z.Z.A.M.{ L G G :XtXs a X 3 9 8 z g g j 8 $ # > + x { { K K J G D D m m v m n v m ",
"J J J U  . .X. .{  . .u.u.u.s.i.s.C.Z.S.C.Z.Z.Z.Z.Z.Z.+.} U Y :.y . . . 8 g z h j g f 8 $ # > + 8 | U K H K D m F b n v n n v m ",
"F I J I o.X.y..... ...t.u.u.i.i.s.c.C.Z.C.C.Z.c.Z.Z.G.$.| o. .u.r O O 4 v m v h h g f 6 > + % # x | U K G G D n D n v v m M v m ",
"F F J U .. . ...t. .t.t.u.u.i.M.s.C.C.C.s.C.c.C.Z.Z.Z.m.` ..t.u.O.g 4 D L F n k z g f 6 4 # = % b ] K J H G D D m v v v m b M b ",
"F I I Y {  .o. . .y.t.t.u.a.a.x.d.C.C.C.s.C.C.C.C.C.Z.A.-.} t.u.t. .{  .U F D n n g 6 6 6 + * 5 N U L L B N N m b b n b m v v x ",
"I I Y Y o.y. . .y.t.t.t.u.a.i.s.s.c.C.C.s.C.C.C.C.C.C.G.j.G | u.t.Y Y { U J G G m g 7 f 6 > < q B U H G M M B b m m n m b v z g ",
"I Y Y X.y.y.o.y.Y y.t.t.t.a.s.i.i.C.C.S.s.C.Z.C.C.C.D.G.v.m U }  .{ { { U K J G v g f 6 7 $ 3 i W V B J F G G G D m m n b b h 7 ",
"I I I Y -.o.Y Y Y y. .t.t.a.a.i.u.C.C.C.k.C.C.C.C.C.S.Z.n.G K { { {  .{ Y J G D v k f g j 6 5 2 i 2.( L m m F T m m b v v b f f ",
"F I I I U Y { Y Y Y  . .t.t.i.i.i.k.C.Z.s.s.C.C.C.C.C.D.V.` m { U K U U K J D m v k k k k k 4 # O = u Q 2.Z M G D b b k k b f 7 ",
"J F I I U U U U Y  .Y { ..t.u.i.s.C.C.S.k.s.C.C.C.C.Z.v.b.@.G K J J J K J J D n v n k n n D m b j 4 & * y ^ 8.;.n n n h x b 7 6 ",
"D J J I U { K Y Y { U  .....t.a.a.C.C.D.c.k.C.C.C.C.Z.C.C.p.m N D G J J J D m n n D D D D J ` ..-.L M 4 O - p uX0.A z h n M 6 6 ",
"F F J I I U U U  .Y Y  . ...t.a.a.C.C.D.s.k.k.C.C.C.C.C.C.B.A z n J D J G G D n D J D J U U { ..U Y Y Y F 7 & @ i 4.6.C k z 7 8 ",
"F I J I -.U U Y Y  .Y  . .t.u.a.i.C.S.C.C.s.C.C.C.C.Z.S.c.U.3.4 v n D D D D J J J J U U U { ..| U U U I H B M 6 # o : W A c f g ",
"I I I U y.Y Y y.t.t.t.t.t.a.a.s.C.C.S.S.S.S.S.J.S.J.J.S.Z._.q # f k k n m J J J J Y U U X.d.s.u...o.K G F M F F k l ; o - q E l ",
"Y t.t.t.j.a.a.k.a.a.a.a.k.k.C.Z.Z.J.S.S.S.S.J.J.'.'.L.J.J.z.% # 6 h k n D J U K U U { t.d.s.a.u.a.a.t. .Y J D m M F F k 6 4 l j ",
"k.k.k.k.k.k.C.C.C.C.k.k.C.C.S.S.G.J.S.J.J.J.'.K.L.L.K.G.'.R o ; f m G G K Y Y Y Y ..@.u.i.u.u.u.u...+.......{ U J I K J G m G n ",
"k.C.k.C.C.C.S.Z.S.S.S.S.S.S.'.J.J.L.L.'.'.'.'.6X].P.].[.'.V o ; f j.n.D.C.s.u.a.a.s.i.i.i.i.i.i.u.u.u.u.u.u.u.u.t. . .{ U U o.Y ",
"C.S.C.C.Z.S.Z.Z.S.S.C.C.Z.C.S.Z.G.J.G.K.J.J.L.L.[.).).[.].r # 6 f %.J.G.S.C.k.c.k.C.C.Z.Z.Z.c.c.s.i.s.s.s.s.s.c.s.u.u.u.t. . . .",
"'.S.S.S.A.Z.Z.Z.C.S.Z.C.C.Z.G.G.L.L.G.K.L.L.J.L.5X5X).5X).5 O 4 6 L Z.Z.S.C.S.Z.C.S.C.C.C.c.c.s.u.u.i.+.u.u.+.u.u...u..... .y...",
"S.Z.C.C.D.c.Z.Z.Z.Z.A.b.Z.Z.b.Z.H.K.K.L.L.L.6X[.5X5XL.5XY.$ O $ $ k v.b.c.c.k.s.i.x.s.i.i.u.d.u...O.O.O.} } O.} ` ' | ` N G G _ ",
"k.k.c.x.s.i.x.n.x.x.x.b.Z.b.x.b.n.H.V.K.H.K.P.H.K.n.H.).:.& O # $ 5 $.m.c.c.s.s.i.x.+.+.+.u.| u.+.' } O.` ` ' H G N G B b b b N ",
"#.i.x.x.x.x.x.#.c.x.x.b.H.H.A.F.P.P.n.n.m.P.F.n.n.H.).B.:.O o # $ # O.i.#.x.i.i.+.#.#.+.+.i...u.i.+.+.+.@.O.| ' _ ` H H G L _ G ",
"i.i.+.i.x.x.m.x.c.x.p.n.H.n.n.m.n.V.n.A.m.n.n.m.m.M.N.).:.O o O $ ; m.D.V.Z.c.Z.c.c.c.n.c.c.x.n.D.v.x.v.p.#.u.} .. .{ { } | | { "
};
