/* XPM */
static char *player[] = {
/* columns rows colors chars-per-pixel */
"64 64 101 2 ",
"   c #787777",
".  c #0E8AE1",
"X  c #158DE2",
"o  c #198FE2",
"O  c #1791E3",
"+  c #1A93E4",
"@  c #1C99E5",
"#  c #2394E3",
"$  c #2C97E3",
"%  c #219CE6",
"&  c #2C9AE5",
"*  c #339BE4",
"=  c #3A9EE5",
"-  c #349FEA",
";  c #2DA1E7",
":  c #36A2EA",
">  c #3AA2EB",
",  c #3EA8E9",
"<  c #419FE3",
"1  c #43A2E6",
"2  c #4BA4E3",
"3  c #43A5E9",
"4  c #4AA7E8",
"5  c #43AAE9",
"6  c #4CAAEA",
"7  c #51A7E3",
"8  c #56A9E4",
"9  c #5CACE4",
"0  c #53ACEB",
"q  c #54B1EB",
"w  c #5CB1EC",
"e  c #63AFE4",
"r  c #69B4E5",
"t  c #63B5EC",
"y  c #69B6EC",
"u  c #6CBBEE",
"i  c #74B6E4",
"p  c #7DB9E4",
"a  c #70B7E9",
"s  c #73BBED",
"d  c #79BDEE",
"f  c #70BBF0",
"g  c #75C0EF",
"h  c #7BC1EF",
"j  c #7BC1F1",
"k  c #A19E9D",
"l  c #BEBDBD",
"z  c #83BCE4",
"x  c #88BEE4",
"c  c #BDC0C2",
"v  c #BCC5CC",
"b  c #8EC1E4",
"n  c #83C1EE",
"m  c #8CC4EB",
"M  c #93C3E4",
"N  c #9DC8E5",
"B  c #98C6E8",
"V  c #99C8E9",
"C  c #83C5F1",
"Z  c #8AC7F1",
"A  c #8DC9F1",
"S  c #92CCF2",
"D  c #9ACEF3",
"F  c #9BD0F4",
"G  c #A4CAE5",
"H  c #ACCDE5",
"J  c #A5CCE8",
"K  c #B1CDE2",
"L  c #B5D1E5",
"P  c #BCD4E5",
"I  c #BFD8EB",
"U  c #A5D4F4",
"Y  c #AAD6F5",
"T  c #B4DCF6",
"R  c #BADDF6",
"E  c #BFE1F8",
"W  c #D7D5D3",
"Q  c #C1D6E5",
"!  c #C7D9E6",
"~  c #C9DAE5",
"^  c #C7DCEA",
"/  c #D4DEE5",
"(  c #D8DFE5",
")  c #DCE1E5",
"_  c #C3E1F7",
"`  c #C6E3F8",
"'  c #CAE6F9",
"]  c #CEE8F9",
"[  c #DAEAF6",
"{  c #D3EAFA",
"}  c #DCEEFB",
"|  c #DFF0FC",
" . c #E5E5E5",
".. c #E8E6E5",
"X. c #E9E8E7",
"o. c #EBEBEB",
"O. c #E4F2FC",
"+. c #EBF5FD",
"@. c #F4F4F4",
"#. c #F4F9FD",
"$. c #9CD3DB",
/* pixels */
"$.$.$.$.$.$.$.$.$.$.$.$.$.O.] ' ' } O.#.$.$.$.$.$.$.$.$.$.$.O.] T F j g w 6 6 5 w y g A Y { #.$.$.$.$.$.$.$.$.$.$.$.$.$.$.$.$.$.",
"$.$.$.$.$.$.$.$.$.$.$.` y , ; ; ; : , q u S E { #.#.| T Z w 5 ; ; @ @ + @ @ @ @ + @ @ + + & 4 n R +.$.$.$.$.$.$.$.$.$.$.$.$.$.$.",
"$.$.$.$.$.$.$.$.$.$.$.j O @ @ @ @ @ @ @ @ @ @ ; 6 q ; % @ @ @ @ @ @ + X X O @ @ @ @ @ @ X X . . + 3 D O.$.$.$.$.$.$.$.$.$.$.$.$.",
"$.$.$.$.$.$.$.$.$.$.$.+.g @ @ @ @ @ @ @ @ @ @ @ @ @ @ @ @ @ @ @ @ @ O X X O + @ @ @ @ @ + X o X X X X 1 Y #.$.$.$.$.$.$.$.$.$.$.",
"$.$.$.$.$.$.$.$.$.$.$.$.+.g @ @ @ @ @ @ @ @ @ @ @ @ @ @ @ @ @ @ @ @ + X X X O + @ @ @ @ + X X X X o X X o a O.$.$.$.$.$.$.$.$.$.",
"$.$.$.$.$.$.$.$.$.$.$.$.$.O., @ @ @ @ @ @ @ @ @ @ @ @ @ @ @ @ @ @ @ + X X X X O @ @ @ @ o X o X X X X X X X 0 } $.$.$.$.$.$.$.$.",
"$.$.$.$.$.$.$.$.$.$.$.$.$.$.S @ @ @ @ @ @ @ @ @ @ @ + O X + @ @ @ @ @ + o X X X o + + + X X o X X X X X X X X 4 O.$.$.$.$.$.$.$.",
"$.$.$.$.$.$.$.$.$.$.$.$.$.$.E @ @ @ @ @ % @ @ @ @ @ O X X X @ @ @ @ @ + X X X X X X X X X X X X X X # 0 > o X X t #.$.$.$.$.$.$.",
"$.$.$.$.$.$.$.$.$.$.$.$.$.$.T @ @ @ + + @ @ @ @ @ + o X X X o @ @ @ @ + X o X X o X o X X X X X X # V c / y X X X S $.$.$.$.$.$.",
"$.$.$.$.$.$.$.$.$.$.$.$.$.+.q @ + o X X + @ @ @ @ @ o X X X X o @ @ + + X X X X X X X X X X o X X > v   W Y X X X & { $.$.$.$.$.",
"$.$.$.$.$.$.$.$.$.$.$.$.$.j @ @ + X X o X + @ @ @ @ + X X X X X o o X X . X X . . X X . X . . . . # K k l n X X X X s $.$.$.$.$.",
"$.$.$.$.$.$.$.$.$.$.$.$.U % @ @ @ X X X X o @ @ @ @ % o o X X X . o # = 2 9 r p z z x z p p e 8 < = 6 m s + . X X X $ ' $.$.$.$.",
"$.$.$.$.$.$.$.$.$.$.$.{ : @ @ @ @ + X X X X + @ @ @ @ + X X $ 7 p G Q ) )  . ............... . .) / Q G b i 9 2 * # X & s ` $.$.",
"$.$.$.$.$.$.$.$.$.$.#.w @ @ @ @ @ @ X X X X O @ @ @ @ & 9 x ~ ) ...... . . . . . . . . . . . . ........... . .) ~ P G p 8 1 h } ",
"$.$.$.$.$.$.$.$.$.$.F o + @ @ @ @ @ + X X X X O @ & t P ) .... ... . ... . .)  . . . . . . . . . . . . . . . . . ....... ./ P I ",
"$.$.$.$.$.$.$.$.$.} : . X + @ @ @ @ + + X X X O 8 L  . . . . .......) ~ G s H .. . . . . . . . . . . . . . .X.X.X...X. . . ...o.",
"$.$.$.$.$.$.$.$.$.d X X X O @ @ @ @ @ + X X $ M ( .... . . ...( L m t 3 > 3 P .. . . . . . . . . .X.@.@.@.$.#.$.#.@.#.@.@.@.#.$.",
"$.$.$.$.$.$.$.$.] # X X X X + @ @ @ @ X X 7 P  . . . . . . .( a > > > > > t )  . . . . . . .X.o.@.$.$.$.$.$.$.$.$.$.$.$.$.$.$.$.",
"$.$.$.$.$.$.$.$.u O X X X X o + @ @ O + i ( .. . . . . . . .( 0 > > > > > B .. . . . .o.@.@.$.$.$.$.$.$.$.$.$.$.$.$.$.$.$.$.$.$.",
"$.$.$.$.$.$.$.' & + o X X X X o + O # M  . . . . . . . . . .! 4 > > > > 6 ~ X.X.@.#.$.$.$.$.$.$.$.$.$.$.$.$.$.$.$.$.$.$.$.$.$.$.",
"$.$.$.$.$.$.$.g @ @ o X X X X X X $ G  . . . . . . . . . . .J > > > > - A @.$.$.$.$.$.$.$.$.$.$.$.$.$.$.$.$.$.$.$.$.$.$.$.$.$.$.",
"$.$.$.$.$.$.| : @ @ X X X X X X $ H  . . . . . . . . . . . .s - > > > 0 } $.$.$.$.$.$.$.$.$.$.$.$.$.$.$.$.$.$.$.$.$.$.$.$.$.$.$.",
"$.$.$.$.$.$.D @ @ o X X X X X $ K .. . . . . . . . . . .o.^ 6 > > > > Y $.$.$.$.$.$.$.$.$.$.$.$.$.$.$.$.$.$.$.$.$.$.$.$.$.$.$.$.",
"$.$.$.$.$.#.6 . o X X X X X $ G .. . . . . . . . ...o.@.#.C > > > - C #.$.$.$.$.$.$.$.$.$.$.$.$.$.$.$.$.$.$.$.$.$.$.$.$.$.$.$.$.",
"$.$.$.$.$.' # X X X X X X o M  . . . . . . . ...@.@.$.$.R 3 > > - f +.$.$.$.$.$.$.$.$.$.$.$.$.$.$.$.$.$.$.$.$.$.$.$.$.$.$.$.$.$.",
"$.$.$.$.$.S X X X X X X X p .... . . . . . .o.#.$.$.$.} q > > > d +.$.$.$.$.$.$.$.$.$.$.$.$.$.$.$.$.$.$.$.$.$.$.$.$.$.$.$.$.$.$.",
"$.$.$.$.#.0 X X X X o X 8 ( .. . . . . .X.@.$.$.$.$.| t - > q Y #.$.$.$.$.$.$.$.$.$.$.$.$.$.$.$.$.$.$.$.$.$.$.$.$.$.$.$.$.$.$.$.",
"$.$.$.$.} $ X X X X X $ Q .. . . . .X.o.$.$.$.$.$.$.F f Z T +.$.$.$.$.$.$.$.$.$.$.$.$.$.$.$.$.$.$.$.$.$.$.$.$.$.$.$.$.$.$.$.$.$.",
"$.$.$.$.R o X o X X X x .... . . .X.@.$.$.$.$.$.$.$.#.$.$.$.$.$.$.$.$.$.$.$.$.$.$.$.$.$.$.$.$.$.$.$.$.$.$.$.$.$.$.$.$.$.$.$.$.$.",
"$.$.$.$.A X X X X X 7 ( .... . .o.#.$.$.$.$.$.$.$.$.$.$.$.$.$.$.$.$.$.$.$.$.$.$.$.$.$.$.$.$.$.$.$.$.$.$.$.$.$.$.$.$.$.$.$.$.$.$.",
"$.$.$.$.y X X X X # H .. . . .o.$.$.$.$.$.$.$.$.$.$.$.$.$.$.$.$.$.$.$.$.$.$.$.$.$.$.$.$.$.$.$.$.$.$.$.$.$.$.$.$.$.$.$.$.$.$.$.$.",
"$.$.$.#.6 X X X X 8 ( .. . .o.$.$.$.$.$.$.$.$.$.$.$.$.$.$.$.$.$.$.$.$.$.$.$.$.$.$.$.$.$.$.$.$.$.$.$.$.$.$.$.$.$.$.$.$.$.$.$.$.$.",
"$.$.$.+.* X X X + G .. . .o.$.$.$.$.$.$.$.$.$.$.$.$.$.$.$.$.$.$.$.$.$.$.$.$.$.$.$.$.$.$.$.$.$.$.$.$.$.$.$.$.$.$.$.$.$.$.$.$.$.$.",
"$.$.$.} $ X X X 1 )  . .X.#.$.$.$.$.$.$.$.$.$.$.$.$.$.$.$.$.$.$.$.$.$.$.$.$.$.$.$.$.$.$.$.$.$.$.$.$.$.$.$.$.$.$.$.$.$.$.$.$.$.$.",
"$.$.$.{ # X X X z .. .X.@.$.$.$.$.$.$.$.$.$.$.$.$.$.$.$.$.$.$.$.$.$.$.$.$.$.$.$.$.$.$.$.$.$.$.$.$.$.$.$.$.$.$.$.$.$.$.$.$.$.$.$.",
"$.$.$.{ # X X # P .. .o.$.$.$.$.$.$.$.$.$.$.$.$.$.$.$.$.$.$.$.$.$.$.$.$.$.$.$.$.$.$.$.$.$.$.$.$.$.$.$.$.$.$.$.$.$.$.$.$.$.$.$.$.",
"$.$.$.' # X X 1 (  ...#.$.$.$.$.$.$.$.$.$.$.$.$.$.$.$.$.$.$.$.$.$.$.$.$.$.$.$.$.$.$.$.$.$.$.$.$.$.$.$.$.$.$.$.$.$.$.$.$.$.$.$.$.",
"$.$.$.' # X . e  . .o.$.$.$.$.$.$.$.$.$.$.$.$.$.$.$.$.$.$.$.$.$.$.$.$.$.$.$.$.$.$.$.$.$.$.$.$.$.$.$.$.$.$.$.$.$.$.$.$.$.$.$.$.$.",
"$.$.$.{ # X X x .. .@.$.$.$.$.$.$.$.$.$.$.$.$.$.$.$.$.$.$.$.$.$.$.$.$.$.$.$.$.$.$.$.$.$.$.$.$.$.$.$.$.$.$.$.$.$.$.$.$.$.$.$.$.$.",
"$.$.$.{ # X X G ..X.$.$.$.$.$.$.$.$.$.$.$.$.$.$.$.$.$.$.$.$.$.$.$.$.$.$.$.$.$.$.$.$.$.$.$.$.$.$.$.$.$.$.$.$.$.$.$.$.$.$.$.$.$.$.",
"$.$.$.O.& X o K ..o.$.$.$.$.$.$.$.$.$.$.$.$.$.$.$.$.$.$.$.$.$.$.$.$.$.$.$.$.$.$.$.$.$.$.$.$.$.$.$.$.$.$.$.$.$.$.$.$.$.$.$.$.$.$.",
"$.$.$.+.1 X + P  .@.$.$.$.$.$.$.$.$.$.$.$.$.$.$.$.$.$.$.$.$.$.$.$.$.$.$.$.$.$.$.$.$.$.$.$.$.$.$.$.$.$.$.$.$.$.$.$.$.$.$.$.$.$.$.",
"$.$.$.$.0 . # P ..@.$.$.$.$.$.$.$.$.$.$.$.$.$.$.$.$.$.$.$.$.$.$.$.$.$.$.$.$.$.$.$.$.$.$.$.$.$.$.$.$.$.$.$.$.$.$.$.$.$.$.$.$.$.$.",
"$.$.$.$.d . # P ..@.$.$.$.$.$.$.$.$.$.$.$.$.$.$.$.$.$.$.$.$.$.$.$.$.$.$.$.$.$.$.$.$.$.$.$.$.$.$.$.$.$.$.$.$.$.$.$.$.$.$.$.$.$.$.",
"$.$.$.$.U X o K ..@.$.$.$.$.$.$.$.$.$.$.$.$.$.$.$.$.$.$.$.$.$.$.$.$.$.$.$.$.$.$.$.$.$.$.$.$.$.$.$.$.$.$.$.$.$.$.$.$.$.$.$.$.$.$.",
"$.$.$.$.' # X G ..@.$.$.$.$.$.$.$.$.$.$.$.$.$.$.$.$.$.$.$.$.$.$.$.$.$.$.$.$.$.$.$.$.$.$.$.$.$.$.$.$.$.$.$.$.$.$.$.$.$.$.$.$.$.$.",
"$.$.$.$.+.1 . z ..o.$.$.$.$.$.$.$.$.$.$.$.$.$.$.$.$.$.$.$.$.$.$.$.$.$.$.$.$.$.$.$.$.$.$.$.$.$.$.$.$.$.$.$.$.$.$.$.$.$.$.$.$.$.$.",
"$.$.$.$.$.s . e  .X.#.$.$.$.$.$.$.$.$.$.$.$.$.$.$.$.$.$.$.$.$.$.$.$.$.$.$.$.$.$.$.$.$.$.$.$.$.$.$.$.$.$.$.$.$.$.$.$.$.$.$.$.$.$.",
"$.$.$.$.$.R + = ( ..o.o.X.X.o.o.o.@.#.$.$.$.$.$.$.$.$.$.$.$.$.$.$.$.$.$.$.$.$.$.$.$.$.$.$.$.$.$.$.$.$.$.$.$.$.$.$.$.$.$.$.$.$.$.",
"$.$.$.$.$.{ $ o L .. . . . . . . . ...o.@.$.$.$.$.$.$.$.$.$.$.$.$.$.$.$.$.$.$.$.$.$.$.$.$.$.$.$.$.$.$.$.$.$.$.$.$.$.$.$.$.$.$.$.",
"$.$.$.$.#.s X X z .... . . . . . . . . .X.@.$.$.$.$.$.$.$.$.$.$.$.$.$.$.$.$.$.$.$.$.$.$.$.$.$.$.$.$.$.$.$.$.$.$.$.$.$.$.$.$.$.$.",
"$.$.$.$.R o X X 1 ( .. . . . . .X.@.@.@.#.$.$.$.$.$.$.$.$.$.$.$.$.$.$.$.$.$.$.$.$.$.$.$.$.$.$.$.$.$.$.$.$.$.$.$.$.$.$.$.$.$.$.$.",
"$.$.$.+.6 X X X + H .. . . .X.@.$.$.$.$.$.$.$.$.$.$.$.$.$.$.$.$.$.$.$.$.$.$.$.$.$.$.$.$.$.$.$.$.$.$.$.$.$.$.$.$.$.$.$.$.$.$.$.$.",
"$.$.$.D X X X o X 9  .X. .o.@.$.$.$.$.$.$.$.$.$.$.$.$.$.$.$.$.$.$.$.$.$.$.$.$.$.$.$.$.$.$.$.$.$.$.$.$.$.$.$.$.$.$.$.$.$.$.$.$.$.",
"$.$.O.= X X o X X $ [ @.#.$.$.$.$.$.$.$.$.$.$.$.$.$.$.$.$.$.$.$.$.$.$.$.$.$.$.$.$.$.$.$.$.$.$.$.$.$.$.$.$.$.$.$.$.$.$.$.$.$.$.$.",
"$.$.Z X X X X X X t #.$.$.$.$.$.$.$.$.$.$.$.$.$.$.$.$.$.$.$.$.$.$.$.$.$.$.$.$.$.$.$.$.$.$.$.$.$.$.$.$.$.$.$.$.$.$.$.$.$.$.$.$.$.",
"$.} & X X X X X 1 [ $.$.$.$.$.$.$.$.$.$.$.$.$.$.$.$.$.$.$.$.$.$.$.$.$.$.$.$.$.$.$.$.$.$.$.$.$.$.$.$.$.$.$.$.$.$.$.$.$.$.$.$.$.$.",
"$.A X X X X X t } $.$.$.$.$.$.$.$.$.$.$.$.$.$.$.$.$.$.$.$.$.$.$.$.$.$.$.$.$.$.$.$.$.$.$.$.$.$.$.$.$.$.$.$.$.$.$.$.$.$.$.$.$.$.$.",
"O.1 X X o 6 Y #.$.$.$.$.$.$.$.$.$.$.$.$.$.$.$.$.$.$.$.$.$.$.$.$.$.$.$.$.$.$.$.$.$.$.$.$.$.$.$.$.$.$.$.$.$.$.$.$.$.$.$.$.$.$.$.$.",
"U + X 1 Y #.$.$.$.$.$.$.$.$.$.$.$.$.$.$.$.$.$.$.$.$.$.$.$.$.$.$.$.$.$.$.$.$.$.$.$.$.$.$.$.$.$.$.$.$.$.$.$.$.$.$.$.$.$.$.$.$.$.$.",
"w X y O.$.$.$.$.$.$.$.$.$.$.$.$.$.$.$.$.$.$.$.$.$.$.$.$.$.$.$.$.$.$.$.$.$.$.$.$.$.$.$.$.$.$.$.$.$.$.$.$.$.$.$.$.$.$.$.$.$.$.$.$.",
"$ y #.$.$.$.$.$.$.$.$.$.$.$.$.$.$.$.$.$.$.$.$.$.$.$.$.$.$.$.$.$.$.$.$.$.$.$.$.$.$.$.$.$.$.$.$.$.$.$.$.$.$.$.$.$.$.$.$.$.$.$.$.$.",
"4 | $.$.$.$.$.$.$.$.$.$.$.$.$.$.$.$.$.$.$.$.$.$.$.$.$.$.$.$.$.$.$.$.$.$.$.$.$.$.$.$.$.$.$.$.$.$.$.$.$.$.$.$.$.$.$.$.$.$.$.$.$.$.",
"_ $.$.$.$.$.$.$.$.$.$.$.$.$.$.$.$.$.$.$.$.$.$.$.$.$.$.$.$.$.$.$.$.$.$.$.$.$.$.$.$.$.$.$.$.$.$.$.$.$.$.$.$.$.$.$.$.$.$.$.$.$.$.$."
};
