/* XPM */
static char *player[] = {
/* columns rows colors chars-per-pixel */
"32 32 214 2 ",
"   c #0B2338",
".  c #0E3148",
"X  c #053A5B",
"o  c #083853",
"O  c #1E3F57",
"+  c #0B2D4D",
"@  c #043F60",
"#  c #094057",
"$  c #18445B",
"%  c #2D4054",
"&  c #284458",
"*  c #314152",
"=  c #0B4667",
"-  c #154866",
";  c #17506D",
":  c #054D79",
">  c #04547D",
",  c #065074",
"<  c #2E4B62",
"1  c #344B63",
"2  c #30526A",
"3  c #325663",
"4  c #29586F",
"5  c #236175",
"6  c #32677E",
"7  c #404D5B",
"8  c #48515D",
"9  c #505F77",
"0  c #566A79",
"q  c #756C60",
"w  c #606773",
"e  c #79757A",
"r  c #8C7C6A",
"t  c #035A84",
"y  c #045787",
"u  c #135789",
"i  c #02608D",
"p  c #0B688D",
"a  c #15678C",
"s  c #156586",
"d  c #036395",
"f  c #036995",
"g  c #0C6B94",
"h  c #03679A",
"j  c #036C9B",
"k  c #08679B",
"l  c #03729E",
"z  c #18779C",
"x  c #356A86",
"c  c #2E738E",
"v  c #397995",
"b  c #27708F",
"n  c #036EA3",
"m  c #056EAB",
"M  c #0374A3",
"N  c #037BA5",
"B  c #0A7AA3",
"V  c #0374AB",
"C  c #037CAB",
"Z  c #0B70A5",
"A  c #137DA1",
"S  c #0375B2",
"D  c #037DB4",
"F  c #2D78A0",
"G  c #4D758E",
"H  c #4A7791",
"J  c #727C8A",
"K  c #837D8E",
"L  c #2B8198",
"P  c #0380A7",
"I  c #0482AB",
"U  c #0A86AE",
"Y  c #0488AE",
"T  c #1785A9",
"R  c #0384B3",
"E  c #0884B5",
"W  c #048BB4",
"Q  c #0484BA",
"!  c #048BBC",
"~  c #0B8CBC",
"^  c #0691B6",
"/  c #0494BC",
"(  c #0C93BA",
")  c #0C9ABD",
"_  c #0B96B8",
"`  c #139ABE",
"'  c #1897BE",
"]  c #128DB6",
"[  c #3684A4",
"{  c #2B92B2",
"}  c #3190AD",
"|  c #56879D",
" . c #7F828D",
".. c #62869D",
"X. c #778695",
"o. c #4A8AA4",
"O. c #578BA4",
"+. c #4690AE",
"@. c #5396AF",
"#. c #6E90A3",
"$. c #7399B1",
"%. c #4CA5BE",
"&. c #69A7BC",
"*. c #7AA6B9",
"=. c #038DC2",
"-. c #098DC2",
";. c #0393C3",
":. c #039AC5",
">. c #089BC6",
",. c #049DCA",
"<. c #089DCA",
"1. c #0395CA",
"2. c #169BC1",
"3. c #049ED2",
"4. c #229EC1",
"5. c #2A9EC1",
"6. c #09A3C5",
"7. c #04A2CC",
"8. c #0BA4CD",
"9. c #06AACD",
"0. c #0CAACE",
"q. c #05A2C5",
"w. c #14A1C4",
"e. c #12A3CC",
"r. c #1CA5CC",
"t. c #19AACD",
"y. c #03A5D3",
"u. c #04ABD4",
"i. c #0AAED3",
"p. c #03ADD9",
"a. c #0DA5D3",
"s. c #1AACD1",
"d. c #05B1D4",
"f. c #0BB1D5",
"g. c #05B4DB",
"h. c #09B6DA",
"j. c #12B8DD",
"k. c #1AB9DD",
"l. c #16B2D4",
"z. c #23A4C5",
"x. c #2CA3C4",
"c. c #24A6CB",
"v. c #2DAACE",
"b. c #2CA8C9",
"n. c #35A4C3",
"m. c #3BA4C4",
"M. c #33ABCD",
"N. c #3DABCA",
"B. c #3BB0CB",
"V. c #24ACD1",
"C. c #2BABD2",
"Z. c #3DAED1",
"A. c #31B0D0",
"S. c #3CB0D4",
"D. c #29BADE",
"F. c #0CBBE1",
"G. c #2ABDE2",
"H. c #43AACC",
"J. c #4BACCC",
"K. c #41AAC6",
"L. c #56AFCE",
"P. c #49B1CD",
"I. c #5AB3CE",
"U. c #44ADD1",
"Y. c #43B2D3",
"T. c #4BB3D4",
"R. c #55B5D4",
"E. c #5DB6D4",
"W. c #59B8D7",
"Q. c #5BBADA",
"!. c #53B8D8",
"~. c #6AABC7",
"^. c #72AEC1",
"/. c #7FB8CE",
"(. c #63BAD6",
"). c #62BCD9",
"_. c #6CBDDA",
"`. c #61B5D2",
"'. c #6BB4CC",
"]. c #70C0DD",
"[. c #888791",
"{. c #84838D",
"}. c #A09B9E",
"|. c #B8A99C",
" X c #9095A4",
".X c #9DA8AE",
"XX c #88A8B8",
"oX c #9CB0BC",
"OX c #A6A7AA",
"+X c #A9A6A8",
"@X c #B6ACA9",
"#X c #A0ADB6",
"$X c #A0B4BD",
"%X c #B9B5BA",
"&X c #C9B7A7",
"*X c #8BB0C3",
"=X c #97B9C8",
"-X c #A7BCC9",
";X c #B6BCC1",
":X c #C2BFC5",
">X c #9DD0DF",
",X c #94C4CB",
"<X c #BAC9D2",
"1X c #CAC7CA",
"2X c #D5CEC9",
"3X c #D5D1CF",
"4X c #CCCCD3",
"5X c #CAD5DA",
"6X c #DAD8D8",
"7X c #E8E3DC",
"8X c #DADEE3",
"9X c #DCE4E2",
"0X c #E5E6E9",
"qX c #EBE8E9",
/* pixels */
"r.v.U.W.Q._.(.E.].].].].].(._.`.R.L.J.J.J.m.x.{ 2./ Y Y T U U z ",
"e.r.v.U.W.).E.T.Q.].(.(.(.(.(.L.P.J.J.H.J.n.x.' _ W W Y P I I P ",
">.e.v.Z.!.Q.W.U.).].].E.`.E.E.P.N.H.H.~.m.n.x.2._ Y Y I N I Y P ",
",.r.c.M.U.!.Q.T.Q.].W.E.&.`.E.P.M.v.N.O.n.x.4.` ~ R C N N P U P ",
"1.e.r.C.Z.T.!.Z.Q.(.`./.=XL.R.P.M.v.B.v N.x.4.) ^ W I N N P I C ",
"1.a.2.C.C.T.Y.Z.I.&.-XoX$.P.B.Y.v.w.@.F N.{ z./ ^ W I P N N I P ",
":.>.e.v.Z.U.U.~.XX-X-X..[ S.A.V.t.) v { n.x.' ) W ! I N l N I N ",
";.:.<.m.&.^.*X*X$.*.| O.B.A.V.e.6.6.H z.r.` ` ` _ R P N P P N N ",
";.:.8.r.T O...H 6 6 x v *.B.t.q.w.m.G t.r.) ) ( W I I C N C l l ",
";.,.e.s.t.>.U U ( w.z v @.,Xb.>X9X5XoX&.w.` ` _ Y C I I M M N l ",
";.,.8.e.8.a.,.>.9.l.r.T o.*X<XqXqX9X4X.X*.^ ` ^ R I C C N l N l ",
";.,.e.8.7.7.;.:.9.l.s.^ } XX5XqX7X2X1XOX X} _ ^ W I C M M f N l ",
"/ :.7.7.7.,.;.,.9.d.9.0.T ,X8XqX6X1X%X[.X.J >.] W R C N l l N l ",
"! ;.,.,.,.:.:.<.d.f.f.9.w.<X8X0X3X:X+XK [.X.o./ W I I N l M C l ",
"Q ;.:.:.:.:.;.0.u.h.f.9.M.;X4X6X6X@X{.w w 9 0 ( W R C N N l l l ",
"Q ! ;.;.;./ ,.7.9.g.f.0.J.$X-X;X4X .8 7 &   < b ^ R N C j l l j ",
"D ! ;.! ! =.,.7.i.g.u.d.'.XX#.X.OX}. .* . O & 5 ^ Y I V j j l l ",
";.;.;.=.=.;.7.7.u.d.u.f.J.c c oX0X2Xe * 3 - $ - I R R M N f j h ",
"Q ! ! ! 1.;.q.7.u.d.u.i.g p s #X7X&X8 % # ; # # N Y C M l f j l ",
"D Q ! =.=.;.,.,.u.u.u.u.q.z s #.|.q & - > , # # l U C V M f j l ",
"V R Q ! ! =.;.,.7.u.u.u.u.( B +.|.r 2 t t > X o l I V M j f h j ",
"V S Q ! Q ! ;.:.7.u.y.u.u.6.E ~ $ . y i t > o o l D N j j h h f ",
"V S Q ! =.=.;.,.,.y.7.y.u.u.W =.I j V h t : = O N B M l f f h f ",
"S D -.Q Q =.1.,.,.y.y.y.y.u.R ! Q R C M d > = 3 z M n l j h f t ",
"S S E D D -.=.1.,.y.,.y.y.u./ C R D S n d y y - 2 v z Z k d d y ",
"m S Q S Q D ! ;.3.y.3.y.y.y.,.n M V V j h h n N p - 1 ..F d p , ",
"m S D D Q D ! ;.,.p.y.y.y.u.e.b h n M n V V D Q D D j = 1 x a y ",
"D Q -.=.=.1.1.3.u.p.p.g.g.g.s.O y d M V S Q :.:.=.D V n k : - u ",
"3.3.y.u.p.y.y.g.g.h.g.F.j.j.>.+ j ~ ;.! ;.;.:.;.;./ ! ! D D V C ",
"p.u.u.u.p.y.y.p.g.d.g.h.G.D.T X f p.y.y.y.u.9.7.;.:.:.:.=.=.=.Q ",
"y.7.7.9.7.9.u.u.i.g.h.j.k.k.a + = 6.7.,.:./ ;./ W ^ W Y N C j M ",
":.:.q.q.7.7.i.0.l.0.0.0.0.V.s + X q.7.7.:.q.,.,.,.:.) W R C U C "
};
