/* XPM */
static char *player[] = {
/* columns rows colors chars-per-pixel */
"32 32 210 2 ",
"   c #138CE2",
".  c #158DE2",
"X  c #168EE2",
"o  c #178EE2",
"O  c #168FE3",
"+  c #178FE3",
"@  c #198FE2",
"#  c #1790E3",
"$  c #1791E3",
"%  c #1890E3",
"&  c #1991E3",
"*  c #1B90E3",
"=  c #1892E3",
"-  c #1C90E2",
";  c #1C91E3",
":  c #1992E4",
">  c #1993E4",
",  c #1A93E4",
"<  c #1F93E4",
"1  c #1A95E4",
"2  c #1B95E4",
"3  c #1A96E4",
"4  c #1B96E5",
"5  c #1C98E5",
"6  c #1C99E5",
"7  c #1D9AE5",
"8  c #2192E3",
"9  c #2293E3",
"0  c #2494E2",
"q  c #2294E4",
"w  c #2394E4",
"e  c #2295E4",
"r  c #2294E5",
"t  c #2696E4",
"y  c #2996E3",
"u  c #2B97E3",
"i  c #2897E5",
"p  c #2997E5",
"a  c #2098E5",
"s  c #209BE6",
"d  c #239BE6",
"f  c #229CE6",
"g  c #259DE6",
"h  c #2D98E4",
"j  c #2E9AE5",
"k  c #3099E3",
"l  c #329AE3",
"z  c #339AE3",
"x  c #359BE3",
"c  c #329EE7",
"v  c #3A9FE4",
"b  c #389FE7",
"n  c #3A9FE7",
"m  c #31A1E7",
"M  c #32A2E7",
"N  c #3AA0E7",
"B  c #36A3E8",
"V  c #38A3E8",
"C  c #39A1EB",
"Z  c #3AA2EB",
"A  c #3EA3E8",
"S  c #3FA5E8",
"D  c #3FA4EB",
"F  c #74B3DF",
"G  c #41A0E3",
"H  c #42A1E3",
"J  c #44A1E3",
"K  c #46A2E3",
"L  c #47A2E3",
"P  c #42A3E7",
"I  c #4AA4E3",
"U  c #4CA4E3",
"Y  c #4EA6E4",
"T  c #44A7E9",
"R  c #47A8EB",
"E  c #4AABEA",
"W  c #4EADEA",
"Q  c #56A9E3",
"!  c #55ABE5",
"~  c #59ABE4",
"^  c #50B0EB",
"/  c #5DB1EB",
"(  c #61ADE3",
")  c #68B1E3",
"_  c #62B2EB",
"`  c #63B5ED",
"'  c #6DB6EA",
"]  c #6AB7ED",
"[  c #62B8ED",
"{  c #66BAEE",
"}  c #6BB9EF",
"|  c #6FB9ED",
" . c #70B4E4",
".. c #72B4E4",
"X. c #77B7E4",
"o. c #77B8E5",
"O. c #71BBEE",
"+. c #75BAEC",
"@. c #76BCEE",
"#. c #7ABBE9",
"$. c #7ABFEF",
"%. c #77C1EA",
"&. c #7DC4F0",
"*. c #A3B1BC",
"=. c #8BB6D5",
"-. c #89BEE4",
";. c #9CD3DB",
":. c #88C8E5",
">. c #8ECBE6",
",. c #81C3E9",
"<. c #82C3E9",
"1. c #8FC3E8",
"2. c #8AC9EB",
"3. c #8FC9EB",
"4. c #8AC9EC",
"5. c #98C5E4",
"6. c #9AC6E4",
"7. c #97CDEC",
"8. c #81C2F0",
"9. c #82C3F1",
"0. c #82C6F1",
"q. c #89C9F1",
"w. c #8FC8F1",
"e. c #94CBF2",
"r. c #93CCF3",
"t. c #97CEF4",
"y. c #9BD1F3",
"u. c #A2C9E5",
"i. c #A7D7E2",
"p. c #A8D8E3",
"a. c #AAD9E3",
"s. c #ACDAE3",
"d. c #A4D5E8",
"f. c #A5D6E8",
"g. c #A2D3EE",
"h. c #A5D3ED",
"j. c #A1D4EE",
"k. c #A8D7E9",
"l. c #AFDAEA",
"z. c #ACD8EF",
"x. c #B0D0E6",
"c. c #B4D1E5",
"v. c #B6D1E5",
"b. c #B8D4E7",
"n. c #BAD5E7",
"m. c #BCD4E5",
"M. c #B2DBE1",
"N. c #B0DCE4",
"B. c #B2DDE4",
"V. c #B1DBEA",
"C. c #B3DCEA",
"Z. c #B3DDEA",
"A. c #B6DDEA",
"S. c #B7DEEA",
"D. c #B8DFEB",
"F. c #B0DAF0",
"G. c #B6DDF0",
"H. c #B7DDF0",
"J. c #B8DFF1",
"K. c #BEE0EF",
"L. c #C2D7E6",
"P. c #C4D7E5",
"I. c #C2DEE2",
"U. c #C6D8E5",
"Y. c #CDDBE5",
"T. c #D2DDE5",
"R. c #D5DEE5",
"E. c #D7DFE5",
"W. c #D4DFE8",
"Q. c #C5E1E4",
"!. c #C0E2EC",
"~. c #C2E3EC",
"^. c #C8E4E8",
"/. c #C8E5EA",
"(. c #C8E6EC",
"). c #D6E4E6",
"_. c #D9E0E5",
"`. c #DAE0E4",
"'. c #DBE1E5",
"]. c #DDE2E5",
"[. c #D8E5E7",
"{. c #D9E7EA",
"}. c #DBE9EB",
"|. c #DBEAED",
" X c #CAE1F1",
".X c #D8EBF1",
"XX c #E0E3E5",
"oX c #E1E3E5",
"OX c #E2E4E5",
"+X c #E3E4E5",
"@X c #E4E4E5",
"#X c gray90",
"$X c #E6E5E5",
"%X c #E7E6E5",
"&X c #E7E6E6",
"*X c #E7E7E6",
"=X c #E7E7E7",
"-X c #E8E6E5",
";X c #E8E6E6",
":X c #E8E7E6",
">X c #E8E7E7",
",X c #E8E8E7",
"<X c gray91",
"1X c #EAEAE9",
"2X c #EAEAEA",
"3X c #EBEBEA",
"4X c #EBECED",
"5X c #EDEDED",
"6X c #EEEDED",
"7X c #EDEEEF",
/* pixels */
";.;.;.;.;.i.2.&.0.y.>.Z.(.Z.:.q.{ E V M P W O.7.S.;.;.;.;.;.;.;.",
";.;.;.;.;.k.m 6 6 6 6 f B f 6 6 6 $ . 6 6 6 $   e @.S.;.;.;.;.;.",
";.;.;.;.;.;.J.g 6 6 6 6 6 6 6 6 6 & . > 6 6 & . . . h z.;.;.;.;.",
";.;.;.;.;.;.;.[ 6 6 6 6 6 $ . 6 6 2 . . . & . . . i < e G.;.;.;.",
";.;.;.;.;.;.N.^ 2 $ 6 6 2 @ . & 6 2 . . @ . . . 0 *.x.. N a.;.;.",
";.;.;.;.;.;.%.6 & . . 6 6 2 . . . q k H I U I x y =...  . ,.;.;.",
";.;.;.;.;.F.d 6 6 . . 2 6 d J -.m.].+X#X#X-X#X#X+XY.v.6.o.~ +.d.",
";.;.;.;.s.A > 6 6 & . . ! n.#X#X#X].n.R.#X#X#X#X#X#X#X#X-X#XXXW.",
";.;.;.;.<.. . 6 6 2 0 6.+X#X#XL.' R R _.#X#X#X2X[.^.M.M./././.M.",
";.;.;.p.c . . & 2 b U.%X#X#X#X1.Z Z #.,X7XI.Q.;.;.;.;.;.;.;.;.;.",
";.;.;.4.6 . . . J T.%X%X#X#X#X_ Z D K.;.;.;.;.;.;.;.;.;.;.;.;.;.",
";.;.B.T & . . J E.%X+X%X#X2X XD Z t.;.;.;.;.;.;.;.;.;.;.;.;.;.;.",
";.;.f.@ . . k T.%X%X#X4X^.s.` Z 9.s.;.;.;.;.;.;.;.;.;.;.;.;.;.;.",
";.;.e.. . ; v.#X#X-XQ.;.;.r.} j.B.;.;.;.;.;.;.;.;.;.;.;.;.;.;.;.",
";.;./ . . ..-X#X4XM.;.;.;.M.;.;.;.;.;.;.;.;.;.;.;.;.;.;.;.;.;.;.",
";.B.b . y R.#X).;.;.;.;.;.;.;.;.;.;.;.;.;.;.;.;.;.;.;.;.;.;.;.;.",
";.!.9 . o.#X4X;.;.;.;.;.;.;.;.;.;.;.;.;.;.;.;.;.;.;.;.;.;.;.;.;.",
";.D.; @ U.>XM.;.;.;.;.;.;.;.;.;.;.;.;.;.;.;.;.;.;.;.;.;.;.;.;.;.",
";.Z.; l +X{.;.;.;.;.;.;.;.;.;.;.;.;.;.;.;.;.;.;.;.;.;.;.;.;.;.;.",
";.D.; ! #XM.;.;.;.;.;.;.;.;.;.;.;.;.;.;.;.;.;.;.;.;.;.;.;.;.;.;.",
";.!.i ) 2X;.;.;.;.;.;.;.;.;.;.;.;.;.;.;.;.;.;.;.;.;.;.;.;.;.;.;.",
";.;.b  .6X;.;.;.;.;.;.;.;.;.;.;.;.;.;.;.;.;.;.;.;.;.;.;.;.;.;.;.",
";.;.] ( 6X;.;.;.;.;.;.;.;.;.;.;.;.;.;.;.;.;.;.;.;.;.;.;.;.;.;.;.",
";.;.7.H >XM.;.;.;.;.;.;.;.;.;.;.;.;.;.;.;.;.;.;.;.;.;.;.;.;.;.;.",
";.;.V.t E.2X#X-X2X}.M.;.;.;.;.;.;.;.;.;.;.;.;.;.;.;.;.;.;.;.;.;.",
";.;.w.. u.#X#X#X2X6X|.;.;.;.;.;.;.;.;.;.;.;.;.;.;.;.;.;.;.;.;.;.",
";.l.q . Y #X-X|.;.;.;.;.;.;.;.;.;.;.;.;.;.;.;.;.;.;.;.;.;.;.;.;.",
";.] . . l .XB.;.;.;.;.;.;.;.;.;.;.;.;.;.;.;.;.;.;.;.;.;.;.;.;.;.",
"k.@ . i h.;.;.;.;.;.;.;.;.;.;.;.;.;.;.;.;.;.;.;.;.;.;.;.;.;.;.;.",
"$.q 9.A.;.;.;.;.;.;.;.;.;.;.;.;.;.;.;.;.;.;.;.;.;.;.;.;.;.;.;.;.",
"P G.;.;.;.;.;.;.;.;.;.;.;.;.;.;.;.;.;.;.;.;.;.;.;.;.;.;.;.;.;.;.",
"g.;.;.;.;.;.;.;.;.;.;.;.;.;.;.;.;.;.;.;.;.;.;.;.;.;.;.;.;.;.;.;."
};
