/* XPM */
static char *wall[] = {
/* columns rows colors chars-per-pixel */
"64 64 224 2 ",
"   c #EA5D3A",
".  c #E95A35",
"X  c #EF7C2A",
"o  c #EC6538",
"O  c #EE7430",
"+  c #F17D2B",
"@  c #EB6441",
"#  c #EA6D4C",
"$  c #EC7555",
"%  c #ED764A",
"&  c #6E952A",
"*  c #6C9327",
"=  c #71962D",
"-  c #71992E",
";  c #7A9C2C",
":  c #759B32",
">  c #799D37",
",  c #7B9E3B",
"<  c #76A234",
"1  c #7DA33B",
"2  c #7CAD3A",
"3  c #7FB33C",
"4  c #7EA242",
"5  c #889233",
"6  c #BE812F",
"7  c #A08634",
"8  c #B4893D",
"9  c #81A63F",
"0  c #82A135",
"q  c #81B43D",
"w  c #82B83F",
"e  c #8FBB3D",
"r  c #9ABE3A",
"t  c #93A629",
"y  c #B2B427",
"u  c #F3931E",
"i  c #F9B41C",
"p  c #C99733",
"a  c #CF8A2F",
"s  c #EA8729",
"d  c #F2882A",
"f  c #F39424",
"g  c #EF8933",
"h  c #ED9534",
"j  c #D5A02B",
"k  c #F7B637",
"l  c #B9C42D",
"z  c #DAC21B",
"x  c #FFD10F",
"c  c #E7CA1B",
"v  c #F5CE17",
"b  c #FFD213",
"n  c #FDD31A",
"m  c #F5D01A",
"M  c #C2C62C",
"N  c #D8CA24",
"B  c #D4CE3D",
"V  c #E7C827",
"C  c #FED523",
"Z  c #FED72F",
"A  c #FED731",
"S  c #FED835",
"D  c #E4D030",
"F  c #B3985B",
"G  c #81A443",
"H  c #84A944",
"J  c #84A64B",
"K  c #89AE4B",
"L  c #89A949",
"P  c #83B942",
"I  c #8AB64A",
"U  c #8BAC53",
"Y  c #8EAD59",
"T  c #8FB154",
"R  c #91B451",
"E  c #97B75C",
"W  c #91AC51",
"Q  c #BDA75C",
"!  c #95B262",
"~  c #9BB76A",
"^  c #A2BB75",
"/  c #A6BE7C",
"(  c #A8BA7A",
")  c #AFB26C",
"_  c #EC8D4B",
"`  c #F19457",
"'  c #F29145",
"]  c #F4A542",
"[  c #F5B058",
"{  c #EE8164",
"}  c #EF9277",
"|  c #F3A473",
" . c #F3B56A",
".. c #D88B53",
"X. c #97C45F",
"o. c #A1C140",
"O. c #B7CB58",
"+. c #9EC66D",
"@. c #A4C867",
"#. c #A1C46C",
"$. c #A5C969",
"%. c #ABCB6D",
"&. c #A6C764",
"*. c #ADCC70",
"=. c #A6C577",
"-. c #B2CE73",
";. c #B8CF77",
":. c #B8D17C",
">. c #B5CE6F",
",. c #D2CB42",
"<. c #CCCF4D",
"1. c #FEDC47",
"2. c #F5DB59",
"3. c #FEE05E",
"4. c #FDE67D",
"5. c #FDE475",
"6. c #FEE36F",
"7. c #5397B5",
"8. c #5499AC",
"9. c #7AABAC",
"0. c #7BA9BA",
"q. c #67A2A7",
"w. c #74AC91",
"e. c #3D8BC3",
"r. c #428EC5",
"t. c #4C93C5",
"y. c #4B93C7",
"u. c #5196C9",
"i. c #5C9DCB",
"p. c #5699C8",
"a. c #63A1CD",
"s. c #6CA6D0",
"d. c #6EA8D1",
"f. c #71A9D2",
"g. c #79AED5",
"h. c #72A5C2",
"j. c #83ADA8",
"k. c #8BB2B4",
"l. c #8BB2B8",
"z. c #90B4BB",
"x. c #94B6B2",
"c. c #87AFB1",
"v. c #A4BDBB",
"b. c #A0BBB5",
"n. c #F19C85",
"m. c #DEB89A",
"M. c #F3A787",
"N. c #F6B68A",
"B. c #F3AC98",
"V. c #EBAF91",
"C. c #F4B9A8",
"Z. c #ACC484",
"A. c #ADC785",
"S. c #B2C78E",
"D. c #B5C991",
"F. c #B9CD97",
"G. c #B9CC9C",
"H. c #B5CB91",
"J. c #A8C6A1",
"K. c #CDD786",
"L. c #D5D997",
"P. c #D2C193",
"I. c #F8C78C",
"U. c #FDEA95",
"Y. c #F3E492",
"T. c #C3D3A6",
"R. c #C8D5AE",
"E. c #C8D8AA",
"W. c #CCDAB3",
"Q. c #CFDCB9",
"!. c #D2DEBC",
"~. c #F9CFA5",
"^. c #F7C8B9",
"/. c #F4D6B4",
"(. c #CFE1AF",
"). c #D3E1BB",
"_. c #D6E3AE",
"`. c #F9EAA6",
"'. c #FEF2BC",
"]. c #FEF0B2",
"[. c #F8E8B4",
"{. c #87B7D9",
"}. c #93BDDD",
"|. c #99C2DF",
" X c #9FC5E1",
".X c #AECEE5",
"XX c #A5C8E2",
"oX c #BFD8EA",
"OX c #BAD5E9",
"+X c #C5D4D2",
"@X c #F6D6C4",
"#X c #F8DBD4",
"$X c #D6E1C3",
"%X c #DCE9C6",
"&X c #DCE6CC",
"*X c #DCE7C9",
"=X c #DFE8D1",
"-X c #FEF4C4",
";X c #E3EDD3",
":X c #E6EDDA",
">X c #E9EEDE",
",X c #F9E8D7",
"<X c #EBF1DC",
"1X c #F4EBCD",
"2X c #C4DCEC",
"3X c #CCE1EE",
"4X c #D0E3EF",
"5X c #DCE9F3",
"6X c #D5E6F1",
"7X c #FBEAE4",
"8X c #EDF2E5",
"9X c #EFF3E8",
"0X c #F2F6EC",
"qX c #FEFBEC",
"wX c #F8F7E8",
"eX c #E2EEF5",
"rX c #E7F0F7",
"tX c #ECF3F8",
"yX c #F7F9F4",
"uX c #FCFBF5",
"iX c #F5F9FB",
"pX c #9CD3DB",
"aX c #F8F5F5",
"sX c #EAEFE0",
/* pixels */
"pXpXpXpXpXpXpXpXpXpXpXpXpXpXpXpXpXpXpXpXpXpXpXpXpXpXpXpXpXpXpXpXpXpXpXpXpXpXpXpXpXpXpXpXpXpXpXpXpXpXpXpXpXpXpXpXpXpXpXpXpXpXpXpX",
"pXpXpXpXpXpXpXpXpXpXpXpXpXpXpXpXpXpXpXpXpXpXpXpXpXpXpXpXpXpXpXpXpXpXpXpXpXpXpXpXpXpXpXpXpXpXpXpXpXpXpXpXpXpXpXpXpXpXpXpXpXpXpXpX",
"pXpXpXpXpXpXpXpXpXpXpXpXpXpXpXpXpXpXpXpXpXpXpXpXpXpXpXpXpXpXpXpXpXpXpXpXpXpXpXpXpXpXpXpXpXpXpXpXpXpXpXpXpXpXpXpXpXpXpXpXpXpXpXpX",
"pXpXpXpXpXpXpXpXpXpXpXpXpXpXpXpXpXpXpXpXpXpXpXpXpXpXpXpXpXpXpXpXpXpXpXpXpXpXpXpXpXpXpXpXpXpXpXpXpXpXpXpXpXpXpXpXpXpXpXpXpXpXpXpX",
"pXpXpXpXpXpXpXpXpXpXpXpXpXpXpXpXpXpXpXpXpXpXpXpXpXpXpXpXpXpXpXpXpXpXpXpXpXpXpXpXpXpXpXpXpXpXpXpXpXpXpXpXpXpXpXpXpXpXpXpXpXpXpXpX",
"pXpXpXpXpXpXpXpXpXpXpXpXpXpXpXpXpXpXpXpXpXpXpXpXpXuXpXpXpXpXpXpXpXpXpXpXpXpXpXpXpXpXpXpXpXpXpXpXpXpXpXpXpXpXpXpXpXpXpXpXpXpXpXpX",
"pXpXpXpXpXpXpXpXpXpXpXpXpXpXpXpXpXpXpXpXpXpXuXR.^ H.uXpXpXuXpXpXpXpXpXpXpXpXpXpXpXpXpXpXpXpXpXpXpXpXpXpXpXpXpXpXpXpXpXpXpXpXpXpX",
"pXpXpXpXpXpXpXpXpXpXpXpXpXpXpXpXpXpXpXpXpXpX=XG 1 ^ pXpXpXpXpXpXpXpXpXpXpXpXpXpXpXpXpXpXpXpXpXpXpXpXpXpXpXpXpXpXpXpXpXpXpXpXpXpX",
"pXpXpXpXpXpXpXpXpXpXpXpXpXpXpXpXpXpXpXpXpXpX!.H : D.pX$X^ ~ W.pXpXpXpXpXpXpXpXpXpXpXpXpXpXpXpXpXpXpXpXpXpXpXpXpXpXpXpXpXpXpXpXpX",
"pXpXpXpXpXpXpXpXpXpXpXpXpXpXpXpXpXpXpXpXpXpX<XR = R.T.> * * > !.pXpXpXpXpXpXpXpXpXpXpXpXpXpXpXpXpXpXpXpXpXpXpXpXpXpXpXpXpXpXpXpX",
"pXpXpXpXpXpXpXpXpXpXpXpXpXpXpXpXpXpXpX:X!.&X0XA.: ^ : = : : = ! yXpXpXpXpXpXpXpXpXpXpXpXpXpXpXpXpXpXpXpXpXpXpXpXpXpXpXpXpXpXpXpX",
"pXpXpXpXpXpXpXpXpXpXpXpXpXpXpXpXpXpXW.G 1 G ! ^ : : 1 H H G H H &XpXpXpXpXpXpXpXpXpXpXpXpXpXpXpXpXpXpXpXpXpXpXpXpXpXpXpXpXpXpXpX",
"pXpXpXpXpXpXpXpXpXpXpXpXpXpXpXpXpX0X! G 1 1 9 K H H 1 = : , U / &XpXpXpXpXpXpXpXpXpXpXpXpXpXpXpXpXpXpXpXpXpXpXpXpXpXpXpXpXpXpXpX",
"pXpXpXpXpXpXpXpXpXpXpXpXpXpXpXpXpX;XI = - = = H E I U / Q.>X0XiXpXpXpXpXpXpXpXpXpXpXpXpXpXpXpXpXpXpXpXpXpXpXpXpXpXpXpXpXpXpXpXpX",
"pXpXpXpXpXpXpXpXpXpXpXpXpXpXpXpXpX%X> : U 4 G 1 = ; H T ~ &XpXpXpXpXpXpXpXpXpXpXpXpXpXpXpXpXpXpXpXpXpXpXpXpXpXpXpXpXpXpXpXpXpXpX",
"pXpXpXpXpXpXpXpXpXpXpXpXpXpXpXpXpX).U T.^ H > 4 : 5 = 1 1 G :XpXpXpXpXpXpXpXpXpXpXpXpXpXpXpXpXpXpXpXpXpXpXpXpXpXpXpXpXpXpXpXpXpX",
"pXpXpXpXpXpXpXpXpXpXpXpXpXpXpXpXpX<X9X&XH 1 4 / - Q 7 & H : T.pXpXpXpXpXpXpXpXpXpXpXpXpXpXpXpXpXpXpXpXpXpXpXpXpXpXpXpXpXpXpXpXpX",
"pXpXpXpXpXpXpXpXpXpXpXpXpXpXpXpXpXpXpXF.H = D.S.= P...> < 1 G.pXpXpXpXpXpXpXpXpXpXpXpXpXpXpXpXpXpXpXpXpXpXpXpXpXpXpXpXpXpXpXpXpX",
"pXpXpXpXpXpXpXpXpXpXpXpXpXpXpXpXpXpXpXA.1 U 9X/ < *X| F : H $XpXpXpXpXpXpXpXpXpXpXpXpXpXpXpXpXpXpXpXpXpXpXpXpXpXpXpXpXpXpXpXpXpX",
"pXpXpXpXpXpXpXpXpXpXpXpXpXpXpXpXpXpXpXF.1 W.pX^ 4 8XN.V.U ~ 0XpXpXpXpXpXpXpXpXpXpXpXpXpXpXpXpXpXpXpXpXpXpXpXpXpXpXpXpXpXpXpXpXpX",
"pXpXpXpXpXpXpXpXpXpXpXpXpXpXpXpXpXpXpX$XA.yXpXZ.U iX~.| T.E.pXpXpX;X).*XyXpXpXpXpXpXpXpXpXpXpXpXpXpXpXpXpXpXpXpXpXpXpXpXpXpXpXpX",
"pXpXpXpXpXpXpXpXpXpXpXpXpXpXpXpXpXpXpX0X<XpXpXT.~ pX,X` ,X0XpXpXpX:XT G ^ 0XpXpXpXpXpXpXpXpXpXpXpXpXpXpXpXpXpXpXpXpXpXpXpXpXpXpX",
"pXpXpXpXpXpXpXpXpXpXpXpXpXpXpXpXpXpXpXpXpXpXpXsXW.pX7X_ ^.pXpXpXpXuX/ 9 : F.pXpXpXpXpXpXpXpXpXpXpXpXpXpXpXpXpXpXpXpXpXpXpXpXpXpX",
"pXpXpXpXpXpXpXpXpXpXpXpXpXpXpXpXpXpXpXpXpXpXpXpXuXpXuX .M.pX0X0XpXpX$X1 9 Y yXpXpXpXpXpXpXpXpXpXpXpXpXpXpXpXpXpXpXpXpXpXpXpXpXpX",
"pXpXpXpXpXpXpXpXpXpXpXpXpXpXpXpXpXpXpXpXpXpXpXpXpXpXpXI._ ^ J J / &XuX! 4 J 9XpXpXpXpXpXpXpXpXpXpXpXpXpXpXpXpXpXpXpXpXpXpXpXpXpX",
"pXpXpXpXpXpXpXpXpXpXpXpXpXpXpXpXpXpXpXpXpXpXpXpXpXpXpX~.s 5 - : : G T.T.1 T 9XpXpX8X!.$XyXpXpXpXpXpXpXpXpXpXpXpXpXpXpXpXpXpXpXpX",
"pXpXpXpXpXpXpXpXpXpXpXpXpXpXpXpXpXpXpXpXpXpXpXpXpXpXyX) s 7 J 4 4 9 K S.T ~ yX>XA.G & : D.uXpXpXpXpXpXpXpXpXpXpXpXpXpXpXpXpXpXpX",
"pXpXpXpXpXpXpXpXpXpXpXpXpXpXpXpXpXpXpXpXpXpXpXpXpXpX).K h 6 & & * & - K E A.Q.E 4 H 1 - G 9XpXpXpXpXpXpXpXpXpXpXpXpXpXpXpXpXpXpX",
"pXpXpXpXpXpXpXpXpXpXpXpXpXpXpXpXpXpXpXpXpXpXpXpXpX0X^ ; j X 4 4 Y ! G > R #.K > : : > G 1 &XpXpXpXpXpXpXpXpXpXpXpXpXpXpXpXpXpXpX",
"pXpXpXpXpXpXpXpXpXpXpXpXpXpXpXpXpXpXpXpXpXpXpXpXpX;XE.W. .s /.0X0XD.K 9 G K U Y G > : : K ;XpXpXpXpXpXpXpXpXpXpXpXpXpXpXpXpXpXpX",
"pXpXpXpXpXpXpXpXpXpXpXpXpXpXpXpXpXpXpXpXpXpXpXpXpXpXpXpX~.g ^.pX*XL : 7 F 4 U R.9X:X$XT.F.>XpXpXpXpXpXpXpXpXpXpXpXpXpXpXpXpXpXpX",
"pXpXpXpXpXpXpXpXpXpXpXpXpXpXpXpXpXpXpXpXpXpXpXpXpXpXpXpX/.s V.iXT.H ) # m.4 9 L 8XpXpXpXpXpXpXpXpXpXpXpXpXpXpXpXpXpXpXpXpXpXpXpX",
"pXpXpXpXpXpXpXpXpXpXpXpXpXpXpXpXpXpXpXpXpXpXpXpXpXpXpXpX,Xf ` aXW.!.n.@ @XY 4 : $XpXpXpXpXpXpXpXpXpXpXpXpXpXpXpXpXpXpXpXpXpXpXpX",
"pXpXpXpXpXpXpXpXpXpXpXpXpXpXpXpXpXpXpXpXpXpXpXpXpXpXpXpXwX] ' 7XuX7X$ $ 7XZ.1 G :XpXpXpXpXpXpXpXpXpXpXpXpXpXpXpXpXpXpXpXpXpXpXpX",
"pXpXpXpXpXpXpXpXpXpXpXpXpXpXpXpXpXpXpXpXpXpXpXpXpXpXpXpXuX[ d /.pX^.  $ uXW.K G.pXpXpXpXpXpXpXpXpXpXpXpXpXpXpXpXpXpXpXpXpXpXpXpX",
"pXpXpXpXpXpXpXpXpXpXpXpXpXpXpXpXpXpXpXpXpXpXpXpXpXpXpXpXpX .X B.pXn.. { uX<XW.uXpXpXpXpXpXpXpXpXpXpXpXpXpXpXpXpXpXpXpXpXpXpXpXpX",
"pXpXpXpXpXpXpXpXpXpXpXpXpXpXpXpXpXpXpXpXpXpXpXpXpXpXpXpXpXN.d | aX$ . } uXpXpXpXpXpXpXpXpXpXpXpXpXpXpXpXpXpXpXpXpXpXpXpXpXpXpXpX",
"pXpXpXpXpXpXpXpXpXpXpXpXpXpXpXpXpXpXpXpXpXpXpXpXpXpXpXpXpX/.u ` #X# . n.pXpXpXpXpXpXpXpXpXpXpXpXpXpXpXpXpXpXpXpXpXpXpXpXpXpXpXpX",
"pXpXpXpXpXpXpXpXpXpXpXpXpXpXpXpXpXpXpXpXpXpXpXpXpXpXpXpXpX@X+ ' C.# . n.pXpXpXpXpXpXpXpXpXpXpXpXpXpXpXpXpXpXpXpXpXpXpXpXpXpXpXpX",
"pXpXpXpXpXpXpXpXpXpXpXpXpXpXpXpXpXpXpXpXpXpXpXpXpXpXpXpXpX,Xh d } o   B.pXpXpXpXpXpXpXpXpXpXpXpXpXpXpXpXpXpXpXpXpXpXpXpXpXpXpXpX",
"pXpXpXpXpXpXpXpXpXpXpXpXpXpXpXpXpXpXpXpXpXpXpXpXpXpXpXpXpXwX] f % @ @ B.pXpXpXpXpXpXpXpXpXpXpXpXpXpXpXpXpXpXpXpXpXpXpXpXpXpXpXpX",
"pXpXpXpXpXpXpXpXpXpXpXpXpXpXpXpXpXpXpXpXpXpXpXpXpXpXpXpXpXuX[ u o o   B.pXpXpXpXpXpXpXpXpXpXpXpXpXpXpXpXpXpXpXpXpXpXpXpXpXpXpXpX",
"pXpXpXpXpXpXpXpXpXpXpXpXpXpXpXpXpXpXpXpXpXpXpXpXpXpXpXpXpXpX .u O     ] -XpXpXpXpXpXpXpXpXpXpXpXpXpXpXpXpXpXpXpXpXpXpXpXpXpXpXpX",
"pXpXpXpXpXpXpXpXpXpXpXpXpXpXpXpXpXpXpXpXpXqXqXuXpXpXpXpXpX].k f +     d 1.qXpXpXpXpXpXpXpXpXpXpXpXpXpXpXpXpXpXpXpXpXpXpXpXpXpXpX",
"pXpXpXpXpXpXpXpXpXpXpXpXpXpXpXpXpXpXpXpX'.1.S 3.'.uXU.-XU.C i X O o   d n ].pXpXpXpXpXpXpXpXpXpXpXpXpXpXpXpXpXpXpXpXpXpXpXpXpXpX",
"pXpXpXpXpXpXpXpXpXpXpXpXpXpXpXpXpXpXpXqX1.x b b C 4.Z C n b i s +     d x 4.pXpXpXpXpXuXpXpXpXpXpXpXpXpXpXpXpXpXpXpXpXpXpXpXpXpX",
"pXpXpXpXpXpXpXpXpXpXpXpXpXpXpXpXpXpXpXqXS b b b b n n b b n N p p a F a z 2.yXpXpXuX`.U.wXpXpXpXpXpXpXpXpXpXpXpXpXpXpXpXpXpXpXpX",
"pXpXpXpXpXpXpXpXpXpXpXpXpXpXpXpXpXpXpXpX6.b b b b b m N l r o.w P P q q 9 0 ~ !.wX5.n x 5.pXpXpXpXpXpXpXpXpXpXpXpXpXpXpXpXpXpXpX",
"pXpXpXpXpXpXpXpXpXpXpXpXpXpXpXpXpXpXpXpX-XS x b c l r w P 4 o.w P P P P 3 & * : ,.n n b S uXpXpXpXpXpXpXpXpXpXpXpXpXpXpXpXpXpXpX",
"pXpXpXpXpXpXpXpXpXpXpXpXpXpXpXpXpXpXpX'.3.S v l r X.o.w P P w w P P P 2 ; ; y y v n D ,.<._.8XpXpXpXpXpXpXpXpXpXpXpXpXpXpXpXpXpX",
"pXpXpXpXpXpXpXpXpXpXpXpXpXpXpXpXpXpXpX'.C N r w P P w w P w P P P 4 < t c z v b D O.$.$.%.$.-.%XpXpXpXpXpXpXpXpXpXpXpXpXpXpXpXpX",
"pXpXpXpXpXpXpXpXpXpXpXpXpXpXpXpXpXpXpX8XO.P 4 X.P w w w P P P 3 < - - y N B ,.,.&.$.$.$.$.$.@.*.%XpXpXpXpXpXpXpXpXpXpXpXpXpXpXpX",
"pXpXpXpXpXpXpXpXpXpXpXpXpXpXpXpXpXpX;X+.P P P P P P P w w 2 : = & < R &.$.$.$.$.$.$.$.$.$.$.$.@.:.9XpXpXpXpXpXpXpXpXpXpXpXpXpXpX",
"pXpXpXpXpXpXpXpXpXpXpXpXpXpXpXpXpX<XX.3 w w w w P P 3 < = = & : I +.@.@.$.$.$.$.$.$.$.$.$.$.$.$.@.(.pXpXpXpXpXpXpXpXpXpXpXpXpXpX",
"pXpXpXpXpXpXpXpXpXpXpXpXuXeX2X X+X[.K.;.;.>.%.&.+.R H 9 9 , > R @.$.@.$.$.$.$.$.$.$.$.$.$.$.$.@.@.A.yXpXpXpXpXpXpXpXpXpXpXpXpXpX",
"pXpXpXpXpXpXpXpXpXpXpXoXd.y.e.e.c.z.z.z.z.z.z.l.9.l.c.c.j.j.#.$.$.$.%.$.$.$.$.$.$.$.$.$.$.$.$.@.$.%.%XpXpXpXpXpXpXpXpXpXpXpXpXpX",
"pXpXpXpXpXpXpXpXpXpXpX4X|.g.f.a.i.u.y.y.r.r.e.r.e.e.e.e.e.w.@.$.$.$.$.$.$.$.$.$.$.$.$.$.$.$.#.@.&.%.J.}.OXeXpXpXpXpXpXpXpXpXpXpX",
"pXpXpXpXpXpXpXpXpXpXpXpXpXpXpXtXtXeX5X5X5X4X3X3X2XoX.X{.9.@.@.&.$.%.$.@.$.$.@.@.*.*.$.+.$.+.+.=.Z.J.x.e.e.u.XXpXpXpXpXpXpXpXpXpX",
"pXpXpXpXpXpXpXpXpXpXpXpXpXpXpXpXpXpXpXpXpXpXpXiXoX{.s.i.R.K.H.;.:.*.-.>.>.>.:.K.Y./.L.S.q.8.7.7.p.a.s.g.{.XX6XpXpXpXpXpXpXpXpXpX",
"pXpXpXpXpXpXpXpXpXpXpXpXpXpXpXpXpXpXpXpXpXpXpXtX}.a.u.u.h.h.0.0.0.9.c.k.x.x.}.J.v.v.v.{.t.e.e.e.7.g.oXpXpXpXpXpXpXpXpXpXpXpXpXpX",
"pXpXpXpXpXpXpXpXpXpXpXpXpXpXpXpXpXpXpXpXpXpXpXpXuXiXrX5X2XOX.X X}.{.g.g.f.d.a.i.i.u.u.y.y.t.u.p.p.f..XpXpXpXpXpXpXpXpXpXpXpXpXpX",
"pXpXpXpXpXpXpXpXpXpXpXpXpXpXpXpXpXpXpXpXpXpXpXpXpXpXpXpXpXpXpXpXpXpXpXpXuXaXiXtXtXrXeX5X5X5XeXrXtXiXpXpXpXpXpXpXpXpXpXpXpXpXpXpX",
"pXpXpXpXpXpXpXpXpXpXpXpXpXpXpXpXpXpXpXpXpXpXpXpXpXpXpXpXpXpXpXpXpXpXpXpXpXpXpXpXpXpXpXpXpXpXpXpXpXpXpXpXpXpXpXpXpXpXpXpXpXpXpXpX",
"pXpXpXpXpXpXpXpXpXpXpXpXpXpXpXpXpXpXpXpXpXpXpXpXpXpXpXpXpXpXpXpXpXpXpXpXpXpXpXpXpXpXpXpXpXpXpXpXpXpXpXpXpXpXpXpXpXpXpXpXpXpXpXpX"
};
