/* XPM */
static char *wall[] = {
/* columns rows colors chars-per-pixel */
"64 64 251 2 ",
"   c #040302",
".  c #0C0A05",
"X  c #0D0C0A",
"o  c #0A0503",
"O  c #120E0B",
"+  c #120D05",
"@  c #14120D",
"#  c #19130C",
"$  c #151411",
"%  c #1A1612",
"&  c #1C1914",
"*  c #1B1C16",
"=  c #0E120C",
"-  c #231D15",
";  c #221E19",
":  c #251C0D",
">  c #25221C",
",  c #2A251C",
"<  c #292418",
"1  c #332B1E",
"2  c #34291B",
"3  c #2B2622",
"4  c #2E2A24",
"5  c #2E2C28",
"6  c #252622",
"7  c #332C23",
"8  c #392E23",
"9  c #342E29",
"0  c #363125",
"q  c #3A3225",
"w  c #35322B",
"e  c #3B342B",
"r  c #3D382D",
"t  c #3D3A34",
"y  c #383633",
"u  c #2A3525",
"i  c #162115",
"p  c #423A2C",
"a  c #45392C",
"s  c #443C33",
"d  c #463E36",
"f  c #40331F",
"g  c #4B4235",
"h  c #45423B",
"j  c #4B443B",
"k  c #4B4539",
"l  c #534A3C",
"z  c #554A3B",
"x  c #514936",
"c  c #383A41",
"v  c #4A4843",
"b  c #544D43",
"n  c #564E45",
"m  c #565145",
"M  c #5B5344",
"N  c #5B544B",
"B  c #57544B",
"V  c #5D5A53",
"C  c #5A5955",
"Z  c #645B4C",
"A  c #635949",
"S  c #645D53",
"D  c #665E56",
"F  c #6A614E",
"G  c #6B6354",
"H  c #64625A",
"J  c #6C655B",
"K  c #6D695D",
"L  c #686356",
"P  c #716554",
"I  c #736A5C",
"U  c #7A6E5C",
"Y  c #756958",
"T  c #7C725E",
"R  c #6D6C63",
"E  c #696A65",
"W  c #756D63",
"Q  c #766E66",
"!  c #767164",
"~  c #7B7363",
"^  c #75736C",
"/  c #7B756B",
"(  c #7D796B",
")  c #7D7C74",
"_  c #7A7875",
"`  c #6B7271",
"'  c #84735D",
"]  c #826D54",
"[  c #827564",
"{  c #837B6C",
"}  c #8B7D6C",
"|  c #867967",
" . c #847D72",
".. c #877C72",
"X. c #927F68",
"o. c #7F827E",
"O. c #8B816E",
"+. c #87806B",
"@. c #93836C",
"#. c #97876F",
"$. c #8C8374",
"%. c #85827B",
"&. c #8B857A",
"*. c #8C897C",
"=. c #868275",
"-. c #938574",
";. c #998B75",
":. c #918679",
">. c #948B7C",
",. c #9A8D7B",
"<. c #968773",
"1. c #9B917D",
"2. c #98907A",
"3. c #A18F79",
"4. c #A3937D",
"5. c #A9987F",
"6. c #777F80",
"7. c #8C8A83",
"8. c #888884",
"9. c #948D83",
"0. c #9B8D81",
"q. c #928D89",
"w. c #969084",
"e. c #9B9384",
"r. c #94928B",
"t. c #9C958B",
"y. c #9D988D",
"u. c #9E9984",
"i. c #969593",
"p. c #9A9692",
"a. c #9D9A93",
"s. c #9B9C99",
"d. c #8C918E",
"f. c #A39583",
"g. c #A39985",
"h. c #AB9B84",
"j. c #A2978A",
"k. c #A49B8C",
"l. c #AB9D8C",
"z. c #AA9584",
"x. c #B19E8A",
"c. c #A39D93",
"v. c #A99E92",
"b. c #A19E9A",
"n. c #A39490",
"m. c #B09F90",
"M. c #ADA18C",
"N. c #AAA08A",
"B. c #B2A38C",
"V. c #B8A68D",
"C. c #A5A194",
"Z. c #ACA394",
"A. c #A4A29B",
"S. c #ABA59B",
"D. c #AEAA9D",
"F. c #ABA897",
"G. c #B2A594",
"H. c #B5AA95",
"J. c #BBAB94",
"K. c #B2A699",
"L. c #B4AB9C",
"P. c #BAAD9C",
"I. c #B8A794",
"U. c #BBB19D",
"Y. c #BBB099",
"T. c #A5A5A2",
"R. c #AAA6A3",
"E. c #ACAAA3",
"W. c #ADACAA",
"Q. c #A6A8A6",
"!. c #B3ADA3",
"~. c #BAAFA2",
"^. c #B2AEAA",
"/. c #B0A6A2",
"(. c #B5B1A4",
"). c #BBB3A4",
"_. c #B4B2AB",
"`. c #BCB5AA",
"'. c #BEB9AB",
"]. c #B5B5B2",
"[. c #BDBAB3",
"{. c #BDBCBB",
"}. c #B9B8B5",
"|. c #ACB0B1",
" X c #9D9E9F",
".X c #C1AE99",
"XX c #C3B39C",
"oX c #C4B99F",
"OX c #C3B5A3",
"+X c #C5B9A5",
"@X c #C2B7A8",
"#X c #C3BBAC",
"$X c #CABDAC",
"%X c #CAB8A4",
"&X c #D0BFA7",
"*X c #C3BDB3",
"=X c #CABFB2",
"-X c #C2BEBA",
";X c #C9C0AC",
":X c #D5C5AB",
">X c #C5C1B5",
",X c #CBC3B3",
"<X c #C4C2BB",
"1X c #CAC5BB",
"2X c #CCC9BC",
"3X c #CEC9B4",
"4X c #D2C6B4",
"5X c #D4C9B5",
"6X c #D3CBBC",
"7X c #DBCDBB",
"8X c #DACAB5",
"9X c #DBD1BD",
"0X c #E1CFBA",
"qX c #E3D2BB",
"wX c #E6D6BC",
"eX c #B0BEC2",
"rX c #BDC3C5",
"tX c #C4C5C2",
"yX c #CBC7C2",
"uX c #CCCAC4",
"iX c #CACBCA",
"pX c #D3CDC2",
"aX c #D5CFC6",
"sX c #DCD2C3",
"dX c #D5D3CC",
"fX c #DBD5CB",
"gX c #DDD9CD",
"hX c #D6D1C5",
"jX c #DDDAD4",
"kX c #DAD8D6",
"lX c #C7CDD2",
"zX c #E3D6C4",
"xX c #E5D9C6",
"cX c #E4DBCB",
"vX c #ECDDCA",
"bX c #E6D8C6",
"nX c #E3DDD3",
"mX c #E6DDD6",
"MX c #F2DFC8",
"NX c #EDE1CC",
"BX c #E6E1D5",
"VX c #ECE2D3",
"CX c #E4E2DB",
"ZX c #EBE5DC",
"AX c #EFE9DC",
"SX c #F3E7D6",
"DX c #F3E4CC",
"FX c #EBE9E4",
"GX c #E9E7E4",
"HX c #F2ECE4",
"JX c #F6F3EE",
/* pixels */
"$ 6 = X $ X $ = $ $ X > = * = u i i u 6 y c y C V H R b v n 5 O { 9.T O.1.g.H.;X(.C.o.( 9X6Xf.e.y.F.D.E.^.d.s.Q.Q.Q.T.Q. Xi.}.R.",
"C C C v v v v y y y y y c v C E v C E H o.d._ Q E H V d e e 9 y ....O.+.+.O.+.D.'.w.F U.>XD.,.,.w.L.t.w.D.r.A.8.i.Q.s.^ i.dXyX*X",
"`  .6.p.s.` _ _ Q.R.p.R.E.{.T. XT.Q q.r.) E { 0.!.n./.`.t.p.t.r.r.I [ &.( } 2.C.E.F.=.2Xy.k.1.| [ $.=.Q k.r.%.K o.8.L { ,XcXfXmX",
"y H _ ^ v t n D E }.yXpX>X(.A.W.1XN R ! _ C./.$X>XS.L S s n S I { ~ W $.>.&.2.w.7.^ w.[.'.w.4.| [ >.j.$.j.G g K A.(.'.5XsX6XzXmX",
"4 v E B B C n C ~ ).Z.g.u.M.L.C.3Xw.*.'.-XW.t.+.I G ~ A n Z M Z I U { ( O.:.{ =.o.H H Q.jX3XXXB.x.h.;.z T a 8 $.VXsXY.;XxXhXsXfX",
"9 d D B d v j / n.~ $.,.+.;.2.1.>.(.>Xk.F.*.y.*.{ J W '.#Xj.Z x l Z Z U 9.*.&.D m K g m y.2.1.N.H.B.#.Z p : G 7X3X;X;X8X9XVX6X>X",
"w v E R ..q.9.~.).).1.| ' 5.B.2.2.&.#XS.w.=.=.y.{ N N '.wXwXqXZ g l A P / L A l g M H < s Y ~ +.>.u.P.F.+.[ :X:XoXXX5X;X,XpXK.`.",
"S.~.6XpXmXmX4X<.2.N.N.1.' 2.oX1.u.g.g.3Xt.+.I &./ l N :.8X&X&X;XK g z D n b k p r m K s 1 k Y G A 2.$.F T Y 4.V..X:X:X+X$XsXsXc.",
").~.} 1.&.T | ] #.@.4.g.Y -.N.u.2.( T ,X).I ~ ! W m n p #.wXXX3Xi.r 1 k l s e e g r / N < 8 0 q g x a g f f X..X.XoXJ.H.;X#X#X~ ",
"l.,.z a a g F Y <.1.} f.O.[ 1.1.{ L D  .OX} Y } ( S w.`.>XoXoXA.^ m 0 1 q , e a 7 7 h y < o < a 8 2 8 q : a ,.OXl.-.| -.L.2.e.m ",
"d 2 a a a 1 Z X.3.4.} e.=.r._.A.E.S.A.b.m w.P Y I K.nXfX[.Z.9.! R E B 1 < 8 < < , 9 X & b j # # < 2 < & + M U.I.K.>.>.w.k.k.~ r ",
"D Z.F.>.} 7 1 | ' O.&.D.'.rXrX|.i.i.d.%.B j Y F :.nX>XuXk.*.! K ! E H B 1 : < > , $ $ s O.$Xg.3 + # X + h +XH.4.$Xf.t.k.&.&.K 0 ",
"=X=XpX).;XL.Z U =.a.(.tXrXrXeX Xo.! *.8._ r m K 6XaXaX_.( I K L H E o.E v i 3 & O o 1 A l.sXL.l.A # + a >.B.h.I.f.F.L.e.A ( n s ",
"@X9.*XpXP.Z.H.=.E.dXCXeXrX|. Xd.a.! H *.A.b   *.fX*X/.:.`.2X6X(.s.6.d.o.R y > X . - x z :.pXL.f.h.8 q U 4.J.J.4.O.g.y.2.I J m K ",
"Z.D &.pX~.z.N.<XjXdXrXiX].s.i._ %.d._ H %._ 5 d.E.*.v.6XhXpXhX9X>Xd.` ` V w = . - g z D :.#X,X4.3.P F f.M.Y.B.} G F G ~ ~ S d A ",
"O.j Z !.).v.'.dX2X{.rXrXA.i.*.i.%.r.W.q.8.%.o. XA.C.#XpX>XF.1X).;Xs.C B l u * t e A Z W w.@X6XOX.Xh.,.1.u.| ( U Z z n z M M j n ",
"l.I B y.E.'.E.*.A.tX{.].w.r.w.C.Q.a.!._.a.V m ) A.t.l.H.C.P.'.F.L.6X{ q s 9 3 , p J J Q  .j.H.I.#.J.;.Y L G M A z M x m N N N P ",
",Xj.B *.<XdXr.R *.W.rXa.*.R %.y.E.7.q.a.%.N D E &.k.>.1.! w.'.L.L.'.'., O > % $ l J } v.[ p M [ @.J.2.r d j s k x l x N m l A F ",
"C.v.n %.uX[.[.A.R i.].i.! ! W W w.S.[.C.S b B G } e.2.| I L { ).F.(.;X .  X X * z A >.{ d p s z T | Z < 7 7 w 3 < 4 w h p M Z U ",
"(. .s s.A.r.E.o.o.|.A.R K =.W &.'.$X'.sXr.j { B.P.$.u.O.F F I Z.).).G.-Xd   o + [ #XsXP.F 8 e p p r 1 < q %     .   X o 9 Z Z } ",
"{ < u d.E.(.A.o.8.W.i./ I I n.L.L.;XL.).<X_.P.5.4.,.j.{ Y M P +.).P.>X).0.7 4 W sXSXcXcXcX .q q 0 < 7 g k 0         X % d I } <.",
"0 = B A.].<XQ.*.d.i.i.^ ~ D.L.v.2.Z.L.#X>XS.{ ;.h.4.| I Z L F F u.;X).'.OXI ~ 6X6XpXpX5XzXsX7.t : 2 } 3.h.V.;.=.&.*.7.W.S.S.L.P.",
"$ & >XF.(.{.A.d. Xr.%. .#X'.e.k.w.Z.L.).*X>.&.@.h.4.z A x Z F F ! #X'.#X$Xl.G.;X;X6XsX9X5X6X<XQ > I #.3.h.B.V.P.#XY.g.Z.F.l.;.h.",
"  H gXo._.W.D.d.r.r.E.!.N.g.>.0.-.>.).(.1Xk.>.} g.-.z N l M z F G 2.).;XM.{ G.;X3X,X;X;X3X5X9X*Xo.T ' X.,.#.@.5.M.V.#.B.B..XV.z.",
"@ ).#XA._.<XT.a.=.L.$X>.-.>.K.j.*.L.L.L.;X#X>.} j.-.j n M z M F m I e.;X,.Z $X+X2XCX>XU.+X5X4XpX@X} X.#.X.X.#.5.h.5.3.V.5.5..XB.",
"C hXY.Q.(.].q.w.g.u.-.,.-.0.0.,.e.U.L.L.3XP.! =.$.:.g g z z A z g M G e.+XK.$X)._.tXdX*XL.@XsX&X&Xl.[ X.#.' #.@.h.3.h.V.4.;.XXJ.",
"F.+XF.7.( t.D.k.G.e.,.,.>.e.j.e.k.l.F.,X+XO.D ~ +.{ s 8 s A x x z g g T $XOX#X1XiXdXuX>X$X,X6XsX7X4X).w.3.X.X.X.l.<.#.V.B.P.Y.V.",
";X#X(.{ I L.L.N.l.f.0.t.L.w.f.F.G.G.P.P.f.P P M g p 7 - q k k a a 2 z +X7X7XVXgXuXpX'.1X$X6XP.6XcX2X5X=Xn.,.#.;.<.@.} B.4.N.Y.J.",
"j.).'.) } h.B.h.f.f.P.v.~.0.k.).P.,X@X$.I z g s w % 3 # % 7 9 < q } 6X'.$X0XsXmX:X4.-.G.OX%XOX~.=X6X6X5XOXOX} [ | | U @.1.h.e.;.",
"g.F.Z.) ;.B.x.5.l.I.x.n.6X@XP.).).'.D l j s 8 q > X * h v ; # e v.,X*XL.4X0X8X+XXXM.-.,.j.K.&XL.K.$X3X:X0XbXK.M P Y A T | -.&.| ",
"l.1.y.w.L.J.B.H.L.L.OX6X=XF.v.Z.K. .l l w 4 , - X > K A.q.v % 7.#X,XOX#XpX=X$X2X>X$XU.j.*XK.'.#X).U.;X5X7X8X8XP g A A U T $.T G ",
">.{ y.k.#XL.Z.B.XXP.@X@XG.L.k.K.c.S d 7 3 ; + O H R.uX(. .D H ).Z.@X@X*X7X.X&XmXdX`.D.C.-XaXuXS.j.).H.'.,X4X%XN.p x z z ~ $.I z ",
"~ J  .( L.U.l.M.+XI.G.B.G.H.@Xv.! s 6 > i   B F.<XdX>XL.!.S ( U.Z.).'.L.,X$XnXuX#X>X`.>X).k.*X~.f.f.G.P.K.$X:X,XA q d d A n n z ",
"x A G P P.#XB.XX~.l.I.I.Z.l.9.I k < * . ; *.CXdX<XyX!.'.C.B ( `.~.).@X$X$XL.>X(.D.'.'.'.C.g.pXaXv.:.l.@XK.l.OX,X{ 1 a s a 8 d M ",
"x M M A ).5XP.Y.P.$X).Z.l.&.N 3 i u h o.uXjX[._.W.(.Z.t.p.Q $.L.).).-X6XL.g.e.C.j.w.,.=.Z.U.>XdX-X{ ,.f.l.l.m.m.~ 7 8 7 3 f a a ",
"1 s k j $X,X+XJ.~.#X@Xv.t.n % S T._.kXGX<XQ.(.[.E.g.'.n.S. .*.(./.`.=XK.j.).>X6X$XH.:.w.Z.).1XnXyX:.<.;.-.z.!.} P : ; 3 , % , a ",
"- + O ; ,X,XOXH.=X=Xv.{ y o Z R.!.-XT.s.i.A.]._.D.2.F.j.y./ K C.C.C._.D.P.>X`.2X;XL.).K.#XL.n.yXdX>.| #.' O.m.' ' n % % a 8.~.mX",
"4 d p A 3X).Y.J.~.Z.v 3 O C b.Q ) a.o.d.].Q.d.A.a.) C.!.L.C.S.L.g.).E.!.#X#X>X'.pXuX'.'.L.(.F.(.pX..V -.<.>.,.Y D [ 9 n fXmXkXmX",
"Q -.Y :.$X).P.l.[ n ; ; . J { [ $.=._ E H ` E.<X3X#XsXxXwXVXSXNX+X).).Z.`.'.`.#XpXuX`./.L.!.(.,XuX&.< < j I Z j D S ..aXGXaXfXmX",
"X...[ f.5X#XL.P 2 , - O < Q I D I / *.E.<XCXJXVXxXSXwXwX8XqX0X9XoXI.&X+XF.>X'.>X*XpXiX_.'.`.S.1XCX=.X & O X O C N W OXaXmXGXGXHX",
"....J P.4XL.[ e 8 ; , O t ! D E y.fXBXFXAXZXVXVXvXwXbXwX0X:X8XwXDXqX:XqXK.<X'.OX@XS.tXuX>X[.>X2XCX9.& & . X % d n n.mXsXdXGXJXJX",
"Q ..D Z.L.-.p 8 - y 5   5 =.E.mXJXFXCXCXnXZXcX9XVXDXDXNXDXNX+X:XDX8X:XqX,X}.~.P.=X}.kXtXjXjXdXjXmX^.; . $ 3 > - e ..-XfXmXGXGXGX",
"3 C n.{ F m w ; . %   6  XFXJXGXFXHXAXVXzXwXbXvXDXvXqXMXNXbXVXcX8XbX0XwXfXC.!.(.L.'.iXuXGXFXgXCXdX`.3 . 4 w ; % 9 D 8.^.lXkXlXlX",
"..*XOX..a q ; O $   > }.JXkXCXGXHXVXcXNX8X8XMXbXDXwXwXMXbXDXwX7X0XzXqXbXcXt.r._.L.l.`.iXkXCXfXdXdXS.t - 9 w ; % 3 s 8.^.W.|.|.|.",
"1Xt.e.$.d ; ; % % $ R.GXnXmXmXZXzX4XzXMX8XwX:XwXVXNXzXbXSX7X.X%X4X%X+X4X6X(.8.a.M.).'.yXCXiXuXdXaX~.B 6 r 7 % % , 4 H A.].}.|.W.",
"@Xt.:.I d e 4 % O / GXZXnXmXbXvX0X0XvXVXwXbXMXbXsXzXVXsXpXzX4X%XI.P.h.M.=X1XD %.e.L.!.[.GXdXgXnXR.K.N 7 9 , % > 4 6 j 7. X}.W.p.",
"v.9.=.D j d e D 6XmXmXmXvXzXzXMX0XvXVXcXVXJXNXcXzXpXnX1X%X8X7Xf.l.l.z.1.F.1XW D  .Z.I.*XdXdXdX_.P D p ; 3 ; . ; 9 , 3 E 8.R.].].",
"e.~ / J n v  .AXSXcXcXvXZXvX0X:XzXAXgXmXVXAXgX5X5X6XyX=X&XOX~.G..XP.@.f.f.`.R C a.k./._.].^.S.*.Q D q 4 9 O   O % ; ; B s.|.yXyX",
"$.I ( L H _ gXzX6XzXsXsXzXzXqXqXVXGXFXAXmXnXmX$XU.,XcX1X+X~.~.l.M.I.4.N.h.'._ n / b.R.`.!./.S.y.K.D ; > ; o . . X % & h 8.T.-X{.",
",.{ { Q H tXnXsX6X7XzXVXcXsXSXSXGXHXGXCXGXnXsXfX6XpX1Xj.L.L.$XP.G.g.h.V.H.e.C y N p.R.^.[.`.c.!./.Q @ %   - 4 ; O X O , H r.E.-X",
"-.{ { H =.CXgX9X8X7X7XbXcXzXcXfXGXGXCXdXgXfXyXyX_.*X!.y.@XS.*X~.G.H.L.P.H.w.h d B _ 8.-X*X/.&.>.9.^ &   X ; 1 e 4 - + @ B  .w.E.",
"T I ! S (.CXCX8X6X4X7XzXzXBXcXnXGXjX6XfX).yXyXyX[.R.`.S.@Xv.K.~.e.P.(.H.B.>.q v J /  .^.S.S.n.9...d 9 % ; - 8 a 9 e q - e R ( *.",
"~ I I K >XBXfX8X0XsXzXzXcXsXcXFXCX>X#X>X2X_.-X^.^.s.}.*X).R.v.L.2.1.L.K.P...% w n _ ..q.n.b.n.>. .j 6 4 s e 3 b C.y.J Z h B J J ",
"~ G F K >XgX6XsX=X8X0XzXjX#XgXCX1X<XkXyX[.].c.!.W.R.^.uXD.t.b.`.+.' =Xc.`./ O 3 v ^ Q R 0.b.r.:.J R % * d 3 p 7.C.(.w.( K g n Z ",
"Y L F V [.BXpXpX0X=XzX=X~.z.L.1X1XhXgXuX].<Xk.a.T.a.A._./.R.*X).>.O.L.).=XZ X ; d D Q D [ t.....G b X ; ; b v.`.k.w.w.:.e.{ s s ",
"I F x l {.jXaXfXsX4X=XS.z.m.0.k.<X-X}._.^.`.S.!.A.b.!.b.b.@X1X*X).G.L.t.!.n   ; 9 d D J J 9.8.S 7 - % * 9 b.0.t.S.L.Z.F.t.j.| N ",
"$.O.+.w.aXfXpXpXzX$X@Xt.n.n.S./.!.W.[.}.].b.n.D.S.R.*XA.b.^.*X*X-XN.(.).v.r   @ > 9 s D [ ..R s $ * % $ N 7.&.j.9.!.=Xm.!.l.,...",
"'.).(.L.1X1X*X6X6X8XaXaX`.^.iXnX`._.R.-X^.e.t.r./.`./.S.K.`.*XyX1XD.).1XK., @ @ ; 3 8 j D S Q 3 @ @ & @ Q t. . .0.j.=XOXOX$XI.I.",
"Y.H.C.`.;X'.@X1X=XXX4XmXkXGXiXb.a.E.n.T.b.q.p.a.!.v.c.R.`.!.'.~.>X*X'.!.w., & & ; ; 9 s s N N % * 6 4 d S q.*XK.v.K.P.OXP.$X%X@X",
"F.P.F.).'.L.,XpX@X=XaXaXiXiXs.n.!.q.7.b.^.b...C.v.e.@XT.!.!.L.~.`.`.'.!.*., > 6 6 $ ; e v n 3 O ; ; e s s S r.aXaX`.S.$X=X.X$X%X",
").Z.F.L.`.`.2X2X[.pXyXtXW.b.q.i.T.p.9.A.].b.9.R.S.e.'.A.S.).v.~.[.#X/.(.w.7 w 3 ; 3 O ; 5 > % & > 9 e 7 s n Z / }.JXmX*X%X$X$X.X",
"A.N.>.C.S.2X2X}.2X#XiXrXR.i.q.a.S.a.c.p.8.c./.D.C.j.C.a.D.!.).K.*X*X(.*X&.w t 5 5 y ; @ @ & ; ; 5 9 e 1 s n D D J p.rX~.n.zX7XzX",
"c.y.I g.).>XyXuX'.#XaX}.n.b. .r.b.c.!.b.R.W.p.S.v.e._.[.D.`.K.S.`.!.D.`.w., 5 y y t 9 $ > > 6 6 5 , 3 q e j D D N C 8.p.n.OX=XaX",
"A.E.L.P.(.}.*X1X`.,X1Xq.^.a.8.s.T.W.}.a.W.S.Z.>.:.k.*XiX[.1X0.:.*X/.v.F.7.> 5 t d d v > 6 5 5 w y w 3 q e d A S W Q 8.n.@XI...S."
};
