/* XPM */
static char *wall[] = {
/* columns rows colors chars-per-pixel */
"32 32 254 2 ",
"   c #ED6D33",
".  c #ED6B34",
"X  c #EC693F",
"o  c #EE7332",
"O  c #EF7A38",
"+  c #EB6B4A",
"@  c #ED795A",
"#  c #ED7B5C",
"$  c #72982F",
"%  c #749B31",
"&  c #779D34",
"*  c #769C35",
"=  c #7A9830",
"-  c #789D38",
";  c #799E38",
":  c #7A9F38",
">  c #78A030",
",  c #78A435",
"<  c #7BA239",
"1  c #7CA13B",
"2  c #7AA63A",
"3  c #7CA13D",
"4  c #7EA33C",
"5  c #7CA03E",
"6  c #7DA23E",
"7  c #7FB23C",
"8  c #98913A",
"9  c #8BA52D",
"0  c #91A62A",
"q  c #80A53F",
"w  c #82B83F",
"e  c #8ABA3F",
"r  c #90BC3E",
"t  c #A8A53A",
"y  c #B1B736",
"u  c #B5B93A",
"i  c #CD8930",
"p  c #F39B23",
"a  c #F18B34",
"s  c #E8963A",
"d  c #F49F37",
"f  c #F4A539",
"g  c #B4C438",
"h  c #EBCD1A",
"j  c #FFD213",
"k  c #FFD215",
"l  c #F2D01B",
"z  c #D4CA25",
"x  c #DBC926",
"c  c #C4C938",
"v  c #E6CE2C",
"b  c #EDD028",
"n  c #F0D023",
"m  c #FFD72E",
"M  c #FFD833",
"N  c #FED939",
"B  c #AC9048",
"V  c #80A343",
"C  c #80A540",
"Z  c #81A541",
"A  c #84A746",
"S  c #84A747",
"D  c #84A947",
"F  c #83AD45",
"G  c #85A64B",
"H  c #87A94C",
"J  c #88AA4D",
"K  c #88A94E",
"L  c #82B342",
"P  c #81B640",
"I  c #8CB747",
"U  c #82B841",
"Y  c #83B941",
"T  c #83B942",
"R  c #8AB04C",
"E  c #8CAD54",
"W  c #8CAE54",
"Q  c #8DAF55",
"!  c #8FAF58",
"~  c #8FAE59",
"^  c #9CA653",
"/  c #8FB353",
"(  c #94B857",
")  c #94B35F",
"_  c #A1A341",
"`  c #A3A55E",
"'  c #97B462",
"]  c #99B468",
"[  c #9CBA68",
"{  c #9DB96D",
"}  c #9EB96E",
"|  c #9EB96F",
" . c #9FBA6E",
".. c #81A873",
"X. c #85AB79",
"o. c #A3BC77",
"O. c #C09847",
"+. c #F29545",
"@. c #EE8063",
"#. c #EE8769",
"$. c #EF866B",
"%. c #F2A268",
"&. c #F2AD6D",
"*. c #E2A87A",
"=. c #BACB55",
"-. c #A0C361",
";. c #A5C867",
":. c #A2C66E",
">. c #A3C86A",
",. c #A5C968",
"<. c #A5C969",
"1. c #A6C96A",
"2. c #A7CA6A",
"3. c #A9CB6D",
"4. c #A6CB77",
"5. c #A8C971",
"6. c #ABC37F",
"7. c #A9C77E",
"8. c #FEDF56",
"9. c #FDDE59",
"0. c #FEE163",
"q. c #FEE36B",
"w. c #74AB9A",
"e. c #4891BC",
"r. c #5196B7",
"t. c #5B9CCB",
"y. c #61A0C8",
"u. c #6CA7D1",
"i. c #77AED5",
"p. c #7FB3D7",
"a. c #8DB689",
"s. c #97BC95",
"d. c #9BBE91",
"f. c #9EBF92",
"g. c #99BB9F",
"h. c #9EBEAE",
"j. c #83B1BD",
"k. c #F2AD9B",
"l. c #F6BC92",
"z. c #AAC181",
"x. c #ABC382",
"c. c #ACC280",
"v. c #AFC789",
"b. c #B0C787",
"n. c #B9C489",
"m. c #B1C989",
"M. c #B5CB8B",
"N. c #B3C88E",
"B. c #B8D384",
"V. c #A5C291",
"C. c #A3C197",
"Z. c #A9C49D",
"A. c #ACC99F",
"S. c #B6CB92",
"D. c #ADCAA0",
"F. c #AECCA5",
"G. c #ADC5AE",
"H. c #B0CBA0",
"J. c #B4D0AB",
"K. c #B5D0AD",
"L. c #A8CFB5",
"P. c #AACFB8",
"I. c #B5C8BD",
"U. c #ADD1BE",
"Y. c #C1CF9A",
"T. c #C7DB9F",
"R. c #F6C689",
"E. c #F6C19D",
"W. c #E7E189",
"Q. c #FDEA94",
"!. c #CBCCA1",
"~. c #CCCDAF",
"^. c #C3D4A4",
"/. c #C6D5A9",
"(. c #C6D6AE",
"). c #C8D7AC",
"_. c #C9D7AE",
"`. c #C8C3BD",
"'. c #C9C5BE",
"]. c #CACFBA",
"[. c #C9CDBD",
"{. c #C0D8BD",
"}. c #D2DFBA",
"|. c #E0CDA5",
" X c #F6CAA4",
".X c #E6E8B5",
"XX c #86B7D9",
"oX c #8BB9DB",
"OX c #8CBADB",
"+X c #8FBBDB",
"@X c #94BEDD",
"#X c #8BC1D8",
"$X c #90C0DB",
"%X c #93C6DB",
"&X c #95C7DB",
"*X c #97C0DE",
"=X c #97C4DD",
"-X c #9CC3DF",
";X c #99C9DC",
":X c #9CD3DB",
">X c #9ED0DD",
",X c #B4D7C8",
"<X c #B7D8CB",
"1X c #B8D9CD",
"2X c #BADCCE",
"3X c #A1CEDF",
"4X c #ACD9D6",
"5X c #ACD8D7",
"6X c #A1D2DE",
"7X c #A5D4DF",
"8X c #AFDADB",
"9X c #B5DAD1",
"0X c #B5DBD3",
"qX c #BDDDD5",
"wX c #B0DBDB",
"eX c #B0DADC",
"rX c #B0DBDE",
"tX c #B5DDDF",
"yX c #9FC5E0",
"uX c #A0C6E1",
"iX c #A6C9E1",
"pX c #A8CBE3",
"aX c #AACCE3",
"sX c #A9D7E0",
"dX c #AED6E3",
"fX c #AAD8E1",
"gX c #B5D0E3",
"hX c #B3DDE1",
"jX c #B4DDE2",
"kX c #BFE0E8",
"lX c #C8DECA",
"zX c #CADFCC",
"xX c #DDD1C8",
"cX c #CAD9D4",
"vX c #C0DFD8",
"bX c #C0DFD9",
"nX c #CBE0C5",
"mX c #CBE1CC",
"MX c #DEE2C5",
"NX c #C9E3D6",
"BX c #C0E0D9",
"VX c #C3E2DC",
"CX c #C3E2DD",
"ZX c #C3E1DE",
"AX c #E3EACB",
"SX c #E5E7D2",
"DX c #ECF0DE",
"FX c #C6E3E2",
"GX c #C7E5E4",
"HX c #CBE6E5",
"JX c #CDE7E6",
"KX c #C6E5EA",
"LX c #CAE7EA",
"PX c #D8E9E1",
/* pixels */
":X:X:X:X:X:X:X:X:X:X:X:X:X:X:X:X:X:X:X:X:X:X:X:X:X:X:X:X:X:X:X:X",
":X:X:X:X:X:X:X:X:X:X:X:X:X:X:X:X:X:X:X:X:X:X:X:X:X:X:X:X:X:X:X:X",
":X:X:X:X:X:X:X:X:X:X:X:XhX:X:X:X:X:X:X:X:X:X:X:X:X:X:X:X:X:X:X:X",
":X:X:X:X:X:X:X:X:X:X:X_.{ jXjX:X:X:X:X:X:X:X:X:X:X:X:X:X:X:X:X:X",
":X:X:X:X:X:X:X:X:X:X:XM.] A.G A.:X:X:X:X:X:X:X:X:X:X:X:X:X:X:X:X",
":X:X:X:X:X:X:X:X:XJ.x.S.V - 1 A CX:X:X:X:X:X:X:X:X:X:X:X:X:X:X:X",
":X:X:X:X:X:X:X:XCXD & V R H z.(.5X:X:X:X:X:X:X:X:X:X:X:X:X:X:X:X",
":X:X:X:X:X:X:X:X2X~ W 4 = C { 5X:X:X:X:X:X:X:X:X:X:X:X:X:X:X:X:X",
":X:X:X:X:X:X:X:XwXlX4 o.^ 8 1 ,X:X:X:X:X:X:X:X:X:X:X:X:X:X:X:X:X",
":X:X:X:X:X:X:X:X:XL.) K.m.*.H BX:X:X:X:X:X:X:X:X:X:X:X:X:X:X:X:X",
":X:X:X:X:X:X:X:X:XbXmXP.F.l.MX:XBXb.mX:X:X:X:X:X:X:X:X:X:X:X:X:X",
":X:X:X:X:X:X:X:X:X:X:XeXqX X`.GXjX{ ! hX:X:X:X:X:X:X:X:X:X:X:X:X",
":X:X:X:X:X:X:X:X:X:X:X:X:X].O.4 | /.G FXeX1XhX:X:X:X:X:X:X:X:X:X",
":X:X:X:X:X:X:X:X:X:X:X:X:XY.i - & Q [ }.W % ).:X:X:X:X:X:X:X:X:X",
":X:X:X:X:X:X:X:X:X:X:X:XCXc.s n.N.C / H - : m.:X:X:X:X:X:X:X:X:X",
":X:X:X:X:X:X:X:X:X:X:X:X:X:X&.xX6.B ` ' PX,X<X:X:X:X:X:X:X:X:X:X",
":X:X:X:X:X:X:X:X:X:X:X:X:X:XR.l.SX# !.4 qX:X:X:X:X:X:X:X:X:X:X:X",
":X:X:X:X:X:X:X:X:X:X:X:X:X>X|.%.`.+ DX^.:X:X:X:X:X:X:X:X:X:X:X:X",
":X:X:X:X:X:X:X:X:X:X:X:X:X:X[.+.k.# hX:X:X:X:X:X:X:X:X:X:X:X:X:X",
":X:X:X:X:X:X:X:X:X:X:X:X:X:XcXa $.# :X:X:X:X:X:X:X:X:X:X:X:X:X:X",
":X:X:X:X:X:X:X:X:X:X:X:X:X:XHXf + #.:X:X:X:X:X:X:X:X:X:X:X:X:X:X",
":X:X:X:X:X:X:X:X:X:XjXJX:X:X0Xf . O .X:X:X:X:X:X:X:X:X:X:X:X:X:X",
":X:X:X:X:X:X:X:X:XtX8.m Q.q.N p   o 9.7X:XtX:X:X:X:X:X:X:X:X:X:X",
":X:X:X:X:X:X:X:X:XjXM k k l z y t t u U.AX8.nX:X:X:X:X:X:X:X:X:X",
":X:X:X:X:X:X:X:X:X0X0.h g r L T T P > 0 n b W.rX:X:X:X:X:X:X:X:X",
":X:X:X:X:X:X:X:X:XNXc I Y w Y Y 2 9 x v =.<.<.B.5X:X:X:X:X:X:X:X",
":X:X:X:X:X:X:X:XeX4.Y Y Y 7 , $ F -.<.<.<.<.<.<.T.:X:X:X:X:X:X:X",
":X:X:X:X:X6X3Xp.I.Z.C.d.a.X...( <.<.<.<.<.<.<.;.3.CX:X:X:X:X:X:X",
":X:X:X:X:X7X&X=XuX@XOXXXXXu.w.;.3.<.<.<.3.>.>.:.7.j.OX>X:X:X:X:X",
":X:X:X:X:X:X:X:X:X:X:XLXOXt.h.g.s.f.V.A.~.G.r.e.y.$X;XfX:X:X:X:X",
":X:X:X:X:X:X:X:X:X:X:X:XLXjXdX3X&X#XgXaXuX*X@X-XaX6X:X:X:X:X:X:X",
":X:X:X:X:X:X:X:X:X:X:X:X:X6X:X:X:X:X:X:X:X:X:X:X:X:X:X:X:X:X:X:X"
};
