/* XPM */
static char *water[] = {
/* columns rows colors chars-per-pixel */
"32 32 92 1 ",
"  c #015585",
". c #025887",
"X c #035789",
"o c #035B8C",
"O c #095F8E",
"+ c #025E91",
"@ c #036295",
"# c #096495",
"$ c #066897",
"% c #04659A",
"& c #096799",
"* c #056A9D",
"= c #0A6B9C",
"- c #106291",
"; c #136C9B",
": c #1A6C9D",
"> c #0C709F",
", c #066CA1",
"< c #0A6EA2",
"1 c #106FA1",
"2 c #0671A5",
"3 c #0A72A5",
"4 c #0674A9",
"5 c #0C75AA",
"6 c #0579A8",
"7 c #0C7AAD",
"8 c #1274A4",
"9 c #1C7BA7",
"0 c #1376A9",
"q c #137BAD",
"w c #197CAD",
"e c #0C7AB1",
"r c #157DB1",
"t c #197FB0",
"y c #2274A1",
"u c #2379A4",
"i c #227EAD",
"p c #247FB0",
"a c #1680AC",
"s c #1B81AF",
"d c #0F81B4",
"f c #1481B4",
"g c #1B83B4",
"h c #1E89B7",
"j c #1584B8",
"k c #1B85B9",
"l c #1688BB",
"z c #1D8ABB",
"x c #2580AD",
"c c #2384B4",
"v c #2882B3",
"b c #2588B6",
"n c #2C89B7",
"m c #2286BA",
"M c #248ABC",
"N c #2A8DBC",
"B c #328DBC",
"V c #2690BF",
"C c #2B91BF",
"Z c #3493BE",
"A c #3890BF",
"S c #1F8BC0",
"D c #248BC0",
"F c #2B8EC1",
"G c #318FC0",
"H c #2592C0",
"J c #2C92C3",
"K c #2F94C9",
"L c #3393C3",
"P c #3B95C3",
"I c #3698C7",
"U c #3B99C5",
"Y c #3596C9",
"T c #3C96C9",
"R c #3699CB",
"E c #3C9BCA",
"W c #4097C7",
"Q c #439BC6",
"! c #499CC7",
"~ c #429DCB",
"^ c #4A9ECC",
"/ c #509CC7",
"( c #429ED0",
") c #44A0CC",
"_ c #4CA1CD",
"` c #53A5CE",
"' c #46A4D2",
"] c #4CA3D1",
"[ c #52A4D2",
"{ c #54A8D1",
"} c #5BABD6",
"| c #52A8DB",
/* pixels */
"W![`^ELWC^]E^{)]!['^ETLNYKFR|(KE",
"{]__UW_]EJI~JNIE''TEEEIR(TEMkkSF",
"PWQ{PnPbBLDfhkkJLLTLEI^~TLFEKKmG",
"!PAU^E_)LFTY~PMbMkDkFkkmMkgFmkjr",
"^Z!_PPLcwNVabJJNFNE)LLNFrSFKGGFT",
"`!PQEbQ}[]~__IE~RgerffjmDSerDmFF",
"80cb!``[__)U)JkgkYYzjDMMDTFFDDre",
"ZZ_{`)bNbhh7hIL~ELFJDrq0<rrDttDD",
"_Q^UCsgMgmNNJNINrzkHSeee4eqktrpD",
"/xsnNskrqqgbMk24jgf7SRFDkDFMKKFq",
"LJbb0g52rNMf2*eer7rYRE^PTGETt05r",
"nBEZCCJINNLHCEJL(~(PPBmq343tDr<5",
"Bv>==8ssc00qgcpvp777,++,,4555rDr",
"x8<2qk53*5*,<<,*+@+,,,4e00e<,%%5",
"bwq75*%=*%$$*%,2eje*,,,,%+%,<55,",
"3MJk287*237kj7227efJmkSSre5e0e5,",
"LfqzVMbCHMzw3gfDjf7%%,,fgJMeMFMg",
"6dJfh)IbCCmNkgkt75rjj7e*aqkr4&@0",
"jg8d9sCvxci1>g,*0w*<q7rw*<@+++@@",
"haqbg8#@+;2ri;%*+o@@@@++@oo++,,,",
";:&-Oo%%%#@+oo++++oo++++++++%+,+",
".o$$$$$+@ooo+@o+@+@ooooo+%%%+,%+",
"O+@@=3@@@+@@ooo+o+oo@@%@%%%,,%,%",
"+$@@&=5$@@*oo+++++%44,24,4<%%%++",
">$@$>==>@@@o@@@*%,,+++%+%++++,,%",
"@=assq@+*$*6627*224,,+,,+++%%+,4",
"qgqa1*$q2q6=*2*3<,5<<<++%%%%,<<+",
"3>>8=2ashMnsfafdre<<e22<,,,+%<,,",
".o#.@q9yu;;;;@&=<=5<+55<<<%<<+#+",
"=8#$o.O-OO..oo+#@%+@&11<++&OXX++",
";$=#>$ooO o.oo..XXXooo&+1&X X XX",
" o O...OO #o... ...XXXOO+XXXX  X"
};
