/* XPM */
static char *water[] = {
/* columns rows colors chars-per-pixel */
"64 64 168 2 ",
"   c #004F7F",
".  c #014F82",
"X  c #015484",
"o  c #015986",
"O  c #025689",
"+  c #015B8D",
"@  c #095E8D",
"#  c #015E92",
"$  c #0B5F92",
"%  c #045F98",
"&  c #05618E",
"*  c #09618E",
"=  c #026295",
"-  c #0A6393",
";  c #076996",
":  c #0D6A95",
">  c #03659A",
",  c #09669A",
"<  c #046A9D",
"1  c #0A6B9C",
"2  c #136696",
"3  c #146C9C",
"4  c #1C6D9C",
"5  c #04719E",
"6  c #0A719F",
"7  c #10709D",
"8  c #0265A0",
"9  c #046DA2",
"0  c #0A6DA2",
"q  c #106EA2",
"w  c #0572A4",
"e  c #0B73A5",
"r  c #0579A7",
"t  c #0C79A5",
"y  c #0575AA",
"u  c #0B75AA",
"i  c #067AAC",
"p  c #0C7AAC",
"a  c #1274A5",
"s  c #1975A4",
"d  c #1279A6",
"f  c #1B7AA7",
"g  c #1276AA",
"h  c #1876AA",
"j  c #137BAC",
"k  c #1B7CAC",
"l  c #0E76B1",
"z  c #077AB0",
"x  c #0D7CB2",
"c  c #147DB2",
"v  c #1A7EB2",
"b  c #187FB9",
"n  c #2171A1",
"m  c #2876A0",
"M  c #237DA7",
"N  c #2B78A6",
"B  c #217DAB",
"V  c #2A7BAE",
"C  c #227FB4",
"Z  c #2E7FB2",
"A  c #0C81AD",
"S  c #1481AE",
"D  c #1A81AE",
"F  c #1A8AAB",
"G  c #0D82B4",
"H  c #0E84B9",
"J  c #1482B4",
"K  c #1B83B4",
"L  c #1389B6",
"P  c #1C88B6",
"I  c #1483B9",
"U  c #1C85BA",
"Y  c #1689BB",
"T  c #1D8ABB",
"R  c #1E91BC",
"E  c #2382AD",
"W  c #2284B4",
"Q  c #2C85B3",
"!  c #248AB5",
"~  c #298AB5",
"^  c #2286BA",
"/  c #2887BA",
"(  c #248BBC",
")  c #2B8CBC",
"_  c #3186B4",
"`  c #3787BB",
"'  c #328EBD",
"]  c #3C8DBD",
"[  c #2591BD",
"{  c #2C92BD",
"}  c #3392BD",
"|  c #3A92BD",
" . c #3D98BD",
".. c #4396BF",
"X. c #4398BF",
"o. c #499EBF",
"O. c #1788C0",
"+. c #1E8DC1",
"@. c #1E92C6",
"#. c #248CC1",
"$. c #2B8DC2",
"%. c #338EC1",
"&. c #3A8EC6",
"*. c #2592C3",
"=. c #2C93C3",
"-. c #2F98C6",
";. c #2497C8",
":. c #2C95C9",
">. c #2D9ACB",
",. c #3494C4",
"<. c #3B94C3",
"1. c #3399C6",
"2. c #3C9AC5",
"3. c #3495CA",
"4. c #3B95C9",
"5. c #349ACB",
"6. c #3C9BCB",
"7. c #2D9DD2",
"8. c #369CD1",
"9. c #3D9DD1",
"0. c #37A1CD",
"q. c #3CA0CE",
"w. c #3DA1D3",
"e. c #4295C3",
"r. c #439AC6",
"t. c #4C9CC5",
"y. c #4295C9",
"u. c #4B97C8",
"i. c #439DCB",
"p. c #4B9DCC",
"a. c #519DC6",
"s. c #509DCD",
"d. c #5899CB",
"f. c #429FD2",
"g. c #489ED1",
"h. c #529FD3",
"j. c #43A0C6",
"k. c #44A2CD",
"l. c #4BA2CD",
"z. c #4EA9CD",
"x. c #51A3CD",
"c. c #5AABCD",
"v. c #44A3D2",
"b. c #4BA5D3",
"n. c #4CA9D5",
"m. c #46A1D9",
"M. c #4CA6D8",
"N. c #4DAADA",
"B. c #52A4D4",
"V. c #58A6D4",
"C. c #54AAD4",
"Z. c #5BABD5",
"A. c #52A5D9",
"S. c #5CA6D8",
"D. c #54ABDA",
"F. c #5AACDA",
"G. c #5FB0D4",
"H. c #56B2DD",
"J. c #5DB1DB",
"K. c #62AAD4",
"L. c #61AFDF",
"P. c #68AFDE",
"I. c #6EB8DF",
"U. c #4CAEE1",
"Y. c #5CB5E6",
"T. c #67AFE4",
"R. c #63B4E1",
"E. c #6CB1E6",
/* pixels */
") g.A.r.j.x.Z.K.x.x.B.b.4.i.g.y.1.v.B.u.P.x.g.l.u.V.Z.r.} r.b.B.p.k.F.V.g.b.r.g.B.b.b.f.6.f.3.) =.:.$.b x b U ) b.S.z.6.*.$.,.3.",
"r.u.e.r.C.F.x.e.4.f.$.( { { 4.' f Q ,.D.l.,.~ ,.r.C.D.D.n.b.b.p.2.2.p.B.N.b.A.<.) =.=.( ^ ( K ) 3.f.f.3.f.f.N.U.m.Y.M.$.$.9.f.b.",
"z.B.x.l.x.e.p.b.6.C W ) r.r.j.n.N.v.5.! 1.6.M.M.q.,.1.j.n.k.2.v.v.k.v.g.g.b.r.6.4.3.! =.1.1.8.6.4.,.&.4.p.w.9.#.l ^ v 0 u v :.( ",
"z.F.Z.l.z.b.D.u.X.C.F.D.V.C.V.b.6.=.[ ( ,.<.6.$.T U c k ! ) 1.6.v.M.v.1.$.$.9.4.i.v.D.n.6.,.=.9.N.M.g.9.0.:.t b #.J $.:.7.;.#.,.",
"W ' ' ,.{ r.p.e.r.B.| ' $.( K d c ^ [ $.=.U y x p L p x y i x J d W ) W $.,.( =.6.5.{ ! %.4.y.1.<.,.2.#.b 3.9.9.$.=.4.4.%.y.4.g.",
"e.u.V.s.u.Z.R.F.r.a a ' p.r.,.} p.r.p.2.1.! G *.[ *.[ =.1.5.v.N.b.b.9.,.B.<.e.b.i.<.v.D.D.b.B.j.6.i.r.) %.3.4.i.2.3.$.b l g b ^ ",
"c.Z.s.e.X.| ~ 2.p.k.v.D.r.Z.C.v.B.g.' ,.1.3.=.9.S.T.E.D.5.5.( } Q C l #.8.#.^ ( $.3.$./ v W ^ ) ^ / ,.^ =.( =.1.=.:.#.b l l O.U ",
"] ' ) { { } j.z.b.6.<.' 4.l.i.1.( u c :.y.y.&.&.} W f a t d ! ^ =.$.$.b U I c U / U c K U U U U #.#.U u 9 d [ J d j K b #.#.c u ",
"C.r.1.=.e.l.Z.x.| 2.l.4.1.~ D d w w j P A i 5 5 5 t L [ 1.9.4.5.5.U K d W 4.v.k.r.b.k.n.} 2.k.w.+.U b U C $.$.3.3.&.g.3.9.w.3.3.",
"X.l.| _ u.s.u.<.<.| e.~ ( q.2./ ~ ) <.r.b.6.) $.,.6.v.=.+.b P K ^ =.4.v.b.b.k.1.( / C ^ U k j K U c #.3.:.$.:.#.^ $.' K j C 3.4.",
"c.K.K.J.L.J.B.b.b.<.k f E <.Z.F.D.J.V.e.=.=.{ v.D.v.,.K ! { 1.2.v.n.-.[ j x p x c c x 9 w x b v #.$.:.;.c l x I #.:.$.5.4.N.N.9.",
"x.j. .~ 7 E _ <.<.1.,.1.z.Z.K.C.e.u.C.B.V.F.L.x.o.l.n.k.H.D.B.l.q.J w y i c K v b P Y *.T ;.>.#.$.^ u e p l c $.$.c b W ^ d a e ",
"s f < e t f ~ q.n.D.B.r.b.V.p.] ..C.C.l.l.r.-.F E q.{ L x w 9 e 5 j U #.8.3.=.*.Y b ^ U p r u y w j { { 3.w.w.5.^ #.$.#.P c c I ",
"t e j v =.} ! f ' l.u.V.o.K.E.G.D.r.p.v.j.l.p.S.R.k.i.6.=.) $.,.:.5.8.m.f.#.L G J T :.3.3.f.g.8.5.v.b.9.v g d U $.#.+.U u l b 9 ",
"^ U k j.l.l.p.Z.Z.x.V.G.z.r.l. .1.U K K J T d h k D ,.b.2.6.D.2.1./ Q D p $.9.9.>.#.I K #./ C / g 1 v / p v #.#.c u u y U I x b ",
"<.p.j.r.r.x.Z.c.x.z. .~ p w r G x T *.K ) J p L U *.5.^ ^ =.=.i.b.b.k.v.B.$.P ( ^ l p y < = > < 9 < 9 x O.+.b c #.#.:.5.$.=.3.$.",
"x.p.} ~ { ' 2.~ $.3.W k u e U ) K U K #.) K T U $.1.^ ! | j.D.v.$.u #.=.! K P #.#.b H I z l z b y u b x x l w j #.3.b h B %.6.6.",
"j.C.V.F.F.F.h.p.,.W h ( *.*.( ^ v U ( U ^ 1.{ ,.=.! ( 1.5.,.d e x b v U T U ;.*.U I y y x l x y z z y y 9 P 8.;.r 9 p c J Y p v ",
"a.c.B.M B Q | ,.) =.) ( ^ j c K U ^ j K K ^ k.i.^ U ( T c 9 < < < p c 0 e w r y I 8.9.8.$.+.c x G p p u P 5.3.9.w.$.^ U +.U p 8 ",
"d.] : 5 t ! ! d W W d t K ( c c j < e g e U a a U *.T y 8 y x I *.;.*.#.+.+.G x T I $.8.6.%.5.1.( =.i.v.4.C 0 h C 3.f.3.3.4./ l ",
") k ,.4.=.~ =.) k a K [ #.d e e < e ( =.6.[ p < e u w y y z I +.3.I x y u z G *.=.:.*.,.z.C.s.r.6.F.Z.s.p.N.w.=.$.K v j c K ( [ ",
"l.l.5.J k ) ( a 1 d K S 1 < < t ( =.( ( d ( } P u > = > l l y i < 9 u y J ) p.i.l.p.B.C.v.) Q 1.) ^ d l U 6.b.:.I w u 9 > % > < ",
"Q | ' ,.2.<.,.,.3.w.1.S ^ ( =.q.( ( ^ a 1 1.1.0.w.( } 5.*.I J d / r.g.v.D.D.p.r.| <.p.<.) / U 0 = > y b u g h ) #.g e u > = > u ",
"W _ _ Q k.i.~ ~ K K =.-.5.1.8.) K ,.1.w.H.3.L L f ,.b.j.1.k.n.k.F.F.2.6.y.4.,.{ 1.1.B W ^ / j c J J y 8 0 , a v 3.$.#.#.c c J x ",
"B l.p.<.E : ; e 1 f d J K d f ( 6.,.^ / f e K K ) 4.q.2.] p.h.e.<.{ S A P S L L u e < = + = 8 u 0 y u z u I j g u #.^ U #.#.c y ",
"} Q s = = 0 0 > = = ; t U k S k a , ; ; 9 v 1 e w 0 d 1 = e 1 > 0 0 9 w 5 e y 9 = % # # = < 9 = # = 9 8 y 9 9 9 9 8 u p J #.$.#.",
"f D e e e < > e t k U P J e j < = < j g c > < 1 e 8 < 9 y < 8 9 % # % = % % 8 g p 9 9 p x z w u b e = u c 9 l b 0 > > > 8 0 q b ",
"} S e g 0 < w p p J ^ c e e 0 < 5 e u e = = w 9 0 e u 0 9 > < = = = = # # > 8 % > = > 8 9 < c u e x P #.P y > % > 8 < 8 > % > 0 ",
"f j j k j u p J K c 0 , , > = > 9 > = # # # > < = 0 > % = > = > < p x u w < > > > 8 8 = = > = = = a a > > 9 9 > = > 9 0 e u 8 0 ",
"6.=.U j j K k y e > = 1 % = 1 e < = < < = j 0 = e 9 % 0 y u c p G O.T +.@.G 5 < 8 w y i x i r w 8 + o % = > 9 c J c b u e 0 9 8 ",
"f S U =.9.=.( P u w g e c d 0 > 0 w > < G e < I U I u x e u w y y u y x H L -.1.#.*.=.:.;.;.Y z w < < w 8 9 9 u p c P b c 8 < > ",
"& t K U ^ #.I j 5 e e p x w < u p e t I p w ( 0.#.u p y w w < y J x y x x x ( =.Z k K u e U T @.@.@.T p c g g I v e e < u p c 9 ",
"} { U p e w p T { T L L w J T P *.1.*.[ J #.3.k > > 1 L G p I +.x +.Y y i I 9 % = = = % > 8 U ( ( { { *.*.U J K =.=.$.8.W v W #.",
"1.-.T t j #.>.*.@.1.1.} p.} } v.*.L S R [ *.j = e U $.^ d T { =.+.z c I p 9 > > < 0 l i w y t r < S -.:.U #.e p T j K ( U :.^ e ",
"e 0 p L #.=.( c J K { l.j.) { ! w P 5.=.3.f d v *.*.u 0 P 1.) K p 0 9 e e w p u L J x y G H t j k c < < ( #.e e p c 0 = = = b %.",
"u p G P 5.:.L J ( { N.j.} { D D q.v.} E q ,.w.,.v u ( 1.J d g v ( j g v ^ U #.:.T J z y z < + > c c K [ ( j ^ c e > 1 > = # # , ",
"I J P $.K J S R ~ ! ) ~ ) <.4.y.r.| | 2.r.f.W , = < K U x u 0 0 v $.$.v 1 < 5 K ( u u p p U W ^ g u b g < % > # # + # # % = % # ",
"J U U e < < 5 w 6 ; e S <.D a 1 : 1 a d , + # a t D K t > % # % = 1 3 1 < > > = > J T d h v h 1 = + + + + + # + # % > > > > > > ",
"R r 5 5 < < 0 j v ^ D W V + = ; $ o + 1 < 9 j ( 4.6.{ ; = = 0 0 = + + # = > > ; > ; = < = # o # # # # + # # + % # # > < 8 9 9 e ",
"! ^ { ! k ( 3.1.W k 1 ; + = = = + = h k w p J e - - = $ = 0 > = = = + $ # o $ = + # + + + # = = > - # + + + O % % # % 0 g 8 > 0 ",
"V Q ` Z k v f 3 , # + + # > ; , 0 0 , 1 = < = & # o O + = # + # + & # + # + + + + + # + # + = + + + # + O # # # % 9 > = > % % # ",
"  X X X X O X + # o + # > < = > = + + $ - & o & + o # + # + # + = # # + + + + + + + & # + = + + # # + % = # + % # % % 9 8 > > < ",
"o + + o + 1 0 = # $ = = , > = # o # # # + o o + + % # # + # + # & = + = = = = + + # + + + + + + O % = > = > > = % % % % % > % 0 ",
"o + + $ = ; > > < 6 1 : ; , # O = , + + + + o = = # # # # + # = = = + = = # # + + + O + + + + + # # = = 8 > > > > = > = # % O O ",
"@ + = & = & = 1 a d p t , # + = 0 = # + # # # = # O # O O # = = + # # # + + + + # # = # + # % % % = % = > > > < 9 9 9 0 u = % % ",
"= = + & + = ; = + < t = = ; ; , = + + # # = 1 $ O # # O + o + # + + + + + + o & = > < > 9 9 = = > 9 9 = < e u y 8 8 % # 0 0 e > ",
"+ @ + 1 = = = O O , + 1 k e 1 & = = # = > 0 > + $ O + + # # = + # + + # = > < < y p w y y i z y u y i y u c p > > > % % O # # = ",
"= = 5 ; = + + = h 1 1 d 6 1 = < > & > , 9 = O # + + # + # # + # % # % = > < r J j > = > > < y y 9 9 8 u > # # # % = # % % # # = ",
"5 t t e = = > 6 ; ; k > = 1 e > = = = > = = + # = = = + o # > = # % > 9 w 9 9 = + # + # # = % % = % = + # + # + % = 0 = % # # % ",
"1 3 # o = = ; > 1 t ; = a ; a 5 > = = = + # & + # # = = > e 6 5 9 9 9 9 > > > # O + # # = > = # % % # # + + = > # % > 0 y u y y ",
", O O # 1 d t K K 1 a K 1 = + > w 5 w ; > > 5 y r i r t r p e 9 9 y 9 < y 9 % % = % = % = > < > # # # O + + = > < # # # < p u x ",
", $ a S P U k [ W ^ ! 1 + + + & > > > > > 9 j p r r w w p p 9 < 9 9 y p y w p e < e 9 < 8 > > = = % % % = = + = < > = = = > 8 > ",
"> k ^ J S 5 S d a f = = + = e a = = < e w w < > > < 0 y < > > 9 e p e < < U c y y u u w > % % = 8 < > # = = = % = e p g e % # # ",
"L L c j t S P f f = = e e j U p i L K U A e t < w w < > < y p j 9 8 > e c < = < < e e > > > = = = 8 9 9 = < < > 0 9 < 8 u g 8 % ",
"J v d d S 6 d a = 1 e < S K < t J P ( P P ! D t S P j K p J J y 9 u p e = = > = p < = < > < w < > > < < 9 # + # % , h g u e u 0 ",
"< ; 1 < & t f 3 7 a ; w S S ! 1.{ P [ K ~ ,.) ^ S K k J P J S S U K U j v g e v v J A r p p u w u u u < w e # % , > % $ > % , 0 ",
"O o X + , 1 @ @ o < c K ! ~ M 4 M E M k f 4 q f B 1 = ; 1 a d K D d d f c v 0 a > e v e p c w u l e 0 < < > 0 a 0 # O + # $ # + ",
"O + = > , O X X & 1 0 < : 3 4 N m 4 @ @ : 2 4 o $ + & = # + # + = > = = < > 0 < = # % < > 9 u < 0 0 0 < = # < u y 1 , % = , , = ",
"+ - s s - O = , ; = o O @ 2 4 n $ @ @ @ o X O O X O + + # , 3 > = e a e e # = > 1 1 0 h v ( v $ + + # # # 0 g # o - , + O + O = ",
"; C d ; = 1 1 ; O X O @ @ o o   o 2 @ X O o O o + $ + o + + = o # + o O O + $ # = , ; 1 , + = = # + o = 1 3 $ X X X   O + + + = ",
"W 3 ; D f e ; = ; = 1 - o o X * O 2 X X o o X o o & ; O o o o o @ O + O O O + # = + + $ = @ o 1 0 q a 0 , O . O O O X O $ % $ + ",
"- o ; & & + + 1 t s 6 = & : * & * @ X o + + & @ o + o @ @ o o O O O O O O O O O + o o o - 7 1 = a d > X X X . O X X X X O O X X ",
"  o & & o o X 2 & X X X X @ @ * 4 o X o 3 : : : o & + * @ o X X X X X X o X X X o X o @ o * & o * o X o O X X X X X . X X   X O ",
"    &       @ - O o X * * X o X O o X X - +   o   X X   o X o X @ o X o o X @ * X o o o & o * * : o & @ O o O $ $ O X X .   X O "
};
