/* XPM */
static char *water[] = {
/* columns rows colors chars-per-pixel */
"64 44 99 2 ",
"   c #043356",
".  c #06365B",
"X  c #06385F",
"o  c #073C62",
"O  c #0A3C63",
"+  c #064166",
"@  c #084266",
"#  c #06446A",
"$  c #09446A",
"%  c #06496D",
"&  c #09496E",
"*  c #12496F",
"=  c #064C72",
"-  c #0A4D73",
";  c #094F79",
":  c #144A70",
">  c #065176",
",  c #0B5177",
"<  c #06557C",
"1  c #0B547B",
"2  c #065A7E",
"3  c #0B597E",
"4  c #145277",
"5  c #11537A",
"6  c #11597F",
"7  c #0A5580",
"8  c #065C83",
"9  c #0A5C83",
"0  c #075D88",
"q  c #0B5E8A",
"w  c #135C83",
"e  c #1A5C83",
"r  c #105F8F",
"t  c #076186",
"y  c #0C6286",
"u  c #06648B",
"i  c #0A648B",
"p  c #05688E",
"a  c #0C698E",
"s  c #116287",
"d  c #1B6086",
"f  c #14658B",
"g  c #1B648A",
"h  c #12698D",
"j  c #1C698F",
"k  c #046790",
"l  c #0C6691",
"z  c #056B93",
"x  c #0B6C93",
"c  c #056E98",
"v  c #0B6F98",
"b  c #146D91",
"n  c #1D6E93",
"m  c #146F99",
"M  c #067096",
"N  c #0C7197",
"B  c #0B729B",
"V  c #147295",
"C  c #1A7094",
"Z  c #137499",
"A  c #1D7499",
"S  c #226086",
"D  c #22658A",
"F  c #26698E",
"G  c #246D93",
"H  c #2A6C92",
"J  c #306F95",
"K  c #217296",
"L  c #2E7197",
"P  c #22759A",
"I  c #2B7499",
"U  c #24789E",
"Y  c #2D799E",
"T  c #33749B",
"R  c #3B769A",
"E  c #367B9E",
"W  c #3B7A9E",
"Q  c #2E79A0",
"!  c #347CA3",
"~  c #3E7BA0",
"^  c #447C9E",
"/  c #447DA1",
"(  c #2E81A3",
")  c #3C85AA",
"_  c #3F8BB1",
"`  c #4382A5",
"'  c #4482A9",
"]  c #438AAC",
"[  c #498AAD",
"{  c #5485A6",
"}  c #578CAF",
"|  c #5B8BAC",
" . c #458DB1",
".. c #528EB1",
"X. c #5F90B0",
"o. c #7195AF",
"O. c #6992B0",
"+. c #6498B9",
"@. c #7D9DB8",
/* pixels */
"* * : : $ $ O O O O O O $ $ @ @ X X @ @ % % & & % % @ @ % % ; ; ; ; ; ; 1 1 1 1 ; ; ; ; 9 9 w w r r ; ; i i 7 7 a a l l k k l l ",
"* * : : $ $ O O O O O O $ $ @ @ X X @ @ % % & & % % @ @ % % ; ; ; ; ; ; 1 1 1 1 ; ; ; ; 9 9 w w r r ; ; i i 7 7 a a l l k k l l ",
"$ $ * * O O o o $ $ $ $ O O $ $ $ $ X X % % & & @ @ $ $ + + % % % % % % - - ; ; # # = = 7 7 7 7 q q = = 7 7 9 9 q q i i x x l l ",
"$ $ * * O O o o $ $ $ $ O O $ $ $ $ X X % % & & @ @ $ $ + + % % % % % % - - ; ; # # = = 7 7 7 7 q q = = 7 7 9 9 q q i i x x l l ",
": : O O o o     . . $ $ O O O O & & @ @ X X + + & & + + o o + + > > # # ; ; > > o o % % 7 7 > > 7 7 9 9 7 7 1 1 8 8 l l l l c c ",
": : O O o o     . . $ $ O O O O & & @ @ X X + + & & + + o o + + > > # # ; ; > > o o % % 7 7 > > 7 7 9 9 7 7 1 1 8 8 l l l l c c ",
"X X $ $ X X     X X o o o o $ $ o o + + @ @ + + % % + + + + % % % % # # 1 1 = = 8 8 = = > > = = 0 0 7 7 < < 8 8 9 9 8 8 q q v v ",
"X X $ $ X X     X X o o o o $ $ o o + + @ @ + + % % + + + + % % % % # # 1 1 = = 8 8 = = > > = = 0 0 7 7 < < 8 8 9 9 8 8 q q v v ",
"X X - - o o X X O O o o $ $ o o O O o o % % @ @ % % & & # # % % = = = = % % > > 0 0 7 7 = = = = 8 8 1 1 2 2 0 0 9 9 q q k k i i ",
"X X - - o o X X O O o o $ $ o o O O o o % % @ @ % % & & # # % % = = = = % % > > 0 0 7 7 = = = = 8 8 1 1 2 2 0 0 9 9 q q k k i i ",
". . $ $ o o $ $ $ $ # # o o O O % % - - 1 1 % % % % % % & & = = + + = = = = - - 8 8 8 8 > > < < < < 0 0 < < 0 0 0 0 x x t t 0 0 ",
". . $ $ o o $ $ $ $ # # o o O O % % - - 1 1 % % % % % % & & = = + + = = = = - - 8 8 8 8 > > < < < < 0 0 < < 0 0 0 0 x x t t 0 0 ",
"    X X $ $ & & & & - - % % o o & & 3 3 3 3 % % & & % % = = > > = = < < 7 7 < < 8 8 < < > > 8 8 < < > > 8 8 8 8 q q l l u u k k ",
"    X X $ $ & & & & - - % % o o & & 3 3 3 3 % % & & % % = = > > = = < < 7 7 < < 8 8 < < > > 8 8 < < > > 8 8 8 8 q q l l u u k k ",
"$ $ O O $ $ O O $ $ % % - - 7 7 2 2 = = & & & & > > = = % % < < 8 8 < < 8 8 < < ; ; 8 8 < < 8 8 = = < < 8 8 7 7 i i q q v v z z ",
"$ $ O O $ $ O O $ $ % % - - 7 7 2 2 = = & & & & > > = = % % < < 8 8 < < 8 8 < < ; ; 8 8 < < 8 8 = = < < 8 8 7 7 i i q q v v z z ",
"& & & & - - 4 4 - - 1 1 1 1 w w - - & & - - & & @ @ % % 1 1 2 2 2 2 8 8 < < < < > > 8 8 2 2 > > < < 8 8 0 0 < < k k l l 0 0 k k ",
"& & & & - - 4 4 - - 1 1 1 1 w w - - & & - - & & @ @ % % 1 1 2 2 2 2 8 8 < < < < > > 8 8 2 2 > > < < 8 8 0 0 < < k k l l 0 0 k k ",
"4 4 , , - - 5 5 4 4 - - - - 1 1 < < > > > > y y 1 1 , , > > > > 2 2 2 2 2 2 2 2 < < > > 8 8 2 2 < < < < 8 8 < < m m 0 0 7 7 k k ",
"4 4 , , - - 5 5 4 4 - - - - 1 1 < < > > > > y y 1 1 , , > > > > 2 2 2 2 2 2 2 2 < < > > 8 8 2 2 < < < < 8 8 < < m m 0 0 7 7 k k ",
"e e 1 1 1 1 D D 1 1 e e 6 6 3 3 & & > > 3 3 9 9 9 9 y y y y 2 2 8 8 2 2 < < % % < < 8 8 u u 2 2 < < 8 8 0 0 u u l l 9 9 u u c c ",
"e e 1 1 1 1 D D 1 1 e e 6 6 3 3 & & > > 3 3 9 9 9 9 y y y y 2 2 8 8 2 2 < < % % < < 8 8 u u 2 2 < < 8 8 0 0 u u l l 9 9 u u c c ",
"d d w w 1 1 5 5 6 6 s s s s f f w w 1 1 3 3 9 9 h h s s y y f f 2 2 2 2 2 2 8 8 8 8 t t 2 2 < < u u 0 0 0 0 u u 8 8 u u k k z z ",
"d d w w 1 1 5 5 6 6 s s s s f f w w 1 1 3 3 9 9 h h s s y y f f 2 2 2 2 2 2 8 8 8 8 t t 2 2 < < u u 0 0 0 0 u u 8 8 u u k k z z ",
"w w w w j j G G e e 7 7 w w w w I I 3 3 9 9 9 9 i i s s y y h h y y < < 2 2 2 2 2 2 2 2 t t p p u u 2 2 u u u u p p k k M M u u ",
"w w w w j j G G e e 7 7 w w w w I I 3 3 9 9 9 9 i i s s y y h h y y < < 2 2 2 2 2 2 2 2 t t p p u u 2 2 u u u u p p k k M M u u ",
"e e 6 6 7 7 L L T T g g s s s s T T C C h h w w 6 6 y y a a i i t t u u y y a a y y i i u u u u t t 8 8 t t u u k k p p p p z z ",
"e e 6 6 7 7 L L T T g g s s s s T T C C h h w w 6 6 y y a a i i t t u u y y a a y y i i u u u u t t 8 8 t t u u k k p p p p z z ",
"D D H H e e e e ' ' T T 9 9 g g L L j j h h j j C C h h h h a a V V b b y y t t a a u u u u 8 8 2 2 p p p p p p p p u u M M M M ",
"D D H H e e e e ' ' T T 9 9 g g L L j j h h j j C C h h h h a a V V b b y y t t a a u u u u 8 8 2 2 p p p p p p p p u u M M M M ",
"H H T T F F g g w w H H I I s s D D K K f f U U P P f f j j ( ( h h 3 3 u u y y i i u u u u a a p p z z 8 8 t t z z k k M M N N ",
"H H T T F F g g w w H H I I s s D D K K f f U U P P f f j j ( ( h h 3 3 u u y y i i u u u u a a p p z z 8 8 t t z z k k M M N N ",
"T T G G S S D D e e J J w w g g j j I I E E s s n n h h i i h h a a a a h h p p p p V V p p ( ( 2 2 M M 2 2 M M M M p p M M M M ",
"T T G G S S D D e e J J w w g g j j I I E E s s n n h h i i h h a a a a h h p p p p V V p p ( ( 2 2 M M 2 2 M M M M p p M M M M ",
"T T R R e e H H / / / / ~ ~ ' ' K K G G [ [ E E h h K K 9 9 h h A A h h h h a a M M ( ( 2 2 2 2 ( ( 2 2 2 2 2 2 p p M M M M M M ",
"T T R R e e H H / / / / ~ ~ ' ' K K G G [ [ E E h h K K 9 9 h h A A h h h h a a M M ( ( 2 2 2 2 ( ( 2 2 2 2 2 2 p p M M M M M M ",
"^ ^ / / / / W W ~ ~ ! ! ! ! L L H H I I g g ) ) K K n n A A V V V V Z Z x x a a p p 2 2 a a a a 2 2 p p 2 2 ( ( c c c c M M M M ",
"^ ^ / / / / W W ~ ~ ! ! ! ! L L H H I I g g ) ) K K n n A A V V V V Z Z x x a a p p 2 2 a a a a 2 2 p p 2 2 ( ( c c c c M M M M ",
"{ { O.O.^ ^ { { X.X.H H L L G G L L ] ] [ [ U U I I ! ! A A Q Q h h a a t t a a 2 2 M M ( ( N N p p p p ( ( p p M M M M M M z z ",
"{ { O.O.^ ^ { { X.X.H H L L G G L L ] ] [ [ U U I I ! ! A A Q Q h h a a t t a a 2 2 M M ( ( N N p p p p ( ( p p M M M M M M z z ",
"O.O.o.o./ / X.X.| | R R ) ) G G Y Y ....+.+.] ] Y Y Y Y U U A A ( ( K K 2 2 p p V V Z Z p p p p N N N N p p p p c c B B x x c c ",
"O.O.o.o./ / X.X.| | R R ) ) G G Y Y ....+.+.] ] Y Y Y Y U U A A ( ( K K 2 2 p p V V Z Z p p p p N N N N p p p p c c B B x x c c ",
"X.X.@.@.| | ~ ~ } } T T ` ` ` ` [ [ Y Y ! ! _ _ _ _  . .] ] C C ] ] b b a a 2 2 a a x x ( ( p p Z Z N N u u p p z z z z z z M M ",
"X.X.@.@.| | ~ ~ } } T T ` ` ` ` [ [ Y Y ! ! _ _ _ _  . .] ] C C ] ] b b a a 2 2 a a x x ( ( p p Z Z N N u u p p z z z z z z M M "
};
