/* XPM */
static char *exit[] = {
/* columns rows colors chars-per-pixel */
"32 32 226 2 ",
"   c #182A2E",
".  c #163736",
"X  c #0B2C34",
"o  c #363734",
"O  c #4C3D3C",
"+  c #6E2E37",
"@  c #3B4034",
"#  c #584837",
"$  c #113543",
"%  c #283C45",
"&  c #55364B",
"*  c #66394B",
"=  c #633757",
"-  c #74344F",
";  c #3F4342",
":  c #255169",
">  c #594A4D",
",  c #75404C",
"<  c #64445D",
"1  c #73465C",
"2  c #6C5659",
"3  c #775457",
"4  c #4B566C",
"5  c #6A4D6B",
"6  c #7C5A6B",
"7  c #765864",
"8  c #695A76",
"9  c #78506B",
"0  c #54647B",
"q  c #696578",
"w  c #7A6777",
"e  c #796B75",
"r  c #873434",
"t  c #9B563E",
"y  c #8E4238",
"u  c #A75535",
"i  c #BA6B3E",
"p  c #872649",
"a  c #983855",
"s  c #964E47",
"d  c #824954",
"f  c #875655",
"g  c #945654",
"h  c #924B51",
"j  c #A65D4A",
"k  c #9C645B",
"l  c #9F6049",
"z  c #B56A47",
"x  c #A7755F",
"c  c #B67250",
"v  c #845C69",
"b  c #905C68",
"n  c #8C5270",
"m  c #87656B",
"M  c #816F79",
"N  c #9A747F",
"B  c #916E6D",
"V  c #A56C64",
"C  c #A1746B",
"Z  c #B47A64",
"A  c #A87872",
"S  c #C57741",
"D  c #C37F60",
"F  c #F5C53E",
"G  c #BA8368",
"H  c #AD8577",
"J  c #BA8976",
"K  c #B19E7C",
"L  c #D38E49",
"P  c #D18B51",
"I  c #E29C46",
"U  c #E4A04A",
"Y  c #E1B779",
"T  c #E7A761",
"R  c #CC8F7C",
"E  c #F0C679",
"W  c #F7E179",
"Q  c #4B708F",
"!  c #706B87",
"~  c #717A91",
"^  c #587EA0",
"/  c #856A89",
"(  c #916E88",
")  c #967486",
"_  c #897998",
"`  c #937995",
"'  c #8E718B",
"]  c #897BA6",
"[  c #7B899B",
"{  c #5D8FB4",
"}  c #5E93B9",
"|  c #7989AA",
" . c #6495BB",
".. c #6696BC",
"X. c #7997B8",
"o. c #5B9BCB",
"O. c #669CC3",
"+. c #6A9CC4",
"@. c #649DCB",
"#. c #6A9FC9",
"$. c #739CC3",
"%. c #759EC6",
"&. c #679FD2",
"*. c #6CA1CB",
"=. c #73A2CC",
"-. c #7AA3CB",
";. c #6DA3D3",
":. c #73A5D3",
">. c #7BA6D1",
",. c #7BAAD4",
"<. c #72A6D9",
"1. c #74AADC",
"2. c #7DABDB",
"3. c #74AAD5",
"4. c #7EB0DF",
"5. c #6FADE5",
"6. c #73ACE2",
"7. c #7AACE4",
"8. c #79B2E9",
"9. c #7BB8F0",
"0. c #998686",
"q. c #868494",
"w. c #928796",
"e. c #A5888A",
"r. c #B68D86",
"t. c #B69286",
"y. c #AA9797",
"u. c #B59996",
"i. c #A98993",
"p. c #B7AA9E",
"a. c #8786A8",
"s. c #9888AB",
"d. c #8792A5",
"f. c #9996A4",
"g. c #938FBA",
"h. c #8899BA",
"j. c #8F93B5",
"k. c #A49BA4",
"l. c #9BA3AE",
"z. c #AAA7AC",
"x. c #B6A5A6",
"c. c #A8AAB5",
"v. c #BBB7B8",
"b. c #C99882",
"n. c #D8A887",
"m. c #C9A894",
"M. c #ECBD96",
"N. c #D0ADA7",
"B. c #E6ADAA",
"V. c #F1C784",
"C. c #EECF8C",
"Z. c #C7C3BC",
"A. c #D6C4BD",
"S. c #F3CCA7",
"D. c #F7D6A8",
"F. c #E4CABC",
"G. c #E8CDBD",
"H. c #ECD0BC",
"J. c #F4D4BD",
"K. c #F9DAB5",
"L. c #EAC8A4",
"P. c #FAE7B9",
"I. c #F8EBA5",
"U. c #8B98C4",
"Y. c #9A9EC3",
"T. c #82A2C9",
"R. c #82ADDA",
"E. c #86A8D4",
"W. c #8BB2DD",
"Q. c #88B3DC",
"!. c #94AFD9",
"~. c #BBB8C3",
"^. c #A3B5CC",
"/. c #8BB4E2",
"(. c #8EB9E4",
"). c #81B6EA",
"_. c #83BAEC",
"`. c #8BBCED",
"'. c #87B6E6",
"]. c #91B6E3",
"[. c #93B9E4",
"{. c #94BEEC",
"}. c #9BBCEA",
"|. c #89BDF0",
" X c #93BFF1",
".X c #85AFE1",
"XX c #A8BEE3",
"oX c #8BC1EE",
"OX c #93C1ED",
"+X c #9BC1EC",
"@X c #8DC1F0",
"#X c #94C2F2",
"$X c #99C4F3",
"%X c #A4C4EE",
"&X c #ACC7EA",
"*X c #B7CBE7",
"=X c #A8C9F3",
"-X c #B3CEF0",
";X c #B4D3F7",
":X c #C7C5C4",
">X c #D8CBC6",
",X c #CED0D7",
"<X c #E3CCC2",
"1X c #EDD2C3",
"2X c #F5D9C4",
"3X c #F5DACB",
"4X c #F3D6C2",
"5X c #E7DAD8",
"6X c #F4DED3",
"7X c #F7E7C6",
"8X c #FBF4C9",
"9X c #EDE1DB",
"0X c #F6E6D8",
"qX c #FBF6D2",
"wX c #C6D8F5",
"eX c #D3DDF3",
"rX c #D2D9EB",
"tX c #DBE2F4",
"yX c #E9E5EA",
"uX c #F4EBE6",
"iX c #FBF7E8",
"pX c #ECEBF6",
"aX c #F3ECF3",
"sX c #FDFCF4",
"dX c #FEFDFA",
"fX c #F5F1F5",
/* pixels */
"@.;.<.<.<.<.2.2.7.6.5.6.5.5.6.7.5.6.6.5._._.9.9.8.8.).).).).).).",
"o.@.&.&.:.<.<.6.7.6.6.7.'..X`.]..X8.8.).}.=X=X X9.|._.)._._._._.",
"o.@.&.;.<.<.<.2.R.'.].[.].[.}.>.U./.{.}.%X=X%X&X`.)._._._._._._.",
"o.o.&.;.<.<.R..XW.[.{.(.'./.[.h.h.{.}.}.}.XX^.9XpX-X_._.`._._.|.",
"@.@.;.>.,.E..XR.W.].]./.W.W.`.~ [ %X}.XXOX+X[.%X*XyXwX&X&X$X`.|.",
"#.#.=.>.R.R.Q..XW.].].[.[.[.W.[ [ h.{.+X{.+X[.+X X`.%X&X&XyX=XoX",
":.=.>.-.,.R.R.Q.W.W././.oX[.>.[ l.*X(.}.(.{.]. X X|._.|.@X-X;X$X",
"#.=.=.:.>.>.3.2.4.2.E.] a.! X.[ l.q.s.a.!. X[. X X#X$X#X@X#X$X=X",
"=.=.*.*.;.;.<.1.2.U.a.%./ a n | c.8 ` E.U.Y.[.{.@X$X$X#X#X$X$X$X",
"=.=.=.=.;.;.<.3.1.a.| j.! - 5 _ c.[ a.Y.U.g.`. X#X#X X#X#X#X$X=X",
"*.*.*.*.*.<.;.<.<.] a ! n - < d.f.s.] n n s.[.{.`.{.#XOX@X#X;XeX",
"*.*.*.*.;.;.<.3.<._ p - - - < d.c.f.v n h ] ].`.OXOX{.{.$X;XwXtX",
"O.*.*.*.;.:.:.3.7.] 9 5 = - 8 d.z.~.8 x.` k.!./.(.OXOXOX=X;XeXeX",
"@.O.#.*.*.*.:.3.>./ 9 = 5 x.z.| f.,X7 6 q ` a.}.OX+XOX+X;XwXeXtX",
"O.O.*.@.*.*.:.3.2./ 1 i.u.y.M d.k.>X= & & - 1 [ +X+X-XwXtXtXpXpX",
"O.@.O.*.*.:.:.,.E.( 9 u.m.y.e d.k.5X6 & > m - h.+X*XrXyXuXaXpXfX",
"O.O.O.+.*.=.:.3.,./ , u.p.u.e d.z.5X6 * * w 5 g.XX,X9X9X9X0XuXaX",
"O.*.O.*.*.=.:.,.3./ 3 e.N.p.e q.k.5Xd + + , - N XX>X>X1X6X9X0XuX",
"O.O.+.*.=.=.=.,.R.( d f 3 g 2 f.p.yXe.y h 7 v Y.v.:XG.1X3X6X0X0X",
"O.O.+.+.=.=.-.,.R.( 6 d , y v q.e.9Xt.r s r M f.l.Z.<X1X4X3X3X3X",
"O.*.O.O.*.-.-.,.R.) w w M g v ~ A >Xr.s h 6 _ z.~.Z.A.<XG.4X3X2X",
"O. .O.O.$.*.-.T.R.) 6 w v l m e A N.k B s 6 w.c.z.v.>XF.1X4X2X2X",
"..O.O.+.*.-.-.T.E.) b v g l M ) R x.Z g h m f.yX:X>X>XF.F.H.1X4X",
" ...+.+.*.$.-.E.T.` b m B t e.m.M.B.b.A C B e.fXaX5XF.F.F.G.H.F.",
"}  .O...$.$.-.-.E.N g ( A j y.t.N.B.b.r.J C e.sXuX6XG.G.J.J.2XF.",
"{  . . ...$.$.T.E.V t A c z m.7XP.M.B.Z z A H dXiX0X3X2XJ.J.J.H.",
"{ { { { ....$.U.h.k u x z P iXqXiXiXL.M.D V H dXsXiXqX7XK.J.D.S.",
"^ Q ^ { Q 0 ! X.[ t u G U D.sXdXdXsX2Xn.Z G K sXsXiXiX7XK.J.K.S.",
": : : Q 4 4 0 4 2 u z x L C.sXsXsXdXP.n.G G G uXfXiXiX8XP.D.D.S.",
"$ . . @ ; ; > 2 3 u z J I W qXI.P.8XV.T L H H Y Y iX9XiX8XP.D.S.",
"X X       . o O # u x H L E D.I.P.8XE S c B k K F tXfXiXqX8XP.D.",
". X . . o @ @ O 2 3 e H l i V.V.C.M.Y G H K e H p.9X9XuX0X7XD.S."
};
