/* XPM */
static char *wall[] = {
/* columns rows colors chars-per-pixel */
"32 32 201 2 ",
"   c #110E0B",
".  c #17130E",
"X  c #161410",
"o  c #1A1712",
"O  c #1D1A15",
"+  c #231D13",
"@  c #211E19",
"#  c #25211C",
"$  c #2C251C",
"%  c #2F281F",
"&  c #3B2F1E",
"*  c #272521",
"=  c #2A2621",
"-  c #2D2924",
";  c #2C2C29",
":  c #322C24",
">  c #332F28",
",  c #373026",
"<  c #3A3226",
"1  c #33312C",
"2  c #3D352C",
"3  c #3C392D",
"4  c #3C3934",
"5  c #343931",
"6  c #43392C",
"7  c #41372A",
"8  c #433C33",
"9  c #3F433B",
"0  c #4B4235",
"q  c #44413A",
"w  c #4C453B",
"e  c #4E483B",
"r  c #504739",
"t  c #534B3C",
"y  c #584D3F",
"u  c #4B4A41",
"i  c #534C42",
"p  c #524E48",
"a  c #565146",
"s  c #5B5245",
"d  c #555149",
"f  c #5B554B",
"g  c #5E594E",
"h  c #585651",
"j  c #5E5951",
"k  c #605748",
"l  c #655C4D",
"z  c #665B4B",
"x  c #645D52",
"c  c #655E54",
"v  c #6C604E",
"b  c #656056",
"n  c #6C6354",
"m  c #63615B",
"M  c #6A645B",
"N  c #6A685F",
"B  c #716555",
"V  c #726A5C",
"C  c #7A6E5B",
"Z  c #736A57",
"A  c #7B705F",
"S  c #5F6160",
"D  c #636460",
"F  c #6D6B63",
"G  c #696962",
"H  c #746D65",
"J  c #786F60",
"K  c #777061",
"L  c #7B7365",
"P  c #767269",
"I  c #7B756B",
"U  c #7F786C",
"Y  c #7C7972",
"T  c #767775",
"R  c #847B6C",
"E  c #8A7E6D",
"W  c #827768",
"Q  c #907E67",
"!  c #837D73",
"~  c #887F73",
"^  c #847F79",
"/  c #7D807C",
"(  c #8E826F",
")  c #94836C",
"_  c #838076",
"`  c #8B8374",
"'  c #83827C",
"]  c #8D867B",
"[  c #8F8878",
"{  c #928572",
"}  c #948975",
"|  c #998A75",
" . c #948B7C",
".. c #9B8D7B",
"X. c #90867E",
"o. c #9C917D",
"O. c #A08F7B",
"+. c #A2937E",
"@. c #8C8B84",
"#. c #898985",
"$. c #948D82",
"%. c #978F86",
"&. c #9C9384",
"*. c #9F9887",
"=. c #96948C",
"-. c #9B958A",
";. c #9E988A",
":. c #979285",
">. c #969692",
",. c #999790",
"<. c #9D9A94",
"1. c #9D9D99",
"2. c #A29684",
"3. c #A89780",
"4. c #A49985",
"5. c #AB9B85",
"6. c #A39A8C",
"7. c #AA9C8A",
"8. c #A29688",
"9. c #B09E8F",
"0. c #A49D93",
"q. c #AB9F92",
"w. c #A29E99",
"e. c #A09791",
"r. c #AEA18D",
"t. c #B0A18C",
"y. c #A6A194",
"u. c #ACA394",
"i. c #A4A19B",
"p. c #ABA59B",
"a. c #ADA89D",
"s. c #B2A592",
"d. c #BAAC95",
"f. c #B4AB9C",
"g. c #BAAD9B",
"h. c #B0A896",
"j. c #BEB29D",
"k. c #9EA3A4",
"l. c #A5A5A1",
"z. c #A9A7A3",
"x. c #ADA9A3",
"c. c #B2ACA3",
"v. c #B9AFA2",
"b. c #B6B0A4",
"n. c #BBB2A3",
"m. c #B4B2AC",
"M. c #BBB5AB",
"N. c #BEB8AC",
"B. c #BAB6B0",
"V. c #BDBAB3",
"C. c #B3B4B1",
"Z. c #C1B198",
"A. c #C1B5A4",
"S. c #C7B8A0",
"D. c #C9B9A6",
"F. c #C0B7A8",
"G. c #C3BAAB",
"H. c #CBBEAB",
"J. c #C2BDB3",
"K. c #C2BEB9",
"L. c #C9BEB1",
"P. c #CDC1AD",
"I. c #C6C0B5",
"U. c #CAC2B4",
"Y. c #C6C3BC",
"T. c #CAC5BC",
"R. c #CEC8BE",
"E. c #D2C4B1",
"W. c #D4C8B5",
"Q. c #DBCBB4",
"!. c #D5CABA",
"~. c #D9CEBD",
"^. c #DDD1BD",
"/. c #E4D4BE",
"(. c #B9BEC1",
"). c #BFC0C1",
"_. c #C4C6C3",
"`. c #CDCBC3",
"'. c #CBC9C5",
"]. c #D2CDC2",
"[. c #D9CFC0",
"{. c #DBD2C5",
"}. c #D5D1C9",
"|. c #D8D3CA",
" X c #D6D0C5",
".X c #D6D5D3",
"XX c #DCD9D3",
"oX c #DAD6D2",
"OX c #E2D5C3",
"+X c #E4D9C6",
"@X c #EADAC3",
"#X c #E3DACB",
"$X c #EBDDC9",
"%X c #E5DDD2",
"&X c #E6DED5",
"*X c #E5E1DB",
"=X c #EAE3D7",
"-X c #EBE7E0",
";X c #EDE9E2",
":X c #E6E4E0",
">X c #F0EDE9",
/* pixels */
"4 1 ; - * = ; 9 5 u S c m f q = _ R } u.p.` I.o.y.0.1.1.k.>.z.V.",
"m / m G 1.C.C.l.[ / / y.x.] K ! R ! ` &.=.p.y.{ ( ` [ n ,.*.^.XX",
"4 j p j  .&.o.6.h.a.a. .V R ` s v A [ U N N b.r.r.C 0 ( ~.P.{.~.",
"I <.M.u.s.o.) 5.:.b.[ ` M R Q.d.i z x t e t r C `  .A d.Z.P.R.M.",
"u.B z C | ..W 3.U ` *.A M I Z.n.m < 3 3 < a # & 7 7 & 5.s.*.g.` ",
"l Z 0 v { :.i.m.i.=.b B y.}.u.I F i $ # # # U 6 + o f s.r.*.o.a ",
"n.U.g._ a._.).k._ / N d R.f.;.:.T / 9 @   0 j.u.y 6 5.r.*.;.N a ",
"L ;.h.J.`.).k.#.@.' ' T 0.I.I.T.c.S q @ 0 l y.n...{ *.( l l v t ",
"6.P V.@.z.C.] :.1.i.P G ;.4.&.b.n.n % @ s E J } +.A a t t y a v ",
"6.F m.i.#.=.P I f.N.c L o.{ n o.n.a.X   W u.0 8 z < % o o # e Z ",
"5 F m.=.>.#.! q.u.v.B.2.+._ v Z g.N.W U {.{.U.u $ v C 0 q h / 3.",
"= b.m.1.>.-.f.&.:.v.f.{ +.a y z [ G.7.n.U.W.W.n.v ) +.r.j.5.h.+.",
"/ f.M.,.*.4.} 8.7.f.G.` } w y f s :.&.D.'.I.G.W.s.Q ) | +.t.O.d.",
"n.;.[ u.7.:.*.6.u.n...n l : 0 0 6 C U.[.].I.U.U.~.j.| ) ..+.t.d.",
"u.=.o.r.7.u.v.f.n.W i 7 @ = - $ ` G.Q.~.d.o.g.A.G.W.E.E A A | } ",
"o.;.j.t.g.G.g.u. .0 - o p i.H H F.G.U.W.I.u.J.N.f.G.W.t.r k R v ",
"v K A.t.g.s.s.-.w O 1 x._.M.! -.v.F.G.T.N.N.y.T.2.h.d.H.i 8 8 s ",
"0 i H.g.A.f.` 4 G i.Y.M.a.q.$.6.v.J.u.v.u.} f.].y...2.7.r - $ 7 ",
"$ > L.g.M.c = ] i.>.l.z.:.y.8.-.u.c.F.J.I.n.n.c.c.W ( { B : q. X",
"E E H.8.w + q J I #.1.}.^.+XOX@Xj.n.M.G.`.V.b.M.c.+ 1 q c M.&X&X",
"R ] h.r - o f >.}.*X=X%X$X@X@XE.@XQ.V.n.M.'.`. XK.X X = M |.*X>X",
"H %.r @   q .X;X=X=X^.$X@X@X$X@X/./.N.a.g._.*XXXK.# > O 8 w.).(.",
"f.~ 2 @ ; XX=X%X^.$X/./.#X#X+XD.A.d.U.' u.V.XX|.A.8 : O = T C.l.",
"$.H u ! #X#X$X/.@X=X=X+X~.].H.g.s.o.g.N -.v.Y.c.M > #   # q 1.K.",
"E H ' |.^.OXOX$X;X:X=X[.U.L.g.g.9.5.q.h ^ m.v.0.X.O . X . # X.B.",
"W H I.{.!.OX#X#X:X|.]._.M.a.v.v.q.v.7.8 F e.c.%.H O o 7 - + c %.",
"V B ].[.!.OX X*X'.R.V.v.z.V.x.a.{ v.8.@ m ! e.%.M # 7 p w.L p x ",
"B s ].}.!.L.t.u.T.Y.B.w.w.x.x.J.8.p.X.X 8 m ^ R 8 O p e.q.8.%.p ",
"6.6.].R.!.J.p.J.m.C.a.e.x.c.c.K.n.N.V   = w H p X X R X.e.A.v.2.",
"g.c.F.L.D.{..Xz.w.<.w.-.q.z.v.v.J.v.j @ @ > i = @ 4 c M.v.A.A.D.",
"u.q.M.T.K.'.l.=.w.e.w.w.6.p.c.f.J.v.x > - X @ @ : > w c x.Y.D.L.",
"i.2.M.'.G.B.w.@.i.x.x.0.-.V.N.8.m.c.h > 8 - * - > : 8 c M %.g.v."
};
